# MagicaVoxel @ Ephtracy

# material
mtllib racoon.mtl
usemtl palette

# normals
vn -1 0 0
vn 1 0 0
vn 0 0 1
vn 0 0 -1
vn 0 -1 0
vn 0 1 0

# texcoords
vt 0.958984 0.5
vt 0.962891 0.5
vt 0.974609 0.5
vt 0.978516 0.5
vt 0.986328 0.5
vt 0.990234 0.5
vt 0.994141 0.5

# verts
v -5 0 1
v -5 0 -1
v -5 1 1
v -5 1 -1
v -5 2 1
v -5 2 -1
v -5 3 1
v -5 3 -1
v -5 4 1
v -5 4 -1
v -5 5 1
v -5 5 -1
v -4 5 1
v -4 5 -1
v -4 6 1
v -4 6 -1
v -3 0 3
v -3 0 1
v -3 0 -1
v -3 0 -3
v -3 1 3
v -3 1 1
v -3 1 -1
v -3 1 -3
v -3 2 1
v -3 2 -1
v -3 3 1
v -3 3 -1
v -3 4 1
v -3 4 -1
v -3 5 1
v -3 5 -1
v -3 6 3
v -3 6 2
v -3 6 1
v -3 6 -1
v -3 6 -2
v -3 6 -3
v -3 7 2
v -3 7 -2
v -2 6 3
v -2 6 2
v -2 6 -2
v -2 6 -3
v -2 7 3
v -2 7 2
v -2 7 -2
v -2 7 -3
v 2 0 3
v 2 0 1
v 2 0 -1
v 2 0 -3
v 2 1 3
v 2 1 1
v 2 1 -1
v 2 1 -3
v 2 6 4
v 2 6 3
v 2 6 -3
v 2 6 -4
v 2 7 3
v 2 7 2
v 2 7 -2
v 2 7 -3
v 2 8 4
v 2 8 2
v 2 8 -2
v 2 8 -4
v -4 0 1
v -4 0 -1
v -4 1 1
v -4 1 -1
v -1 0 3
v -1 0 1
v -1 0 -1
v -1 0 -3
v -1 1 3
v -1 1 1
v -1 1 -1
v -1 1 -3
v 3 6 4
v 3 6 3
v 3 6 -3
v 3 6 -4
v 3 7 3
v 3 7 2
v 3 7 -2
v 3 7 -3
v 3 8 4
v 3 8 2
v 3 8 -2
v 3 8 -4
v 4 0 3
v 4 0 1
v 4 0 -1
v 4 0 -3
v 4 1 3
v 4 1 1
v 4 1 -1
v 4 1 -3
v 4 2 2
v 4 2 -2
v 4 4 3
v 4 4 2
v 4 4 1
v 4 4 -0
v 4 4 -1
v 4 4 -2
v 4 4 -3
v 4 5 3
v 4 5 2
v 4 5 1
v 4 5 -1
v 4 5 -2
v 4 5 -3
v 4 6 3
v 4 6 2
v 4 6 1
v 4 6 -0
v 4 6 -1
v 4 6 -2
v 4 6 -3
v 4 7 3
v 4 7 1
v 4 7 -1
v 4 7 -3
v 5 2 2
v 5 2 -2
v 5 3 1
v 5 3 -1
v 5 4 2
v 5 4 1
v 5 4 -1
v 5 4 -2
v 2 6 4
v 2 8 4
v 3 6 4
v 3 8 4
v -3 0 3
v -3 1 3
v -3 6 3
v -2 1 3
v -2 4 3
v -2 6 3
v -2 7 3
v -1 0 3
v -1 1 3
v -1 4 3
v -1 6 3
v 0 1 3
v 0 2 3
v 0 6 3
v 0 7 3
v 2 0 3
v 2 1 3
v 2 2 3
v 2 3 3
v 2 4 3
v 2 5 3
v 2 6 3
v 2 7 3
v 3 3 3
v 3 4 3
v 3 5 3
v 3 6 3
v 3 7 3
v 4 0 3
v 4 1 3
v 4 4 3
v 4 5 3
v 4 6 3
v 4 7 3
v -3 6 2
v -3 7 2
v -2 6 2
v -2 7 2
v 4 2 2
v 4 4 2
v 5 2 2
v 5 4 2
v -5 0 1
v -5 1 1
v -5 2 1
v -5 3 1
v -5 4 1
v -5 5 1
v -4 0 1
v -4 1 1
v -4 5 1
v -4 6 1
v -3 1 1
v -3 2 1
v -3 3 1
v -3 4 1
v -3 5 1
v -3 6 1
v -3 0 -1
v -3 1 -1
v -2 1 -1
v -1 0 -1
v -1 1 -1
v 2 0 -1
v 2 1 -1
v 4 0 -1
v 4 1 -1
v 2 7 -2
v 2 8 -2
v 3 7 -2
v 3 8 -2
v 2 7 2
v 2 8 2
v 3 7 2
v 3 8 2
v -3 0 1
v -3 1 1
v -2 1 1
v -1 0 1
v -1 1 1
v 2 0 1
v 2 1 1
v 4 0 1
v 4 1 1
v -5 0 -1
v -5 1 -1
v -5 2 -1
v -5 3 -1
v -5 4 -1
v -5 5 -1
v -4 0 -1
v -4 1 -1
v -4 5 -1
v -4 6 -1
v -3 1 -1
v -3 2 -1
v -3 3 -1
v -3 4 -1
v -3 5 -1
v -3 6 -1
v -3 6 -2
v -3 7 -2
v -2 6 -2
v -2 7 -2
v 4 2 -2
v 4 4 -2
v 5 2 -2
v 5 4 -2
v -3 0 -3
v -3 1 -3
v -3 6 -3
v -2 6 -3
v -2 7 -3
v -1 0 -3
v -1 1 -3
v -1 4 -3
v 0 1 -3
v 0 2 -3
v 0 4 -3
v 0 6 -3
v 1 6 -3
v 1 7 -3
v 2 0 -3
v 2 1 -3
v 2 2 -3
v 2 3 -3
v 2 4 -3
v 2 5 -3
v 2 6 -3
v 2 7 -3
v 3 3 -3
v 3 4 -3
v 3 5 -3
v 3 6 -3
v 3 7 -3
v 4 0 -3
v 4 1 -3
v 4 4 -3
v 4 5 -3
v 4 6 -3
v 4 7 -3
v 2 6 -4
v 2 8 -4
v 3 6 -4
v 3 8 -4
v -3 0 3
v -1 0 3
v 2 0 3
v 4 0 3
v -5 0 1
v -4 0 1
v -3 0 1
v -1 0 1
v 2 0 1
v 4 0 1
v -5 0 -1
v -4 0 -1
v -3 0 -1
v -1 0 -1
v 2 0 -1
v 4 0 -1
v -3 0 -3
v -1 0 -3
v 2 0 -3
v 4 0 -3
v -1 1 3
v 0 1 3
v 2 1 3
v -4 1 1
v -3 1 1
v -2 1 1
v -1 1 1
v 0 1 1
v 2 1 1
v 4 1 1
v -4 1 -1
v -3 1 -1
v -2 1 -1
v -1 1 -1
v 0 1 -1
v 2 1 -1
v 4 1 -1
v -1 1 -3
v 0 1 -3
v 2 1 -3
v 4 2 2
v 5 2 2
v 4 2 -2
v 5 2 -2
v 2 6 4
v 3 6 4
v 2 6 3
v 3 6 3
v 2 6 -3
v 3 6 -3
v 2 6 -4
v 3 6 -4
v 4 4 2
v 5 4 2
v 4 4 1
v 5 4 1
v 4 4 -0
v 4 4 -1
v 5 4 -1
v 4 4 -2
v 5 4 -2
v -5 5 1
v -4 5 1
v -5 5 -1
v -4 5 -1
v -3 6 3
v -2 6 3
v -3 6 2
v -2 6 2
v -4 6 1
v -3 6 1
v -4 6 -1
v -3 6 -1
v -3 6 -2
v -2 6 -2
v -3 6 -3
v -2 6 -3
v -2 7 3
v 0 7 3
v 2 7 3
v 3 7 3
v 4 7 3
v -3 7 2
v -2 7 2
v 0 7 2
v 1 7 2
v 2 7 2
v 3 7 2
v 1 7 1
v 4 7 1
v 2 7 -1
v 4 7 -1
v -3 7 -2
v -2 7 -2
v 1 7 -2
v 2 7 -2
v 3 7 -2
v -2 7 -3
v 1 7 -3
v 2 7 -3
v 3 7 -3
v 4 7 -3
v 2 8 4
v 3 8 4
v 2 8 2
v 3 8 2
v 2 8 -2
v 3 8 -2
v 2 8 -4
v 3 8 -4

# faces
f 3/6/1 2/6/1 1/6/1
f 4/6/1 2/6/1 3/6/1
f 5/4/1 4/4/1 3/4/1
f 6/4/1 4/4/1 5/4/1
f 7/6/1 6/6/1 5/6/1
f 8/6/1 6/6/1 7/6/1
f 9/4/1 8/4/1 7/4/1
f 10/4/1 8/4/1 9/4/1
f 11/6/1 10/6/1 9/6/1
f 12/6/1 10/6/1 11/6/1
f 15/4/1 14/4/1 13/4/1
f 16/4/1 14/4/1 15/4/1
f 21/7/1 18/7/1 17/7/1
f 22/7/1 18/7/1 21/7/1
f 23/7/1 20/7/1 19/7/1
f 24/7/1 20/7/1 23/7/1
f 25/4/1 22/4/1 21/4/1
f 26/4/1 24/4/1 23/4/1
f 27/4/1 25/4/1 21/4/1
f 28/4/1 24/4/1 26/4/1
f 29/4/1 27/4/1 21/4/1
f 30/4/1 24/4/1 28/4/1
f 31/4/1 29/4/1 21/4/1
f 32/4/1 24/4/1 30/4/1
f 33/4/1 31/4/1 21/4/1
f 34/4/1 31/4/1 33/4/1
f 35/4/1 31/4/1 34/4/1
f 36/4/1 24/4/1 32/4/1
f 37/4/1 24/4/1 36/4/1
f 38/4/1 24/4/1 37/4/1
f 39/4/1 35/4/1 34/4/1
f 39/4/1 37/4/1 36/4/1
f 39/4/1 36/4/1 35/4/1
f 40/4/1 37/4/1 39/4/1
f 45/4/1 42/4/1 41/4/1
f 46/4/1 42/4/1 45/4/1
f 47/4/1 44/4/1 43/4/1
f 48/4/1 44/4/1 47/4/1
f 53/7/1 50/7/1 49/7/1
f 54/7/1 50/7/1 53/7/1
f 55/7/1 52/7/1 51/7/1
f 56/7/1 52/7/1 55/7/1
f 61/3/1 58/3/1 57/3/1
f 64/3/1 60/3/1 59/3/1
f 65/3/1 62/3/1 61/3/1
f 65/3/1 61/3/1 57/3/1
f 66/3/1 62/3/1 65/3/1
f 67/3/1 64/3/1 63/3/1
f 68/3/1 60/3/1 64/3/1
f 68/3/1 64/3/1 67/3/1
f 69/6/2 70/6/2 71/6/2
f 71/6/2 70/6/2 72/6/2
f 73/7/2 74/7/2 77/7/2
f 77/7/2 74/7/2 78/7/2
f 75/7/2 76/7/2 79/7/2
f 79/7/2 76/7/2 80/7/2
f 81/3/2 82/3/2 85/3/2
f 83/3/2 84/3/2 88/3/2
f 85/3/2 86/3/2 89/3/2
f 81/3/2 85/3/2 89/3/2
f 89/3/2 86/3/2 90/3/2
f 87/3/2 88/3/2 91/3/2
f 88/3/2 84/3/2 92/3/2
f 91/3/2 88/3/2 92/3/2
f 93/7/2 94/7/2 97/7/2
f 97/7/2 94/7/2 98/7/2
f 95/7/2 96/7/2 99/7/2
f 99/7/2 96/7/2 100/7/2
f 97/2/2 98/2/2 101/2/2
f 98/2/2 99/2/2 101/2/2
f 99/2/2 100/2/2 101/2/2
f 101/2/2 100/2/2 102/2/2
f 97/2/2 101/2/2 103/2/2
f 103/2/2 101/2/2 104/2/2
f 102/2/2 100/2/2 108/2/2
f 108/2/2 100/2/2 109/2/2
f 103/5/2 104/5/2 110/5/2
f 104/3/2 105/3/2 111/3/2
f 110/5/2 104/5/2 111/5/2
f 105/4/2 106/4/2 112/4/2
f 111/3/2 105/3/2 112/3/2
f 106/3/2 107/3/2 113/3/2
f 107/3/2 108/3/2 113/3/2
f 108/5/2 109/5/2 114/5/2
f 113/3/2 108/3/2 114/3/2
f 114/5/2 109/5/2 115/5/2
f 110/1/2 111/1/2 116/1/2
f 111/7/2 112/7/2 117/7/2
f 116/1/2 111/1/2 117/1/2
f 112/4/2 106/4/2 118/4/2
f 117/7/2 112/7/2 118/7/2
f 106/3/2 113/3/2 119/3/2
f 118/4/2 106/4/2 119/4/2
f 113/7/2 114/7/2 120/7/2
f 119/3/2 113/3/2 120/3/2
f 114/1/2 115/1/2 121/1/2
f 120/7/2 114/7/2 121/7/2
f 121/1/2 115/1/2 122/1/2
f 116/3/2 117/3/2 123/3/2
f 117/3/2 118/3/2 123/3/2
f 118/4/2 119/4/2 124/4/2
f 123/3/2 118/3/2 124/3/2
f 119/4/2 120/4/2 124/4/2
f 121/3/2 122/3/2 125/3/2
f 124/4/2 120/4/2 125/4/2
f 120/3/2 121/3/2 125/3/2
f 125/3/2 122/3/2 126/3/2
f 127/2/2 128/2/2 129/2/2
f 129/2/2 128/2/2 130/2/2
f 127/2/2 129/2/2 131/2/2
f 129/7/2 130/7/2 132/7/2
f 131/2/2 129/2/2 132/2/2
f 130/2/2 128/2/2 133/2/2
f 132/7/2 130/7/2 133/7/2
f 133/2/2 128/2/2 134/2/2
f 137/3/3 136/3/3 135/3/3
f 138/3/3 136/3/3 137/3/3
f 142/7/3 140/7/3 139/7/3
f 142/4/3 141/4/3 140/4/3
f 143/4/3 141/4/3 142/4/3
f 144/4/3 141/4/3 143/4/3
f 146/7/3 142/7/3 139/7/3
f 147/3/3 143/3/3 142/3/3
f 147/7/3 142/7/3 146/7/3
f 148/4/3 145/4/3 144/4/3
f 148/3/3 143/3/3 147/3/3
f 148/4/3 144/4/3 143/4/3
f 149/4/3 145/4/3 148/4/3
f 150/3/3 148/3/3 147/3/3
f 150/3/3 149/3/3 148/3/3
f 151/3/3 149/3/3 150/3/3
f 152/4/3 145/4/3 149/4/3
f 152/3/3 149/3/3 151/3/3
f 153/4/3 145/4/3 152/4/3
f 155/2/3 151/2/3 150/2/3
f 156/3/3 152/3/3 151/3/3
f 156/3/3 153/3/3 152/3/3
f 156/2/3 151/2/3 155/2/3
f 157/3/3 153/3/3 156/3/3
f 158/3/3 153/3/3 157/3/3
f 159/3/3 153/3/3 158/3/3
f 160/3/3 153/3/3 159/3/3
f 161/3/3 153/3/3 160/3/3
f 162/2/3 156/2/3 155/2/3
f 162/2/3 157/2/3 156/2/3
f 162/3/3 158/3/3 157/3/3
f 163/5/3 159/5/3 158/5/3
f 163/3/3 158/3/3 162/3/3
f 164/3/3 160/3/3 159/3/3
f 164/5/3 159/5/3 163/5/3
f 165/3/3 160/3/3 164/3/3
f 167/7/3 155/7/3 154/7/3
f 168/2/3 163/2/3 162/2/3
f 168/7/3 155/7/3 167/7/3
f 168/2/3 162/2/3 155/2/3
f 169/5/3 164/5/3 163/5/3
f 169/2/3 163/2/3 168/2/3
f 170/1/3 165/1/3 164/1/3
f 170/5/3 164/5/3 169/5/3
f 171/3/3 166/3/3 165/3/3
f 171/1/3 165/1/3 170/1/3
f 172/3/3 166/3/3 171/3/3
f 175/4/3 174/4/3 173/4/3
f 176/4/3 174/4/3 175/4/3
f 179/2/3 178/2/3 177/2/3
f 180/2/3 178/2/3 179/2/3
f 187/6/3 182/6/3 181/6/3
f 188/4/3 183/4/3 182/4/3
f 188/6/3 182/6/3 187/6/3
f 189/6/3 186/6/3 185/6/3
f 191/4/3 183/4/3 188/4/3
f 192/6/3 184/6/3 183/6/3
f 192/4/3 183/4/3 191/4/3
f 193/4/3 185/4/3 184/4/3
f 193/6/3 184/6/3 192/6/3
f 194/6/3 189/6/3 185/6/3
f 194/4/3 185/4/3 193/4/3
f 195/4/3 190/4/3 189/4/3
f 195/6/3 189/6/3 194/6/3
f 196/4/3 190/4/3 195/4/3
f 199/7/3 198/7/3 197/7/3
f 200/7/3 199/7/3 197/7/3
f 201/7/3 199/7/3 200/7/3
f 204/7/3 203/7/3 202/7/3
f 205/7/3 203/7/3 204/7/3
f 208/3/3 207/3/3 206/3/3
f 209/3/3 207/3/3 208/3/3
f 210/3/4 211/3/4 212/3/4
f 212/3/4 211/3/4 213/3/4
f 214/7/4 215/7/4 216/7/4
f 214/7/4 216/7/4 217/7/4
f 217/7/4 216/7/4 218/7/4
f 219/7/4 220/7/4 221/7/4
f 221/7/4 220/7/4 222/7/4
f 223/6/4 224/6/4 229/6/4
f 224/4/4 225/4/4 230/4/4
f 229/6/4 224/6/4 230/6/4
f 227/6/4 228/6/4 231/6/4
f 230/4/4 225/4/4 233/4/4
f 225/6/4 226/6/4 234/6/4
f 233/4/4 225/4/4 234/4/4
f 226/4/4 227/4/4 235/4/4
f 234/6/4 226/6/4 235/6/4
f 227/6/4 231/6/4 236/6/4
f 235/4/4 227/4/4 236/4/4
f 231/4/4 232/4/4 237/4/4
f 236/6/4 231/6/4 237/6/4
f 237/4/4 232/4/4 238/4/4
f 239/4/4 240/4/4 241/4/4
f 241/4/4 240/4/4 242/4/4
f 243/2/4 244/2/4 245/2/4
f 245/2/4 244/2/4 246/2/4
f 248/4/4 249/4/4 250/4/4
f 247/7/4 248/7/4 252/7/4
f 250/4/4 251/4/4 253/4/4
f 252/7/4 248/7/4 253/7/4
f 248/4/4 250/4/4 253/4/4
f 253/4/4 251/4/4 254/4/4
f 253/3/4 254/3/4 255/3/4
f 255/3/4 254/3/4 256/3/4
f 254/4/4 251/4/4 257/4/4
f 256/3/4 254/3/4 257/3/4
f 257/4/4 251/4/4 258/4/4
f 256/3/4 257/3/4 259/3/4
f 258/4/4 251/4/4 259/4/4
f 257/3/4 258/3/4 259/3/4
f 259/4/4 251/4/4 260/4/4
f 255/2/4 256/2/4 262/2/4
f 256/3/4 259/3/4 263/3/4
f 259/3/4 260/3/4 263/3/4
f 262/2/4 256/2/4 263/2/4
f 263/3/4 260/3/4 264/3/4
f 264/3/4 260/3/4 265/3/4
f 265/3/4 260/3/4 266/3/4
f 266/3/4 260/3/4 267/3/4
f 267/3/4 260/3/4 268/3/4
f 262/2/4 263/2/4 269/2/4
f 263/2/4 264/2/4 269/2/4
f 264/3/4 265/3/4 269/3/4
f 265/5/4 266/5/4 270/5/4
f 269/3/4 265/3/4 270/3/4
f 266/3/4 267/3/4 271/3/4
f 270/5/4 266/5/4 271/5/4
f 271/3/4 267/3/4 272/3/4
f 261/7/4 262/7/4 274/7/4
f 269/2/4 270/2/4 275/2/4
f 274/7/4 262/7/4 275/7/4
f 262/2/4 269/2/4 275/2/4
f 270/5/4 271/5/4 276/5/4
f 275/2/4 270/2/4 276/2/4
f 271/1/4 272/1/4 277/1/4
f 276/5/4 271/5/4 277/5/4
f 272/3/4 273/3/4 278/3/4
f 277/1/4 272/1/4 278/1/4
f 278/3/4 273/3/4 279/3/4
f 280/3/4 281/3/4 282/3/4
f 282/3/4 281/3/4 283/3/4
f 290/7/5 285/7/5 284/7/5
f 291/7/5 285/7/5 290/7/5
f 292/7/5 287/7/5 286/7/5
f 293/7/5 287/7/5 292/7/5
f 294/6/5 289/6/5 288/6/5
f 295/6/5 289/6/5 294/6/5
f 300/7/5 297/7/5 296/7/5
f 301/7/5 297/7/5 300/7/5
f 302/7/5 299/7/5 298/7/5
f 303/7/5 299/7/5 302/7/5
f 310/3/5 305/3/5 304/3/5
f 311/2/5 306/2/5 305/2/5
f 311/3/5 305/3/5 310/3/5
f 312/2/5 306/2/5 311/2/5
f 314/4/5 309/4/5 308/4/5
f 314/4/5 308/4/5 307/4/5
f 315/4/5 309/4/5 314/4/5
f 316/3/5 310/3/5 309/3/5
f 316/4/5 309/4/5 315/4/5
f 317/2/5 313/2/5 312/2/5
f 317/3/5 310/3/5 316/3/5
f 317/2/5 312/2/5 311/2/5
f 317/2/5 311/2/5 310/2/5
f 318/2/5 313/2/5 317/2/5
f 319/2/5 313/2/5 318/2/5
f 320/2/5 313/2/5 319/2/5
f 321/3/5 318/3/5 317/3/5
f 322/2/5 319/2/5 318/2/5
f 322/3/5 318/3/5 321/3/5
f 323/2/5 319/2/5 322/2/5
f 326/2/5 325/2/5 324/2/5
f 327/2/5 325/2/5 326/2/5
f 330/3/5 329/3/5 328/3/5
f 331/3/5 329/3/5 330/3/5
f 334/3/5 333/3/5 332/3/5
f 335/3/5 333/3/5 334/3/5
f 336/2/6 337/2/6 338/2/6
f 338/2/6 337/2/6 339/2/6
f 338/7/6 339/7/6 340/7/6
f 340/7/6 339/7/6 341/7/6
f 341/7/6 339/7/6 342/7/6
f 341/2/6 342/2/6 343/2/6
f 343/2/6 342/2/6 344/2/6
f 345/6/6 346/6/6 347/6/6
f 347/6/6 346/6/6 348/6/6
f 349/4/6 350/4/6 351/4/6
f 351/4/6 350/4/6 352/4/6
f 353/4/6 354/4/6 355/4/6
f 355/4/6 354/4/6 356/4/6
f 357/4/6 358/4/6 359/4/6
f 359/4/6 358/4/6 360/4/6
f 361/4/6 362/4/6 367/4/6
f 362/3/6 363/3/6 368/3/6
f 367/4/6 362/4/6 368/4/6
f 368/3/6 363/3/6 369/3/6
f 369/3/6 363/3/6 370/3/6
f 364/3/6 365/3/6 371/3/6
f 369/3/6 370/3/6 372/3/6
f 370/3/6 371/3/6 372/3/6
f 366/4/6 367/4/6 372/4/6
f 367/4/6 368/4/6 372/4/6
f 368/4/6 369/4/6 372/4/6
f 371/3/6 365/3/6 373/3/6
f 372/3/6 371/3/6 373/3/6
f 372/4/6 373/4/6 374/4/6
f 374/4/6 373/4/6 375/4/6
f 366/4/6 372/4/6 376/4/6
f 372/4/6 374/4/6 376/4/6
f 376/4/6 374/4/6 377/4/6
f 377/4/6 374/4/6 378/4/6
f 374/3/6 375/3/6 379/3/6
f 378/4/6 374/4/6 379/4/6
f 379/3/6 375/3/6 380/3/6
f 377/4/6 378/4/6 381/4/6
f 378/3/6 379/3/6 382/3/6
f 381/4/6 378/4/6 382/4/6
f 382/3/6 379/3/6 383/3/6
f 380/3/6 375/3/6 384/3/6
f 384/3/6 375/3/6 385/3/6
f 386/3/6 387/3/6 388/3/6
f 388/3/6 387/3/6 389/3/6
f 390/3/6 391/3/6 392/3/6
f 392/3/6 391/3/6 393/3/6
