# MagicaVoxel @ Ephtracy

# material
mtllib white tiger.mtl
usemtl palette

# normals
vn -1 0 0
vn 1 0 0
vn 0 0 1
vn 0 0 -1
vn 0 -1 0
vn 0 1 0

# texcoords
vt 0.0292969 0.5
vt 0.0566406 0.5
vt 0.587891 0.5
vt 0.958984 0.5
vt 0.966797 0.5
vt 0.990234 0.5
vt 0.994141 0.5

# verts
v -6 6 1
v -6 6 -0
v -6 8 1
v -6 8 -0
v -5 4 1
v -5 4 -0
v -5 5 1
v -5 5 -0
v -5 6 1
v -5 6 -0
v -4 4 -0
v -4 4 -1
v -4 5 -0
v -4 5 -1
v -3 0 3
v -3 0 1
v -3 0 -1
v -3 0 -3
v -3 1 3
v -3 1 1
v -3 1 -1
v -3 1 -3
v -3 4 1
v -3 4 -1
v -3 5 1
v -3 5 -1
v -3 6 3
v -3 6 2
v -3 6 -2
v -3 6 -3
v -3 7 2
v -3 7 -2
v -2 6 3
v -2 6 2
v -2 6 -2
v -2 6 -3
v -2 7 3
v -2 7 2
v -2 7 -2
v -2 7 -3
v 2 0 3
v 2 0 1
v 2 0 -1
v 2 0 -3
v 2 1 3
v 2 1 1
v 2 1 -1
v 2 1 -3
v 2 6 4
v 2 6 3
v 2 6 -3
v 2 6 -4
v 2 7 3
v 2 7 2
v 2 7 -2
v 2 7 -3
v 2 8 4
v 2 8 2
v 2 8 -2
v 2 8 -4
v -5 7 1
v -5 7 -0
v -5 8 1
v -5 8 -0
v -4 5 1
v -4 5 -0
v -4 6 1
v -4 6 -0
v -4 7 1
v -4 7 -0
v -1 0 3
v -1 0 1
v -1 0 -1
v -1 0 -3
v -1 1 3
v -1 1 1
v -1 1 -1
v -1 1 -3
v 3 6 4
v 3 6 3
v 3 6 -3
v 3 6 -4
v 3 7 3
v 3 7 2
v 3 7 -2
v 3 7 -3
v 3 8 4
v 3 8 2
v 3 8 -2
v 3 8 -4
v 4 0 3
v 4 0 1
v 4 0 -1
v 4 0 -3
v 4 1 3
v 4 1 1
v 4 1 -1
v 4 1 -3
v 4 2 2
v 4 2 -2
v 4 4 3
v 4 4 2
v 4 4 1
v 4 4 -1
v 4 4 -2
v 4 4 -3
v 4 5 3
v 4 5 2
v 4 5 1
v 4 5 -1
v 4 5 -2
v 4 5 -3
v 4 7 3
v 4 7 -3
v 5 2 2
v 5 2 -2
v 5 3 1
v 5 3 -1
v 5 4 3
v 5 4 2
v 5 4 1
v 5 4 -1
v 5 4 -2
v 5 4 -3
v 5 5 3
v 5 5 2
v 5 5 1
v 5 5 -1
v 5 5 -2
v 5 5 -3
v 2 6 4
v 2 8 4
v 3 6 4
v 3 8 4
v -3 0 3
v -3 1 3
v -3 6 3
v -2 3 3
v -2 6 3
v -2 7 3
v -1 0 3
v -1 1 3
v -1 3 3
v -1 7 3
v 0 2 3
v 0 7 3
v 1 2 3
v 1 7 3
v 2 0 3
v 2 1 3
v 2 3 3
v 2 6 3
v 2 7 3
v 3 3 3
v 3 6 3
v 3 7 3
v 4 0 3
v 4 1 3
v 4 4 3
v 4 5 3
v 4 7 3
v 5 4 3
v 5 5 3
v -3 6 2
v -3 7 2
v -2 6 2
v -2 7 2
v 4 2 2
v 4 4 2
v 5 2 2
v 5 4 2
v -6 6 1
v -6 8 1
v -5 4 1
v -5 5 1
v -5 6 1
v -5 7 1
v -5 8 1
v -4 4 1
v -4 5 1
v -4 6 1
v -4 7 1
v -3 4 1
v -3 5 1
v 4 4 1
v 4 5 1
v 5 4 1
v 5 5 1
v -3 0 -1
v -3 1 -1
v -1 0 -1
v -1 1 -1
v 2 0 -1
v 2 1 -1
v 4 0 -1
v 4 1 -1
v 2 7 -2
v 2 8 -2
v 3 7 -2
v 3 8 -2
v 4 4 -2
v 4 5 -2
v 5 4 -2
v 5 5 -2
v 2 7 2
v 2 8 2
v 3 7 2
v 3 8 2
v 4 4 2
v 4 5 2
v 5 4 2
v 5 5 2
v -3 0 1
v -3 1 1
v -1 0 1
v -1 1 1
v 2 0 1
v 2 1 1
v 4 0 1
v 4 1 1
v -6 6 -0
v -6 8 -0
v -5 4 -0
v -5 5 -0
v -5 6 -0
v -5 7 -0
v -5 8 -0
v -4 4 -0
v -4 5 -0
v -4 6 -0
v -4 7 -0
v -4 4 -1
v -4 5 -1
v -3 4 -1
v -3 5 -1
v 4 4 -1
v 4 5 -1
v 5 4 -1
v 5 5 -1
v -3 6 -2
v -3 7 -2
v -2 6 -2
v -2 7 -2
v 4 2 -2
v 4 4 -2
v 5 2 -2
v 5 4 -2
v -3 0 -3
v -3 1 -3
v -3 6 -3
v -2 3 -3
v -2 6 -3
v -2 7 -3
v -1 0 -3
v -1 1 -3
v -1 3 -3
v -1 7 -3
v 0 2 -3
v 0 7 -3
v 1 2 -3
v 1 7 -3
v 2 0 -3
v 2 1 -3
v 2 3 -3
v 2 6 -3
v 2 7 -3
v 3 3 -3
v 3 6 -3
v 3 7 -3
v 4 0 -3
v 4 1 -3
v 4 4 -3
v 4 5 -3
v 4 7 -3
v 5 4 -3
v 5 5 -3
v 2 6 -4
v 2 8 -4
v 3 6 -4
v 3 8 -4
v -3 0 3
v -1 0 3
v 2 0 3
v 4 0 3
v -3 0 1
v -1 0 1
v 2 0 1
v 4 0 1
v -3 0 -1
v -1 0 -1
v 2 0 -1
v 4 0 -1
v -3 0 -3
v -1 0 -3
v 2 0 -3
v 4 0 -3
v -1 1 3
v 2 1 3
v -3 1 1
v -1 1 1
v 2 1 1
v 4 1 1
v -3 1 -1
v -1 1 -1
v 2 1 -1
v 4 1 -1
v -1 1 -3
v 2 1 -3
v 4 2 2
v 5 2 2
v 4 2 -2
v 5 2 -2
v 4 4 3
v 5 4 3
v 4 4 2
v 5 4 2
v -5 4 1
v -4 4 1
v -3 4 1
v -5 4 -0
v -4 4 -0
v -4 4 -1
v -3 4 -1
v 4 4 -2
v 5 4 -2
v 4 4 -3
v 5 4 -3
v 2 6 4
v 3 6 4
v 2 6 3
v 3 6 3
v -6 6 1
v -5 6 1
v -6 6 -0
v -5 6 -0
v 2 6 -3
v 3 6 -3
v 2 6 -4
v 3 6 -4
v 4 4 2
v 5 4 2
v 4 4 1
v 5 4 1
v 4 4 -1
v 5 4 -1
v 4 4 -2
v 5 4 -2
v 4 5 3
v 5 5 3
v 4 5 2
v 5 5 2
v -4 5 1
v -3 5 1
v 4 5 1
v 5 5 1
v -4 5 -0
v -4 5 -1
v -3 5 -1
v 4 5 -1
v 5 5 -1
v 4 5 -2
v 5 5 -2
v 4 5 -3
v 5 5 -3
v -3 6 3
v -2 6 3
v -3 6 2
v -2 6 2
v -3 6 -2
v -2 6 -2
v -3 6 -3
v -2 6 -3
v -2 7 3
v -1 7 3
v 0 7 3
v 1 7 3
v 2 7 3
v 3 7 3
v 4 7 3
v -3 7 2
v -2 7 2
v 2 7 2
v 3 7 2
v -5 7 1
v -4 7 1
v -5 7 -0
v -4 7 -0
v -3 7 -2
v -2 7 -2
v 2 7 -2
v 3 7 -2
v -2 7 -3
v -1 7 -3
v 0 7 -3
v 1 7 -3
v 2 7 -3
v 3 7 -3
v 4 7 -3
v 2 8 4
v 3 8 4
v 2 8 2
v 3 8 2
v -6 8 1
v -5 8 1
v -6 8 -0
v -5 8 -0
v 2 8 -2
v 3 8 -2
v 2 8 -4
v 3 8 -4

# faces
f 3/4/1 2/4/1 1/4/1
f 4/4/1 2/4/1 3/4/1
f 7/7/1 6/7/1 5/7/1
f 8/7/1 6/7/1 7/7/1
f 9/4/1 8/4/1 7/4/1
f 10/4/1 8/4/1 9/4/1
f 13/4/1 12/4/1 11/4/1
f 14/4/1 12/4/1 13/4/1
f 19/5/1 16/5/1 15/5/1
f 20/5/1 16/5/1 19/5/1
f 21/5/1 18/5/1 17/5/1
f 22/5/1 18/5/1 21/5/1
f 23/4/1 20/4/1 19/4/1
f 23/4/1 21/4/1 20/4/1
f 23/4/1 22/4/1 21/4/1
f 24/4/1 22/4/1 23/4/1
f 25/4/1 23/4/1 19/4/1
f 26/4/1 22/4/1 24/4/1
f 27/4/1 25/4/1 19/4/1
f 27/4/1 26/4/1 25/4/1
f 28/4/1 26/4/1 27/4/1
f 29/4/1 22/4/1 26/4/1
f 29/4/1 26/4/1 28/4/1
f 30/4/1 22/4/1 29/4/1
f 31/4/1 29/4/1 28/4/1
f 32/4/1 29/4/1 31/4/1
f 37/6/1 34/6/1 33/6/1
f 38/6/1 34/6/1 37/6/1
f 39/6/1 36/6/1 35/6/1
f 40/6/1 36/6/1 39/6/1
f 45/5/1 42/5/1 41/5/1
f 46/5/1 42/5/1 45/5/1
f 47/5/1 44/5/1 43/5/1
f 48/5/1 44/5/1 47/5/1
f 53/4/1 50/4/1 49/4/1
f 56/4/1 52/4/1 51/4/1
f 57/4/1 54/4/1 53/4/1
f 57/4/1 53/4/1 49/4/1
f 58/4/1 54/4/1 57/4/1
f 59/4/1 56/4/1 55/4/1
f 60/4/1 52/4/1 56/4/1
f 60/4/1 56/4/1 59/4/1
f 61/4/2 62/4/2 63/4/2
f 63/4/2 62/4/2 64/4/2
f 65/4/2 66/4/2 67/4/2
f 67/4/2 66/4/2 68/4/2
f 67/7/2 68/7/2 69/7/2
f 69/7/2 68/7/2 70/7/2
f 71/5/2 72/5/2 75/5/2
f 75/5/2 72/5/2 76/5/2
f 73/5/2 74/5/2 77/5/2
f 77/5/2 74/5/2 78/5/2
f 79/4/2 80/4/2 83/4/2
f 81/4/2 82/4/2 86/4/2
f 83/4/2 84/4/2 87/4/2
f 79/4/2 83/4/2 87/4/2
f 87/4/2 84/4/2 88/4/2
f 85/4/2 86/4/2 89/4/2
f 86/4/2 82/4/2 90/4/2
f 89/4/2 86/4/2 90/4/2
f 91/5/2 92/5/2 95/5/2
f 95/5/2 92/5/2 96/5/2
f 93/5/2 94/5/2 97/5/2
f 97/5/2 94/5/2 98/5/2
f 95/4/2 96/4/2 99/4/2
f 96/4/2 97/4/2 99/4/2
f 97/4/2 98/4/2 99/4/2
f 99/4/2 98/4/2 100/4/2
f 95/4/2 99/4/2 101/4/2
f 101/4/2 99/4/2 102/4/2
f 100/4/2 98/4/2 105/4/2
f 105/4/2 98/4/2 106/4/2
f 102/4/2 103/4/2 108/4/2
f 108/4/2 103/4/2 109/4/2
f 104/4/2 105/4/2 110/4/2
f 110/4/2 105/4/2 111/4/2
f 108/4/2 109/4/2 113/4/2
f 111/4/2 112/4/2 113/4/2
f 110/4/2 111/4/2 113/4/2
f 109/4/2 110/4/2 113/4/2
f 107/4/2 108/4/2 113/4/2
f 113/4/2 112/4/2 114/4/2
f 115/1/2 116/1/2 117/1/2
f 117/1/2 116/1/2 118/1/2
f 115/1/2 117/1/2 120/1/2
f 117/2/2 118/2/2 121/2/2
f 120/1/2 117/1/2 121/1/2
f 118/1/2 116/1/2 122/1/2
f 121/2/2 118/2/2 122/2/2
f 122/1/2 116/1/2 123/1/2
f 119/3/2 120/3/2 125/3/2
f 125/3/2 120/3/2 126/3/2
f 121/4/2 122/4/2 127/4/2
f 127/4/2 122/4/2 128/4/2
f 123/3/2 124/3/2 129/3/2
f 129/3/2 124/3/2 130/3/2
f 133/4/3 132/4/3 131/4/3
f 134/4/3 132/4/3 133/4/3
f 138/4/3 137/4/3 136/4/3
f 139/4/3 137/4/3 138/4/3
f 141/5/3 136/5/3 135/5/3
f 142/4/3 138/4/3 136/4/3
f 142/5/3 136/5/3 141/5/3
f 143/6/3 140/6/3 139/6/3
f 143/4/3 138/4/3 142/4/3
f 143/6/3 139/6/3 138/6/3
f 144/6/3 140/6/3 143/6/3
f 145/4/3 143/4/3 142/4/3
f 145/4/3 144/4/3 143/4/3
f 146/4/3 144/4/3 145/4/3
f 147/4/3 145/4/3 142/4/3
f 147/6/3 146/6/3 145/6/3
f 148/6/3 146/6/3 147/6/3
f 150/4/3 147/4/3 142/4/3
f 150/4/3 148/4/3 147/4/3
f 151/4/3 148/4/3 150/4/3
f 152/4/3 148/4/3 151/4/3
f 153/4/3 148/4/3 152/4/3
f 154/4/3 151/4/3 150/4/3
f 154/6/3 152/6/3 151/6/3
f 155/6/3 152/6/3 154/6/3
f 157/5/3 150/5/3 149/5/3
f 158/4/3 156/4/3 155/4/3
f 158/5/3 150/5/3 157/5/3
f 158/4/3 154/4/3 150/4/3
f 158/4/3 155/4/3 154/4/3
f 159/4/3 156/4/3 158/4/3
f 160/4/3 156/4/3 159/4/3
f 161/4/3 156/4/3 160/4/3
f 162/3/3 160/3/3 159/3/3
f 163/3/3 160/3/3 162/3/3
f 166/4/3 165/4/3 164/4/3
f 167/4/3 165/4/3 166/4/3
f 170/1/3 169/1/3 168/1/3
f 171/1/3 169/1/3 170/1/3
f 176/4/3 173/4/3 172/4/3
f 177/4/3 173/4/3 176/4/3
f 178/4/3 173/4/3 177/4/3
f 179/7/3 175/7/3 174/7/3
f 180/4/3 176/4/3 175/4/3
f 180/7/3 175/7/3 179/7/3
f 181/7/3 177/7/3 176/7/3
f 181/4/3 176/4/3 180/4/3
f 182/7/3 177/7/3 181/7/3
f 183/4/3 180/4/3 179/4/3
f 184/4/3 180/4/3 183/4/3
f 187/4/3 186/4/3 185/4/3
f 188/4/3 186/4/3 187/4/3
f 191/5/3 190/5/3 189/5/3
f 192/5/3 190/5/3 191/5/3
f 195/5/3 194/5/3 193/5/3
f 196/5/3 194/5/3 195/5/3
f 199/4/3 198/4/3 197/4/3
f 200/4/3 198/4/3 199/4/3
f 203/3/3 202/3/3 201/3/3
f 204/3/3 202/3/3 203/3/3
f 205/4/4 206/4/4 207/4/4
f 207/4/4 206/4/4 208/4/4
f 209/3/4 210/3/4 211/3/4
f 211/3/4 210/3/4 212/3/4
f 213/5/4 214/5/4 215/5/4
f 215/5/4 214/5/4 216/5/4
f 217/5/4 218/5/4 219/5/4
f 219/5/4 218/5/4 220/5/4
f 221/4/4 222/4/4 225/4/4
f 225/4/4 222/4/4 226/4/4
f 226/4/4 222/4/4 227/4/4
f 223/7/4 224/7/4 228/7/4
f 224/4/4 225/4/4 229/4/4
f 228/7/4 224/7/4 229/7/4
f 225/7/4 226/7/4 230/7/4
f 229/4/4 225/4/4 230/4/4
f 230/7/4 226/7/4 231/7/4
f 232/4/4 233/4/4 234/4/4
f 234/4/4 233/4/4 235/4/4
f 236/4/4 237/4/4 238/4/4
f 238/4/4 237/4/4 239/4/4
f 240/4/4 241/4/4 242/4/4
f 242/4/4 241/4/4 243/4/4
f 244/1/4 245/1/4 246/1/4
f 246/1/4 245/1/4 247/1/4
f 249/4/4 250/4/4 251/4/4
f 251/4/4 250/4/4 252/4/4
f 248/5/4 249/5/4 254/5/4
f 249/4/4 251/4/4 255/4/4
f 254/5/4 249/5/4 255/5/4
f 252/6/4 253/6/4 256/6/4
f 255/4/4 251/4/4 256/4/4
f 251/6/4 252/6/4 256/6/4
f 256/6/4 253/6/4 257/6/4
f 255/4/4 256/4/4 258/4/4
f 256/4/4 257/4/4 258/4/4
f 258/4/4 257/4/4 259/4/4
f 255/4/4 258/4/4 260/4/4
f 258/6/4 259/6/4 260/6/4
f 260/6/4 259/6/4 261/6/4
f 255/4/4 260/4/4 263/4/4
f 260/4/4 261/4/4 263/4/4
f 263/4/4 261/4/4 264/4/4
f 264/4/4 261/4/4 265/4/4
f 265/4/4 261/4/4 266/4/4
f 263/4/4 264/4/4 267/4/4
f 264/6/4 265/6/4 267/6/4
f 267/6/4 265/6/4 268/6/4
f 262/5/4 263/5/4 270/5/4
f 268/4/4 269/4/4 271/4/4
f 270/5/4 263/5/4 271/5/4
f 263/4/4 267/4/4 271/4/4
f 267/4/4 268/4/4 271/4/4
f 271/4/4 269/4/4 272/4/4
f 272/4/4 269/4/4 273/4/4
f 273/4/4 269/4/4 274/4/4
f 272/3/4 273/3/4 275/3/4
f 275/3/4 273/3/4 276/3/4
f 277/4/4 278/4/4 279/4/4
f 279/4/4 278/4/4 280/4/4
f 285/5/5 282/5/5 281/5/5
f 286/5/5 282/5/5 285/5/5
f 287/5/5 284/5/5 283/5/5
f 288/5/5 284/5/5 287/5/5
f 293/5/5 290/5/5 289/5/5
f 294/5/5 290/5/5 293/5/5
f 295/5/5 292/5/5 291/5/5
f 296/5/5 292/5/5 295/5/5
f 300/4/5 298/4/5 297/4/5
f 301/4/5 298/4/5 300/4/5
f 303/4/5 300/4/5 299/4/5
f 303/4/5 302/4/5 301/4/5
f 303/4/5 301/4/5 300/4/5
f 304/4/5 302/4/5 303/4/5
f 305/4/5 302/4/5 304/4/5
f 306/4/5 302/4/5 305/4/5
f 307/4/5 305/4/5 304/4/5
f 308/4/5 305/4/5 307/4/5
f 311/1/5 310/1/5 309/1/5
f 312/1/5 310/1/5 311/1/5
f 315/3/5 314/3/5 313/3/5
f 316/3/5 314/3/5 315/3/5
f 320/7/5 318/7/5 317/7/5
f 321/4/5 319/4/5 318/4/5
f 321/7/5 318/7/5 320/7/5
f 322/4/5 319/4/5 321/4/5
f 323/4/5 319/4/5 322/4/5
f 326/3/5 325/3/5 324/3/5
f 327/3/5 325/3/5 326/3/5
f 330/4/5 329/4/5 328/4/5
f 331/4/5 329/4/5 330/4/5
f 334/4/5 333/4/5 332/4/5
f 335/4/5 333/4/5 334/4/5
f 338/4/5 337/4/5 336/4/5
f 339/4/5 337/4/5 338/4/5
f 340/1/6 341/1/6 342/1/6
f 342/1/6 341/1/6 343/1/6
f 344/1/6 345/1/6 346/1/6
f 346/1/6 345/1/6 347/1/6
f 348/3/6 349/3/6 350/3/6
f 350/3/6 349/3/6 351/3/6
f 352/4/6 353/4/6 356/4/6
f 356/4/6 353/4/6 357/4/6
f 357/4/6 353/4/6 358/4/6
f 354/4/6 355/4/6 359/4/6
f 359/4/6 355/4/6 360/4/6
f 361/3/6 362/3/6 363/3/6
f 363/3/6 362/3/6 364/3/6
f 365/4/6 366/4/6 367/4/6
f 367/4/6 366/4/6 368/4/6
f 369/4/6 370/4/6 371/4/6
f 371/4/6 370/4/6 372/4/6
f 373/6/6 374/6/6 381/6/6
f 376/4/6 377/4/6 382/4/6
f 378/4/6 379/4/6 383/4/6
f 384/7/6 385/7/6 386/7/6
f 386/7/6 385/7/6 387/7/6
f 380/4/6 381/4/6 388/4/6
f 381/6/6 374/6/6 389/6/6
f 388/4/6 381/4/6 389/4/6
f 376/4/6 382/4/6 390/4/6
f 382/6/6 383/6/6 390/6/6
f 383/4/6 379/4/6 391/4/6
f 390/6/6 383/6/6 391/6/6
f 389/6/6 374/6/6 392/6/6
f 374/4/6 375/4/6 393/4/6
f 392/6/6 374/6/6 393/6/6
f 375/6/6 376/6/6 394/6/6
f 393/4/6 375/4/6 394/4/6
f 376/4/6 390/4/6 395/4/6
f 394/6/6 376/6/6 395/6/6
f 395/4/6 390/4/6 396/4/6
f 391/4/6 379/4/6 397/4/6
f 397/4/6 379/4/6 398/4/6
f 399/4/6 400/4/6 401/4/6
f 401/4/6 400/4/6 402/4/6
f 403/4/6 404/4/6 405/4/6
f 405/4/6 404/4/6 406/4/6
f 407/4/6 408/4/6 409/4/6
f 409/4/6 408/4/6 410/4/6
