# MagicaVoxel @ Ephtracy

# material
mtllib brown_mush.mtl
usemtl palette

# normals
vn -1 0 0
vn 1 0 0
vn 0 0 1
vn 0 0 -1
vn 0 -1 0
vn 0 1 0

# texcoords
vt 0.201172 0.5
vt 0.869141 0.5
vt 0.873047 0.5

# verts
v -6 2 5
v -6 2 4
v -6 2 1
v -6 3 5
v -6 3 4
v -6 3 2
v -6 3 1
v -6 4 4
v -6 4 2
v -5 0 4
v -5 0 2
v -5 2 4
v -5 2 2
v -5 3 5
v -5 3 4
v -5 3 2
v -5 3 1
v -5 4 5
v -5 4 4
v -5 4 2
v -5 4 1
v -4 1 -3
v -4 1 -4
v -4 1 -6
v -4 1 -7
v -4 2 -3
v -4 2 -4
v -4 2 -6
v -4 2 -7
v -4 3 -4
v -4 3 -6
v -3 0 -4
v -3 0 -6
v -3 1 -4
v -3 1 -6
v -3 2 -3
v -3 2 -4
v -3 2 -6
v -3 2 -7
v -3 3 -3
v -3 3 -4
v -3 3 -6
v -3 3 -7
v 0 2 3
v 0 2 2
v 0 2 1
v 0 2 -0
v 0 3 3
v 0 3 2
v 0 3 1
v 0 3 -0
v 1 0 2
v 1 0 1
v 1 2 2
v 1 2 1
v 2 3 -2
v 2 3 -4
v 2 3 -5
v 2 4 -2
v 2 4 -4
v 2 4 -5
v 3 0 -3
v 3 0 -4
v 3 1 7
v 3 1 3
v 3 2 7
v 3 2 6
v 3 2 4
v 3 2 3
v 3 3 6
v 3 3 4
v 3 3 -3
v 3 3 -4
v 4 0 6
v 4 0 4
v 4 1 6
v 4 1 4
v 4 2 7
v 4 2 6
v 4 2 4
v 4 2 3
v 4 3 7
v 4 3 6
v 4 3 4
v 4 3 3
v -3 0 4
v -3 0 2
v -3 2 4
v -3 2 2
v -3 3 5
v -3 3 4
v -3 3 2
v -3 3 1
v -3 4 5
v -3 4 4
v -3 4 2
v -3 4 1
v -2 2 5
v -2 2 1
v -2 3 5
v -2 3 4
v -2 3 3
v -2 3 2
v -2 3 1
v -2 4 4
v -2 4 3
v -2 4 2
v -1 0 -4
v -1 0 -6
v -1 1 -4
v -1 1 -6
v -1 2 -3
v -1 2 -4
v -1 2 -6
v -1 2 -7
v -1 3 -3
v -1 3 -4
v -1 3 -6
v -1 3 -7
v 0 1 -3
v 0 1 -7
v 0 2 -3
v 0 2 -4
v 0 2 -5
v 0 2 -6
v 0 2 -7
v 0 3 -4
v 0 3 -5
v 0 3 -6
v 2 0 2
v 2 0 1
v 2 2 2
v 2 2 1
v 3 2 3
v 3 2 1
v 3 2 -0
v 3 3 3
v 3 3 1
v 3 3 -0
v 4 0 -3
v 4 0 -4
v 4 3 -3
v 4 3 -4
v 5 3 -2
v 5 3 -5
v 5 4 -2
v 5 4 -5
v 6 0 6
v 6 0 4
v 6 1 6
v 6 1 4
v 6 2 7
v 6 2 6
v 6 2 4
v 6 2 3
v 6 3 7
v 6 3 6
v 6 3 4
v 6 3 3
v 7 1 7
v 7 1 4
v 7 1 3
v 7 2 7
v 7 2 6
v 7 2 4
v 7 2 3
v 7 3 6
v 7 3 4
v 3 1 7
v 3 2 7
v 4 2 7
v 4 3 7
v 6 2 7
v 6 3 7
v 7 1 7
v 7 2 7
v 3 2 6
v 3 3 6
v 4 0 6
v 4 1 6
v 4 2 6
v 4 3 6
v 6 0 6
v 6 1 6
v 6 2 6
v 6 3 6
v 7 2 6
v 7 3 6
v -6 2 5
v -6 3 5
v -5 2 5
v -5 3 5
v -5 4 5
v -3 3 5
v -3 4 5
v -2 2 5
v -2 3 5
v -6 3 4
v -6 4 4
v -5 0 4
v -5 2 4
v -5 3 4
v -5 4 4
v -3 0 4
v -3 2 4
v -3 3 4
v -3 4 4
v -2 3 4
v -2 4 4
v 0 2 3
v 0 3 3
v 3 2 3
v 3 3 3
v 1 0 2
v 1 2 2
v 2 0 2
v 2 2 2
v 2 3 -2
v 2 4 -2
v 3 3 -2
v 3 4 -2
v 4 3 -2
v 4 4 -2
v 5 3 -2
v 5 4 -2
v -4 1 -3
v -4 2 -3
v -3 1 -3
v -3 2 -3
v -3 3 -3
v -1 2 -3
v -1 3 -3
v 0 1 -3
v 0 2 -3
v 3 0 -3
v 3 3 -3
v 4 0 -3
v 4 3 -3
v -4 2 -4
v -4 3 -4
v -3 0 -4
v -3 1 -4
v -3 2 -4
v -3 3 -4
v -1 0 -4
v -1 1 -4
v -1 2 -4
v -1 3 -4
v 0 2 -4
v 0 3 -4
v 3 2 4
v 3 3 4
v 4 0 4
v 4 1 4
v 4 2 4
v 4 3 4
v 6 0 4
v 6 1 4
v 6 2 4
v 6 3 4
v 7 2 4
v 7 3 4
v 3 1 3
v 3 2 3
v 4 2 3
v 4 3 3
v 6 1 3
v 6 2 3
v 6 3 3
v 7 1 3
v 7 2 3
v -6 3 2
v -6 4 2
v -5 0 2
v -5 2 2
v -5 3 2
v -5 4 2
v -3 0 2
v -3 2 2
v -3 3 2
v -3 4 2
v -2 3 2
v -2 4 2
v -6 2 1
v -6 3 1
v -5 3 1
v -5 4 1
v -4 3 1
v -4 4 1
v -3 3 1
v -3 4 1
v -2 2 1
v -2 3 1
v 1 0 1
v 1 2 1
v 2 0 1
v 2 2 1
v 0 2 -0
v 0 3 -0
v 2 2 -0
v 2 3 -0
v 3 2 -0
v 3 3 -0
v 3 0 -4
v 3 3 -4
v 4 0 -4
v 4 3 -4
v 2 3 -5
v 2 4 -5
v 3 3 -5
v 3 4 -5
v 5 3 -5
v 5 4 -5
v -4 2 -6
v -4 3 -6
v -3 0 -6
v -3 1 -6
v -3 2 -6
v -3 3 -6
v -1 0 -6
v -1 1 -6
v -1 2 -6
v -1 3 -6
v 0 2 -6
v 0 3 -6
v -4 1 -7
v -4 2 -7
v -3 1 -7
v -3 2 -7
v -3 3 -7
v -1 2 -7
v -1 3 -7
v 0 1 -7
v 0 2 -7
v 4 0 6
v 6 0 6
v -5 0 4
v -3 0 4
v 4 0 4
v 6 0 4
v -5 0 2
v -3 0 2
v 1 0 2
v 2 0 2
v 1 0 1
v 2 0 1
v 3 0 -3
v 4 0 -3
v -3 0 -4
v -1 0 -4
v 3 0 -4
v 4 0 -4
v -3 0 -6
v -1 0 -6
v 3 1 7
v 7 1 7
v 4 1 6
v 6 1 6
v 4 1 4
v 6 1 4
v 7 1 4
v 3 1 3
v 6 1 3
v 7 1 3
v -4 1 -3
v -3 1 -3
v 0 1 -3
v -4 1 -4
v -3 1 -4
v -1 1 -4
v -4 1 -6
v -3 1 -6
v -1 1 -6
v -4 1 -7
v -3 1 -7
v 0 1 -7
v -6 2 5
v -5 2 5
v -2 2 5
v -6 2 4
v -5 2 4
v -3 2 4
v 0 2 3
v 3 2 3
v -5 2 2
v -3 2 2
v 0 2 2
v 1 2 2
v 2 2 2
v -6 2 1
v -2 2 1
v 0 2 1
v 1 2 1
v 2 2 1
v 3 2 1
v 0 2 -0
v 2 2 -0
v 3 2 -0
v 2 3 -2
v 3 3 -2
v 4 3 -2
v 5 3 -2
v 3 3 -3
v 4 3 -3
v 2 3 -4
v 3 3 -4
v 4 3 -4
v 2 3 -5
v 3 3 -5
v 5 3 -5
v 3 2 7
v 4 2 7
v 6 2 7
v 7 2 7
v 3 2 6
v 4 2 6
v 6 2 6
v 7 2 6
v 3 2 4
v 4 2 4
v 6 2 4
v 7 2 4
v 3 2 3
v 4 2 3
v 6 2 3
v 7 2 3
v -4 2 -3
v -3 2 -3
v -1 2 -3
v 0 2 -3
v -4 2 -4
v -3 2 -4
v -1 2 -4
v 0 2 -4
v -4 2 -6
v -3 2 -6
v -1 2 -6
v 0 2 -6
v -4 2 -7
v -3 2 -7
v -1 2 -7
v 0 2 -7
v 4 3 7
v 6 3 7
v 3 3 6
v 4 3 6
v 5 3 6
v 6 3 6
v 7 3 6
v -6 3 5
v -5 3 5
v -3 3 5
v -2 3 5
v 4 3 5
v 5 3 5
v -6 3 4
v -5 3 4
v -3 3 4
v -2 3 4
v 3 3 4
v 4 3 4
v 6 3 4
v 7 3 4
v 0 3 3
v 3 3 3
v 4 3 3
v 6 3 3
v -6 3 2
v -5 3 2
v -3 3 2
v -2 3 2
v 0 3 2
v 1 3 2
v -6 3 1
v -5 3 1
v -3 3 1
v -2 3 1
v 0 3 1
v 1 3 1
v 2 3 1
v 3 3 1
v 0 3 -0
v 2 3 -0
v 3 3 -0
v -3 3 -3
v -1 3 -3
v -4 3 -4
v -3 3 -4
v -1 3 -4
v 0 3 -4
v -1 3 -5
v 0 3 -5
v -4 3 -6
v -3 3 -6
v -1 3 -6
v 0 3 -6
v -3 3 -7
v -1 3 -7
v -5 4 5
v -3 4 5
v -6 4 4
v -5 4 4
v -3 4 4
v -2 4 4
v -3 4 3
v -2 4 3
v -6 4 2
v -5 4 2
v -4 4 2
v -3 4 2
v -2 4 2
v -5 4 1
v -4 4 1
v -3 4 1
v 2 4 -2
v 3 4 -2
v 4 4 -2
v 5 4 -2
v 3 4 -3
v 4 4 -3
v 2 4 -4
v 3 4 -4
v 2 4 -5
v 3 4 -5
v 5 4 -5

# faces
f 4/2/1 2/2/1 1/2/1
f 5/3/1 3/3/1 2/3/1
f 5/2/1 2/2/1 4/2/1
f 6/3/1 3/3/1 5/3/1
f 7/3/1 3/3/1 6/3/1
f 8/3/1 6/3/1 5/3/1
f 9/3/1 6/3/1 8/3/1
f 12/1/1 11/1/1 10/1/1
f 13/1/1 11/1/1 12/1/1
f 18/3/1 15/3/1 14/3/1
f 19/3/1 15/3/1 18/3/1
f 20/2/1 17/2/1 16/2/1
f 21/2/1 17/2/1 20/2/1
f 26/2/1 23/2/1 22/2/1
f 27/3/1 24/3/1 23/3/1
f 27/2/1 23/2/1 26/2/1
f 28/2/1 25/2/1 24/2/1
f 28/3/1 24/3/1 27/3/1
f 29/2/1 25/2/1 28/2/1
f 30/3/1 28/3/1 27/3/1
f 31/3/1 28/3/1 30/3/1
f 34/1/1 33/1/1 32/1/1
f 35/1/1 33/1/1 34/1/1
f 40/3/1 37/3/1 36/3/1
f 41/3/1 37/3/1 40/3/1
f 42/3/1 39/3/1 38/3/1
f 43/3/1 39/3/1 42/3/1
f 48/3/1 45/3/1 44/3/1
f 49/2/1 46/2/1 45/2/1
f 49/3/1 45/3/1 48/3/1
f 50/3/1 47/3/1 46/3/1
f 50/2/1 46/2/1 49/2/1
f 51/3/1 47/3/1 50/3/1
f 54/1/1 53/1/1 52/1/1
f 55/1/1 53/1/1 54/1/1
f 59/3/1 57/3/1 56/3/1
f 60/2/1 58/2/1 57/2/1
f 60/3/1 57/3/1 59/3/1
f 61/2/1 58/2/1 60/2/1
f 66/3/1 65/3/1 64/3/1
f 67/3/1 65/3/1 66/3/1
f 68/3/1 65/3/1 67/3/1
f 69/3/1 65/3/1 68/3/1
f 70/3/1 68/3/1 67/3/1
f 71/3/1 68/3/1 70/3/1
f 72/1/1 63/1/1 62/1/1
f 73/1/1 63/1/1 72/1/1
f 76/1/1 75/1/1 74/1/1
f 77/1/1 75/1/1 76/1/1
f 82/3/1 79/3/1 78/3/1
f 83/3/1 79/3/1 82/3/1
f 84/3/1 81/3/1 80/3/1
f 85/3/1 81/3/1 84/3/1
f 86/1/2 87/1/2 88/1/2
f 88/1/2 87/1/2 89/1/2
f 90/3/2 91/3/2 94/3/2
f 94/3/2 91/3/2 95/3/2
f 92/3/2 93/3/2 96/3/2
f 96/3/2 93/3/2 97/3/2
f 98/3/2 99/3/2 100/3/2
f 100/3/2 99/3/2 101/3/2
f 101/3/2 99/3/2 102/3/2
f 102/3/2 99/3/2 103/3/2
f 103/3/2 99/3/2 104/3/2
f 101/2/2 102/2/2 105/2/2
f 102/3/2 103/3/2 106/3/2
f 105/2/2 102/2/2 106/2/2
f 106/3/2 103/3/2 107/3/2
f 108/1/2 109/1/2 110/1/2
f 110/1/2 109/1/2 111/1/2
f 112/3/2 113/3/2 116/3/2
f 116/3/2 113/3/2 117/3/2
f 114/3/2 115/3/2 118/3/2
f 118/3/2 115/3/2 119/3/2
f 120/3/2 121/3/2 122/3/2
f 122/3/2 121/3/2 123/3/2
f 123/3/2 121/3/2 124/3/2
f 124/3/2 121/3/2 125/3/2
f 125/3/2 121/3/2 126/3/2
f 123/2/2 124/2/2 127/2/2
f 124/3/2 125/3/2 128/3/2
f 127/2/2 124/2/2 128/2/2
f 128/3/2 125/3/2 129/3/2
f 130/1/2 131/1/2 132/1/2
f 132/1/2 131/1/2 133/1/2
f 134/3/2 135/3/2 137/3/2
f 135/2/2 136/2/2 138/2/2
f 137/3/2 135/3/2 138/3/2
f 138/2/2 136/2/2 139/2/2
f 140/1/2 141/1/2 142/1/2
f 142/1/2 141/1/2 143/1/2
f 144/3/2 145/3/2 146/3/2
f 146/3/2 145/3/2 147/3/2
f 148/1/2 149/1/2 150/1/2
f 150/1/2 149/1/2 151/1/2
f 152/3/2 153/3/2 156/3/2
f 156/3/2 153/3/2 157/3/2
f 154/3/2 155/3/2 158/3/2
f 158/3/2 155/3/2 159/3/2
f 160/3/2 161/3/2 163/3/2
f 163/3/2 161/3/2 164/3/2
f 161/2/2 162/2/2 165/2/2
f 164/3/2 161/3/2 165/3/2
f 165/2/2 162/2/2 166/2/2
f 164/3/2 165/3/2 167/3/2
f 167/3/2 165/3/2 168/3/2
f 171/3/3 170/3/3 169/3/3
f 173/3/3 171/3/3 169/3/3
f 173/3/3 172/3/3 171/3/3
f 174/3/3 172/3/3 173/3/3
f 175/3/3 173/3/3 169/3/3
f 176/3/3 173/3/3 175/3/3
f 181/3/3 178/3/3 177/3/3
f 182/3/3 178/3/3 181/3/3
f 183/1/3 180/1/3 179/1/3
f 184/1/3 180/1/3 183/1/3
f 187/3/3 186/3/3 185/3/3
f 188/3/3 186/3/3 187/3/3
f 191/2/3 190/2/3 189/2/3
f 192/2/3 190/2/3 191/2/3
f 194/3/3 192/3/3 191/3/3
f 194/3/3 193/3/3 192/3/3
f 195/3/3 193/3/3 194/3/3
f 196/3/3 194/3/3 191/3/3
f 197/3/3 194/3/3 196/3/3
f 202/3/3 199/3/3 198/3/3
f 203/3/3 199/3/3 202/3/3
f 204/1/3 201/1/3 200/1/3
f 205/1/3 201/1/3 204/1/3
f 208/2/3 207/2/3 206/2/3
f 209/2/3 207/2/3 208/2/3
f 212/3/3 211/3/3 210/3/3
f 213/3/3 211/3/3 212/3/3
f 216/1/3 215/1/3 214/1/3
f 217/1/3 215/1/3 216/1/3
f 220/3/3 219/3/3 218/3/3
f 221/3/3 219/3/3 220/3/3
f 222/2/3 221/2/3 220/2/3
f 223/2/3 221/2/3 222/2/3
f 224/3/3 223/3/3 222/3/3
f 225/3/3 223/3/3 224/3/3
f 228/2/3 227/2/3 226/2/3
f 229/2/3 227/2/3 228/2/3
f 231/3/3 229/3/3 228/3/3
f 231/3/3 230/3/3 229/3/3
f 232/3/3 230/3/3 231/3/3
f 233/3/3 231/3/3 228/3/3
f 234/3/3 231/3/3 233/3/3
f 237/1/3 236/1/3 235/1/3
f 238/1/3 236/1/3 237/1/3
f 243/3/3 240/3/3 239/3/3
f 244/3/3 240/3/3 243/3/3
f 245/1/3 242/1/3 241/1/3
f 246/1/3 242/1/3 245/1/3
f 249/2/3 248/2/3 247/2/3
f 250/2/3 248/2/3 249/2/3
f 251/3/4 252/3/4 255/3/4
f 255/3/4 252/3/4 256/3/4
f 253/1/4 254/1/4 257/1/4
f 257/1/4 254/1/4 258/1/4
f 259/3/4 260/3/4 261/3/4
f 261/3/4 260/3/4 262/3/4
f 263/3/4 264/3/4 265/3/4
f 263/3/4 265/3/4 267/3/4
f 265/3/4 266/3/4 267/3/4
f 267/3/4 266/3/4 268/3/4
f 268/3/4 266/3/4 269/3/4
f 267/2/4 268/2/4 270/2/4
f 270/2/4 268/2/4 271/2/4
f 272/3/4 273/3/4 276/3/4
f 276/3/4 273/3/4 277/3/4
f 274/1/4 275/1/4 278/1/4
f 278/1/4 275/1/4 279/1/4
f 280/3/4 281/3/4 282/3/4
f 282/3/4 281/3/4 283/3/4
f 284/3/4 285/3/4 286/3/4
f 284/3/4 286/3/4 288/3/4
f 286/2/4 287/2/4 288/2/4
f 288/2/4 287/2/4 289/2/4
f 284/3/4 288/3/4 290/3/4
f 288/3/4 289/3/4 290/3/4
f 290/3/4 289/3/4 291/3/4
f 284/3/4 290/3/4 292/3/4
f 292/3/4 290/3/4 293/3/4
f 294/1/4 295/1/4 296/1/4
f 296/1/4 295/1/4 297/1/4
f 298/3/4 299/3/4 300/3/4
f 300/3/4 299/3/4 301/3/4
f 300/2/4 301/2/4 302/2/4
f 302/2/4 301/2/4 303/2/4
f 304/1/4 305/1/4 306/1/4
f 306/1/4 305/1/4 307/1/4
f 308/2/4 309/2/4 310/2/4
f 310/2/4 309/2/4 311/2/4
f 310/3/4 311/3/4 312/3/4
f 312/3/4 311/3/4 313/3/4
f 314/3/4 315/3/4 318/3/4
f 318/3/4 315/3/4 319/3/4
f 316/1/4 317/1/4 320/1/4
f 320/1/4 317/1/4 321/1/4
f 322/3/4 323/3/4 324/3/4
f 324/3/4 323/3/4 325/3/4
f 326/2/4 327/2/4 328/2/4
f 328/2/4 327/2/4 329/2/4
f 328/3/4 329/3/4 331/3/4
f 329/3/4 330/3/4 331/3/4
f 331/3/4 330/3/4 332/3/4
f 328/3/4 331/3/4 333/3/4
f 333/3/4 331/3/4 334/3/4
f 339/1/5 336/1/5 335/1/5
f 340/1/5 336/1/5 339/1/5
f 341/1/5 338/1/5 337/1/5
f 342/1/5 338/1/5 341/1/5
f 345/1/5 344/1/5 343/1/5
f 346/1/5 344/1/5 345/1/5
f 351/1/5 348/1/5 347/1/5
f 352/1/5 348/1/5 351/1/5
f 353/1/5 350/1/5 349/1/5
f 354/1/5 350/1/5 353/1/5
f 357/3/5 356/3/5 355/3/5
f 358/3/5 356/3/5 357/3/5
f 359/3/5 357/3/5 355/3/5
f 360/3/5 356/3/5 358/3/5
f 361/3/5 356/3/5 360/3/5
f 362/3/5 359/3/5 355/3/5
f 362/3/5 360/3/5 359/3/5
f 363/2/5 361/2/5 360/2/5
f 363/3/5 360/3/5 362/3/5
f 364/2/5 361/2/5 363/2/5
f 368/2/5 366/2/5 365/2/5
f 369/3/5 367/3/5 366/3/5
f 369/2/5 366/2/5 368/2/5
f 370/3/5 367/3/5 369/3/5
f 371/3/5 369/3/5 368/3/5
f 372/3/5 369/3/5 371/3/5
f 373/3/5 367/3/5 370/3/5
f 374/2/5 372/2/5 371/2/5
f 375/3/5 373/3/5 372/3/5
f 375/2/5 372/2/5 374/2/5
f 376/3/5 367/3/5 373/3/5
f 376/3/5 373/3/5 375/3/5
f 380/2/5 378/2/5 377/2/5
f 381/3/5 379/3/5 378/3/5
f 381/2/5 378/2/5 380/2/5
f 382/3/5 379/3/5 381/3/5
f 385/3/5 381/3/5 380/3/5
f 386/3/5 379/3/5 382/3/5
f 387/3/5 384/3/5 383/3/5
f 388/3/5 384/3/5 387/3/5
f 389/3/5 384/3/5 388/3/5
f 390/3/5 386/3/5 385/3/5
f 390/3/5 385/3/5 380/3/5
f 391/3/5 379/3/5 386/3/5
f 391/3/5 386/3/5 390/3/5
f 392/2/5 388/2/5 387/2/5
f 393/2/5 388/2/5 392/2/5
f 394/3/5 384/3/5 389/3/5
f 395/3/5 384/3/5 394/3/5
f 396/3/5 393/3/5 392/3/5
f 396/3/5 394/3/5 393/3/5
f 397/2/5 395/2/5 394/2/5
f 397/3/5 394/3/5 396/3/5
f 398/2/5 395/2/5 397/2/5
f 403/3/5 400/3/5 399/3/5
f 403/2/5 401/2/5 400/2/5
f 404/3/5 402/3/5 401/3/5
f 404/2/5 401/2/5 403/2/5
f 405/3/5 403/3/5 399/3/5
f 406/3/5 403/3/5 405/3/5
f 407/3/5 402/3/5 404/3/5
f 408/2/5 406/2/5 405/2/5
f 409/3/5 407/3/5 406/3/5
f 409/2/5 406/2/5 408/2/5
f 410/3/5 402/3/5 407/3/5
f 410/3/5 407/3/5 409/3/5
f 411/3/6 412/3/6 415/3/6
f 415/3/6 412/3/6 416/3/6
f 413/3/6 414/3/6 417/3/6
f 417/3/6 414/3/6 418/3/6
f 419/3/6 420/3/6 423/3/6
f 423/3/6 420/3/6 424/3/6
f 421/2/6 422/2/6 425/2/6
f 425/2/6 422/2/6 426/2/6
f 427/2/6 428/2/6 431/2/6
f 431/2/6 428/2/6 432/2/6
f 429/3/6 430/3/6 433/3/6
f 433/3/6 430/3/6 434/3/6
f 435/2/6 436/2/6 439/2/6
f 439/2/6 436/2/6 440/2/6
f 437/3/6 438/3/6 441/3/6
f 441/3/6 438/3/6 442/3/6
f 443/3/6 444/3/6 446/3/6
f 446/3/6 444/3/6 447/3/6
f 447/3/6 444/3/6 448/3/6
f 445/3/6 446/3/6 454/3/6
f 446/2/6 447/2/6 454/2/6
f 447/3/6 448/3/6 455/3/6
f 454/2/6 447/2/6 455/2/6
f 448/3/6 449/3/6 455/3/6
f 450/2/6 451/2/6 456/2/6
f 456/2/6 451/2/6 457/2/6
f 452/3/6 453/3/6 458/3/6
f 458/3/6 453/3/6 459/3/6
f 445/3/6 454/3/6 460/3/6
f 454/3/6 455/3/6 460/3/6
f 460/3/6 455/3/6 461/3/6
f 455/3/6 449/3/6 462/3/6
f 461/3/6 455/3/6 462/3/6
f 462/3/6 449/3/6 463/3/6
f 461/3/6 462/3/6 466/3/6
f 466/3/6 462/3/6 467/3/6
f 464/3/6 465/3/6 472/3/6
f 472/3/6 465/3/6 473/3/6
f 468/3/6 469/3/6 474/3/6
f 474/3/6 469/3/6 475/3/6
f 470/3/6 471/3/6 476/3/6
f 476/3/6 471/3/6 477/3/6
f 472/2/6 473/2/6 478/2/6
f 473/3/6 465/3/6 479/3/6
f 478/2/6 473/2/6 479/2/6
f 479/3/6 465/3/6 480/3/6
f 480/3/6 465/3/6 481/3/6
f 478/3/6 479/3/6 482/3/6
f 479/3/6 480/3/6 482/3/6
f 480/2/6 481/2/6 483/2/6
f 482/3/6 480/3/6 483/3/6
f 483/2/6 481/2/6 484/2/6
f 485/3/6 486/3/6 488/3/6
f 488/3/6 486/3/6 489/3/6
f 487/3/6 488/3/6 491/3/6
f 489/2/6 490/2/6 491/2/6
f 488/3/6 489/3/6 491/3/6
f 491/2/6 490/2/6 492/2/6
f 487/3/6 491/3/6 493/3/6
f 491/3/6 492/3/6 493/3/6
f 493/3/6 492/3/6 494/3/6
f 494/3/6 492/3/6 495/3/6
f 495/3/6 492/3/6 496/3/6
f 494/3/6 495/3/6 497/3/6
f 497/3/6 495/3/6 498/3/6
f 499/3/6 500/3/6 502/3/6
f 502/3/6 500/3/6 503/3/6
f 501/3/6 502/3/6 505/3/6
f 503/2/6 504/2/6 505/2/6
f 502/3/6 503/3/6 505/3/6
f 505/2/6 504/2/6 506/2/6
f 501/3/6 505/3/6 507/3/6
f 505/3/6 506/3/6 507/3/6
f 507/3/6 506/3/6 508/3/6
f 508/3/6 506/3/6 509/3/6
f 509/3/6 506/3/6 510/3/6
f 510/3/6 506/3/6 511/3/6
f 508/2/6 509/2/6 512/2/6
f 509/3/6 510/3/6 513/3/6
f 512/2/6 509/2/6 513/2/6
f 513/3/6 510/3/6 514/3/6
f 515/3/6 516/3/6 519/3/6
f 516/2/6 517/2/6 519/2/6
f 517/3/6 518/3/6 520/3/6
f 519/2/6 517/2/6 520/2/6
f 515/3/6 519/3/6 521/3/6
f 519/3/6 520/3/6 521/3/6
f 521/3/6 520/3/6 522/3/6
f 521/2/6 522/2/6 523/2/6
f 522/3/6 520/3/6 524/3/6
f 523/2/6 522/2/6 524/2/6
f 520/3/6 518/3/6 525/3/6
f 524/3/6 520/3/6 525/3/6
