# MagicaVoxel @ Ephtracy

# material
mtllib cat.mtl
usemtl palette

# normals
vn -1 0 0
vn 1 0 0
vn 0 0 1
vn 0 0 -1
vn 0 -1 0
vn 0 1 0

# texcoords
vt 0.0292969 0.5
vt 0.0566406 0.5
vt 0.0644531 0.5
vt 0.0878906 0.5
vt 0.0917969 0.5
vt 0.537109 0.5
vt 0.888672 0.5
vt 0.986328 0.5
vt 0.990234 0.5

# verts
v -6 6 1
v -6 6 -0
v -6 8 1
v -6 8 -0
v -5 4 1
v -5 4 -0
v -5 6 1
v -5 6 -0
v -4 4 -0
v -4 4 -1
v -4 5 -0
v -4 5 -1
v -3 0 3
v -3 0 1
v -3 0 -1
v -3 0 -3
v -3 1 3
v -3 1 1
v -3 1 -1
v -3 1 -3
v -3 4 1
v -3 4 -1
v -3 5 1
v -3 5 -1
v -3 7 3
v -3 7 1
v -3 7 -1
v -3 7 -3
v 2 0 3
v 2 0 1
v 2 0 -1
v 2 0 -3
v 2 1 3
v 2 1 1
v 2 1 -1
v 2 1 -3
v 2 6 4
v 2 6 3
v 2 6 -3
v 2 6 -4
v 2 7 4
v 2 7 3
v 2 7 2
v 2 7 -2
v 2 7 -3
v 2 7 -4
v 2 8 4
v 2 8 3
v 2 8 2
v 2 8 -2
v 2 8 -3
v 2 8 -4
v 4 4 4
v 4 4 3
v 4 4 -3
v 4 4 -4
v 4 5 4
v 4 5 3
v 4 5 -3
v 4 5 -4
v -5 7 1
v -5 7 -0
v -5 8 1
v -5 8 -0
v -4 5 1
v -4 5 -0
v -4 7 1
v -4 7 -0
v -1 0 3
v -1 0 1
v -1 0 -1
v -1 0 -3
v -1 1 3
v -1 1 1
v -1 1 -1
v -1 1 -3
v 3 6 4
v 3 6 3
v 3 6 -3
v 3 6 -4
v 3 7 4
v 3 7 3
v 3 7 2
v 3 7 -2
v 3 7 -3
v 3 7 -4
v 3 8 4
v 3 8 3
v 3 8 2
v 3 8 -2
v 3 8 -3
v 3 8 -4
v 4 0 3
v 4 0 1
v 4 0 -1
v 4 0 -3
v 4 1 3
v 4 1 1
v 4 1 -1
v 4 1 -3
v 4 2 2
v 4 2 1
v 4 2 -1
v 4 2 -2
v 4 3 3
v 4 3 2
v 4 3 -2
v 4 3 -3
v 4 5 2
v 4 5 1
v 4 5 -1
v 4 5 -2
v 4 6 3
v 4 6 2
v 4 6 -2
v 4 6 -3
v 4 7 3
v 4 7 1
v 4 7 -1
v 4 7 -3
v 5 2 2
v 5 2 -2
v 5 3 3
v 5 3 2
v 5 3 1
v 5 3 -1
v 5 3 -2
v 5 3 -3
v 5 4 4
v 5 4 3
v 5 4 2
v 5 4 1
v 5 4 -1
v 5 4 -2
v 5 4 -3
v 5 4 -4
v 5 5 4
v 5 5 3
v 5 5 2
v 5 5 1
v 5 5 -1
v 5 5 -2
v 5 5 -3
v 5 5 -4
v 5 6 3
v 5 6 2
v 5 6 -2
v 5 6 -3
v 2 6 4
v 2 7 4
v 2 8 4
v 3 6 4
v 3 7 4
v 3 8 4
v 4 4 4
v 4 5 4
v 5 4 4
v 5 5 4
v -3 0 3
v -3 1 3
v -3 7 3
v -2 5 3
v -2 7 3
v -1 0 3
v -1 1 3
v -1 5 3
v -1 7 3
v 0 4 3
v 0 7 3
v 1 4 3
v 1 7 3
v 2 0 3
v 2 1 3
v 2 3 3
v 2 6 3
v 2 7 3
v 3 3 3
v 3 6 3
v 3 7 3
v 4 0 3
v 4 1 3
v 4 3 3
v 4 4 3
v 4 5 3
v 4 6 3
v 4 7 3
v 5 3 3
v 5 4 3
v 5 5 3
v 5 6 3
v 4 2 2
v 4 3 2
v 5 2 2
v 5 3 2
v -6 6 1
v -6 8 1
v -5 4 1
v -5 6 1
v -5 7 1
v -5 8 1
v -4 5 1
v -4 7 1
v -3 4 1
v -3 5 1
v -3 0 -1
v -3 1 -1
v -1 0 -1
v -1 1 -1
v 2 0 -1
v 2 1 -1
v 4 0 -1
v 4 1 -1
v 2 7 -2
v 2 8 -2
v 3 7 -2
v 3 8 -2
v 4 5 -2
v 4 6 -2
v 5 5 -2
v 5 6 -2
v 2 7 2
v 2 8 2
v 3 7 2
v 3 8 2
v 4 5 2
v 4 6 2
v 5 5 2
v 5 6 2
v -3 0 1
v -3 1 1
v -1 0 1
v -1 1 1
v 2 0 1
v 2 1 1
v 4 0 1
v 4 1 1
v -6 6 -0
v -6 8 -0
v -5 4 -0
v -5 6 -0
v -5 7 -0
v -5 8 -0
v -4 4 -0
v -4 5 -0
v -4 7 -0
v -4 4 -1
v -4 5 -1
v -3 4 -1
v -3 5 -1
v 4 2 -2
v 4 3 -2
v 5 2 -2
v 5 3 -2
v -3 0 -3
v -3 1 -3
v -3 7 -3
v -2 5 -3
v -2 7 -3
v -1 0 -3
v -1 1 -3
v -1 5 -3
v -1 7 -3
v 0 4 -3
v 0 7 -3
v 1 4 -3
v 1 7 -3
v 2 0 -3
v 2 1 -3
v 2 3 -3
v 2 6 -3
v 2 7 -3
v 3 3 -3
v 3 6 -3
v 3 7 -3
v 4 0 -3
v 4 1 -3
v 4 3 -3
v 4 4 -3
v 4 5 -3
v 4 6 -3
v 4 7 -3
v 5 3 -3
v 5 4 -3
v 5 5 -3
v 5 6 -3
v 2 6 -4
v 2 7 -4
v 2 8 -4
v 3 6 -4
v 3 7 -4
v 3 8 -4
v 4 4 -4
v 4 5 -4
v 5 4 -4
v 5 5 -4
v -3 0 3
v -1 0 3
v 2 0 3
v 4 0 3
v -3 0 1
v -1 0 1
v 2 0 1
v 4 0 1
v -3 0 -1
v -1 0 -1
v 2 0 -1
v 4 0 -1
v -3 0 -3
v -1 0 -3
v 2 0 -3
v 4 0 -3
v -1 1 3
v 2 1 3
v -3 1 1
v -1 1 1
v 2 1 1
v 4 1 1
v -3 1 -1
v -1 1 -1
v 2 1 -1
v 4 1 -1
v -1 1 -3
v 2 1 -3
v 4 2 2
v 5 2 2
v 4 2 1
v 4 2 -1
v 4 2 -2
v 5 2 -2
v 4 3 3
v 5 3 3
v 4 3 2
v 5 3 2
v 4 3 -2
v 5 3 -2
v 4 3 -3
v 5 3 -3
v 4 4 4
v 5 4 4
v 4 4 3
v 5 4 3
v -5 4 1
v -3 4 1
v -5 4 -0
v -4 4 -0
v -4 4 -1
v -3 4 -1
v 4 4 -3
v 5 4 -3
v 4 4 -4
v 5 4 -4
v 2 6 4
v 3 6 4
v 2 6 3
v 3 6 3
v -6 6 1
v -5 6 1
v -6 6 -0
v -5 6 -0
v 2 6 -3
v 3 6 -3
v 2 6 -4
v 3 6 -4
v 4 5 4
v 5 5 4
v 4 5 3
v 5 5 3
v 4 5 2
v 5 5 2
v -4 5 1
v -3 5 1
v 4 5 1
v 5 5 1
v -4 5 -0
v -4 5 -1
v -3 5 -1
v 4 5 -1
v 5 5 -1
v 4 5 -2
v 5 5 -2
v 4 5 -3
v 5 5 -3
v 4 5 -4
v 5 5 -4
v 4 6 3
v 5 6 3
v 4 6 2
v 5 6 2
v 4 6 -2
v 5 6 -2
v 4 6 -3
v 5 6 -3
v -3 7 3
v -2 7 3
v -1 7 3
v 0 7 3
v 1 7 3
v 2 7 3
v 3 7 3
v 4 7 3
v 2 7 2
v 3 7 2
v -5 7 1
v -4 7 1
v -3 7 1
v -2 7 1
v -1 7 1
v 0 7 1
v 1 7 1
v 2 7 1
v 3 7 1
v 4 7 1
v -5 7 -0
v -4 7 -0
v -3 7 -1
v -2 7 -1
v -1 7 -1
v 0 7 -1
v 1 7 -1
v 2 7 -1
v 3 7 -1
v 4 7 -1
v 2 7 -2
v 3 7 -2
v -3 7 -3
v -2 7 -3
v -1 7 -3
v 0 7 -3
v 1 7 -3
v 2 7 -3
v 3 7 -3
v 4 7 -3
v 2 8 4
v 3 8 4
v 2 8 3
v 3 8 3
v 2 8 2
v 3 8 2
v -6 8 1
v -5 8 1
v -6 8 -0
v -5 8 -0
v 2 8 -2
v 3 8 -2
v 2 8 -3
v 3 8 -3
v 2 8 -4
v 3 8 -4

# faces
f 3/4/1 2/4/1 1/4/1
f 4/4/1 2/4/1 3/4/1
f 7/4/1 6/4/1 5/4/1
f 8/4/1 6/4/1 7/4/1
f 11/4/1 10/4/1 9/4/1
f 12/4/1 10/4/1 11/4/1
f 17/6/1 14/6/1 13/6/1
f 18/6/1 14/6/1 17/6/1
f 19/6/1 16/6/1 15/6/1
f 20/6/1 16/6/1 19/6/1
f 21/9/1 18/9/1 17/9/1
f 21/8/1 19/8/1 18/8/1
f 22/9/1 20/9/1 19/9/1
f 22/8/1 19/8/1 21/8/1
f 23/9/1 21/9/1 17/9/1
f 24/9/1 20/9/1 22/9/1
f 25/9/1 23/9/1 17/9/1
f 26/8/1 24/8/1 23/8/1
f 26/9/1 23/9/1 25/9/1
f 27/9/1 20/9/1 24/9/1
f 27/8/1 24/8/1 26/8/1
f 28/9/1 20/9/1 27/9/1
f 33/6/1 30/6/1 29/6/1
f 34/6/1 30/6/1 33/6/1
f 35/6/1 32/6/1 31/6/1
f 36/6/1 32/6/1 35/6/1
f 41/4/1 38/4/1 37/4/1
f 42/4/1 38/4/1 41/4/1
f 45/4/1 40/4/1 39/4/1
f 46/4/1 40/4/1 45/4/1
f 47/3/1 42/3/1 41/3/1
f 48/4/1 43/4/1 42/4/1
f 48/3/1 42/3/1 47/3/1
f 49/4/1 43/4/1 48/4/1
f 50/4/1 45/4/1 44/4/1
f 51/3/1 46/3/1 45/3/1
f 51/4/1 45/4/1 50/4/1
f 52/3/1 46/3/1 51/3/1
f 57/6/1 54/6/1 53/6/1
f 58/6/1 54/6/1 57/6/1
f 59/6/1 56/6/1 55/6/1
f 60/6/1 56/6/1 59/6/1
f 61/4/2 62/4/2 63/4/2
f 63/4/2 62/4/2 64/4/2
f 65/4/2 66/4/2 67/4/2
f 67/4/2 66/4/2 68/4/2
f 69/6/2 70/6/2 73/6/2
f 73/6/2 70/6/2 74/6/2
f 71/6/2 72/6/2 75/6/2
f 75/6/2 72/6/2 76/6/2
f 77/4/2 78/4/2 81/4/2
f 81/4/2 78/4/2 82/4/2
f 79/4/2 80/4/2 85/4/2
f 85/4/2 80/4/2 86/4/2
f 81/3/2 82/3/2 87/3/2
f 82/4/2 83/4/2 88/4/2
f 87/3/2 82/3/2 88/3/2
f 88/4/2 83/4/2 89/4/2
f 84/4/2 85/4/2 90/4/2
f 85/3/2 86/3/2 91/3/2
f 90/4/2 85/4/2 91/4/2
f 91/3/2 86/3/2 92/3/2
f 93/6/2 94/6/2 97/6/2
f 97/6/2 94/6/2 98/6/2
f 95/6/2 96/6/2 99/6/2
f 99/6/2 96/6/2 100/6/2
f 97/9/2 98/9/2 101/9/2
f 98/8/2 99/8/2 102/8/2
f 101/9/2 98/9/2 102/9/2
f 99/9/2 100/9/2 103/9/2
f 102/8/2 99/8/2 103/8/2
f 103/9/2 100/9/2 104/9/2
f 97/9/2 101/9/2 105/9/2
f 105/9/2 101/9/2 106/9/2
f 104/9/2 100/9/2 107/9/2
f 107/9/2 100/9/2 108/9/2
f 109/9/2 110/9/2 114/9/2
f 111/9/2 112/9/2 115/9/2
f 113/9/2 114/9/2 117/9/2
f 110/8/2 111/8/2 118/8/2
f 117/9/2 114/9/2 118/9/2
f 114/9/2 110/9/2 118/9/2
f 115/9/2 116/9/2 119/9/2
f 118/8/2 111/8/2 119/8/2
f 111/9/2 115/9/2 119/9/2
f 119/9/2 116/9/2 120/9/2
f 121/1/2 122/1/2 124/1/2
f 124/1/2 122/1/2 125/1/2
f 125/1/2 122/1/2 126/1/2
f 126/1/2 122/1/2 127/1/2
f 123/6/2 124/6/2 130/6/2
f 124/1/2 125/1/2 131/1/2
f 130/6/2 124/6/2 131/6/2
f 125/2/2 126/2/2 132/2/2
f 131/1/2 125/1/2 132/1/2
f 126/1/2 127/1/2 133/1/2
f 132/2/2 126/2/2 133/2/2
f 127/6/2 128/6/2 134/6/2
f 133/1/2 127/1/2 134/1/2
f 134/6/2 128/6/2 135/6/2
f 129/6/2 130/6/2 137/6/2
f 130/7/2 131/7/2 138/7/2
f 137/6/2 130/6/2 138/6/2
f 131/6/2 132/6/2 139/6/2
f 138/7/2 131/7/2 139/7/2
f 132/5/2 133/5/2 140/5/2
f 139/6/2 132/6/2 140/6/2
f 133/6/2 134/6/2 141/6/2
f 140/5/2 133/5/2 141/5/2
f 134/7/2 135/7/2 142/7/2
f 141/6/2 134/6/2 142/6/2
f 135/6/2 136/6/2 143/6/2
f 142/7/2 135/7/2 143/7/2
f 143/6/2 136/6/2 144/6/2
f 138/6/2 139/6/2 145/6/2
f 145/6/2 139/6/2 146/6/2
f 142/6/2 143/6/2 147/6/2
f 147/6/2 143/6/2 148/6/2
f 152/4/3 150/4/3 149/4/3
f 153/3/3 151/3/3 150/3/3
f 153/4/3 150/4/3 152/4/3
f 154/3/3 151/3/3 153/3/3
f 157/6/3 156/6/3 155/6/3
f 158/6/3 156/6/3 157/6/3
f 162/9/3 161/9/3 160/9/3
f 163/9/3 161/9/3 162/9/3
f 164/6/3 160/6/3 159/6/3
f 165/9/3 162/9/3 160/9/3
f 165/6/3 160/6/3 164/6/3
f 166/8/3 163/8/3 162/8/3
f 166/9/3 162/9/3 165/9/3
f 167/8/3 163/8/3 166/8/3
f 168/9/3 166/9/3 165/9/3
f 168/9/3 167/9/3 166/9/3
f 169/9/3 167/9/3 168/9/3
f 170/9/3 168/9/3 165/9/3
f 170/8/3 169/8/3 168/8/3
f 171/8/3 169/8/3 170/8/3
f 173/9/3 170/9/3 165/9/3
f 173/9/3 171/9/3 170/9/3
f 174/9/3 171/9/3 173/9/3
f 175/9/3 171/9/3 174/9/3
f 176/9/3 171/9/3 175/9/3
f 177/9/3 174/9/3 173/9/3
f 177/8/3 175/8/3 174/8/3
f 178/8/3 175/8/3 177/8/3
f 180/6/3 173/6/3 172/6/3
f 181/9/3 179/9/3 178/9/3
f 181/6/3 173/6/3 180/6/3
f 181/9/3 177/9/3 173/9/3
f 181/9/3 178/9/3 177/9/3
f 182/9/3 179/9/3 181/9/3
f 183/9/3 179/9/3 182/9/3
f 184/9/3 179/9/3 183/9/3
f 185/9/3 179/9/3 184/9/3
f 186/9/3 179/9/3 185/9/3
f 187/6/3 183/6/3 182/6/3
f 188/6/3 183/6/3 187/6/3
f 189/6/3 185/6/3 184/6/3
f 190/6/3 185/6/3 189/6/3
f 193/1/3 192/1/3 191/1/3
f 194/1/3 192/1/3 193/1/3
f 198/4/3 196/4/3 195/4/3
f 199/4/3 196/4/3 198/4/3
f 200/4/3 196/4/3 199/4/3
f 201/4/3 198/4/3 197/4/3
f 201/4/3 199/4/3 198/4/3
f 202/4/3 199/4/3 201/4/3
f 203/4/3 201/4/3 197/4/3
f 204/4/3 201/4/3 203/4/3
f 207/6/3 206/6/3 205/6/3
f 208/6/3 206/6/3 207/6/3
f 211/6/3 210/6/3 209/6/3
f 212/6/3 210/6/3 211/6/3
f 215/4/3 214/4/3 213/4/3
f 216/4/3 214/4/3 215/4/3
f 219/6/3 218/6/3 217/6/3
f 220/6/3 218/6/3 219/6/3
f 221/4/4 222/4/4 223/4/4
f 223/4/4 222/4/4 224/4/4
f 225/6/4 226/6/4 227/6/4
f 227/6/4 226/6/4 228/6/4
f 229/6/4 230/6/4 231/6/4
f 231/6/4 230/6/4 232/6/4
f 233/6/4 234/6/4 235/6/4
f 235/6/4 234/6/4 236/6/4
f 237/4/4 238/4/4 240/4/4
f 240/4/4 238/4/4 241/4/4
f 241/4/4 238/4/4 242/4/4
f 239/4/4 240/4/4 243/4/4
f 240/4/4 241/4/4 243/4/4
f 243/4/4 241/4/4 244/4/4
f 244/4/4 241/4/4 245/4/4
f 246/4/4 247/4/4 248/4/4
f 248/4/4 247/4/4 249/4/4
f 250/1/4 251/1/4 252/1/4
f 252/1/4 251/1/4 253/1/4
f 255/9/4 256/9/4 257/9/4
f 257/9/4 256/9/4 258/9/4
f 254/6/4 255/6/4 259/6/4
f 255/9/4 257/9/4 260/9/4
f 259/6/4 255/6/4 260/6/4
f 257/8/4 258/8/4 261/8/4
f 260/9/4 257/9/4 261/9/4
f 261/8/4 258/8/4 262/8/4
f 260/9/4 261/9/4 263/9/4
f 261/9/4 262/9/4 263/9/4
f 263/9/4 262/9/4 264/9/4
f 260/9/4 263/9/4 265/9/4
f 263/8/4 264/8/4 265/8/4
f 265/8/4 264/8/4 266/8/4
f 260/9/4 265/9/4 268/9/4
f 265/9/4 266/9/4 268/9/4
f 268/9/4 266/9/4 269/9/4
f 269/9/4 266/9/4 270/9/4
f 270/9/4 266/9/4 271/9/4
f 268/9/4 269/9/4 272/9/4
f 269/8/4 270/8/4 272/8/4
f 272/8/4 270/8/4 273/8/4
f 267/6/4 268/6/4 275/6/4
f 273/9/4 274/9/4 276/9/4
f 275/6/4 268/6/4 276/6/4
f 268/9/4 272/9/4 276/9/4
f 272/9/4 273/9/4 276/9/4
f 276/9/4 274/9/4 277/9/4
f 277/9/4 274/9/4 278/9/4
f 278/9/4 274/9/4 279/9/4
f 279/9/4 274/9/4 280/9/4
f 280/9/4 274/9/4 281/9/4
f 277/6/4 278/6/4 282/6/4
f 282/6/4 278/6/4 283/6/4
f 279/6/4 280/6/4 284/6/4
f 284/6/4 280/6/4 285/6/4
f 286/4/4 287/4/4 289/4/4
f 287/3/4 288/3/4 290/3/4
f 289/4/4 287/4/4 290/4/4
f 290/3/4 288/3/4 291/3/4
f 292/6/4 293/6/4 294/6/4
f 294/6/4 293/6/4 295/6/4
f 300/6/5 297/6/5 296/6/5
f 301/6/5 297/6/5 300/6/5
f 302/6/5 299/6/5 298/6/5
f 303/6/5 299/6/5 302/6/5
f 308/6/5 305/6/5 304/6/5
f 309/6/5 305/6/5 308/6/5
f 310/6/5 307/6/5 306/6/5
f 311/6/5 307/6/5 310/6/5
f 315/9/5 313/9/5 312/9/5
f 316/9/5 313/9/5 315/9/5
f 318/8/5 315/8/5 314/8/5
f 318/8/5 317/8/5 316/8/5
f 318/8/5 316/8/5 315/8/5
f 319/8/5 317/8/5 318/8/5
f 320/8/5 317/8/5 319/8/5
f 321/8/5 317/8/5 320/8/5
f 322/9/5 320/9/5 319/9/5
f 323/9/5 320/9/5 322/9/5
f 326/1/5 325/1/5 324/1/5
f 327/1/5 325/1/5 326/1/5
f 328/1/5 325/1/5 327/1/5
f 329/1/5 325/1/5 328/1/5
f 332/6/5 331/6/5 330/6/5
f 333/6/5 331/6/5 332/6/5
f 336/6/5 335/6/5 334/6/5
f 337/6/5 335/6/5 336/6/5
f 340/6/5 339/6/5 338/6/5
f 341/6/5 339/6/5 340/6/5
f 344/4/5 343/4/5 342/4/5
f 345/4/5 343/4/5 344/4/5
f 346/4/5 343/4/5 345/4/5
f 347/4/5 343/4/5 346/4/5
f 350/6/5 349/6/5 348/6/5
f 351/6/5 349/6/5 350/6/5
f 354/4/5 353/4/5 352/4/5
f 355/4/5 353/4/5 354/4/5
f 358/4/5 357/4/5 356/4/5
f 359/4/5 357/4/5 358/4/5
f 362/4/5 361/4/5 360/4/5
f 363/4/5 361/4/5 362/4/5
f 364/6/6 365/6/6 366/6/6
f 366/6/6 365/6/6 367/6/6
f 368/6/6 369/6/6 372/6/6
f 372/6/6 369/6/6 373/6/6
f 370/4/6 371/4/6 374/4/6
f 374/4/6 371/4/6 375/4/6
f 375/4/6 371/4/6 376/4/6
f 372/5/6 373/5/6 377/5/6
f 377/5/6 373/5/6 378/5/6
f 377/6/6 378/6/6 379/6/6
f 379/6/6 378/6/6 380/6/6
f 381/6/6 382/6/6 383/6/6
f 383/6/6 382/6/6 384/6/6
f 385/6/6 386/6/6 387/6/6
f 387/6/6 386/6/6 388/6/6
f 389/6/6 390/6/6 391/6/6
f 391/6/6 390/6/6 392/6/6
f 397/9/6 398/9/6 401/9/6
f 399/9/6 400/9/6 402/9/6
f 393/9/6 394/9/6 405/9/6
f 394/8/6 395/8/6 406/8/6
f 405/9/6 394/9/6 406/9/6
f 395/9/6 396/9/6 407/9/6
f 406/8/6 395/8/6 407/8/6
f 396/8/6 397/8/6 408/8/6
f 407/9/6 396/9/6 408/9/6
f 397/9/6 401/9/6 409/9/6
f 408/8/6 397/8/6 409/8/6
f 401/8/6 402/8/6 410/8/6
f 409/9/6 401/9/6 410/9/6
f 402/9/6 400/9/6 411/9/6
f 410/8/6 402/8/6 411/8/6
f 411/9/6 400/9/6 412/9/6
f 403/4/6 404/4/6 413/4/6
f 413/4/6 404/4/6 414/4/6
f 405/8/6 406/8/6 415/8/6
f 406/8/6 407/8/6 415/8/6
f 411/8/6 412/8/6 415/8/6
f 410/8/6 411/8/6 415/8/6
f 408/8/6 409/8/6 415/8/6
f 409/8/6 410/8/6 415/8/6
f 407/8/6 408/8/6 415/8/6
f 415/8/6 412/8/6 416/8/6
f 416/8/6 412/8/6 417/8/6
f 417/8/6 412/8/6 418/8/6
f 418/8/6 412/8/6 419/8/6
f 419/8/6 412/8/6 420/8/6
f 420/8/6 412/8/6 421/8/6
f 421/8/6 412/8/6 422/8/6
f 419/9/6 420/9/6 423/9/6
f 420/8/6 421/8/6 423/8/6
f 421/9/6 422/9/6 424/9/6
f 423/8/6 421/8/6 424/8/6
f 415/9/6 416/9/6 425/9/6
f 416/8/6 417/8/6 426/8/6
f 425/9/6 416/9/6 426/9/6
f 417/9/6 418/9/6 427/9/6
f 426/8/6 417/8/6 427/8/6
f 418/8/6 419/8/6 428/8/6
f 427/9/6 418/9/6 428/9/6
f 419/9/6 423/9/6 429/9/6
f 428/8/6 419/8/6 429/8/6
f 429/9/6 423/9/6 430/9/6
f 424/9/6 422/9/6 431/9/6
f 431/9/6 422/9/6 432/9/6
f 433/3/6 434/3/6 435/3/6
f 435/3/6 434/3/6 436/3/6
f 435/4/6 436/4/6 437/4/6
f 437/4/6 436/4/6 438/4/6
f 439/4/6 440/4/6 441/4/6
f 441/4/6 440/4/6 442/4/6
f 443/4/6 444/4/6 445/4/6
f 445/4/6 444/4/6 446/4/6
f 445/3/6 446/3/6 447/3/6
f 447/3/6 446/3/6 448/3/6
