# MagicaVoxel @ Ephtracy

# material
mtllib cow.mtl
usemtl palette

# normals
vn -1 0 0
vn 1 0 0
vn 0 0 1
vn 0 0 -1
vn 0 -1 0
vn 0 1 0

# texcoords
vt 0.0292969 0.5
vt 0.0566406 0.5
vt 0.587891 0.5
vt 0.611328 0.5
vt 0.958984 0.5
vt 0.986328 0.5
vt 0.990234 0.5
vt 0.994141 0.5

# verts
v -5 2 -0
v -5 2 -1
v -5 3 -0
v -5 3 -1
v -5 5 -0
v -5 5 -1
v -4 5 1
v -4 5 -0
v -4 5 -1
v -4 6 1
v -4 6 -1
v -3 0 3
v -3 0 1
v -3 0 -1
v -3 0 -3
v -3 1 3
v -3 1 1
v -3 1 -0
v -3 1 -1
v -3 1 -3
v -3 2 2
v -3 2 1
v -3 4 2
v -3 4 -0
v -3 4 -2
v -3 4 -3
v -3 5 3
v -3 5 1
v -3 5 -1
v -3 5 -2
v -3 5 -3
v -3 6 3
v -3 6 2
v -3 6 1
v -3 6 -0
v -3 6 -1
v -3 6 -2
v -3 6 -3
v -3 7 2
v -3 7 -0
v -3 7 -2
v -2 6 3
v -2 6 2
v -2 6 -2
v -2 6 -3
v -2 7 3
v -2 7 2
v -2 7 -2
v -2 7 -3
v 2 0 3
v 2 0 1
v 2 0 -1
v 2 0 -3
v 2 1 3
v 2 1 1
v 2 1 -1
v 2 1 -3
v 2 4 4
v 2 4 3
v 2 4 -3
v 2 4 -4
v 2 5 5
v 2 5 4
v 2 5 -4
v 2 5 -5
v 2 6 5
v 2 6 3
v 2 6 -3
v 2 6 -5
v 2 7 3
v 2 7 2
v 2 7 1
v 2 7 -1
v 2 7 -3
v 2 8 3
v 2 8 1
v 2 8 -1
v 2 8 -3
v -4 2 -0
v -4 2 -1
v -4 3 -0
v -4 3 -1
v -4 5 -0
v -4 5 -1
v -1 0 3
v -1 0 1
v -1 0 -1
v -1 0 -3
v -1 1 3
v -1 1 1
v -1 1 -1
v -1 1 -3
v 3 4 4
v 3 4 3
v 3 4 -3
v 3 4 -4
v 3 5 5
v 3 5 4
v 3 5 -4
v 3 5 -5
v 3 6 5
v 3 6 3
v 3 6 -3
v 3 6 -5
v 3 7 3
v 3 7 1
v 3 7 -1
v 3 7 -3
v 3 8 3
v 3 8 1
v 3 8 -1
v 3 8 -3
v 4 0 3
v 4 0 1
v 4 0 -1
v 4 0 -3
v 4 1 3
v 4 1 1
v 4 1 -1
v 4 1 -3
v 4 2 2
v 4 2 1
v 4 2 -1
v 4 2 -2
v 4 3 3
v 4 3 2
v 4 3 -2
v 4 3 -3
v 4 4 3
v 4 4 2
v 4 4 1
v 4 4 -1
v 4 4 -2
v 4 4 -3
v 4 5 2
v 4 5 1
v 4 5 -0
v 4 5 -1
v 4 5 -2
v 4 6 3
v 4 6 1
v 4 6 -1
v 4 6 -3
v 4 7 3
v 4 7 -0
v 4 7 -3
v 5 2 2
v 5 2 1
v 5 2 -1
v 5 2 -2
v 5 3 2
v 5 3 1
v 5 3 -1
v 5 3 -2
v 5 4 2
v 5 4 -2
v 2 5 5
v 2 6 5
v 3 5 5
v 3 6 5
v 2 4 4
v 2 5 4
v 3 4 4
v 3 5 4
v -3 0 3
v -3 1 3
v -3 5 3
v -3 6 3
v -2 5 3
v -2 6 3
v -2 7 3
v -1 0 3
v -1 1 3
v -1 3 3
v -1 5 3
v -1 6 3
v -1 7 3
v 0 2 3
v 0 3 3
v 1 4 3
v 1 5 3
v 2 0 3
v 2 1 3
v 2 2 3
v 2 4 3
v 2 6 3
v 2 7 3
v 2 8 3
v 3 3 3
v 3 4 3
v 3 6 3
v 3 7 3
v 3 8 3
v 4 0 3
v 4 1 3
v 4 3 3
v 4 4 3
v 4 6 3
v 4 7 3
v -3 6 2
v -3 7 2
v -2 6 2
v -2 7 2
v 4 2 2
v 4 3 2
v 4 4 2
v 5 2 2
v 5 3 2
v 5 4 2
v -4 5 1
v -4 6 1
v -3 5 1
v -3 6 1
v -5 2 -0
v -5 3 -0
v -5 5 -0
v -4 2 -0
v -4 3 -0
v -4 5 -0
v -3 0 -1
v -3 1 -1
v -1 0 -1
v -1 1 -1
v 2 0 -1
v 2 1 -1
v 2 7 -1
v 2 8 -1
v 3 7 -1
v 3 8 -1
v 4 0 -1
v 4 1 -1
v -3 0 1
v -3 1 1
v -2 1 1
v -1 0 1
v -1 1 1
v 2 0 1
v 2 1 1
v 2 7 1
v 2 8 1
v 3 7 1
v 3 8 1
v 4 0 1
v 4 1 1
v -5 2 -1
v -5 3 -1
v -5 5 -1
v -4 2 -1
v -4 3 -1
v -4 5 -1
v -4 6 -1
v -3 5 -1
v -3 6 -1
v -3 6 -2
v -3 7 -2
v -2 6 -2
v -2 7 -2
v 4 2 -2
v 4 3 -2
v 4 4 -2
v 5 2 -2
v 5 3 -2
v 5 4 -2
v -3 0 -3
v -3 1 -3
v -3 4 -3
v -3 5 -3
v -3 6 -3
v -2 3 -3
v -2 4 -3
v -2 5 -3
v -2 6 -3
v -2 7 -3
v -1 0 -3
v -1 1 -3
v -1 3 -3
v -1 4 -3
v 0 4 -3
v 0 6 -3
v 1 2 -3
v 1 3 -3
v 2 0 -3
v 2 1 -3
v 2 2 -3
v 2 4 -3
v 2 6 -3
v 2 7 -3
v 2 8 -3
v 3 4 -3
v 3 6 -3
v 3 7 -3
v 3 8 -3
v 4 0 -3
v 4 1 -3
v 4 3 -3
v 4 4 -3
v 4 6 -3
v 4 7 -3
v 2 4 -4
v 2 5 -4
v 3 4 -4
v 3 5 -4
v 2 5 -5
v 2 6 -5
v 3 5 -5
v 3 6 -5
v -3 0 3
v -1 0 3
v 2 0 3
v 4 0 3
v -3 0 1
v -1 0 1
v 2 0 1
v 4 0 1
v -3 0 -1
v -1 0 -1
v 2 0 -1
v 4 0 -1
v -3 0 -3
v -1 0 -3
v 2 0 -3
v 4 0 -3
v -1 1 3
v 2 1 3
v -3 1 1
v -2 1 1
v -1 1 1
v 2 1 1
v 4 1 1
v -3 1 -0
v -2 1 -0
v -3 1 -1
v -1 1 -1
v 2 1 -1
v 4 1 -1
v -1 1 -3
v 2 1 -3
v 4 2 2
v 5 2 2
v 4 2 1
v 5 2 1
v -5 2 -0
v -4 2 -0
v -5 2 -1
v -4 2 -1
v 4 2 -1
v 5 2 -1
v 4 2 -2
v 5 2 -2
v 2 4 4
v 3 4 4
v 2 4 3
v 3 4 3
v 2 4 -3
v 3 4 -3
v 2 4 -4
v 3 4 -4
v 2 5 5
v 3 5 5
v 2 5 4
v 3 5 4
v -4 5 1
v -3 5 1
v -4 5 -0
v -4 5 -1
v -3 5 -1
v 2 5 -4
v 3 5 -4
v 2 5 -5
v 3 5 -5
v 4 4 2
v 5 4 2
v 4 4 1
v 4 4 -1
v 4 4 -2
v 5 4 -2
v -5 5 -0
v -4 5 -0
v -5 5 -1
v -4 5 -1
v 2 6 5
v 3 6 5
v -3 6 3
v -2 6 3
v 2 6 3
v 3 6 3
v -3 6 2
v -2 6 2
v -4 6 1
v -3 6 1
v -3 6 -0
v -4 6 -1
v -3 6 -1
v -3 6 -2
v -2 6 -2
v -3 6 -3
v -2 6 -3
v 2 6 -3
v 3 6 -3
v 2 6 -5
v 3 6 -5
v -2 7 3
v -1 7 3
v 2 7 3
v 3 7 3
v 4 7 3
v -3 7 2
v -2 7 2
v -1 7 2
v 1 7 2
v 2 7 2
v -1 7 1
v 1 7 1
v 2 7 1
v 3 7 1
v -3 7 -0
v -2 7 -0
v 2 7 -0
v 4 7 -0
v -1 7 -1
v 0 7 -1
v 1 7 -1
v 2 7 -1
v 3 7 -1
v -3 7 -2
v -2 7 -2
v 0 7 -2
v 1 7 -2
v -2 7 -3
v 2 7 -3
v 3 7 -3
v 4 7 -3
v 2 8 3
v 3 8 3
v 2 8 1
v 3 8 1
v 2 8 -1
v 3 8 -1
v 2 8 -3
v 3 8 -3

# faces
f 3/7/1 2/7/1 1/7/1
f 4/7/1 2/7/1 3/7/1
f 5/5/1 4/5/1 3/5/1
f 6/5/1 4/5/1 5/5/1
f 10/5/1 8/5/1 7/5/1
f 10/5/1 9/5/1 8/5/1
f 11/5/1 9/5/1 10/5/1
f 16/7/1 13/7/1 12/7/1
f 17/7/1 13/7/1 16/7/1
f 19/7/1 15/7/1 14/7/1
f 20/7/1 15/7/1 19/7/1
f 21/5/1 17/5/1 16/5/1
f 22/8/1 18/8/1 17/8/1
f 22/5/1 17/5/1 21/5/1
f 23/5/1 21/5/1 16/5/1
f 23/8/1 22/8/1 21/8/1
f 24/8/1 18/8/1 22/8/1
f 24/8/1 22/8/1 23/8/1
f 24/5/1 19/5/1 18/5/1
f 24/5/1 20/5/1 19/5/1
f 25/5/1 20/5/1 24/5/1
f 26/5/1 20/5/1 25/5/1
f 27/5/1 23/5/1 16/5/1
f 27/5/1 24/5/1 23/5/1
f 27/5/1 25/5/1 24/5/1
f 28/5/1 25/5/1 27/5/1
f 29/5/1 25/5/1 28/5/1
f 30/8/1 26/8/1 25/8/1
f 30/5/1 25/5/1 29/5/1
f 31/8/1 26/8/1 30/8/1
f 32/8/1 28/8/1 27/8/1
f 33/8/1 28/8/1 32/8/1
f 34/8/1 28/8/1 33/8/1
f 36/5/1 31/5/1 30/5/1
f 36/5/1 30/5/1 29/5/1
f 37/5/1 31/5/1 36/5/1
f 38/5/1 31/5/1 37/5/1
f 39/8/1 35/8/1 34/8/1
f 39/8/1 34/8/1 33/8/1
f 40/5/1 37/5/1 36/5/1
f 40/8/1 35/8/1 39/8/1
f 40/5/1 36/5/1 35/5/1
f 41/5/1 37/5/1 40/5/1
f 46/8/1 43/8/1 42/8/1
f 47/8/1 43/8/1 46/8/1
f 48/5/1 45/5/1 44/5/1
f 49/5/1 45/5/1 48/5/1
f 54/7/1 51/7/1 50/7/1
f 55/7/1 51/7/1 54/7/1
f 56/7/1 53/7/1 52/7/1
f 57/7/1 53/7/1 56/7/1
f 63/5/1 59/5/1 58/5/1
f 64/5/1 61/5/1 60/5/1
f 66/5/1 63/5/1 62/5/1
f 67/5/1 59/5/1 63/5/1
f 67/5/1 63/5/1 66/5/1
f 68/5/1 65/5/1 64/5/1
f 68/5/1 64/5/1 60/5/1
f 69/5/1 65/5/1 68/5/1
f 75/6/1 71/6/1 70/6/1
f 75/6/1 72/6/1 71/6/1
f 76/6/1 72/6/1 75/6/1
f 77/6/1 74/6/1 73/6/1
f 78/6/1 74/6/1 77/6/1
f 79/7/2 80/7/2 81/7/2
f 81/7/2 80/7/2 82/7/2
f 81/5/2 82/5/2 83/5/2
f 83/5/2 82/5/2 84/5/2
f 85/7/2 86/7/2 89/7/2
f 89/7/2 86/7/2 90/7/2
f 87/7/2 88/7/2 91/7/2
f 91/7/2 88/7/2 92/7/2
f 93/5/2 94/5/2 98/5/2
f 95/5/2 96/5/2 99/5/2
f 97/5/2 98/5/2 101/5/2
f 98/5/2 94/5/2 102/5/2
f 101/5/2 98/5/2 102/5/2
f 99/5/2 100/5/2 103/5/2
f 95/5/2 99/5/2 103/5/2
f 103/5/2 100/5/2 104/5/2
f 105/6/2 106/6/2 109/6/2
f 109/6/2 106/6/2 110/6/2
f 107/6/2 108/6/2 111/6/2
f 111/6/2 108/6/2 112/6/2
f 113/7/2 114/7/2 117/7/2
f 117/7/2 114/7/2 118/7/2
f 115/7/2 116/7/2 119/7/2
f 119/7/2 116/7/2 120/7/2
f 117/5/2 118/5/2 121/5/2
f 118/5/2 119/5/2 121/5/2
f 121/5/2 119/5/2 122/5/2
f 119/8/2 120/8/2 123/8/2
f 122/5/2 119/5/2 123/5/2
f 123/8/2 120/8/2 124/8/2
f 117/5/2 121/5/2 125/5/2
f 125/5/2 121/5/2 126/5/2
f 124/8/2 120/8/2 127/8/2
f 127/8/2 120/8/2 128/8/2
f 125/8/2 126/8/2 129/8/2
f 129/8/2 126/8/2 130/8/2
f 127/5/2 128/5/2 133/5/2
f 133/5/2 128/5/2 134/5/2
f 129/3/2 130/3/2 135/3/2
f 130/4/2 131/4/2 135/4/2
f 131/5/2 132/5/2 136/5/2
f 135/4/2 131/4/2 136/4/2
f 136/5/2 132/5/2 137/5/2
f 132/4/2 133/4/2 138/4/2
f 137/5/2 132/5/2 138/5/2
f 133/3/2 134/3/2 139/3/2
f 138/4/2 133/4/2 139/4/2
f 129/3/2 135/3/2 140/3/2
f 135/3/2 136/3/2 140/3/2
f 136/8/2 137/8/2 141/8/2
f 140/3/2 136/3/2 141/3/2
f 137/5/2 138/5/2 142/5/2
f 138/3/2 139/3/2 142/3/2
f 139/3/2 134/3/2 143/3/2
f 142/3/2 139/3/2 143/3/2
f 140/8/2 141/8/2 144/8/2
f 137/5/2 142/5/2 145/5/2
f 144/8/2 141/8/2 145/8/2
f 141/8/2 137/8/2 145/8/2
f 142/5/2 143/5/2 145/5/2
f 145/5/2 143/5/2 146/5/2
f 147/2/2 148/2/2 151/2/2
f 148/1/2 149/1/2 152/1/2
f 151/2/2 148/2/2 152/2/2
f 149/2/2 150/2/2 153/2/2
f 152/1/2 149/1/2 153/1/2
f 153/2/2 150/2/2 154/2/2
f 151/1/2 152/1/2 155/1/2
f 152/1/2 153/1/2 155/1/2
f 153/1/2 154/1/2 155/1/2
f 155/1/2 154/1/2 156/1/2
f 159/5/3 158/5/3 157/5/3
f 160/5/3 158/5/3 159/5/3
f 163/5/3 162/5/3 161/5/3
f 164/5/3 162/5/3 163/5/3
f 169/5/3 167/5/3 166/5/3
f 169/8/3 168/8/3 167/8/3
f 170/8/3 168/8/3 169/8/3
f 172/7/3 166/7/3 165/7/3
f 173/5/3 169/5/3 166/5/3
f 173/7/3 166/7/3 172/7/3
f 173/5/3 170/5/3 169/5/3
f 174/5/3 170/5/3 173/5/3
f 175/5/3 170/5/3 174/5/3
f 176/8/3 171/8/3 170/8/3
f 176/5/3 170/5/3 175/5/3
f 177/8/3 171/8/3 176/8/3
f 178/5/3 174/5/3 173/5/3
f 179/8/3 175/8/3 174/8/3
f 179/5/3 174/5/3 178/5/3
f 180/8/3 179/8/3 178/8/3
f 180/8/3 175/8/3 179/8/3
f 181/5/3 177/5/3 176/5/3
f 181/8/3 175/8/3 180/8/3
f 181/5/3 176/5/3 175/5/3
f 183/5/3 178/5/3 173/5/3
f 184/8/3 180/8/3 178/8/3
f 184/5/3 178/5/3 183/5/3
f 185/5/3 181/5/3 180/5/3
f 185/8/3 180/8/3 184/8/3
f 186/5/3 177/5/3 181/5/3
f 186/5/3 181/5/3 185/5/3
f 187/5/3 177/5/3 186/5/3
f 189/5/3 185/5/3 184/5/3
f 189/5/3 184/5/3 183/5/3
f 190/5/3 185/5/3 189/5/3
f 191/8/3 187/8/3 186/8/3
f 192/6/3 188/6/3 187/6/3
f 192/8/3 187/8/3 191/8/3
f 193/6/3 188/6/3 192/6/3
f 194/7/3 183/7/3 182/7/3
f 195/5/3 189/5/3 183/5/3
f 195/7/3 183/7/3 194/7/3
f 196/8/3 190/8/3 189/8/3
f 196/5/3 189/5/3 195/5/3
f 197/3/3 191/3/3 190/3/3
f 197/8/3 190/8/3 196/8/3
f 198/8/3 192/8/3 191/8/3
f 198/3/3 191/3/3 197/3/3
f 199/8/3 192/8/3 198/8/3
f 202/8/3 201/8/3 200/8/3
f 203/8/3 201/8/3 202/8/3
f 207/2/3 205/2/3 204/2/3
f 208/1/3 206/1/3 205/1/3
f 208/2/3 205/2/3 207/2/3
f 209/1/3 206/1/3 208/1/3
f 212/5/3 211/5/3 210/5/3
f 213/5/3 211/5/3 212/5/3
f 217/7/3 215/7/3 214/7/3
f 218/5/3 216/5/3 215/5/3
f 218/7/3 215/7/3 217/7/3
f 219/5/3 216/5/3 218/5/3
f 222/7/3 221/7/3 220/7/3
f 223/7/3 221/7/3 222/7/3
f 228/6/3 227/6/3 226/6/3
f 229/6/3 227/6/3 228/6/3
f 230/7/3 225/7/3 224/7/3
f 231/7/3 225/7/3 230/7/3
f 232/7/4 233/7/4 234/7/4
f 232/7/4 234/7/4 235/7/4
f 235/7/4 234/7/4 236/7/4
f 239/6/4 240/6/4 241/6/4
f 241/6/4 240/6/4 242/6/4
f 237/7/4 238/7/4 243/7/4
f 243/7/4 238/7/4 244/7/4
f 245/7/4 246/7/4 248/7/4
f 246/5/4 247/5/4 249/5/4
f 248/7/4 246/7/4 249/7/4
f 249/5/4 247/5/4 250/5/4
f 250/5/4 251/5/4 252/5/4
f 252/5/4 251/5/4 253/5/4
f 254/5/4 255/5/4 256/5/4
f 256/5/4 255/5/4 257/5/4
f 258/2/4 259/2/4 261/2/4
f 259/1/4 260/1/4 262/1/4
f 261/2/4 259/2/4 262/2/4
f 262/1/4 260/1/4 263/1/4
f 265/5/4 266/5/4 269/5/4
f 266/8/4 267/8/4 270/8/4
f 269/5/4 266/5/4 270/5/4
f 267/5/4 268/5/4 271/5/4
f 270/8/4 267/8/4 271/8/4
f 271/5/4 268/5/4 272/5/4
f 264/7/4 265/7/4 274/7/4
f 265/5/4 269/5/4 275/5/4
f 274/7/4 265/7/4 275/7/4
f 269/8/4 270/8/4 276/8/4
f 275/5/4 269/5/4 276/5/4
f 270/8/4 271/8/4 276/8/4
f 271/8/4 272/8/4 276/8/4
f 276/8/4 272/8/4 277/8/4
f 277/8/4 272/8/4 278/8/4
f 276/5/4 277/5/4 278/5/4
f 275/5/4 276/5/4 278/5/4
f 272/5/4 273/5/4 279/5/4
f 278/8/4 272/8/4 279/8/4
f 275/5/4 278/5/4 280/5/4
f 278/5/4 279/5/4 280/5/4
f 280/5/4 279/5/4 281/5/4
f 275/5/4 280/5/4 283/5/4
f 280/8/4 281/8/4 284/8/4
f 283/5/4 280/5/4 284/5/4
f 281/5/4 279/5/4 285/5/4
f 279/5/4 273/5/4 286/5/4
f 285/5/4 279/5/4 286/5/4
f 286/5/4 273/5/4 287/5/4
f 281/5/4 285/5/4 289/5/4
f 286/5/4 287/5/4 290/5/4
f 287/6/4 288/6/4 291/6/4
f 290/5/4 287/5/4 291/5/4
f 291/6/4 288/6/4 292/6/4
f 282/7/4 283/7/4 293/7/4
f 283/8/4 284/8/4 294/8/4
f 293/7/4 283/7/4 294/7/4
f 284/8/4 281/8/4 295/8/4
f 294/8/4 284/8/4 295/8/4
f 281/5/4 289/5/4 295/5/4
f 289/3/4 290/3/4 296/3/4
f 295/5/4 289/5/4 296/5/4
f 290/5/4 291/5/4 297/5/4
f 296/3/4 290/3/4 297/3/4
f 297/5/4 291/5/4 298/5/4
f 299/5/4 300/5/4 301/5/4
f 301/5/4 300/5/4 302/5/4
f 303/5/4 304/5/4 305/5/4
f 305/5/4 304/5/4 306/5/4
f 311/7/5 308/7/5 307/7/5
f 312/7/5 308/7/5 311/7/5
f 313/7/5 310/7/5 309/7/5
f 314/7/5 310/7/5 313/7/5
f 319/7/5 316/7/5 315/7/5
f 320/7/5 316/7/5 319/7/5
f 321/7/5 318/7/5 317/7/5
f 322/7/5 318/7/5 321/7/5
f 327/5/5 324/5/5 323/5/5
f 328/5/5 324/5/5 327/5/5
f 330/8/5 326/8/5 325/8/5
f 331/5/5 329/5/5 328/5/5
f 331/8/5 326/8/5 330/8/5
f 331/5/5 327/5/5 326/5/5
f 331/5/5 328/5/5 327/5/5
f 332/5/5 331/5/5 330/5/5
f 333/5/5 329/5/5 331/5/5
f 333/5/5 331/5/5 332/5/5
f 334/5/5 329/5/5 333/5/5
f 335/5/5 329/5/5 334/5/5
f 336/5/5 334/5/5 333/5/5
f 337/5/5 334/5/5 336/5/5
f 340/2/5 339/2/5 338/2/5
f 341/2/5 339/2/5 340/2/5
f 344/7/5 343/7/5 342/7/5
f 345/7/5 343/7/5 344/7/5
f 346/1/5 341/1/5 340/1/5
f 347/1/5 341/1/5 346/1/5
f 348/2/5 347/2/5 346/2/5
f 349/2/5 347/2/5 348/2/5
f 352/5/5 351/5/5 350/5/5
f 353/5/5 351/5/5 352/5/5
f 356/5/5 355/5/5 354/5/5
f 357/5/5 355/5/5 356/5/5
f 360/5/5 359/5/5 358/5/5
f 361/5/5 359/5/5 360/5/5
f 364/5/5 363/5/5 362/5/5
f 365/5/5 363/5/5 364/5/5
f 366/5/5 363/5/5 365/5/5
f 369/5/5 368/5/5 367/5/5
f 370/5/5 368/5/5 369/5/5
f 371/1/6 372/1/6 373/1/6
f 373/1/6 372/1/6 374/1/6
f 374/1/6 372/1/6 375/1/6
f 375/1/6 372/1/6 376/1/6
f 377/5/6 378/5/6 379/5/6
f 379/5/6 378/5/6 380/5/6
f 381/5/6 382/5/6 385/5/6
f 385/5/6 382/5/6 386/5/6
f 383/8/6 384/8/6 387/8/6
f 387/8/6 384/8/6 388/8/6
f 389/5/6 390/5/6 391/5/6
f 389/5/6 391/5/6 392/5/6
f 392/5/6 391/5/6 393/5/6
f 394/5/6 395/5/6 396/5/6
f 396/5/6 395/5/6 397/5/6
f 398/5/6 399/5/6 400/5/6
f 400/5/6 399/5/6 401/5/6
f 402/8/6 403/8/6 408/8/6
f 403/5/6 404/5/6 409/5/6
f 408/8/6 403/8/6 409/8/6
f 409/5/6 404/5/6 410/5/6
f 410/5/6 404/5/6 411/5/6
f 408/5/6 409/5/6 412/5/6
f 409/5/6 410/5/6 412/5/6
f 410/8/6 411/8/6 413/8/6
f 412/5/6 410/5/6 413/5/6
f 413/8/6 411/8/6 414/8/6
f 405/8/6 406/8/6 415/8/6
f 407/8/6 408/8/6 416/8/6
f 408/5/6 412/5/6 417/5/6
f 416/8/6 408/8/6 417/8/6
f 413/8/6 414/8/6 418/8/6
f 414/8/6 415/8/6 418/8/6
f 412/8/6 413/8/6 418/8/6
f 415/8/6 406/8/6 419/8/6
f 418/8/6 415/8/6 419/8/6
f 417/5/6 412/5/6 420/5/6
f 416/5/6 417/5/6 420/5/6
f 412/8/6 418/8/6 420/8/6
f 420/8/6 418/8/6 421/8/6
f 421/8/6 418/8/6 422/8/6
f 418/5/6 419/5/6 423/5/6
f 422/8/6 418/8/6 423/8/6
f 423/5/6 419/5/6 424/5/6
f 416/5/6 420/5/6 425/5/6
f 420/5/6 421/5/6 425/5/6
f 425/5/6 421/5/6 426/5/6
f 421/8/6 422/8/6 427/8/6
f 426/5/6 421/5/6 427/5/6
f 422/5/6 423/5/6 428/5/6
f 427/8/6 422/8/6 428/8/6
f 426/5/6 427/5/6 429/5/6
f 427/5/6 428/5/6 429/5/6
f 428/5/6 423/5/6 430/5/6
f 429/5/6 428/5/6 430/5/6
f 424/5/6 419/5/6 431/5/6
f 431/5/6 419/5/6 432/5/6
f 433/6/6 434/6/6 435/6/6
f 435/6/6 434/6/6 436/6/6
f 437/6/6 438/6/6 439/6/6
f 439/6/6 438/6/6 440/6/6
