# MagicaVoxel @ Ephtracy

# material
mtllib elephant.mtl
usemtl palette

# normals
vn -1 0 0
vn 1 0 0
vn 0 0 1
vn 0 0 -1
vn 0 -1 0
vn 0 1 0

# texcoords
vt 0.958984 0.5
vt 0.982422 0.5
vt 0.986328 0.5
vt 0.990234 0.5

# verts
v -5 2 1
v -5 2 -0
v -5 3 1
v -5 3 -0
v -5 6 1
v -5 6 -0
v -4 5 -0
v -4 5 -1
v -4 6 -0
v -4 6 -1
v -3 0 3
v -3 0 1
v -3 0 -1
v -3 0 -3
v -3 1 3
v -3 1 1
v -3 1 -1
v -3 1 -3
v -3 4 1
v -3 4 -0
v -3 5 -0
v -3 5 -1
v -3 6 3
v -3 6 2
v -3 6 1
v -3 6 -1
v -3 6 -2
v -3 6 -3
v -3 7 2
v -3 7 -2
v -2 6 3
v -2 6 2
v -2 6 -2
v -2 6 -3
v -2 7 3
v -2 7 2
v -2 7 -2
v -2 7 -3
v 1 4 4
v 1 4 3
v 1 4 -3
v 1 4 -4
v 1 6 3
v 1 6 -3
v 1 7 4
v 1 7 3
v 1 7 -3
v 1 7 -4
v 2 0 3
v 2 0 1
v 2 0 -1
v 2 0 -3
v 2 1 3
v 2 1 2
v 2 1 1
v 2 1 -1
v 2 1 -2
v 2 1 -3
v 2 3 4
v 2 3 3
v 2 3 -3
v 2 3 -4
v 2 4 5
v 2 4 4
v 2 4 3
v 2 4 -3
v 2 4 -4
v 2 4 -5
v 2 7 5
v 2 7 4
v 2 7 3
v 2 7 2
v 2 7 1
v 2 7 -1
v 2 7 -2
v 2 7 -3
v 2 7 -4
v 2 7 -5
v 2 8 4
v 2 8 1
v 2 8 -1
v 2 8 -4
v 5 1 2
v 5 1 1
v 5 1 -1
v 5 1 -2
v 5 2 2
v 5 2 1
v 5 2 -1
v 5 2 -2
v -4 2 1
v -4 2 -0
v -4 3 1
v -4 3 -0
v -4 4 1
v -4 4 -0
v -1 0 3
v -1 0 1
v -1 0 -1
v -1 0 -3
v -1 1 3
v -1 1 2
v -1 1 1
v -1 1 -1
v -1 1 -2
v -1 1 -3
v 3 3 4
v 3 3 3
v 3 3 -3
v 3 3 -4
v 3 4 5
v 3 4 4
v 3 4 3
v 3 4 -3
v 3 4 -4
v 3 4 -5
v 3 6 4
v 3 6 3
v 3 6 -3
v 3 6 -4
v 3 7 5
v 3 7 4
v 3 7 3
v 3 7 1
v 3 7 -1
v 3 7 -3
v 3 7 -4
v 3 7 -5
v 3 8 4
v 3 8 1
v 3 8 -1
v 3 8 -4
v 4 0 3
v 4 0 1
v 4 0 -1
v 4 0 -3
v 4 1 3
v 4 1 1
v 4 1 -1
v 4 1 -3
v 4 2 2
v 4 2 1
v 4 2 -1
v 4 2 -2
v 4 3 2
v 4 3 1
v 4 3 -1
v 4 3 -2
v 4 4 2
v 4 4 1
v 4 4 -1
v 4 4 -2
v 4 5 2
v 4 5 1
v 4 5 -1
v 4 5 -2
v 4 6 2
v 4 6 1
v 4 6 -1
v 4 6 -2
v 4 7 3
v 4 7 1
v 4 7 -1
v 4 7 -3
v 5 2 2
v 5 2 1
v 5 2 -1
v 5 2 -2
v 5 3 2
v 5 3 1
v 5 3 -1
v 5 3 -2
v 5 4 1
v 5 4 -1
v 5 5 1
v 5 5 -1
v 6 1 1
v 6 1 -1
v 6 2 1
v 6 2 -1
v 6 4 1
v 6 4 -1
v 7 1 2
v 7 1 1
v 7 1 -1
v 7 1 -2
v 7 2 2
v 7 2 1
v 7 2 -1
v 7 2 -2
v 2 4 5
v 2 7 5
v 3 4 5
v 3 7 5
v 1 4 4
v 1 7 4
v 2 3 4
v 2 4 4
v 2 7 4
v 2 8 4
v 3 3 4
v 3 4 4
v 3 7 4
v 3 8 4
v -3 0 3
v -3 1 3
v -3 6 3
v -2 6 3
v -2 7 3
v -1 0 3
v -1 1 3
v 0 6 3
v 0 7 3
v 1 4 3
v 1 6 3
v 1 7 3
v 2 0 3
v 2 1 3
v 2 3 3
v 2 4 3
v 3 3 3
v 3 4 3
v 3 6 3
v 3 7 3
v 4 0 3
v 4 1 3
v 4 7 3
v -3 6 2
v -3 7 2
v -2 6 2
v -2 7 2
v 4 2 2
v 4 3 2
v 5 1 2
v 5 2 2
v 5 3 2
v 7 1 2
v 7 2 2
v -5 2 1
v -5 3 1
v -5 6 1
v -4 2 1
v -4 3 1
v -4 4 1
v -3 4 1
v -3 6 1
v 4 3 1
v 4 4 1
v 4 5 1
v 5 2 1
v 5 3 1
v 5 4 1
v 5 5 1
v 6 2 1
v 6 4 1
v -3 0 -1
v -3 1 -1
v -2 1 -1
v -1 0 -1
v -1 1 -1
v 2 0 -1
v 2 1 -1
v 2 7 -1
v 2 8 -1
v 3 1 -1
v 3 7 -1
v 3 8 -1
v 4 0 -1
v 4 1 -1
v 6 1 -1
v 6 2 -1
v 7 1 -1
v 7 2 -1
v -3 0 1
v -3 1 1
v -2 1 1
v -1 0 1
v -1 1 1
v 2 0 1
v 2 1 1
v 2 7 1
v 2 8 1
v 3 1 1
v 3 7 1
v 3 8 1
v 4 0 1
v 4 1 1
v 6 1 1
v 6 2 1
v 7 1 1
v 7 2 1
v -5 2 -0
v -5 3 -0
v -5 6 -0
v -4 2 -0
v -4 3 -0
v -4 4 -0
v -4 5 -0
v -4 6 -0
v -3 4 -0
v -3 5 -0
v -4 5 -1
v -4 6 -1
v -3 5 -1
v -3 6 -1
v 4 3 -1
v 4 4 -1
v 4 5 -1
v 5 2 -1
v 5 3 -1
v 5 4 -1
v 5 5 -1
v 6 2 -1
v 6 4 -1
v -3 6 -2
v -3 7 -2
v -2 6 -2
v -2 7 -2
v 4 2 -2
v 4 3 -2
v 5 1 -2
v 5 2 -2
v 5 3 -2
v 7 1 -2
v 7 2 -2
v -3 0 -3
v -3 1 -3
v -3 6 -3
v -2 6 -3
v -2 7 -3
v -1 0 -3
v -1 1 -3
v 0 6 -3
v 0 7 -3
v 1 4 -3
v 1 6 -3
v 1 7 -3
v 2 0 -3
v 2 1 -3
v 2 3 -3
v 2 4 -3
v 3 3 -3
v 3 4 -3
v 3 6 -3
v 3 7 -3
v 4 0 -3
v 4 1 -3
v 4 7 -3
v 1 4 -4
v 1 7 -4
v 2 3 -4
v 2 4 -4
v 2 7 -4
v 2 8 -4
v 3 3 -4
v 3 4 -4
v 3 7 -4
v 3 8 -4
v 2 4 -5
v 2 7 -5
v 3 4 -5
v 3 7 -5
v -3 0 3
v -1 0 3
v 2 0 3
v 4 0 3
v -3 0 1
v -1 0 1
v 2 0 1
v 4 0 1
v -3 0 -1
v -1 0 -1
v 2 0 -1
v 4 0 -1
v -3 0 -3
v -1 0 -3
v 2 0 -3
v 4 0 -3
v -1 1 3
v 2 1 3
v -1 1 2
v 2 1 2
v 5 1 2
v 7 1 2
v -3 1 1
v -2 1 1
v -1 1 1
v 2 1 1
v 3 1 1
v 4 1 1
v 5 1 1
v 6 1 1
v 7 1 1
v -3 1 -1
v -2 1 -1
v -1 1 -1
v 2 1 -1
v 3 1 -1
v 4 1 -1
v 5 1 -1
v 6 1 -1
v 7 1 -1
v -1 1 -2
v 2 1 -2
v 5 1 -2
v 7 1 -2
v -1 1 -3
v 2 1 -3
v 4 2 2
v 5 2 2
v -5 2 1
v -4 2 1
v 4 2 1
v 5 2 1
v -5 2 -0
v -4 2 -0
v 4 2 -1
v 5 2 -1
v 4 2 -2
v 5 2 -2
v 2 3 4
v 3 3 4
v 2 3 3
v 3 3 3
v 2 3 -3
v 3 3 -3
v 2 3 -4
v 3 3 -4
v 2 4 5
v 3 4 5
v 1 4 4
v 2 4 4
v 3 4 4
v 1 4 3
v 2 4 3
v -4 4 1
v -3 4 1
v -4 4 -0
v -3 4 -0
v 1 4 -3
v 2 4 -3
v 1 4 -4
v 2 4 -4
v 3 4 -4
v 2 4 -5
v 3 4 -5
v -4 5 -0
v -3 5 -0
v -4 5 -1
v -3 5 -1
v 5 2 2
v 7 2 2
v 5 2 1
v 6 2 1
v 7 2 1
v 5 2 -1
v 6 2 -1
v 7 2 -1
v 5 2 -2
v 7 2 -2
v 4 3 2
v 5 3 2
v 4 3 1
v 5 3 1
v 4 3 -1
v 5 3 -1
v 4 3 -2
v 5 3 -2
v 5 4 1
v 6 4 1
v 5 4 -1
v 6 4 -1
v 4 5 1
v 5 5 1
v 4 5 -1
v 5 5 -1
v -3 6 3
v -2 6 3
v -3 6 2
v -2 6 2
v -5 6 1
v -3 6 1
v -5 6 -0
v -4 6 -0
v -4 6 -1
v -3 6 -1
v -3 6 -2
v -2 6 -2
v -3 6 -3
v -2 6 -3
v 2 7 5
v 3 7 5
v 1 7 4
v 2 7 4
v 3 7 4
v -2 7 3
v 0 7 3
v 1 7 3
v 2 7 3
v 3 7 3
v 4 7 3
v -3 7 2
v -2 7 2
v 0 7 2
v 2 7 2
v -2 7 1
v 2 7 1
v 3 7 1
v 4 7 1
v -2 7 -1
v 2 7 -1
v 3 7 -1
v 4 7 -1
v -3 7 -2
v -2 7 -2
v 0 7 -2
v 2 7 -2
v -2 7 -3
v 0 7 -3
v 1 7 -3
v 2 7 -3
v 3 7 -3
v 4 7 -3
v 1 7 -4
v 2 7 -4
v 3 7 -4
v 2 7 -5
v 3 7 -5
v 2 8 4
v 3 8 4
v 2 8 1
v 3 8 1
v 2 8 -1
v 3 8 -1
v 2 8 -4
v 3 8 -4

# faces
f 3/4/1 2/4/1 1/4/1
f 4/4/1 2/4/1 3/4/1
f 5/2/1 4/2/1 3/2/1
f 6/2/1 4/2/1 5/2/1
f 9/2/1 8/2/1 7/2/1
f 10/2/1 8/2/1 9/2/1
f 15/3/1 12/3/1 11/3/1
f 16/3/1 12/3/1 15/3/1
f 17/3/1 14/3/1 13/3/1
f 18/3/1 14/3/1 17/3/1
f 19/2/1 16/2/1 15/2/1
f 19/2/1 17/2/1 16/2/1
f 19/2/1 18/2/1 17/2/1
f 20/2/1 18/2/1 19/2/1
f 21/2/1 18/2/1 20/2/1
f 22/2/1 18/2/1 21/2/1
f 23/2/1 19/2/1 15/2/1
f 24/2/1 19/2/1 23/2/1
f 25/2/1 19/2/1 24/2/1
f 26/2/1 18/2/1 22/2/1
f 27/2/1 18/2/1 26/2/1
f 28/2/1 18/2/1 27/2/1
f 29/2/1 25/2/1 24/2/1
f 29/2/1 27/2/1 26/2/1
f 29/2/1 26/2/1 25/2/1
f 30/2/1 27/2/1 29/2/1
f 35/2/1 32/2/1 31/2/1
f 36/2/1 32/2/1 35/2/1
f 37/2/1 34/2/1 33/2/1
f 38/2/1 34/2/1 37/2/1
f 43/2/1 40/2/1 39/2/1
f 44/2/1 42/2/1 41/2/1
f 45/2/1 43/2/1 39/2/1
f 46/2/1 43/2/1 45/2/1
f 47/2/1 42/2/1 44/2/1
f 48/2/1 42/2/1 47/2/1
f 53/3/1 50/3/1 49/3/1
f 54/3/1 50/3/1 53/3/1
f 55/3/1 50/3/1 54/3/1
f 56/3/1 52/3/1 51/3/1
f 57/3/1 52/3/1 56/3/1
f 58/3/1 52/3/1 57/3/1
f 64/2/1 60/2/1 59/2/1
f 65/2/1 60/2/1 64/2/1
f 66/2/1 62/2/1 61/2/1
f 67/2/1 62/2/1 66/2/1
f 69/2/1 64/2/1 63/2/1
f 70/2/1 64/2/1 69/2/1
f 77/2/1 68/2/1 67/2/1
f 78/2/1 68/2/1 77/2/1
f 79/2/1 71/2/1 70/2/1
f 79/2/1 72/2/1 71/2/1
f 79/2/1 73/2/1 72/2/1
f 80/2/1 73/2/1 79/2/1
f 81/2/1 76/2/1 75/2/1
f 81/2/1 77/2/1 76/2/1
f 81/2/1 75/2/1 74/2/1
f 82/2/1 77/2/1 81/2/1
f 87/1/1 84/1/1 83/1/1
f 88/2/1 85/2/1 84/2/1
f 88/1/1 84/1/1 87/1/1
f 89/1/1 86/1/1 85/1/1
f 89/2/1 85/2/1 88/2/1
f 90/1/1 86/1/1 89/1/1
f 91/4/2 92/4/2 93/4/2
f 93/4/2 92/4/2 94/4/2
f 93/2/2 94/2/2 95/2/2
f 95/2/2 94/2/2 96/2/2
f 97/3/2 98/3/2 101/3/2
f 101/3/2 98/3/2 102/3/2
f 102/3/2 98/3/2 103/3/2
f 99/3/2 100/3/2 104/3/2
f 104/3/2 100/3/2 105/3/2
f 105/3/2 100/3/2 106/3/2
f 107/2/2 108/2/2 112/2/2
f 112/2/2 108/2/2 113/2/2
f 109/2/2 110/2/2 114/2/2
f 114/2/2 110/2/2 115/2/2
f 112/3/2 113/3/2 117/3/2
f 111/2/2 112/2/2 117/2/2
f 117/3/2 113/3/2 118/3/2
f 114/3/2 115/3/2 119/3/2
f 115/2/2 116/2/2 120/2/2
f 119/3/2 115/3/2 120/3/2
f 117/2/2 118/2/2 121/2/2
f 111/2/2 117/2/2 121/2/2
f 121/2/2 118/2/2 122/2/2
f 122/2/2 118/2/2 123/2/2
f 119/2/2 120/2/2 126/2/2
f 120/2/2 116/2/2 127/2/2
f 126/2/2 120/2/2 127/2/2
f 127/2/2 116/2/2 128/2/2
f 123/2/2 124/2/2 129/2/2
f 122/2/2 123/2/2 129/2/2
f 129/2/2 124/2/2 130/2/2
f 125/2/2 126/2/2 131/2/2
f 126/2/2 127/2/2 131/2/2
f 131/2/2 127/2/2 132/2/2
f 133/3/2 134/3/2 137/3/2
f 137/3/2 134/3/2 138/3/2
f 135/3/2 136/3/2 139/3/2
f 139/3/2 136/3/2 140/3/2
f 137/2/2 138/2/2 141/2/2
f 138/2/2 139/2/2 141/2/2
f 139/2/2 140/2/2 141/2/2
f 141/2/2 140/2/2 142/2/2
f 142/2/2 140/2/2 143/2/2
f 143/2/2 140/2/2 144/2/2
f 137/2/2 141/2/2 145/2/2
f 144/2/2 140/2/2 148/2/2
f 145/2/2 146/2/2 149/2/2
f 137/2/2 145/2/2 149/2/2
f 149/2/2 146/2/2 150/2/2
f 147/2/2 148/2/2 151/2/2
f 148/2/2 140/2/2 152/2/2
f 151/2/2 148/2/2 152/2/2
f 149/3/2 150/3/2 153/3/2
f 137/2/2 149/2/2 153/2/2
f 153/3/2 150/3/2 154/3/2
f 151/3/2 152/3/2 155/3/2
f 152/2/2 140/2/2 156/2/2
f 155/3/2 152/3/2 156/3/2
f 153/1/2 154/1/2 157/1/2
f 137/2/2 153/2/2 157/2/2
f 154/2/2 155/2/2 158/2/2
f 157/1/2 154/1/2 158/1/2
f 155/1/2 156/1/2 159/1/2
f 158/2/2 155/2/2 159/2/2
f 156/2/2 140/2/2 160/2/2
f 159/1/2 156/1/2 160/1/2
f 137/2/2 157/2/2 161/2/2
f 157/2/2 158/2/2 161/2/2
f 158/3/2 159/3/2 162/3/2
f 161/2/2 158/2/2 162/2/2
f 159/2/2 160/2/2 163/2/2
f 162/3/2 159/3/2 163/3/2
f 160/2/2 140/2/2 164/2/2
f 163/2/2 160/2/2 164/2/2
f 165/1/2 166/1/2 169/1/2
f 169/1/2 166/1/2 170/1/2
f 167/1/2 168/1/2 171/1/2
f 171/1/2 168/1/2 172/1/2
f 173/2/2 174/2/2 175/2/2
f 175/2/2 174/2/2 176/2/2
f 177/2/2 178/2/2 179/2/2
f 179/2/2 178/2/2 180/2/2
f 179/2/2 180/2/2 181/2/2
f 181/2/2 180/2/2 182/2/2
f 183/1/2 184/1/2 187/1/2
f 187/1/2 184/1/2 188/1/2
f 185/1/2 186/1/2 189/1/2
f 189/1/2 186/1/2 190/1/2
f 193/2/3 192/2/3 191/2/3
f 194/2/3 192/2/3 193/2/3
f 198/2/3 196/2/3 195/2/3
f 199/2/3 196/2/3 198/2/3
f 201/2/3 198/2/3 197/2/3
f 202/2/3 198/2/3 201/2/3
f 203/2/3 200/2/3 199/2/3
f 204/2/3 200/2/3 203/2/3
f 208/2/3 207/2/3 206/2/3
f 210/3/3 206/3/3 205/3/3
f 211/2/3 209/2/3 208/2/3
f 211/3/3 206/3/3 210/3/3
f 211/2/3 208/2/3 206/2/3
f 212/2/3 209/2/3 211/2/3
f 213/2/3 209/2/3 212/2/3
f 214/2/3 212/2/3 211/2/3
f 215/3/3 213/3/3 212/3/3
f 215/2/3 212/2/3 214/2/3
f 216/3/3 213/3/3 215/3/3
f 218/2/3 214/2/3 211/2/3
f 219/2/3 214/2/3 218/2/3
f 220/2/3 214/2/3 219/2/3
f 221/2/3 219/2/3 218/2/3
f 225/3/3 218/3/3 217/3/3
f 226/2/3 224/2/3 223/2/3
f 226/3/3 218/3/3 225/3/3
f 226/2/3 222/2/3 221/2/3
f 226/2/3 223/2/3 222/2/3
f 226/2/3 221/2/3 218/2/3
f 227/2/3 224/2/3 226/2/3
f 230/2/3 229/2/3 228/2/3
f 231/2/3 229/2/3 230/2/3
f 235/1/3 233/1/3 232/1/3
f 236/1/3 233/1/3 235/1/3
f 237/1/3 235/1/3 234/1/3
f 238/1/3 235/1/3 237/1/3
f 242/4/3 240/4/3 239/4/3
f 243/2/3 241/2/3 240/2/3
f 243/4/3 240/4/3 242/4/3
f 244/2/3 241/2/3 243/2/3
f 245/2/3 241/2/3 244/2/3
f 246/2/3 241/2/3 245/2/3
f 251/2/3 248/2/3 247/2/3
f 251/2/3 249/2/3 248/2/3
f 252/2/3 249/2/3 251/2/3
f 253/2/3 249/2/3 252/2/3
f 254/2/3 251/2/3 250/2/3
f 254/2/3 252/2/3 251/2/3
f 255/2/3 252/2/3 254/2/3
f 258/3/3 257/3/3 256/3/3
f 259/3/3 258/3/3 256/3/3
f 260/3/3 258/3/3 259/3/3
f 265/3/3 262/3/3 261/3/3
f 266/2/3 264/2/3 263/2/3
f 267/2/3 264/2/3 266/2/3
f 268/3/3 265/3/3 261/3/3
f 269/3/3 265/3/3 268/3/3
f 272/1/3 271/1/3 270/1/3
f 273/1/3 271/1/3 272/1/3
f 274/3/4 275/3/4 276/3/4
f 274/3/4 276/3/4 277/3/4
f 277/3/4 276/3/4 278/3/4
f 279/3/4 280/3/4 283/3/4
f 281/2/4 282/2/4 284/2/4
f 284/2/4 282/2/4 285/2/4
f 279/3/4 283/3/4 286/3/4
f 286/3/4 283/3/4 287/3/4
f 288/1/4 289/1/4 290/1/4
f 290/1/4 289/1/4 291/1/4
f 292/4/4 293/4/4 295/4/4
f 293/2/4 294/2/4 296/2/4
f 295/4/4 293/4/4 296/4/4
f 296/2/4 294/2/4 297/2/4
f 297/2/4 294/2/4 298/2/4
f 298/2/4 294/2/4 299/2/4
f 297/2/4 298/2/4 300/2/4
f 300/2/4 298/2/4 301/2/4
f 302/2/4 303/2/4 304/2/4
f 304/2/4 303/2/4 305/2/4
f 306/2/4 307/2/4 310/2/4
f 307/2/4 308/2/4 310/2/4
f 310/2/4 308/2/4 311/2/4
f 311/2/4 308/2/4 312/2/4
f 309/2/4 310/2/4 313/2/4
f 310/2/4 311/2/4 313/2/4
f 313/2/4 311/2/4 314/2/4
f 315/2/4 316/2/4 317/2/4
f 317/2/4 316/2/4 318/2/4
f 319/1/4 320/1/4 322/1/4
f 322/1/4 320/1/4 323/1/4
f 321/1/4 322/1/4 324/1/4
f 324/1/4 322/1/4 325/1/4
f 327/2/4 328/2/4 329/2/4
f 326/3/4 327/3/4 331/3/4
f 329/2/4 330/2/4 332/2/4
f 331/3/4 327/3/4 332/3/4
f 327/2/4 329/2/4 332/2/4
f 332/2/4 330/2/4 333/2/4
f 333/2/4 330/2/4 334/2/4
f 332/2/4 333/2/4 335/2/4
f 333/3/4 334/3/4 336/3/4
f 335/2/4 333/2/4 336/2/4
f 336/3/4 334/3/4 337/3/4
f 332/2/4 335/2/4 339/2/4
f 339/2/4 335/2/4 340/2/4
f 340/2/4 335/2/4 341/2/4
f 339/2/4 340/2/4 342/2/4
f 338/3/4 339/3/4 346/3/4
f 344/2/4 345/2/4 347/2/4
f 346/3/4 339/3/4 347/3/4
f 342/2/4 343/2/4 347/2/4
f 343/2/4 344/2/4 347/2/4
f 339/2/4 342/2/4 347/2/4
f 347/2/4 345/2/4 348/2/4
f 349/2/4 350/2/4 352/2/4
f 352/2/4 350/2/4 353/2/4
f 351/2/4 352/2/4 355/2/4
f 355/2/4 352/2/4 356/2/4
f 353/2/4 354/2/4 357/2/4
f 357/2/4 354/2/4 358/2/4
f 359/2/4 360/2/4 361/2/4
f 361/2/4 360/2/4 362/2/4
f 367/3/5 364/3/5 363/3/5
f 368/3/5 364/3/5 367/3/5
f 369/3/5 366/3/5 365/3/5
f 370/3/5 366/3/5 369/3/5
f 375/3/5 372/3/5 371/3/5
f 376/3/5 372/3/5 375/3/5
f 377/3/5 374/3/5 373/3/5
f 378/3/5 374/3/5 377/3/5
f 381/2/5 380/2/5 379/2/5
f 382/2/5 380/2/5 381/2/5
f 387/3/5 382/3/5 381/3/5
f 388/3/5 382/3/5 387/3/5
f 391/1/5 384/1/5 383/1/5
f 392/1/5 384/1/5 391/1/5
f 393/1/5 384/1/5 392/1/5
f 394/2/5 386/2/5 385/2/5
f 395/3/5 387/3/5 386/3/5
f 395/2/5 386/2/5 394/2/5
f 395/3/5 388/3/5 387/3/5
f 395/3/5 389/3/5 388/3/5
f 396/3/5 389/3/5 395/3/5
f 397/3/5 389/3/5 396/3/5
f 398/2/5 390/2/5 389/2/5
f 398/3/5 389/3/5 397/3/5
f 399/2/5 390/2/5 398/2/5
f 400/2/5 392/2/5 391/2/5
f 401/2/5 392/2/5 400/2/5
f 403/3/5 397/3/5 396/3/5
f 404/3/5 397/3/5 403/3/5
f 405/1/5 402/1/5 401/1/5
f 405/1/5 401/1/5 400/1/5
f 406/1/5 402/1/5 405/1/5
f 407/2/5 404/2/5 403/2/5
f 408/2/5 404/2/5 407/2/5
f 413/1/5 410/1/5 409/1/5
f 414/1/5 410/1/5 413/1/5
f 415/4/5 412/4/5 411/4/5
f 416/4/5 412/4/5 415/4/5
f 417/2/5 414/2/5 413/2/5
f 418/2/5 414/2/5 417/2/5
f 419/1/5 418/1/5 417/1/5
f 420/1/5 418/1/5 419/1/5
f 423/2/5 422/2/5 421/2/5
f 424/2/5 422/2/5 423/2/5
f 427/2/5 426/2/5 425/2/5
f 428/2/5 426/2/5 427/2/5
f 432/2/5 430/2/5 429/2/5
f 433/2/5 430/2/5 432/2/5
f 434/2/5 432/2/5 431/2/5
f 435/2/5 432/2/5 434/2/5
f 438/2/5 437/2/5 436/2/5
f 439/2/5 437/2/5 438/2/5
f 442/2/5 441/2/5 440/2/5
f 443/2/5 441/2/5 442/2/5
f 445/2/5 444/2/5 443/2/5
f 446/2/5 444/2/5 445/2/5
f 449/2/5 448/2/5 447/2/5
f 450/2/5 448/2/5 449/2/5
f 451/1/6 452/1/6 453/1/6
f 453/1/6 452/1/6 454/1/6
f 454/1/6 452/1/6 455/1/6
f 456/1/6 457/1/6 459/1/6
f 457/1/6 458/1/6 459/1/6
f 459/1/6 458/1/6 460/1/6
f 461/1/6 462/1/6 463/1/6
f 463/1/6 462/1/6 464/1/6
f 465/1/6 466/1/6 467/1/6
f 467/1/6 466/1/6 468/1/6
f 469/2/6 470/2/6 471/2/6
f 471/2/6 470/2/6 472/2/6
f 473/2/6 474/2/6 475/2/6
f 475/2/6 474/2/6 476/2/6
f 477/2/6 478/2/6 479/2/6
f 479/2/6 478/2/6 480/2/6
f 481/2/6 482/2/6 483/2/6
f 483/2/6 482/2/6 484/2/6
f 484/2/6 482/2/6 485/2/6
f 485/2/6 482/2/6 486/2/6
f 487/2/6 488/2/6 489/2/6
f 489/2/6 488/2/6 490/2/6
f 491/2/6 492/2/6 494/2/6
f 494/2/6 492/2/6 495/2/6
f 493/2/6 494/2/6 498/2/6
f 498/2/6 494/2/6 499/2/6
f 496/2/6 497/2/6 503/2/6
f 498/3/6 499/3/6 504/3/6
f 497/3/6 498/3/6 504/3/6
f 503/2/6 497/2/6 504/2/6
f 504/3/6 499/3/6 505/3/6
f 502/2/6 503/2/6 506/2/6
f 503/2/6 504/2/6 506/2/6
f 504/2/6 505/2/6 506/2/6
f 506/2/6 505/2/6 507/2/6
f 500/2/6 501/2/6 508/2/6
f 508/2/6 501/2/6 509/2/6
f 506/3/6 507/3/6 510/3/6
f 502/2/6 506/2/6 510/2/6
f 508/3/6 509/3/6 510/3/6
f 507/3/6 508/3/6 510/3/6
f 510/3/6 509/3/6 511/3/6
f 511/3/6 509/3/6 512/3/6
f 512/3/6 509/3/6 513/3/6
f 502/2/6 510/2/6 514/2/6
f 510/2/6 511/2/6 514/2/6
f 514/2/6 511/2/6 515/2/6
f 515/2/6 511/2/6 516/2/6
f 516/2/6 511/2/6 517/2/6
f 515/2/6 516/2/6 518/2/6
f 516/3/6 517/3/6 519/3/6
f 518/2/6 516/2/6 519/2/6
f 519/3/6 517/3/6 520/3/6
f 520/3/6 517/3/6 521/3/6
f 512/2/6 513/2/6 522/2/6
f 522/2/6 513/2/6 523/2/6
f 520/2/6 521/2/6 524/2/6
f 524/2/6 521/2/6 525/2/6
f 525/2/6 526/2/6 527/2/6
f 527/2/6 526/2/6 528/2/6
f 529/2/6 530/2/6 531/2/6
f 531/2/6 530/2/6 532/2/6
f 533/2/6 534/2/6 535/2/6
f 535/2/6 534/2/6 536/2/6
