# MagicaVoxel @ Ephtracy

# material
mtllib flower_pot.mtl
usemtl palette

# normals
vn -1 0 0
vn 1 0 0
vn 0 0 1
vn 0 0 -1
vn 0 -1 0
vn 0 1 0

# texcoords
vt 0.107422 0.5
vt 0.392578 0.5
vt 0.623047 0.5

# verts
v -1 0 2
v -1 0 -1
v -1 1 2
v -1 1 1
v -1 1 -0
v -1 1 -1
v -1 3 2
v -1 3 1
v -1 3 -0
v -1 3 -1
v -1 4 2
v -1 4 -1
v -1 5 1
v -1 5 -0
v -1 6 1
v -1 6 -0
v -1 7 1
v -1 7 -0
v -1 8 1
v -1 8 -0
v 0 1 2
v 0 1 1
v 0 1 -0
v 0 1 -1
v 0 3 2
v 0 3 1
v 0 3 -0
v 0 3 -1
v 0 4 1
v 0 4 -0
v 0 5 2
v 0 5 1
v 0 5 -0
v 0 5 -1
v 0 6 2
v 0 6 1
v 0 6 -0
v 0 6 -1
v 0 7 2
v 0 7 1
v 0 7 -0
v 0 7 -1
v 0 8 2
v 0 8 1
v 0 8 -0
v 0 8 -1
v 0 9 1
v 0 9 -0
v 1 1 2
v 1 1 1
v 1 1 -0
v 1 1 -1
v 1 3 2
v 1 3 1
v 1 3 -0
v 1 3 -1
v 1 4 1
v 1 4 -0
v 1 5 2
v 1 5 1
v 1 5 -0
v 1 5 -1
v 1 6 2
v 1 6 1
v 1 6 -0
v 1 6 -1
v 1 7 2
v 1 7 1
v 1 7 -0
v 1 7 -1
v 1 8 2
v 1 8 1
v 1 8 -0
v 1 8 -1
v 1 9 1
v 1 9 -0
v 2 0 2
v 2 0 -1
v 2 1 2
v 2 1 1
v 2 1 -0
v 2 1 -1
v 2 3 2
v 2 3 1
v 2 3 -0
v 2 3 -1
v 2 4 2
v 2 4 -1
v 2 5 1
v 2 5 -0
v 2 6 1
v 2 6 -0
v 2 7 1
v 2 7 -0
v 2 8 1
v 2 8 -0
v -1 0 2
v -1 1 2
v -1 3 2
v -1 4 2
v 0 1 2
v 0 3 2
v 0 5 2
v 0 6 2
v 0 7 2
v 0 8 2
v 1 1 2
v 1 3 2
v 1 5 2
v 1 6 2
v 1 7 2
v 1 8 2
v 2 0 2
v 2 1 2
v 2 3 2
v 2 4 2
v -1 1 1
v -1 3 1
v -1 5 1
v -1 6 1
v -1 7 1
v -1 8 1
v 0 1 1
v 0 3 1
v 0 4 1
v 0 5 1
v 0 6 1
v 0 7 1
v 0 8 1
v 0 9 1
v 1 1 1
v 1 3 1
v 1 4 1
v 1 5 1
v 1 6 1
v 1 7 1
v 1 8 1
v 1 9 1
v 2 1 1
v 2 3 1
v 2 5 1
v 2 6 1
v 2 7 1
v 2 8 1
v -1 1 -0
v -1 3 -0
v -1 5 -0
v -1 6 -0
v -1 7 -0
v -1 8 -0
v 0 1 -0
v 0 3 -0
v 0 4 -0
v 0 5 -0
v 0 6 -0
v 0 7 -0
v 0 8 -0
v 0 9 -0
v 1 1 -0
v 1 3 -0
v 1 4 -0
v 1 5 -0
v 1 6 -0
v 1 7 -0
v 1 8 -0
v 1 9 -0
v 2 1 -0
v 2 3 -0
v 2 5 -0
v 2 6 -0
v 2 7 -0
v 2 8 -0
v -1 0 -1
v -1 1 -1
v -1 3 -1
v -1 4 -1
v 0 1 -1
v 0 3 -1
v 0 5 -1
v 0 6 -1
v 0 7 -1
v 0 8 -1
v 1 1 -1
v 1 3 -1
v 1 5 -1
v 1 6 -1
v 1 7 -1
v 1 8 -1
v 2 0 -1
v 2 1 -1
v 2 3 -1
v 2 4 -1
v -1 0 2
v 2 0 2
v -1 0 -1
v 2 0 -1
v -1 3 2
v 0 3 2
v 1 3 2
v 2 3 2
v -1 3 1
v 0 3 1
v 1 3 1
v 2 3 1
v -1 3 -0
v 0 3 -0
v 1 3 -0
v 2 3 -0
v -1 3 -1
v 0 3 -1
v 1 3 -1
v 2 3 -1
v 0 5 2
v 1 5 2
v -1 5 1
v 0 5 1
v 1 5 1
v 2 5 1
v -1 5 -0
v 0 5 -0
v 1 5 -0
v 2 5 -0
v 0 5 -1
v 1 5 -1
v 0 7 2
v 1 7 2
v -1 7 1
v 0 7 1
v 1 7 1
v 2 7 1
v -1 7 -0
v 0 7 -0
v 1 7 -0
v 2 7 -0
v 0 7 -1
v 1 7 -1
v -1 1 2
v 0 1 2
v 1 1 2
v 2 1 2
v -1 1 1
v 0 1 1
v 1 1 1
v 2 1 1
v -1 1 -0
v 0 1 -0
v 1 1 -0
v 2 1 -0
v -1 1 -1
v 0 1 -1
v 1 1 -1
v 2 1 -1
v -1 4 2
v 2 4 2
v 0 4 1
v 1 4 1
v 0 4 -0
v 1 4 -0
v -1 4 -1
v 2 4 -1
v 0 6 2
v 1 6 2
v -1 6 1
v 0 6 1
v 1 6 1
v 2 6 1
v -1 6 -0
v 0 6 -0
v 1 6 -0
v 2 6 -0
v 0 6 -1
v 1 6 -1
v 0 8 2
v 1 8 2
v -1 8 1
v 0 8 1
v 1 8 1
v 2 8 1
v -1 8 -0
v 0 8 -0
v 1 8 -0
v 2 8 -0
v 0 8 -1
v 1 8 -1
v 0 9 1
v 1 9 1
v 0 9 -0
v 1 9 -0

# faces
f 3/2/1 2/2/1 1/2/1
f 4/2/1 2/2/1 3/2/1
f 5/2/1 2/2/1 4/2/1
f 6/2/1 2/2/1 5/2/1
f 8/2/1 5/2/1 4/2/1
f 9/2/1 5/2/1 8/2/1
f 11/2/1 8/2/1 7/2/1
f 11/2/1 10/2/1 9/2/1
f 11/2/1 9/2/1 8/2/1
f 12/2/1 10/2/1 11/2/1
f 15/3/1 14/3/1 13/3/1
f 16/3/1 14/3/1 15/3/1
f 19/1/1 18/1/1 17/1/1
f 20/1/1 18/1/1 19/1/1
f 25/2/1 22/2/1 21/2/1
f 26/2/1 22/2/1 25/2/1
f 27/2/1 24/2/1 23/2/1
f 28/2/1 24/2/1 27/2/1
f 32/3/1 30/3/1 29/3/1
f 33/3/1 30/3/1 32/3/1
f 35/3/1 32/3/1 31/3/1
f 36/3/1 32/3/1 35/3/1
f 37/3/1 34/3/1 33/3/1
f 38/3/1 34/3/1 37/3/1
f 40/3/1 37/3/1 36/3/1
f 41/3/1 37/3/1 40/3/1
f 43/1/1 40/1/1 39/1/1
f 44/1/1 40/1/1 43/1/1
f 45/1/1 42/1/1 41/1/1
f 46/1/1 42/1/1 45/1/1
f 47/1/1 45/1/1 44/1/1
f 48/1/1 45/1/1 47/1/1
f 49/2/2 50/2/2 53/2/2
f 53/2/2 50/2/2 54/2/2
f 51/2/2 52/2/2 55/2/2
f 55/2/2 52/2/2 56/2/2
f 57/3/2 58/3/2 60/3/2
f 60/3/2 58/3/2 61/3/2
f 59/3/2 60/3/2 63/3/2
f 63/3/2 60/3/2 64/3/2
f 61/3/2 62/3/2 65/3/2
f 65/3/2 62/3/2 66/3/2
f 64/3/2 65/3/2 68/3/2
f 68/3/2 65/3/2 69/3/2
f 67/1/2 68/1/2 71/1/2
f 71/1/2 68/1/2 72/1/2
f 69/1/2 70/1/2 73/1/2
f 73/1/2 70/1/2 74/1/2
f 72/1/2 73/1/2 75/1/2
f 75/1/2 73/1/2 76/1/2
f 77/2/2 78/2/2 79/2/2
f 79/2/2 78/2/2 80/2/2
f 80/2/2 78/2/2 81/2/2
f 81/2/2 78/2/2 82/2/2
f 80/2/2 81/2/2 84/2/2
f 84/2/2 81/2/2 85/2/2
f 83/2/2 84/2/2 87/2/2
f 85/2/2 86/2/2 87/2/2
f 84/2/2 85/2/2 87/2/2
f 87/2/2 86/2/2 88/2/2
f 89/3/2 90/3/2 91/3/2
f 91/3/2 90/3/2 92/3/2
f 93/1/2 94/1/2 95/1/2
f 95/1/2 94/1/2 96/1/2
f 101/2/3 98/2/3 97/2/3
f 102/2/3 100/2/3 99/2/3
f 107/2/3 101/2/3 97/2/3
f 107/2/3 102/2/3 101/2/3
f 108/2/3 100/2/3 102/2/3
f 108/2/3 102/2/3 107/2/3
f 109/3/3 104/3/3 103/3/3
f 110/3/3 104/3/3 109/3/3
f 111/1/3 106/1/3 105/1/3
f 112/1/3 106/1/3 111/1/3
f 113/2/3 107/2/3 97/2/3
f 114/2/3 107/2/3 113/2/3
f 115/2/3 100/2/3 108/2/3
f 116/2/3 100/2/3 115/2/3
f 123/2/3 118/2/3 117/2/3
f 124/2/3 118/2/3 123/2/3
f 126/3/3 120/3/3 119/3/3
f 127/3/3 120/3/3 126/3/3
f 128/1/3 122/1/3 121/1/3
f 129/1/3 122/1/3 128/1/3
f 133/3/3 126/3/3 125/3/3
f 134/3/3 126/3/3 133/3/3
f 135/3/3 128/3/3 127/3/3
f 136/3/3 128/3/3 135/3/3
f 137/1/3 130/1/3 129/1/3
f 138/1/3 130/1/3 137/1/3
f 139/2/3 132/2/3 131/2/3
f 140/2/3 132/2/3 139/2/3
f 141/3/3 135/3/3 134/3/3
f 142/3/3 135/3/3 141/3/3
f 143/1/3 137/1/3 136/1/3
f 144/1/3 137/1/3 143/1/3
f 145/2/4 146/2/4 151/2/4
f 151/2/4 146/2/4 152/2/4
f 147/3/4 148/3/4 154/3/4
f 154/3/4 148/3/4 155/3/4
f 149/1/4 150/1/4 156/1/4
f 156/1/4 150/1/4 157/1/4
f 153/3/4 154/3/4 161/3/4
f 161/3/4 154/3/4 162/3/4
f 155/3/4 156/3/4 163/3/4
f 163/3/4 156/3/4 164/3/4
f 157/1/4 158/1/4 165/1/4
f 165/1/4 158/1/4 166/1/4
f 159/2/4 160/2/4 167/2/4
f 167/2/4 160/2/4 168/2/4
f 162/3/4 163/3/4 169/3/4
f 169/3/4 163/3/4 170/3/4
f 164/1/4 165/1/4 171/1/4
f 171/1/4 165/1/4 172/1/4
f 173/2/4 174/2/4 177/2/4
f 175/2/4 176/2/4 178/2/4
f 173/2/4 177/2/4 183/2/4
f 177/2/4 178/2/4 183/2/4
f 178/2/4 176/2/4 184/2/4
f 183/2/4 178/2/4 184/2/4
f 179/3/4 180/3/4 185/3/4
f 185/3/4 180/3/4 186/3/4
f 181/1/4 182/1/4 187/1/4
f 187/1/4 182/1/4 188/1/4
f 173/2/4 183/2/4 189/2/4
f 189/2/4 183/2/4 190/2/4
f 184/2/4 176/2/4 191/2/4
f 191/2/4 176/2/4 192/2/4
f 195/2/5 194/2/5 193/2/5
f 196/2/5 194/2/5 195/2/5
f 201/2/5 198/2/5 197/2/5
f 202/2/5 198/2/5 201/2/5
f 203/2/5 200/2/5 199/2/5
f 204/2/5 200/2/5 203/2/5
f 209/2/5 206/2/5 205/2/5
f 210/2/5 206/2/5 209/2/5
f 211/2/5 208/2/5 207/2/5
f 212/2/5 208/2/5 211/2/5
f 216/3/5 214/3/5 213/3/5
f 217/3/5 214/3/5 216/3/5
f 219/3/5 216/3/5 215/3/5
f 220/3/5 216/3/5 219/3/5
f 221/3/5 218/3/5 217/3/5
f 222/3/5 218/3/5 221/3/5
f 223/3/5 221/3/5 220/3/5
f 224/3/5 221/3/5 223/3/5
f 228/1/5 226/1/5 225/1/5
f 229/1/5 226/1/5 228/1/5
f 231/1/5 228/1/5 227/1/5
f 232/1/5 228/1/5 231/1/5
f 233/1/5 230/1/5 229/1/5
f 234/1/5 230/1/5 233/1/5
f 235/1/5 233/1/5 232/1/5
f 236/1/5 233/1/5 235/1/5
f 237/2/6 238/2/6 241/2/6
f 241/2/6 238/2/6 242/2/6
f 239/2/6 240/2/6 243/2/6
f 243/2/6 240/2/6 244/2/6
f 245/2/6 246/2/6 249/2/6
f 249/2/6 246/2/6 250/2/6
f 247/2/6 248/2/6 251/2/6
f 251/2/6 248/2/6 252/2/6
f 253/2/6 254/2/6 255/2/6
f 255/2/6 254/2/6 256/2/6
f 253/2/6 255/2/6 257/2/6
f 256/2/6 254/2/6 258/2/6
f 253/2/6 257/2/6 259/2/6
f 257/2/6 258/2/6 259/2/6
f 258/2/6 254/2/6 260/2/6
f 259/2/6 258/2/6 260/2/6
f 261/3/6 262/3/6 264/3/6
f 264/3/6 262/3/6 265/3/6
f 263/3/6 264/3/6 267/3/6
f 267/3/6 264/3/6 268/3/6
f 265/3/6 266/3/6 269/3/6
f 269/3/6 266/3/6 270/3/6
f 268/3/6 269/3/6 271/3/6
f 271/3/6 269/3/6 272/3/6
f 273/1/6 274/1/6 276/1/6
f 276/1/6 274/1/6 277/1/6
f 275/1/6 276/1/6 279/1/6
f 279/1/6 276/1/6 280/1/6
f 277/1/6 278/1/6 281/1/6
f 281/1/6 278/1/6 282/1/6
f 280/1/6 281/1/6 283/1/6
f 283/1/6 281/1/6 284/1/6
f 285/1/6 286/1/6 287/1/6
f 287/1/6 286/1/6 288/1/6
