# MagicaVoxel @ ephtracy

# material
mtllib Flower.mtl

# normals
vn -1 0 0
vn 1 0 0
vn 0 0 1
vn 0 0 -1
vn 0 -1 0
vn 0 1 0

# texcoords
vt 0.0449219 0.5
vt 0.181641 0.5
vt 0.748047 0.5
vt 0.830078 0.5

# verts
v 0 0 -0
v 0 1 -0
v 0 1 -1
v 0 0 -1
v 0 2 -0
v 0 2 -1
v 0 3 -0
v 0 4 -0
v 0 4 -1
v 0 3 -1
v 0 3 -2
v 0 2 -2
v -1 2 -0
v -1 3 -0
v -1 3 -1
v -1 2 -1
v 0 2 1
v 0 3 1
v 0 4 1
v 0 5 1
v 0 5 -0
v 0 5 -1
v 0 5 -2
v 0 4 -2
v -1 4 -0
v -1 5 -0
v -1 5 -1
v -1 4 -1
v 2 0 3
v 2 1 3
v 2 1 2
v 2 0 2
v 2 2 3
v 2 2 2
v 2 3 2
v 2 3 1
v 2 2 1
v 2 2 4
v 2 3 4
v 2 3 3
v 1 2 3
v 1 3 3
v 1 3 2
v 1 2 2
v -2 0 6
v -2 1 6
v -2 1 5
v -2 0 5
v -2 2 6
v -2 2 5
v -2 2 7
v -2 3 7
v -2 3 6
v -3 2 6
v -3 3 6
v -3 3 5
v -3 2 5
v -2 3 5
v -2 3 4
v -2 2 4
v -4 0 2
v -4 1 2
v -4 1 1
v -4 0 1
v -4 2 2
v -4 2 1
v -4 3 2
v -4 3 1
v -5 3 2
v -5 4 2
v -5 4 1
v -5 3 1
v -4 3 3
v -4 4 3
v -4 4 2
v -4 4 1
v -4 4 -0
v -4 3 -0
v -3 1 -2
v -3 2 -2
v -3 2 -3
v -3 1 -3
v -3 3 -2
v -3 3 -3
v -6 0 -0
v -6 1 -0
v -6 1 -1
v -6 0 -1
v -1 0 -5
v -1 1 -5
v -1 1 -6
v -1 0 -6
v -1 2 -5
v -1 2 -6
v -4 4 -2
v -4 5 -2
v -4 5 -3
v -4 4 -3
v 2 0 -3
v 2 1 -3
v 2 1 -4
v 2 0 -4
v 2 2 -3
v 2 2 -4
v 4 0 1
v 4 1 1
v 4 1 -0
v 4 0 -0
v 4 2 1
v 4 2 -0
v 4 3 1
v 4 3 -0
v 4 4 1
v 4 4 -0
v 5 0 -2
v 5 1 -2
v 5 1 -3
v 5 0 -3
v -3 4 -2
v -3 4 -3
v 3 0 7
v 3 1 7
v 3 1 6
v 3 0 6
v 3 2 7
v 3 3 7
v 3 3 6
v 3 2 6
v -5 0 7
v -5 1 7
v -5 1 6
v -5 0 6
v -5 0 -4
v -5 1 -4
v -5 1 -5
v -5 0 -5
v 4 0 -5
v 4 1 -5
v 4 1 -6
v 4 0 -6
v -3 0 -2
v -3 0 -3
v 4 5 -0
v 4 5 -1
v 4 4 -1
v 3 4 1
v 3 5 1
v 3 5 -0
v 3 4 -0
v 4 4 2
v 4 5 2
v 4 5 1
v 2 3 7
v 2 4 7
v 2 4 6
v 2 3 6
v 3 3 8
v 3 4 8
v 3 4 7
v 3 4 6
v 3 4 5
v 3 3 5
v 5 2 -3
v 5 2 -4
v 5 1 -4
v 4 2 -6
v 4 2 -7
v 4 1 -7
v 3 1 -5
v 3 2 -5
v 3 2 -6
v 3 1 -6
v 4 1 -2
v 4 2 -2
v 4 2 -3
v 4 1 -3
v 5 1 -1
v 5 2 -1
v 5 2 -2
v 4 1 -4
v 4 2 -4
v 4 2 -5
v -1 3 -6
v -1 3 -7
v -1 2 -7
v -2 2 -5
v -2 3 -5
v -2 3 -6
v -2 2 -6
v -1 2 -4
v -1 3 -4
v -1 3 -5
v -3 5 -3
v -3 5 -4
v -3 4 -4
v -3 4 -1
v -3 5 -1
v -3 5 -2
v -5 2 6
v -5 2 5
v -5 1 5
v -6 1 7
v -6 2 7
v -6 2 6
v -6 1 6
v -5 1 8
v -5 2 8
v -5 2 7
v 2 3 -4
v 2 3 -5
v 2 2 -5
v 2 2 -2
v 2 3 -2
v 2 3 -3
v 1 2 -3
v 1 3 -3
v 1 3 -4
v 1 2 -4
v -5 2 -5
v -5 2 -6
v -5 1 -6
v -6 1 -4
v -6 2 -4
v -6 2 -5
v -6 1 -5
v -5 1 -3
v -5 2 -3
v -5 2 -4
v -7 1 -0
v -7 2 -0
v -7 2 -1
v -7 1 -1
v -6 1 1
v -6 2 1
v -6 2 -0
v -6 2 -1
v -6 2 -2
v -6 1 -2
v 3 1 8
v 3 2 8
v 3 2 5
v 3 1 5
v 2 1 7
v 2 2 7
v 2 2 6
v 2 1 6
v 1 0 -0
v 1 0 -1
v 1 1 -1
v 1 1 -0
v 1 2 -1
v 1 2 -0
v 1 3 -0
v 1 3 -1
v 1 4 -1
v 1 4 -0
v 2 2 -0
v 2 2 -1
v 2 3 -1
v 2 3 -0
v 1 2 -2
v 1 3 -2
v 1 2 1
v 1 3 1
v 1 4 1
v 1 5 -0
v 1 5 1
v 2 4 -0
v 2 4 -1
v 2 5 -1
v 2 5 -0
v 1 4 -2
v 1 5 -2
v 1 5 -1
v 3 0 3
v 3 0 2
v 3 1 2
v 3 1 3
v 3 2 2
v 3 2 3
v 4 2 3
v 4 2 2
v 4 3 2
v 4 3 3
v 3 2 1
v 3 3 1
v 3 3 2
v 3 2 4
v 3 3 3
v 3 3 4
v -1 0 6
v -1 0 5
v -1 1 5
v -1 1 6
v -1 2 5
v -1 2 6
v -1 2 7
v -1 3 6
v -1 3 7
v 0 2 6
v 0 2 5
v 0 3 5
v 0 3 6
v -1 2 4
v -1 3 4
v -1 3 5
v -3 0 2
v -3 0 1
v -3 1 1
v -3 1 2
v -3 2 1
v -3 2 2
v -3 3 1
v -3 3 2
v -2 3 2
v -2 3 1
v -2 4 1
v -2 4 2
v -3 3 3
v -3 4 2
v -3 4 3
v -3 3 -0
v -3 4 -0
v -3 4 1
v -2 1 -2
v -2 1 -3
v -2 2 -3
v -2 2 -2
v -2 3 -3
v -2 3 -2
v -5 0 -0
v -5 0 -1
v -5 1 -1
v -5 1 -0
v 0 0 -5
v 0 0 -6
v 0 1 -6
v 0 1 -5
v 0 2 -6
v 0 2 -5
v 3 0 -3
v 3 0 -4
v 3 1 -4
v 3 1 -3
v 3 2 -4
v 3 2 -3
v 5 0 1
v 5 0 -0
v 5 1 -0
v 5 1 1
v 5 2 -0
v 5 2 1
v 5 3 -0
v 5 3 1
v 5 4 -0
v 5 4 1
v 6 0 -2
v 6 0 -3
v 6 1 -3
v 6 1 -2
v -2 4 -3
v -2 4 -2
v 4 0 7
v 4 0 6
v 4 1 6
v 4 1 7
v 4 2 7
v 4 2 6
v 4 3 6
v 4 3 7
v -4 0 7
v -4 0 6
v -4 1 6
v -4 1 7
v -4 0 -4
v -4 0 -5
v -4 1 -5
v -4 1 -4
v 5 0 -5
v 5 0 -6
v 5 1 -6
v 5 1 -5
v -2 0 -2
v -2 0 -3
v 6 4 1
v 6 4 -0
v 6 5 -0
v 6 5 1
v 5 4 -1
v 5 5 -1
v 5 5 -0
v 5 4 2
v 5 5 1
v 5 5 2
v 4 3 8
v 4 4 7
v 4 4 8
v 5 3 7
v 5 3 6
v 5 4 6
v 5 4 7
v 4 3 5
v 4 4 5
v 4 4 6
v 7 1 -2
v 7 1 -3
v 7 2 -3
v 7 2 -2
v 6 1 -4
v 6 2 -4
v 6 2 -3
v 6 1 -5
v 6 1 -6
v 6 2 -6
v 6 2 -5
v 5 1 -7
v 5 2 -7
v 5 2 -6
v 6 1 -1
v 6 2 -2
v 6 2 -1
v 5 2 -5
v 0 2 -7
v 0 3 -7
v 0 3 -6
v 1 2 -5
v 1 2 -6
v 1 3 -6
v 1 3 -5
v 0 2 -4
v 0 3 -5
v 0 3 -4
v -2 4 -4
v -2 5 -4
v -2 5 -3
v -1 4 -2
v -1 4 -3
v -1 5 -3
v -1 5 -2
v -2 4 -1
v -2 5 -2
v -2 5 -1
v -4 1 5
v -4 2 5
v -4 2 6
v -3 1 7
v -3 1 6
v -3 2 7
v -4 1 8
v -4 2 7
v -4 2 8
v 4 3 -4
v 4 3 -3
v 3 3 -5
v 3 3 -4
v 3 2 -2
v 3 3 -3
v 3 3 -2
v -4 1 -6
v -4 2 -6
v -4 2 -5
v -4 1 -3
v -4 2 -4
v -4 2 -3
v -5 1 1
v -5 2 -0
v -5 2 1
v -4 1 -0
v -4 1 -1
v -4 2 -1
v -4 2 -0
v -5 1 -2
v -5 2 -2
v -5 2 -1
v -3 1 -4
v -3 1 -5
v -3 2 -5
v -3 2 -4
v 4 1 8
v 4 2 8
v 5 1 7
v 5 1 6
v 5 2 6
v 5 2 7
v 4 1 5
v 4 2 5

# faces

usemtl palette

f 1/3/1 2/3/1 3/3/1 4/3/1

f 2/3/1 5/3/1 6/3/1 3/3/1

f 7/3/1 8/3/1 9/3/1 10/3/1

f 6/3/1 10/3/1 11/3/1 12/3/1

f 13/3/1 14/3/1 15/3/1 16/3/1

f 17/3/1 18/3/1 7/3/1 5/3/1

f 19/4/1 20/4/1 21/4/1 8/4/1

f 9/4/1 22/4/1 23/4/1 24/4/1

f 25/4/1 26/4/1 27/4/1 28/4/1

f 29/3/1 30/3/1 31/3/1 32/3/1

f 30/3/1 33/3/1 34/3/1 31/3/1

f 34/4/1 35/4/1 36/4/1 37/4/1

f 38/4/1 39/4/1 40/4/1 33/4/1

f 41/4/1 42/4/1 43/4/1 44/4/1

f 45/3/1 46/3/1 47/3/1 48/3/1

f 46/3/1 49/3/1 50/3/1 47/3/1

f 51/4/1 52/4/1 53/4/1 49/4/1

f 54/4/1 55/4/1 56/4/1 57/4/1

f 50/4/1 58/4/1 59/4/1 60/4/1

f 61/3/1 62/3/1 63/3/1 64/3/1

f 62/3/1 65/3/1 66/3/1 63/3/1

f 65/3/1 67/3/1 68/3/1 66/3/1

f 69/4/1 70/4/1 71/4/1 72/4/1

f 73/4/1 74/4/1 75/4/1 67/4/1

f 68/4/1 76/4/1 77/4/1 78/4/1

f 79/3/1 80/3/1 81/3/1 82/3/1

f 80/3/1 83/3/1 84/3/1 81/3/1

f 85/3/1 86/3/1 87/3/1 88/3/1

f 89/3/1 90/3/1 91/3/1 92/3/1

f 90/3/1 93/3/1 94/3/1 91/3/1

f 95/4/1 96/4/1 97/4/1 98/4/1

f 99/3/1 100/3/1 101/3/1 102/3/1

f 100/3/1 103/3/1 104/3/1 101/3/1

f 105/3/1 106/3/1 107/3/1 108/3/1

f 106/3/1 109/3/1 110/3/1 107/3/1

f 109/3/1 111/3/1 112/3/1 110/3/1

f 111/3/1 113/3/1 114/3/1 112/3/1

f 115/3/1 116/3/1 117/3/1 118/3/1

f 83/3/1 119/3/1 120/3/1 84/3/1

f 121/3/1 122/3/1 123/3/1 124/3/1

f 125/3/1 126/3/1 127/3/1 128/3/1

f 129/3/1 130/3/1 131/3/1 132/3/1

f 133/3/1 134/3/1 135/3/1 136/3/1

f 137/3/1 138/3/1 139/3/1 140/3/1

f 141/3/1 79/3/1 82/3/1 142/3/1

f 114/4/1 143/4/1 144/4/1 145/4/1

f 146/4/1 147/4/1 148/4/1 149/4/1

f 150/4/1 151/4/1 152/4/1 113/4/1

f 153/4/1 154/4/1 155/4/1 156/4/1

f 157/4/1 158/4/1 159/4/1 126/4/1

f 127/4/1 160/4/1 161/4/1 162/4/1

f 117/4/1 163/4/1 164/4/1 165/4/1

f 139/4/1 166/4/1 167/4/1 168/4/1

f 169/4/1 170/4/1 171/4/1 172/4/1

f 173/4/1 174/4/1 175/4/1 176/4/1

f 177/4/1 178/4/1 179/4/1 116/4/1

f 180/4/1 181/4/1 182/4/1 138/4/1

f 94/4/1 183/4/1 184/4/1 185/4/1

f 186/4/1 187/4/1 188/4/1 189/4/1

f 190/4/1 191/4/1 192/4/1 93/4/1

f 120/4/1 193/4/1 194/4/1 195/4/1

f 196/4/1 197/4/1 198/4/1 119/4/1

f 131/4/1 199/4/1 200/4/1 201/4/1

f 202/4/1 203/4/1 204/4/1 205/4/1

f 206/4/1 207/4/1 208/4/1 130/4/1

f 104/4/1 209/4/1 210/4/1 211/4/1

f 212/4/1 213/4/1 214/4/1 103/4/1

f 215/4/1 216/4/1 217/4/1 218/4/1

f 135/4/1 219/4/1 220/4/1 221/4/1

f 222/4/1 223/4/1 224/4/1 225/4/1

f 226/4/1 227/4/1 228/4/1 134/4/1

f 229/4/1 230/4/1 231/4/1 232/4/1

f 233/4/1 234/4/1 235/4/1 86/4/1

f 87/4/1 236/4/1 237/4/1 238/4/1

f 239/3/1 240/3/1 125/3/1 122/3/1

f 123/3/1 128/3/1 241/3/1 242/3/1

f 243/3/1 244/3/1 245/3/1 246/3/1

f 247/3/2 248/3/2 249/3/2 250/3/2

f 250/3/2 249/3/2 251/3/2 252/3/2

f 253/3/2 254/3/2 255/3/2 256/3/2

f 257/3/2 258/3/2 259/3/2 260/3/2

f 251/3/2 261/3/2 262/3/2 254/3/2

f 263/3/2 252/3/2 253/3/2 264/3/2

f 265/4/2 256/4/2 266/4/2 267/4/2

f 268/4/2 269/4/2 270/4/2 271/4/2

f 255/4/2 272/4/2 273/4/2 274/4/2

f 275/3/2 276/3/2 277/3/2 278/3/2

f 278/3/2 277/3/2 279/3/2 280/3/2

f 281/4/2 282/4/2 283/4/2 284/4/2

f 279/4/2 285/4/2 286/4/2 287/4/2

f 288/4/2 280/4/2 289/4/2 290/4/2

f 291/3/2 292/3/2 293/3/2 294/3/2

f 294/3/2 293/3/2 295/3/2 296/3/2

f 297/4/2 296/4/2 298/4/2 299/4/2

f 300/4/2 301/4/2 302/4/2 303/4/2

f 295/4/2 304/4/2 305/4/2 306/4/2

f 307/3/2 308/3/2 309/3/2 310/3/2

f 310/3/2 309/3/2 311/3/2 312/3/2

f 312/3/2 311/3/2 313/3/2 314/3/2

f 315/4/2 316/4/2 317/4/2 318/4/2

f 319/4/2 314/4/2 320/4/2 321/4/2

f 313/4/2 322/4/2 323/4/2 324/4/2

f 325/3/2 326/3/2 327/3/2 328/3/2

f 328/3/2 327/3/2 329/3/2 330/3/2

f 331/3/2 332/3/2 333/3/2 334/3/2

f 335/3/2 336/3/2 337/3/2 338/3/2

f 338/3/2 337/3/2 339/3/2 340/3/2

f 341/3/2 342/3/2 343/3/2 344/3/2

f 344/3/2 343/3/2 345/3/2 346/3/2

f 347/3/2 348/3/2 349/3/2 350/3/2

f 350/3/2 349/3/2 351/3/2 352/3/2

f 352/3/2 351/3/2 353/3/2 354/3/2

f 354/3/2 353/3/2 355/3/2 356/3/2

f 357/3/2 358/3/2 359/3/2 360/3/2

f 330/3/2 329/3/2 361/3/2 362/3/2

f 363/3/2 364/3/2 365/3/2 366/3/2

f 367/3/2 368/3/2 369/3/2 370/3/2

f 371/3/2 372/3/2 373/3/2 374/3/2

f 375/3/2 376/3/2 377/3/2 378/3/2

f 379/3/2 380/3/2 381/3/2 382/3/2

f 383/3/2 384/3/2 326/3/2 325/3/2

f 385/4/2 386/4/2 387/4/2 388/4/2

f 355/4/2 389/4/2 390/4/2 391/4/2

f 392/4/2 356/4/2 393/4/2 394/4/2

f 395/4/2 370/4/2 396/4/2 397/4/2

f 398/4/2 399/4/2 400/4/2 401/4/2

f 369/4/2 402/4/2 403/4/2 404/4/2

f 405/4/2 406/4/2 407/4/2 408/4/2

f 359/4/2 409/4/2 410/4/2 411/4/2

f 412/4/2 413/4/2 414/4/2 415/4/2

f 381/4/2 416/4/2 417/4/2 418/4/2

f 419/4/2 360/4/2 420/4/2 421/4/2

f 165/4/2 382/4/2 422/4/2 164/4/2

f 339/4/2 423/4/2 424/4/2 425/4/2

f 426/4/2 427/4/2 428/4/2 429/4/2

f 430/4/2 340/4/2 431/4/2 432/4/2

f 361/4/2 433/4/2 434/4/2 435/4/2

f 436/4/2 437/4/2 438/4/2 439/4/2

f 440/4/2 362/4/2 441/4/2 442/4/2

f 373/4/2 443/4/2 444/4/2 445/4/2

f 446/4/2 447/4/2 54/4/2 448/4/2

f 449/4/2 374/4/2 450/4/2 451/4/2

f 175/4/2 181/4/2 452/4/2 453/4/2

f 345/4/2 170/4/2 454/4/2 455/4/2

f 456/4/2 346/4/2 457/4/2 458/4/2

f 377/4/2 459/4/2 460/4/2 461/4/2

f 462/4/2 378/4/2 463/4/2 464/4/2

f 465/4/2 334/4/2 466/4/2 467/4/2

f 468/4/2 469/4/2 470/4/2 471/4/2

f 333/4/2 472/4/2 473/4/2 474/4/2

f 475/4/2 476/4/2 477/4/2 478/4/2

f 479/3/2 366/3/2 367/3/2 480/3/2

f 481/3/2 482/3/2 483/3/2 484/3/2

f 365/3/2 485/3/2 486/3/2 368/3/2

f 1/3/3 247/3/3 250/3/3 2/3/3

f 2/3/3 250/3/3 252/3/3 5/3/3

f 7/3/3 253/3/3 256/3/3 8/3/3

f 252/3/3 257/3/3 260/3/3 253/3/3

f 13/3/3 5/3/3 7/3/3 14/3/3

f 17/3/3 263/3/3 264/3/3 18/3/3

f 19/4/3 265/4/3 267/4/3 20/4/3

f 256/4/3 268/4/3 271/4/3 266/4/3

f 25/4/3 8/4/3 21/4/3 26/4/3

f 29/3/3 275/3/3 278/3/3 30/3/3

f 30/3/3 278/3/3 280/3/3 33/3/3

f 280/4/3 281/4/3 284/4/3 289/4/3

f 38/4/3 288/4/3 290/4/3 39/4/3

f 41/4/3 33/4/3 40/4/3 42/4/3

f 45/3/3 291/3/3 294/3/3 46/3/3

f 46/3/3 294/3/3 296/3/3 49/3/3

f 51/4/3 297/4/3 299/4/3 52/4/3

f 296/4/3 300/4/3 303/4/3 298/4/3

f 54/4/3 49/4/3 53/4/3 55/4/3

f 61/3/3 307/3/3 310/3/3 62/3/3

f 62/3/3 310/3/3 312/3/3 65/3/3

f 65/3/3 312/3/3 314/3/3 67/3/3

f 314/4/3 315/4/3 318/4/3 320/4/3

f 69/4/3 67/4/3 75/4/3 70/4/3

f 73/4/3 319/4/3 321/4/3 74/4/3

f 79/3/3 325/3/3 328/3/3 80/3/3

f 80/3/3 328/3/3 330/3/3 83/3/3

f 85/3/3 331/3/3 334/3/3 86/3/3

f 89/3/3 335/3/3 338/3/3 90/3/3

f 90/3/3 338/3/3 340/3/3 93/3/3

f 95/4/3 119/4/3 198/4/3 96/4/3

f 99/3/3 341/3/3 344/3/3 100/3/3

f 100/3/3 344/3/3 346/3/3 103/3/3

f 105/3/3 347/3/3 350/3/3 106/3/3

f 106/3/3 350/3/3 352/3/3 109/3/3

f 109/3/3 352/3/3 354/3/3 111/3/3

f 111/3/3 354/3/3 356/3/3 113/3/3

f 115/3/3 357/3/3 360/3/3 116/3/3

f 83/3/3 330/3/3 362/3/3 119/3/3

f 121/3/3 363/3/3 366/3/3 122/3/3

f 125/3/3 367/3/3 370/3/3 126/3/3

f 129/3/3 371/3/3 374/3/3 130/3/3

f 133/3/3 375/3/3 378/3/3 134/3/3

f 137/3/3 379/3/3 382/3/3 138/3/3

f 141/3/3 383/3/3 325/3/3 79/3/3

f 356/4/3 385/4/3 388/4/3 393/4/3

f 146/4/3 113/4/3 152/4/3 147/4/3

f 150/4/3 392/4/3 394/4/3 151/4/3

f 153/4/3 126/4/3 159/4/3 154/4/3

f 157/4/3 395/4/3 397/4/3 158/4/3

f 370/4/3 398/4/3 401/4/3 396/4/3

f 360/4/3 405/4/3 408/4/3 420/4/3

f 382/4/3 412/4/3 415/4/3 422/4/3

f 169/4/3 138/4/3 182/4/3 170/4/3

f 173/4/3 116/4/3 179/4/3 174/4/3

f 177/4/3 419/4/3 421/4/3 178/4/3

f 180/4/3 165/4/3 164/4/3 181/4/3

f 186/4/3 93/4/3 192/4/3 187/4/3

f 340/4/3 426/4/3 429/4/3 431/4/3

f 190/4/3 430/4/3 432/4/3 191/4/3

f 362/4/3 436/4/3 439/4/3 441/4/3

f 196/4/3 440/4/3 442/4/3 197/4/3

f 202/4/3 130/4/3 208/4/3 203/4/3

f 374/4/3 446/4/3 448/4/3 450/4/3

f 206/4/3 449/4/3 451/4/3 207/4/3

f 346/4/3 175/4/3 453/4/3 457/4/3

f 212/4/3 456/4/3 458/4/3 213/4/3

f 215/4/3 103/4/3 214/4/3 216/4/3

f 222/4/3 134/4/3 228/4/3 223/4/3

f 226/4/3 462/4/3 464/4/3 227/4/3

f 229/4/3 86/4/3 235/4/3 230/4/3

f 233/4/3 465/4/3 467/4/3 234/4/3

f 334/4/3 468/4/3 471/4/3 466/4/3

f 378/4/3 475/4/3 478/4/3 463/4/3

f 239/3/3 479/3/3 480/3/3 240/3/3

f 366/3/3 481/3/3 484/3/3 367/3/3

f 243/3/3 122/3/3 125/3/3 244/3/3

f 4/3/4 3/3/4 249/3/4 248/3/4

f 3/3/4 6/3/4 251/3/4 249/3/4

f 10/3/4 9/3/4 255/3/4 254/3/4

f 251/3/4 254/3/4 259/3/4 258/3/4

f 12/3/4 11/3/4 262/3/4 261/3/4

f 16/3/4 15/3/4 10/3/4 6/3/4

f 255/4/4 274/4/4 270/4/4 269/4/4

f 24/4/4 23/4/4 273/4/4 272/4/4

f 28/4/4 27/4/4 22/4/4 9/4/4

f 32/3/4 31/3/4 277/3/4 276/3/4

f 31/3/4 34/3/4 279/3/4 277/3/4

f 279/4/4 287/4/4 283/4/4 282/4/4

f 37/4/4 36/4/4 286/4/4 285/4/4

f 44/4/4 43/4/4 35/4/4 34/4/4

f 48/3/4 47/3/4 293/3/4 292/3/4

f 47/3/4 50/3/4 295/3/4 293/3/4

f 295/4/4 306/4/4 302/4/4 301/4/4

f 57/4/4 56/4/4 58/4/4 50/4/4

f 60/4/4 59/4/4 305/4/4 304/4/4

f 64/3/4 63/3/4 309/3/4 308/3/4

f 63/3/4 66/3/4 311/3/4 309/3/4

f 66/3/4 68/3/4 313/3/4 311/3/4

f 313/4/4 324/4/4 317/4/4 316/4/4

f 72/4/4 71/4/4 76/4/4 68/4/4

f 78/4/4 77/4/4 323/4/4 322/4/4

f 82/3/4 81/3/4 327/3/4 326/3/4

f 81/3/4 84/3/4 329/3/4 327/3/4

f 88/3/4 87/3/4 333/3/4 332/3/4

f 92/3/4 91/3/4 337/3/4 336/3/4

f 91/3/4 94/3/4 339/3/4 337/3/4

f 98/4/4 97/4/4 193/4/4 120/4/4

f 102/3/4 101/3/4 343/3/4 342/3/4

f 101/3/4 104/3/4 345/3/4 343/3/4

f 108/3/4 107/3/4 349/3/4 348/3/4

f 107/3/4 110/3/4 351/3/4 349/3/4

f 110/3/4 112/3/4 353/3/4 351/3/4

f 112/3/4 114/3/4 355/3/4 353/3/4

f 118/3/4 117/3/4 359/3/4 358/3/4

f 84/3/4 120/3/4 361/3/4 329/3/4

f 124/3/4 123/3/4 365/3/4 364/3/4

f 128/3/4 127/3/4 369/3/4 368/3/4

f 132/3/4 131/3/4 373/3/4 372/3/4

f 136/3/4 135/3/4 377/3/4 376/3/4

f 140/3/4 139/3/4 381/3/4 380/3/4

f 142/3/4 82/3/4 326/3/4 384/3/4

f 355/4/4 391/4/4 387/4/4 386/4/4

f 145/4/4 144/4/4 390/4/4 389/4/4

f 149/4/4 148/4/4 143/4/4 114/4/4

f 156/4/4 155/4/4 160/4/4 127/4/4

f 369/4/4 404/4/4 400/4/4 399/4/4

f 162/4/4 161/4/4 403/4/4 402/4/4

f 359/4/4 411/4/4 407/4/4 406/4/4

f 165/4/4 164/4/4 410/4/4 409/4/4

f 381/4/4 418/4/4 414/4/4 413/4/4

f 168/4/4 167/4/4 417/4/4 416/4/4

f 172/4/4 171/4/4 166/4/4 139/4/4

f 176/4/4 175/4/4 163/4/4 117/4/4

f 185/4/4 184/4/4 424/4/4 423/4/4

f 189/4/4 188/4/4 183/4/4 94/4/4

f 339/4/4 425/4/4 428/4/4 427/4/4

f 195/4/4 194/4/4 434/4/4 433/4/4

f 361/4/4 435/4/4 438/4/4 437/4/4

f 201/4/4 200/4/4 444/4/4 443/4/4

f 205/4/4 204/4/4 199/4/4 131/4/4

f 373/4/4 445/4/4 54/4/4 447/4/4

f 345/4/4 455/4/4 452/4/4 181/4/4

f 211/4/4 210/4/4 454/4/4 170/4/4

f 218/4/4 217/4/4 209/4/4 104/4/4

f 221/4/4 220/4/4 460/4/4 459/4/4

f 225/4/4 224/4/4 219/4/4 135/4/4

f 232/4/4 231/4/4 236/4/4 87/4/4

f 333/4/4 474/4/4 470/4/4 469/4/4

f 238/4/4 237/4/4 473/4/4 472/4/4

f 377/4/4 461/4/4 477/4/4 476/4/4

f 365/3/4 368/3/4 483/3/4 482/3/4

f 242/3/4 241/3/4 486/3/4 485/3/4

f 246/3/4 245/3/4 128/3/4 123/3/4

f 1/3/5 4/3/5 248/3/5 247/3/5

f 252/3/5 251/3/5 258/3/5 257/3/5

f 6/3/5 12/3/5 261/3/5 251/3/5

f 13/3/5 16/3/5 6/3/5 5/3/5

f 17/3/5 5/3/5 252/3/5 263/3/5

f 19/4/5 8/4/5 256/4/5 265/4/5

f 256/4/5 255/4/5 269/4/5 268/4/5

f 9/4/5 24/4/5 272/4/5 255/4/5

f 25/4/5 28/4/5 9/4/5 8/4/5

f 29/3/5 32/3/5 276/3/5 275/3/5

f 280/4/5 279/4/5 282/4/5 281/4/5

f 34/4/5 37/4/5 285/4/5 279/4/5

f 38/4/5 33/4/5 280/4/5 288/4/5

f 41/4/5 44/4/5 34/4/5 33/4/5

f 45/3/5 48/3/5 292/3/5 291/3/5

f 51/4/5 49/4/5 296/4/5 297/4/5

f 296/4/5 295/4/5 301/4/5 300/4/5

f 54/4/5 57/4/5 50/4/5 49/4/5

f 50/4/5 60/4/5 304/4/5 295/4/5

f 61/3/5 64/3/5 308/3/5 307/3/5

f 314/4/5 313/4/5 316/4/5 315/4/5

f 69/4/5 72/4/5 68/4/5 67/4/5

f 73/4/5 67/4/5 314/4/5 319/4/5

f 68/4/5 78/4/5 322/4/5 313/4/5

f 85/3/5 88/3/5 332/3/5 331/3/5

f 89/3/5 92/3/5 336/3/5 335/3/5

f 95/4/5 98/4/5 120/4/5 119/4/5

f 99/3/5 102/3/5 342/3/5 341/3/5

f 105/3/5 108/3/5 348/3/5 347/3/5

f 115/3/5 118/3/5 358/3/5 357/3/5

f 121/3/5 124/3/5 364/3/5 363/3/5

f 129/3/5 132/3/5 372/3/5 371/3/5

f 133/3/5 136/3/5 376/3/5 375/3/5

f 137/3/5 140/3/5 380/3/5 379/3/5

f 141/3/5 142/3/5 384/3/5 383/3/5

f 356/4/5 355/4/5 386/4/5 385/4/5

f 114/4/5 145/4/5 389/4/5 355/4/5

f 146/4/5 149/4/5 114/4/5 113/4/5

f 150/4/5 113/4/5 356/4/5 392/4/5

f 153/4/5 156/4/5 127/4/5 126/4/5

f 157/4/5 126/4/5 370/4/5 395/4/5

f 370/4/5 369/4/5 399/4/5 398/4/5

f 127/4/5 162/4/5 402/4/5 369/4/5

f 360/4/5 359/4/5 406/4/5 405/4/5

f 117/4/5 165/4/5 409/4/5 359/4/5

f 382/4/5 381/4/5 413/4/5 412/4/5

f 139/4/5 168/4/5 416/4/5 381/4/5

f 169/4/5 172/4/5 139/4/5 138/4/5

f 173/4/5 176/4/5 117/4/5 116/4/5

f 177/4/5 116/4/5 360/4/5 419/4/5

f 180/4/5 138/4/5 382/4/5 165/4/5

f 94/4/5 185/4/5 423/4/5 339/4/5

f 186/4/5 189/4/5 94/4/5 93/4/5

f 340/4/5 339/4/5 427/4/5 426/4/5

f 190/4/5 93/4/5 340/4/5 430/4/5

f 120/4/5 195/4/5 433/4/5 361/4/5

f 362/4/5 361/4/5 437/4/5 436/4/5

f 196/4/5 119/4/5 362/4/5 440/4/5

f 131/4/5 201/4/5 443/4/5 373/4/5

f 202/4/5 205/4/5 131/4/5 130/4/5

f 374/4/5 373/4/5 447/4/5 446/4/5

f 206/4/5 130/4/5 374/4/5 449/4/5

f 346/4/5 345/4/5 181/4/5 175/4/5

f 104/4/5 211/4/5 170/4/5 345/4/5

f 212/4/5 103/4/5 346/4/5 456/4/5

f 215/4/5 218/4/5 104/4/5 103/4/5

f 135/4/5 221/4/5 459/4/5 377/4/5

f 222/4/5 225/4/5 135/4/5 134/4/5

f 226/4/5 134/4/5 378/4/5 462/4/5

f 229/4/5 232/4/5 87/4/5 86/4/5

f 233/4/5 86/4/5 334/4/5 465/4/5

f 334/4/5 333/4/5 469/4/5 468/4/5

f 87/4/5 238/4/5 472/4/5 333/4/5

f 378/4/5 377/4/5 476/4/5 475/4/5

f 239/3/5 122/3/5 366/3/5 479/3/5

f 366/3/5 365/3/5 482/3/5 481/3/5

f 123/3/5 242/3/5 485/3/5 365/3/5

f 243/3/5 246/3/5 123/3/5 122/3/5

f 253/3/6 260/3/6 259/3/6 254/3/6

f 10/3/6 254/3/6 262/3/6 11/3/6

f 14/3/6 7/3/6 10/3/6 15/3/6

f 18/3/6 264/3/6 253/3/6 7/3/6

f 21/2/6 266/2/6 274/2/6 22/2/6

f 20/4/6 267/4/6 266/4/6 21/4/6

f 266/4/6 271/4/6 270/4/6 274/4/6

f 22/4/6 274/4/6 273/4/6 23/4/6

f 26/4/6 21/4/6 22/4/6 27/4/6

f 289/4/6 284/4/6 283/4/6 287/4/6

f 35/4/6 287/4/6 286/4/6 36/4/6

f 39/4/6 290/4/6 289/4/6 40/4/6

f 42/4/6 40/4/6 35/4/6 43/4/6

f 40/2/6 289/2/6 287/2/6 35/2/6

f 53/2/6 298/2/6 306/2/6 58/2/6

f 52/4/6 299/4/6 298/4/6 53/4/6

f 298/4/6 303/4/6 302/4/6 306/4/6

f 55/4/6 53/4/6 58/4/6 56/4/6

f 58/4/6 306/4/6 305/4/6 59/4/6

f 320/4/6 318/4/6 317/4/6 324/4/6

f 70/4/6 75/4/6 76/4/6 71/4/6

f 74/4/6 321/4/6 320/4/6 75/4/6

f 76/4/6 324/4/6 323/4/6 77/4/6

f 75/1/6 320/1/6 324/1/6 76/1/6

f 235/1/6 466/1/6 474/1/6 236/1/6

f 96/4/6 198/4/6 193/4/6 97/4/6

f 159/2/6 396/2/6 404/2/6 160/2/6

f 152/2/6 393/2/6 391/2/6 143/2/6

f 198/1/6 441/1/6 435/1/6 193/1/6

f 208/2/6 450/2/6 445/2/6 199/2/6

f 182/1/6 422/1/6 418/1/6 166/1/6

f 179/1/6 420/1/6 411/1/6 163/1/6

f 214/1/6 457/1/6 455/1/6 209/1/6

f 192/1/6 431/1/6 425/1/6 183/1/6

f 228/1/6 463/1/6 461/1/6 219/1/6

f 393/4/6 388/4/6 387/4/6 391/4/6

f 143/4/6 391/4/6 390/4/6 144/4/6

f 147/4/6 152/4/6 143/4/6 148/4/6

f 151/4/6 394/4/6 393/4/6 152/4/6

f 154/4/6 159/4/6 160/4/6 155/4/6

f 158/4/6 397/4/6 396/4/6 159/4/6

f 396/4/6 401/4/6 400/4/6 404/4/6

f 160/4/6 404/4/6 403/4/6 161/4/6

f 420/4/6 408/4/6 407/4/6 411/4/6

f 163/4/6 411/4/6 410/4/6 164/4/6

f 422/4/6 415/4/6 414/4/6 418/4/6

f 166/4/6 418/4/6 417/4/6 167/4/6

f 170/4/6 182/4/6 166/4/6 171/4/6

f 174/4/6 179/4/6 163/4/6 175/4/6

f 178/4/6 421/4/6 420/4/6 179/4/6

f 181/4/6 164/4/6 422/4/6 182/4/6

f 183/4/6 425/4/6 424/4/6 184/4/6

f 187/4/6 192/4/6 183/4/6 188/4/6

f 431/4/6 429/4/6 428/4/6 425/4/6

f 191/4/6 432/4/6 431/4/6 192/4/6

f 193/4/6 435/4/6 434/4/6 194/4/6

f 441/4/6 439/4/6 438/4/6 435/4/6

f 197/4/6 442/4/6 441/4/6 198/4/6

f 199/4/6 445/4/6 444/4/6 200/4/6

f 203/4/6 208/4/6 199/4/6 204/4/6

f 450/4/6 448/4/6 54/4/6 445/4/6

f 207/4/6 451/4/6 450/4/6 208/4/6

f 457/4/6 453/4/6 452/4/6 455/4/6

f 209/4/6 455/4/6 454/4/6 210/4/6

f 213/4/6 458/4/6 457/4/6 214/4/6

f 216/4/6 214/4/6 209/4/6 217/4/6

f 219/4/6 461/4/6 460/4/6 220/4/6

f 223/4/6 228/4/6 219/4/6 224/4/6

f 227/4/6 464/4/6 463/4/6 228/4/6

f 230/4/6 235/4/6 236/4/6 231/4/6

f 234/4/6 467/4/6 466/4/6 235/4/6

f 466/4/6 471/4/6 470/4/6 474/4/6

f 236/4/6 474/4/6 473/4/6 237/4/6

f 463/4/6 478/4/6 477/4/6 461/4/6

f 240/3/6 480/3/6 367/3/6 125/3/6

f 367/3/6 484/3/6 483/3/6 368/3/6

f 128/3/6 368/3/6 486/3/6 241/3/6

f 244/3/6 125/3/6 128/3/6 245/3/6

# numNormals 6
# numTexCoords 4
# numVerts 486
# numFaces 464
