# MagicaVoxel @ Ephtracy

# material
mtllib grid_x.mtl
usemtl palette

# normals
vn -1 0 0
vn 1 0 0
vn 0 0 1
vn 0 0 -1
vn 0 -1 0
vn 0 1 0

# texcoords
vt 0.974609 0.5
vt 0.978516 0.5

# verts
v -2 0 8
v -2 0 -8
v -2 1 8
v -2 1 -8
v -2 15 8
v -2 15 -8
v -2 16 8
v -2 16 -8
v -1 1 8
v -1 1 7
v -1 1 6
v -1 1 5
v -1 1 4
v -1 1 3
v -1 1 2
v -1 1 1
v -1 1 -1
v -1 1 -2
v -1 1 -3
v -1 1 -4
v -1 1 -5
v -1 1 -6
v -1 1 -7
v -1 1 -8
v -1 2 1
v -1 2 -1
v -1 3 1
v -1 3 -1
v -1 4 1
v -1 4 -1
v -1 5 1
v -1 5 -1
v -1 6 1
v -1 6 -1
v -1 7 1
v -1 7 -1
v -1 9 1
v -1 9 -1
v -1 10 1
v -1 10 -1
v -1 11 1
v -1 11 -1
v -1 12 1
v -1 12 -1
v -1 13 1
v -1 13 -1
v -1 14 1
v -1 14 -1
v -1 15 8
v -1 15 7
v -1 15 6
v -1 15 5
v -1 15 4
v -1 15 3
v -1 15 2
v -1 15 1
v -1 15 -1
v -1 15 -2
v -1 15 -3
v -1 15 -4
v -1 15 -5
v -1 15 -6
v -1 15 -7
v -1 15 -8
v 1 1 8
v 1 1 7
v 1 1 6
v 1 1 5
v 1 1 4
v 1 1 3
v 1 1 2
v 1 1 1
v 1 1 -1
v 1 1 -2
v 1 1 -3
v 1 1 -4
v 1 1 -5
v 1 1 -6
v 1 1 -7
v 1 1 -8
v 1 2 1
v 1 2 -1
v 1 3 1
v 1 3 -1
v 1 4 1
v 1 4 -1
v 1 5 1
v 1 5 -1
v 1 6 1
v 1 6 -1
v 1 7 1
v 1 7 -1
v 1 9 1
v 1 9 -1
v 1 10 1
v 1 10 -1
v 1 11 1
v 1 11 -1
v 1 12 1
v 1 12 -1
v 1 13 1
v 1 13 -1
v 1 14 1
v 1 14 -1
v 1 15 8
v 1 15 7
v 1 15 6
v 1 15 5
v 1 15 4
v 1 15 3
v 1 15 2
v 1 15 1
v 1 15 -1
v 1 15 -2
v 1 15 -3
v 1 15 -4
v 1 15 -5
v 1 15 -6
v 1 15 -7
v 1 15 -8
v 2 0 8
v 2 0 -8
v 2 1 8
v 2 1 -8
v 2 15 8
v 2 15 -8
v 2 16 8
v 2 16 -8
v -2 0 8
v -2 1 8
v -2 15 8
v -2 16 8
v -1 1 8
v -1 15 8
v 1 1 8
v 1 15 8
v 2 0 8
v 2 1 8
v 2 15 8
v 2 16 8
v -1 1 6
v -1 15 6
v 1 1 6
v 1 15 6
v -1 1 4
v -1 15 4
v 1 1 4
v 1 15 4
v -1 1 2
v -1 15 2
v 1 1 2
v 1 15 2
v -1 1 -1
v -1 2 -1
v -1 3 -1
v -1 4 -1
v -1 5 -1
v -1 6 -1
v -1 7 -1
v -1 9 -1
v -1 10 -1
v -1 11 -1
v -1 12 -1
v -1 13 -1
v -1 14 -1
v -1 15 -1
v 1 1 -1
v 1 2 -1
v 1 3 -1
v 1 4 -1
v 1 5 -1
v 1 6 -1
v 1 7 -1
v 1 9 -1
v 1 10 -1
v 1 11 -1
v 1 12 -1
v 1 13 -1
v 1 14 -1
v 1 15 -1
v -1 1 -3
v -1 15 -3
v 1 1 -3
v 1 15 -3
v -1 1 -5
v -1 15 -5
v 1 1 -5
v 1 15 -5
v -1 1 -7
v -1 15 -7
v 1 1 -7
v 1 15 -7
v -1 1 7
v -1 15 7
v 1 1 7
v 1 15 7
v -1 1 5
v -1 15 5
v 1 1 5
v 1 15 5
v -1 1 3
v -1 15 3
v 1 1 3
v 1 15 3
v -1 1 1
v -1 2 1
v -1 3 1
v -1 4 1
v -1 5 1
v -1 6 1
v -1 7 1
v -1 9 1
v -1 10 1
v -1 11 1
v -1 12 1
v -1 13 1
v -1 14 1
v -1 15 1
v 1 1 1
v 1 2 1
v 1 3 1
v 1 4 1
v 1 5 1
v 1 6 1
v 1 7 1
v 1 9 1
v 1 10 1
v 1 11 1
v 1 12 1
v 1 13 1
v 1 14 1
v 1 15 1
v -1 1 -2
v -1 15 -2
v 1 1 -2
v 1 15 -2
v -1 1 -4
v -1 15 -4
v 1 1 -4
v 1 15 -4
v -1 1 -6
v -1 15 -6
v 1 1 -6
v 1 15 -6
v -2 0 -8
v -2 1 -8
v -2 15 -8
v -2 16 -8
v -1 1 -8
v -1 15 -8
v 1 1 -8
v 1 15 -8
v 2 0 -8
v 2 1 -8
v 2 15 -8
v 2 16 -8
v -2 0 8
v 2 0 8
v -2 0 -8
v 2 0 -8
v -1 2 1
v 1 2 1
v -1 2 -1
v 1 2 -1
v -1 4 1
v 1 4 1
v -1 4 -1
v 1 4 -1
v -1 6 1
v 1 6 1
v -1 6 -1
v 1 6 -1
v -1 9 1
v 1 9 1
v -1 9 -1
v 1 9 -1
v -1 11 1
v 1 11 1
v -1 11 -1
v 1 11 -1
v -1 13 1
v 1 13 1
v -1 13 -1
v 1 13 -1
v -2 15 8
v -1 15 8
v 1 15 8
v 2 15 8
v -1 15 7
v 1 15 7
v -1 15 6
v 1 15 6
v -1 15 5
v 1 15 5
v -1 15 4
v 1 15 4
v -1 15 3
v 1 15 3
v -1 15 2
v 1 15 2
v -1 15 1
v 1 15 1
v -1 15 -1
v 1 15 -1
v -1 15 -2
v 1 15 -2
v -1 15 -3
v 1 15 -3
v -1 15 -4
v 1 15 -4
v -1 15 -5
v 1 15 -5
v -1 15 -6
v 1 15 -6
v -1 15 -7
v 1 15 -7
v -2 15 -8
v -1 15 -8
v 1 15 -8
v 2 15 -8
v -2 1 8
v -1 1 8
v 1 1 8
v 2 1 8
v -1 1 7
v 1 1 7
v -1 1 6
v 1 1 6
v -1 1 5
v 1 1 5
v -1 1 4
v 1 1 4
v -1 1 3
v 1 1 3
v -1 1 2
v 1 1 2
v -1 1 1
v 1 1 1
v -1 1 -1
v 1 1 -1
v -1 1 -2
v 1 1 -2
v -1 1 -3
v 1 1 -3
v -1 1 -4
v 1 1 -4
v -1 1 -5
v 1 1 -5
v -1 1 -6
v 1 1 -6
v -1 1 -7
v 1 1 -7
v -2 1 -8
v -1 1 -8
v 1 1 -8
v 2 1 -8
v -1 3 1
v 1 3 1
v -1 3 -1
v 1 3 -1
v -1 5 1
v 1 5 1
v -1 5 -1
v 1 5 -1
v -1 7 1
v 1 7 1
v -1 7 -1
v 1 7 -1
v -1 10 1
v 1 10 1
v -1 10 -1
v 1 10 -1
v -1 12 1
v 1 12 1
v -1 12 -1
v 1 12 -1
v -1 14 1
v 1 14 1
v -1 14 -1
v 1 14 -1
v -2 16 8
v 2 16 8
v -2 16 -8
v 2 16 -8

# faces
f 3/2/1 2/2/1 1/2/1
f 4/2/1 2/2/1 3/2/1
f 7/2/1 6/2/1 5/2/1
f 8/2/1 6/2/1 7/2/1
f 25/1/1 16/1/1 15/1/1
f 26/1/1 18/1/1 17/1/1
f 27/1/1 25/1/1 15/1/1
f 27/1/1 26/1/1 25/1/1
f 28/1/1 18/1/1 26/1/1
f 28/1/1 26/1/1 27/1/1
f 29/1/1 27/1/1 15/1/1
f 30/1/1 18/1/1 28/1/1
f 31/1/1 29/1/1 15/1/1
f 31/1/1 30/1/1 29/1/1
f 32/1/1 18/1/1 30/1/1
f 32/1/1 30/1/1 31/1/1
f 33/1/1 31/1/1 15/1/1
f 34/1/1 18/1/1 32/1/1
f 35/1/1 33/1/1 15/1/1
f 35/1/1 34/1/1 33/1/1
f 36/1/1 18/1/1 34/1/1
f 36/1/1 34/1/1 35/1/1
f 37/1/1 35/1/1 15/1/1
f 38/1/1 18/1/1 36/1/1
f 39/1/1 37/1/1 15/1/1
f 39/1/1 38/1/1 37/1/1
f 40/1/1 18/1/1 38/1/1
f 40/1/1 38/1/1 39/1/1
f 41/1/1 39/1/1 15/1/1
f 42/1/1 18/1/1 40/1/1
f 43/1/1 41/1/1 15/1/1
f 43/1/1 42/1/1 41/1/1
f 44/1/1 18/1/1 42/1/1
f 44/1/1 42/1/1 43/1/1
f 45/1/1 43/1/1 15/1/1
f 46/1/1 18/1/1 44/1/1
f 47/1/1 45/1/1 15/1/1
f 47/1/1 46/1/1 45/1/1
f 48/1/1 18/1/1 46/1/1
f 48/1/1 46/1/1 47/1/1
f 49/1/1 10/1/1 9/1/1
f 50/1/1 10/1/1 49/1/1
f 51/1/1 12/1/1 11/1/1
f 52/1/1 12/1/1 51/1/1
f 53/1/1 14/1/1 13/1/1
f 54/1/1 14/1/1 53/1/1
f 55/1/1 47/1/1 15/1/1
f 56/1/1 47/1/1 55/1/1
f 57/1/1 18/1/1 48/1/1
f 58/1/1 18/1/1 57/1/1
f 59/1/1 20/1/1 19/1/1
f 60/1/1 20/1/1 59/1/1
f 61/1/1 22/1/1 21/1/1
f 62/1/1 22/1/1 61/1/1
f 63/1/1 24/1/1 23/1/1
f 64/1/1 24/1/1 63/1/1
f 71/1/2 72/1/2 81/1/2
f 73/1/2 74/1/2 82/1/2
f 71/1/2 81/1/2 83/1/2
f 81/1/2 82/1/2 83/1/2
f 82/1/2 74/1/2 84/1/2
f 83/1/2 82/1/2 84/1/2
f 71/1/2 83/1/2 85/1/2
f 84/1/2 74/1/2 86/1/2
f 71/1/2 85/1/2 87/1/2
f 85/1/2 86/1/2 87/1/2
f 86/1/2 74/1/2 88/1/2
f 87/1/2 86/1/2 88/1/2
f 71/1/2 87/1/2 89/1/2
f 88/1/2 74/1/2 90/1/2
f 71/1/2 89/1/2 91/1/2
f 89/1/2 90/1/2 91/1/2
f 90/1/2 74/1/2 92/1/2
f 91/1/2 90/1/2 92/1/2
f 71/1/2 91/1/2 93/1/2
f 92/1/2 74/1/2 94/1/2
f 71/1/2 93/1/2 95/1/2
f 93/1/2 94/1/2 95/1/2
f 94/1/2 74/1/2 96/1/2
f 95/1/2 94/1/2 96/1/2
f 71/1/2 95/1/2 97/1/2
f 96/1/2 74/1/2 98/1/2
f 71/1/2 97/1/2 99/1/2
f 97/1/2 98/1/2 99/1/2
f 98/1/2 74/1/2 100/1/2
f 99/1/2 98/1/2 100/1/2
f 71/1/2 99/1/2 101/1/2
f 100/1/2 74/1/2 102/1/2
f 71/1/2 101/1/2 103/1/2
f 101/1/2 102/1/2 103/1/2
f 102/1/2 74/1/2 104/1/2
f 103/1/2 102/1/2 104/1/2
f 65/1/2 66/1/2 105/1/2
f 105/1/2 66/1/2 106/1/2
f 67/1/2 68/1/2 107/1/2
f 107/1/2 68/1/2 108/1/2
f 69/1/2 70/1/2 109/1/2
f 109/1/2 70/1/2 110/1/2
f 71/1/2 103/1/2 111/1/2
f 111/1/2 103/1/2 112/1/2
f 104/1/2 74/1/2 113/1/2
f 113/1/2 74/1/2 114/1/2
f 75/1/2 76/1/2 115/1/2
f 115/1/2 76/1/2 116/1/2
f 77/1/2 78/1/2 117/1/2
f 117/1/2 78/1/2 118/1/2
f 79/1/2 80/1/2 119/1/2
f 119/1/2 80/1/2 120/1/2
f 121/2/2 122/2/2 123/2/2
f 123/2/2 122/2/2 124/2/2
f 125/2/2 126/2/2 127/2/2
f 127/2/2 126/2/2 128/2/2
f 133/2/3 130/2/3 129/2/3
f 134/2/3 132/2/3 131/2/3
f 135/2/3 133/2/3 129/2/3
f 135/1/3 134/1/3 133/1/3
f 136/2/3 132/2/3 134/2/3
f 136/1/3 134/1/3 135/1/3
f 137/2/3 135/2/3 129/2/3
f 138/2/3 135/2/3 137/2/3
f 139/2/3 132/2/3 136/2/3
f 140/2/3 132/2/3 139/2/3
f 143/1/3 142/1/3 141/1/3
f 144/1/3 142/1/3 143/1/3
f 147/1/3 146/1/3 145/1/3
f 148/1/3 146/1/3 147/1/3
f 151/1/3 150/1/3 149/1/3
f 152/1/3 150/1/3 151/1/3
f 167/1/3 154/1/3 153/1/3
f 168/1/3 154/1/3 167/1/3
f 169/1/3 156/1/3 155/1/3
f 170/1/3 156/1/3 169/1/3
f 171/1/3 158/1/3 157/1/3
f 172/1/3 158/1/3 171/1/3
f 173/1/3 160/1/3 159/1/3
f 174/1/3 160/1/3 173/1/3
f 175/1/3 162/1/3 161/1/3
f 176/1/3 162/1/3 175/1/3
f 177/1/3 164/1/3 163/1/3
f 178/1/3 164/1/3 177/1/3
f 179/1/3 166/1/3 165/1/3
f 180/1/3 166/1/3 179/1/3
f 183/1/3 182/1/3 181/1/3
f 184/1/3 182/1/3 183/1/3
f 187/1/3 186/1/3 185/1/3
f 188/1/3 186/1/3 187/1/3
f 191/1/3 190/1/3 189/1/3
f 192/1/3 190/1/3 191/1/3
f 193/1/4 194/1/4 195/1/4
f 195/1/4 194/1/4 196/1/4
f 197/1/4 198/1/4 199/1/4
f 199/1/4 198/1/4 200/1/4
f 201/1/4 202/1/4 203/1/4
f 203/1/4 202/1/4 204/1/4
f 205/1/4 206/1/4 219/1/4
f 219/1/4 206/1/4 220/1/4
f 207/1/4 208/1/4 221/1/4
f 221/1/4 208/1/4 222/1/4
f 209/1/4 210/1/4 223/1/4
f 223/1/4 210/1/4 224/1/4
f 211/1/4 212/1/4 225/1/4
f 225/1/4 212/1/4 226/1/4
f 213/1/4 214/1/4 227/1/4
f 227/1/4 214/1/4 228/1/4
f 215/1/4 216/1/4 229/1/4
f 229/1/4 216/1/4 230/1/4
f 217/1/4 218/1/4 231/1/4
f 231/1/4 218/1/4 232/1/4
f 233/1/4 234/1/4 235/1/4
f 235/1/4 234/1/4 236/1/4
f 237/1/4 238/1/4 239/1/4
f 239/1/4 238/1/4 240/1/4
f 241/1/4 242/1/4 243/1/4
f 243/1/4 242/1/4 244/1/4
f 245/2/4 246/2/4 249/2/4
f 247/2/4 248/2/4 250/2/4
f 245/2/4 249/2/4 251/2/4
f 249/1/4 250/1/4 251/1/4
f 250/2/4 248/2/4 252/2/4
f 251/1/4 250/1/4 252/1/4
f 245/2/4 251/2/4 253/2/4
f 253/2/4 251/2/4 254/2/4
f 252/2/4 248/2/4 255/2/4
f 255/2/4 248/2/4 256/2/4
f 259/2/5 258/2/5 257/2/5
f 260/2/5 258/2/5 259/2/5
f 263/1/5 262/1/5 261/1/5
f 264/1/5 262/1/5 263/1/5
f 267/1/5 266/1/5 265/1/5
f 268/1/5 266/1/5 267/1/5
f 271/1/5 270/1/5 269/1/5
f 272/1/5 270/1/5 271/1/5
f 275/1/5 274/1/5 273/1/5
f 276/1/5 274/1/5 275/1/5
f 279/1/5 278/1/5 277/1/5
f 280/1/5 278/1/5 279/1/5
f 283/1/5 282/1/5 281/1/5
f 284/1/5 282/1/5 283/1/5
f 289/2/5 286/2/5 285/2/5
f 290/2/5 288/2/5 287/2/5
f 291/2/5 289/2/5 285/2/5
f 291/2/5 290/2/5 289/2/5
f 292/2/5 288/2/5 290/2/5
f 292/2/5 290/2/5 291/2/5
f 293/2/5 291/2/5 285/2/5
f 294/2/5 288/2/5 292/2/5
f 295/2/5 293/2/5 285/2/5
f 295/2/5 294/2/5 293/2/5
f 296/2/5 288/2/5 294/2/5
f 296/2/5 294/2/5 295/2/5
f 297/2/5 295/2/5 285/2/5
f 298/2/5 288/2/5 296/2/5
f 299/2/5 297/2/5 285/2/5
f 299/2/5 298/2/5 297/2/5
f 300/2/5 288/2/5 298/2/5
f 300/2/5 298/2/5 299/2/5
f 301/2/5 299/2/5 285/2/5
f 302/2/5 288/2/5 300/2/5
f 303/2/5 301/2/5 285/2/5
f 303/2/5 302/2/5 301/2/5
f 304/2/5 288/2/5 302/2/5
f 304/2/5 302/2/5 303/2/5
f 305/2/5 303/2/5 285/2/5
f 306/2/5 288/2/5 304/2/5
f 307/2/5 305/2/5 285/2/5
f 307/2/5 306/2/5 305/2/5
f 308/2/5 288/2/5 306/2/5
f 308/2/5 306/2/5 307/2/5
f 309/2/5 307/2/5 285/2/5
f 310/2/5 288/2/5 308/2/5
f 311/2/5 309/2/5 285/2/5
f 311/2/5 310/2/5 309/2/5
f 312/2/5 288/2/5 310/2/5
f 312/2/5 310/2/5 311/2/5
f 313/2/5 311/2/5 285/2/5
f 314/2/5 288/2/5 312/2/5
f 315/2/5 313/2/5 285/2/5
f 315/2/5 314/2/5 313/2/5
f 316/2/5 288/2/5 314/2/5
f 316/2/5 314/2/5 315/2/5
f 317/2/5 315/2/5 285/2/5
f 318/2/5 315/2/5 317/2/5
f 319/2/5 288/2/5 316/2/5
f 320/2/5 288/2/5 319/2/5
f 321/2/6 322/2/6 325/2/6
f 323/2/6 324/2/6 326/2/6
f 321/2/6 325/2/6 327/2/6
f 325/2/6 326/2/6 327/2/6
f 326/2/6 324/2/6 328/2/6
f 327/2/6 326/2/6 328/2/6
f 321/2/6 327/2/6 329/2/6
f 328/2/6 324/2/6 330/2/6
f 321/2/6 329/2/6 331/2/6
f 329/2/6 330/2/6 331/2/6
f 330/2/6 324/2/6 332/2/6
f 331/2/6 330/2/6 332/2/6
f 321/2/6 331/2/6 333/2/6
f 332/2/6 324/2/6 334/2/6
f 321/2/6 333/2/6 335/2/6
f 333/2/6 334/2/6 335/2/6
f 334/2/6 324/2/6 336/2/6
f 335/2/6 334/2/6 336/2/6
f 321/2/6 335/2/6 337/2/6
f 336/2/6 324/2/6 338/2/6
f 321/2/6 337/2/6 339/2/6
f 337/2/6 338/2/6 339/2/6
f 338/2/6 324/2/6 340/2/6
f 339/2/6 338/2/6 340/2/6
f 321/2/6 339/2/6 341/2/6
f 340/2/6 324/2/6 342/2/6
f 321/2/6 341/2/6 343/2/6
f 341/2/6 342/2/6 343/2/6
f 342/2/6 324/2/6 344/2/6
f 343/2/6 342/2/6 344/2/6
f 321/2/6 343/2/6 345/2/6
f 344/2/6 324/2/6 346/2/6
f 321/2/6 345/2/6 347/2/6
f 345/2/6 346/2/6 347/2/6
f 346/2/6 324/2/6 348/2/6
f 347/2/6 346/2/6 348/2/6
f 321/2/6 347/2/6 349/2/6
f 348/2/6 324/2/6 350/2/6
f 321/2/6 349/2/6 351/2/6
f 349/2/6 350/2/6 351/2/6
f 350/2/6 324/2/6 352/2/6
f 351/2/6 350/2/6 352/2/6
f 321/2/6 351/2/6 353/2/6
f 353/2/6 351/2/6 354/2/6
f 352/2/6 324/2/6 355/2/6
f 355/2/6 324/2/6 356/2/6
f 357/1/6 358/1/6 359/1/6
f 359/1/6 358/1/6 360/1/6
f 361/1/6 362/1/6 363/1/6
f 363/1/6 362/1/6 364/1/6
f 365/1/6 366/1/6 367/1/6
f 367/1/6 366/1/6 368/1/6
f 369/1/6 370/1/6 371/1/6
f 371/1/6 370/1/6 372/1/6
f 373/1/6 374/1/6 375/1/6
f 375/1/6 374/1/6 376/1/6
f 377/1/6 378/1/6 379/1/6
f 379/1/6 378/1/6 380/1/6
f 381/2/6 382/2/6 383/2/6
f 383/2/6 382/2/6 384/2/6
