# MagicaVoxel @ Ephtracy

# material
mtllib mammoth.mtl
usemtl palette

# normals
vn -1 0 0
vn 1 0 0
vn 0 0 1
vn 0 0 -1
vn 0 -1 0
vn 0 1 0

# texcoords
vt 0.537109 0.5
vt 0.873047 0.5
vt 0.958984 0.5
vt 0.990234 0.5

# verts
v -5 2 1
v -5 2 -0
v -5 3 1
v -5 3 -0
v -5 6 1
v -5 6 -0
v -4 5 -0
v -4 5 -1
v -4 6 -0
v -4 6 -1
v -3 0 3
v -3 0 1
v -3 0 -1
v -3 0 -3
v -3 1 3
v -3 1 1
v -3 1 -1
v -3 1 -3
v -3 4 1
v -3 4 -0
v -3 5 -0
v -3 5 -1
v -3 6 3
v -3 6 2
v -3 6 1
v -3 6 -1
v -3 6 -2
v -3 6 -3
v -3 7 2
v -3 7 -2
v -2 6 3
v -2 6 2
v -2 6 -2
v -2 6 -3
v -2 7 3
v -2 7 2
v -2 7 -2
v -2 7 -3
v 0 7 1
v 0 7 -1
v 0 8 1
v 0 8 -1
v 1 4 4
v 1 4 3
v 1 4 -3
v 1 4 -4
v 1 6 3
v 1 6 -3
v 1 7 4
v 1 7 3
v 1 7 2
v 1 7 1
v 1 7 -1
v 1 7 -2
v 1 7 -3
v 1 7 -4
v 1 8 2
v 1 8 1
v 1 8 -1
v 1 8 -2
v 1 9 1
v 1 9 -1
v 2 0 3
v 2 0 1
v 2 0 -1
v 2 0 -3
v 2 1 3
v 2 1 2
v 2 1 1
v 2 1 -1
v 2 1 -2
v 2 1 -3
v 2 3 4
v 2 3 3
v 2 3 -3
v 2 3 -4
v 2 4 5
v 2 4 4
v 2 4 3
v 2 4 -3
v 2 4 -4
v 2 4 -5
v 2 7 5
v 2 7 4
v 2 7 3
v 2 7 2
v 2 7 -2
v 2 7 -3
v 2 7 -4
v 2 7 -5
v 2 8 4
v 2 8 2
v 2 8 -2
v 2 8 -4
v 5 1 2
v 5 1 1
v 5 1 -1
v 5 1 -2
v 5 2 2
v 5 2 1
v 5 2 -1
v 5 2 -2
v -4 2 1
v -4 2 -0
v -4 3 1
v -4 3 -0
v -4 4 1
v -4 4 -0
v -1 0 3
v -1 0 1
v -1 0 -1
v -1 0 -3
v -1 1 3
v -1 1 2
v -1 1 1
v -1 1 -1
v -1 1 -2
v -1 1 -3
v 3 3 4
v 3 3 3
v 3 3 -3
v 3 3 -4
v 3 4 5
v 3 4 4
v 3 4 3
v 3 4 -3
v 3 4 -4
v 3 4 -5
v 3 6 4
v 3 6 3
v 3 6 -3
v 3 6 -4
v 3 7 5
v 3 7 4
v 3 7 3
v 3 7 2
v 3 7 -2
v 3 7 -3
v 3 7 -4
v 3 7 -5
v 3 8 4
v 3 8 2
v 3 8 -2
v 3 8 -4
v 4 0 3
v 4 0 1
v 4 0 -1
v 4 0 -3
v 4 1 3
v 4 1 1
v 4 1 -1
v 4 1 -3
v 4 2 2
v 4 2 1
v 4 2 -1
v 4 2 -2
v 4 3 2
v 4 3 1
v 4 3 -1
v 4 3 -2
v 4 4 2
v 4 4 1
v 4 4 -1
v 4 4 -2
v 4 5 2
v 4 5 1
v 4 5 -1
v 4 5 -2
v 4 6 2
v 4 6 1
v 4 6 -1
v 4 6 -2
v 4 7 3
v 4 7 2
v 4 7 1
v 4 7 -1
v 4 7 -2
v 4 7 -3
v 4 8 2
v 4 8 1
v 4 8 -1
v 4 8 -2
v 4 9 1
v 4 9 -1
v 5 2 2
v 5 2 1
v 5 2 -1
v 5 2 -2
v 5 3 2
v 5 3 1
v 5 3 -1
v 5 3 -2
v 5 4 1
v 5 4 -1
v 5 5 1
v 5 5 -1
v 5 7 1
v 5 7 -1
v 5 8 1
v 5 8 -1
v 6 1 1
v 6 1 -1
v 6 2 1
v 6 2 -1
v 6 4 1
v 6 4 -1
v 7 1 2
v 7 1 1
v 7 1 -1
v 7 1 -2
v 7 2 2
v 7 2 1
v 7 2 -1
v 7 2 -2
v 2 4 5
v 2 7 5
v 3 4 5
v 3 7 5
v 1 4 4
v 1 7 4
v 2 3 4
v 2 4 4
v 2 7 4
v 2 8 4
v 3 3 4
v 3 4 4
v 3 7 4
v 3 8 4
v -3 0 3
v -3 1 3
v -3 6 3
v -2 6 3
v -2 7 3
v -1 0 3
v -1 1 3
v 0 6 3
v 0 7 3
v 1 4 3
v 1 6 3
v 1 7 3
v 2 0 3
v 2 1 3
v 2 3 3
v 2 4 3
v 3 3 3
v 3 4 3
v 3 6 3
v 3 7 3
v 4 0 3
v 4 1 3
v 4 7 3
v -3 6 2
v -3 7 2
v -2 6 2
v -2 7 2
v 1 7 2
v 1 8 2
v 2 7 2
v 2 8 2
v 3 7 2
v 3 8 2
v 4 2 2
v 4 3 2
v 4 7 2
v 4 8 2
v 5 1 2
v 5 2 2
v 5 3 2
v 7 1 2
v 7 2 2
v -5 2 1
v -5 3 1
v -5 6 1
v -4 2 1
v -4 3 1
v -4 4 1
v -3 4 1
v -3 6 1
v 0 7 1
v 0 8 1
v 1 7 1
v 1 8 1
v 1 9 1
v 4 3 1
v 4 4 1
v 4 5 1
v 4 7 1
v 4 8 1
v 4 9 1
v 5 2 1
v 5 3 1
v 5 4 1
v 5 5 1
v 5 7 1
v 5 8 1
v 6 2 1
v 6 4 1
v -3 0 -1
v -3 1 -1
v -2 1 -1
v -1 0 -1
v -1 1 -1
v 2 0 -1
v 2 1 -1
v 3 1 -1
v 4 0 -1
v 4 1 -1
v 6 1 -1
v 6 2 -1
v 7 1 -1
v 7 2 -1
v -3 0 1
v -3 1 1
v -2 1 1
v -1 0 1
v -1 1 1
v 2 0 1
v 2 1 1
v 3 1 1
v 4 0 1
v 4 1 1
v 6 1 1
v 6 2 1
v 7 1 1
v 7 2 1
v -5 2 -0
v -5 3 -0
v -5 6 -0
v -4 2 -0
v -4 3 -0
v -4 4 -0
v -4 5 -0
v -4 6 -0
v -3 4 -0
v -3 5 -0
v -4 5 -1
v -4 6 -1
v -3 5 -1
v -3 6 -1
v 0 7 -1
v 0 8 -1
v 1 7 -1
v 1 8 -1
v 1 9 -1
v 4 3 -1
v 4 4 -1
v 4 5 -1
v 4 7 -1
v 4 8 -1
v 4 9 -1
v 5 2 -1
v 5 3 -1
v 5 4 -1
v 5 5 -1
v 5 7 -1
v 5 8 -1
v 6 2 -1
v 6 4 -1
v -3 6 -2
v -3 7 -2
v -2 6 -2
v -2 7 -2
v 1 7 -2
v 1 8 -2
v 2 7 -2
v 2 8 -2
v 3 7 -2
v 3 8 -2
v 4 2 -2
v 4 3 -2
v 4 7 -2
v 4 8 -2
v 5 1 -2
v 5 2 -2
v 5 3 -2
v 7 1 -2
v 7 2 -2
v -3 0 -3
v -3 1 -3
v -3 6 -3
v -2 6 -3
v -2 7 -3
v -1 0 -3
v -1 1 -3
v 0 6 -3
v 0 7 -3
v 1 4 -3
v 1 6 -3
v 1 7 -3
v 2 0 -3
v 2 1 -3
v 2 3 -3
v 2 4 -3
v 3 3 -3
v 3 4 -3
v 3 6 -3
v 3 7 -3
v 4 0 -3
v 4 1 -3
v 4 7 -3
v 1 4 -4
v 1 7 -4
v 2 3 -4
v 2 4 -4
v 2 7 -4
v 2 8 -4
v 3 3 -4
v 3 4 -4
v 3 7 -4
v 3 8 -4
v 2 4 -5
v 2 7 -5
v 3 4 -5
v 3 7 -5
v -3 0 3
v -1 0 3
v 2 0 3
v 4 0 3
v -3 0 1
v -1 0 1
v 2 0 1
v 4 0 1
v -3 0 -1
v -1 0 -1
v 2 0 -1
v 4 0 -1
v -3 0 -3
v -1 0 -3
v 2 0 -3
v 4 0 -3
v -1 1 3
v 2 1 3
v -1 1 2
v 2 1 2
v 5 1 2
v 7 1 2
v -3 1 1
v -2 1 1
v -1 1 1
v 2 1 1
v 3 1 1
v 4 1 1
v 5 1 1
v 6 1 1
v 7 1 1
v -3 1 -1
v -2 1 -1
v -1 1 -1
v 2 1 -1
v 3 1 -1
v 4 1 -1
v 5 1 -1
v 6 1 -1
v 7 1 -1
v -1 1 -2
v 2 1 -2
v 5 1 -2
v 7 1 -2
v -1 1 -3
v 2 1 -3
v 4 2 2
v 5 2 2
v -5 2 1
v -4 2 1
v 4 2 1
v 5 2 1
v -5 2 -0
v -4 2 -0
v 4 2 -1
v 5 2 -1
v 4 2 -2
v 5 2 -2
v 2 3 4
v 3 3 4
v 2 3 3
v 3 3 3
v 2 3 -3
v 3 3 -3
v 2 3 -4
v 3 3 -4
v 2 4 5
v 3 4 5
v 1 4 4
v 2 4 4
v 3 4 4
v 1 4 3
v 2 4 3
v -4 4 1
v -3 4 1
v -4 4 -0
v -3 4 -0
v 1 4 -3
v 2 4 -3
v 1 4 -4
v 2 4 -4
v 3 4 -4
v 2 4 -5
v 3 4 -5
v -4 5 -0
v -3 5 -0
v -4 5 -1
v -3 5 -1
v 4 7 1
v 5 7 1
v 4 7 -1
v 5 7 -1
v 5 2 2
v 7 2 2
v 5 2 1
v 6 2 1
v 7 2 1
v 5 2 -1
v 6 2 -1
v 7 2 -1
v 5 2 -2
v 7 2 -2
v 4 3 2
v 5 3 2
v 4 3 1
v 5 3 1
v 4 3 -1
v 5 3 -1
v 4 3 -2
v 5 3 -2
v 5 4 1
v 6 4 1
v 5 4 -1
v 6 4 -1
v 4 5 1
v 5 5 1
v 4 5 -1
v 5 5 -1
v -3 6 3
v -2 6 3
v -3 6 2
v -2 6 2
v -5 6 1
v -3 6 1
v -5 6 -0
v -4 6 -0
v -4 6 -1
v -3 6 -1
v -3 6 -2
v -2 6 -2
v -3 6 -3
v -2 6 -3
v 2 7 5
v 3 7 5
v 1 7 4
v 2 7 4
v 3 7 4
v -2 7 3
v 0 7 3
v 1 7 3
v 2 7 3
v 3 7 3
v 4 7 3
v -3 7 2
v -2 7 2
v 0 7 2
v 1 7 2
v 2 7 2
v 3 7 2
v 4 7 2
v -2 7 1
v 0 7 1
v 1 7 1
v -2 7 -1
v 0 7 -1
v 1 7 -1
v -3 7 -2
v -2 7 -2
v 0 7 -2
v 1 7 -2
v 2 7 -2
v 3 7 -2
v 4 7 -2
v -2 7 -3
v 0 7 -3
v 1 7 -3
v 2 7 -3
v 3 7 -3
v 4 7 -3
v 1 7 -4
v 2 7 -4
v 3 7 -4
v 2 7 -5
v 3 7 -5
v 2 8 4
v 3 8 4
v 1 8 2
v 2 8 2
v 3 8 2
v 4 8 2
v 0 8 1
v 1 8 1
v 4 8 1
v 5 8 1
v 0 8 -1
v 1 8 -1
v 4 8 -1
v 5 8 -1
v 1 8 -2
v 2 8 -2
v 3 8 -2
v 4 8 -2
v 2 8 -4
v 3 8 -4
v 1 9 1
v 4 9 1
v 1 9 -1
v 4 9 -1

# faces
f 3/4/1 2/4/1 1/4/1
f 4/4/1 2/4/1 3/4/1
f 5/1/1 4/1/1 3/1/1
f 6/1/1 4/1/1 5/1/1
f 9/1/1 8/1/1 7/1/1
f 10/1/1 8/1/1 9/1/1
f 15/2/1 12/2/1 11/2/1
f 16/2/1 12/2/1 15/2/1
f 17/2/1 14/2/1 13/2/1
f 18/2/1 14/2/1 17/2/1
f 19/1/1 16/1/1 15/1/1
f 19/1/1 17/1/1 16/1/1
f 19/1/1 18/1/1 17/1/1
f 20/1/1 18/1/1 19/1/1
f 21/1/1 18/1/1 20/1/1
f 22/1/1 18/1/1 21/1/1
f 23/1/1 19/1/1 15/1/1
f 24/1/1 19/1/1 23/1/1
f 25/1/1 19/1/1 24/1/1
f 26/1/1 18/1/1 22/1/1
f 27/1/1 18/1/1 26/1/1
f 28/1/1 18/1/1 27/1/1
f 29/1/1 25/1/1 24/1/1
f 29/1/1 27/1/1 26/1/1
f 29/1/1 26/1/1 25/1/1
f 30/1/1 27/1/1 29/1/1
f 35/1/1 32/1/1 31/1/1
f 36/1/1 32/1/1 35/1/1
f 37/1/1 34/1/1 33/1/1
f 38/1/1 34/1/1 37/1/1
f 41/2/1 40/2/1 39/2/1
f 42/2/1 40/2/1 41/2/1
f 47/1/1 44/1/1 43/1/1
f 48/1/1 46/1/1 45/1/1
f 49/1/1 47/1/1 43/1/1
f 50/1/1 47/1/1 49/1/1
f 55/1/1 46/1/1 48/1/1
f 56/1/1 46/1/1 55/1/1
f 57/2/1 52/2/1 51/2/1
f 58/2/1 52/2/1 57/2/1
f 59/2/1 54/2/1 53/2/1
f 60/2/1 54/2/1 59/2/1
f 61/2/1 59/2/1 58/2/1
f 62/2/1 59/2/1 61/2/1
f 67/2/1 64/2/1 63/2/1
f 68/2/1 64/2/1 67/2/1
f 69/2/1 64/2/1 68/2/1
f 70/2/1 66/2/1 65/2/1
f 71/2/1 66/2/1 70/2/1
f 72/2/1 66/2/1 71/2/1
f 78/1/1 74/1/1 73/1/1
f 79/1/1 74/1/1 78/1/1
f 80/1/1 76/1/1 75/1/1
f 81/1/1 76/1/1 80/1/1
f 83/1/1 78/1/1 77/1/1
f 84/1/1 78/1/1 83/1/1
f 89/1/1 82/1/1 81/1/1
f 90/1/1 82/1/1 89/1/1
f 91/1/1 85/1/1 84/1/1
f 91/1/1 86/1/1 85/1/1
f 92/1/1 86/1/1 91/1/1
f 93/1/1 88/1/1 87/1/1
f 93/1/1 89/1/1 88/1/1
f 94/1/1 89/1/1 93/1/1
f 99/3/1 96/3/1 95/3/1
f 100/1/1 97/1/1 96/1/1
f 100/3/1 96/3/1 99/3/1
f 101/3/1 98/3/1 97/3/1
f 101/1/1 97/1/1 100/1/1
f 102/3/1 98/3/1 101/3/1
f 103/4/2 104/4/2 105/4/2
f 105/4/2 104/4/2 106/4/2
f 105/1/2 106/1/2 107/1/2
f 107/1/2 106/1/2 108/1/2
f 109/2/2 110/2/2 113/2/2
f 113/2/2 110/2/2 114/2/2
f 114/2/2 110/2/2 115/2/2
f 111/2/2 112/2/2 116/2/2
f 116/2/2 112/2/2 117/2/2
f 117/2/2 112/2/2 118/2/2
f 119/1/2 120/1/2 124/1/2
f 124/1/2 120/1/2 125/1/2
f 121/1/2 122/1/2 126/1/2
f 126/1/2 122/1/2 127/1/2
f 124/2/2 125/2/2 129/2/2
f 123/1/2 124/1/2 129/1/2
f 129/2/2 125/2/2 130/2/2
f 126/2/2 127/2/2 131/2/2
f 127/1/2 128/1/2 132/1/2
f 131/2/2 127/2/2 132/2/2
f 129/1/2 130/1/2 133/1/2
f 123/1/2 129/1/2 133/1/2
f 133/1/2 130/1/2 134/1/2
f 134/1/2 130/1/2 135/1/2
f 131/1/2 132/1/2 138/1/2
f 132/1/2 128/1/2 139/1/2
f 138/1/2 132/1/2 139/1/2
f 139/1/2 128/1/2 140/1/2
f 135/1/2 136/1/2 141/1/2
f 134/1/2 135/1/2 141/1/2
f 141/1/2 136/1/2 142/1/2
f 137/1/2 138/1/2 143/1/2
f 138/1/2 139/1/2 143/1/2
f 143/1/2 139/1/2 144/1/2
f 145/2/2 146/2/2 149/2/2
f 149/2/2 146/2/2 150/2/2
f 147/2/2 148/2/2 151/2/2
f 151/2/2 148/2/2 152/2/2
f 149/1/2 150/1/2 153/1/2
f 150/1/2 151/1/2 153/1/2
f 151/1/2 152/1/2 153/1/2
f 153/1/2 152/1/2 154/1/2
f 154/1/2 152/1/2 155/1/2
f 155/1/2 152/1/2 156/1/2
f 149/1/2 153/1/2 157/1/2
f 156/1/2 152/1/2 160/1/2
f 157/1/2 158/1/2 161/1/2
f 149/1/2 157/1/2 161/1/2
f 161/1/2 158/1/2 162/1/2
f 159/1/2 160/1/2 163/1/2
f 160/1/2 152/1/2 164/1/2
f 163/1/2 160/1/2 164/1/2
f 161/2/2 162/2/2 165/2/2
f 149/1/2 161/1/2 165/1/2
f 165/2/2 162/2/2 166/2/2
f 163/2/2 164/2/2 167/2/2
f 164/1/2 152/1/2 168/1/2
f 167/2/2 164/2/2 168/2/2
f 165/3/2 166/3/2 169/3/2
f 149/1/2 165/1/2 169/1/2
f 166/1/2 167/1/2 170/1/2
f 169/3/2 166/3/2 170/3/2
f 167/3/2 168/3/2 171/3/2
f 170/1/2 167/1/2 171/1/2
f 168/1/2 152/1/2 172/1/2
f 171/3/2 168/3/2 172/3/2
f 149/1/2 169/1/2 173/1/2
f 170/2/2 171/2/2 174/2/2
f 173/1/2 169/1/2 174/1/2
f 169/2/2 170/2/2 174/2/2
f 171/2/2 172/2/2 174/2/2
f 174/2/2 172/2/2 175/2/2
f 175/2/2 172/2/2 176/2/2
f 172/1/2 152/1/2 177/1/2
f 176/2/2 172/2/2 177/2/2
f 177/1/2 152/1/2 178/1/2
f 174/2/2 175/2/2 179/2/2
f 179/2/2 175/2/2 180/2/2
f 176/2/2 177/2/2 181/2/2
f 181/2/2 177/2/2 182/2/2
f 180/2/2 181/2/2 183/2/2
f 183/2/2 181/2/2 184/2/2
f 185/3/2 186/3/2 189/3/2
f 189/3/2 186/3/2 190/3/2
f 187/3/2 188/3/2 191/3/2
f 191/3/2 188/3/2 192/3/2
f 193/1/2 194/1/2 195/1/2
f 195/1/2 194/1/2 196/1/2
f 197/2/2 198/2/2 199/2/2
f 199/2/2 198/2/2 200/2/2
f 201/1/2 202/1/2 203/1/2
f 203/1/2 202/1/2 204/1/2
f 203/1/2 204/1/2 205/1/2
f 205/1/2 204/1/2 206/1/2
f 207/3/2 208/3/2 211/3/2
f 211/3/2 208/3/2 212/3/2
f 209/3/2 210/3/2 213/3/2
f 213/3/2 210/3/2 214/3/2
f 217/1/3 216/1/3 215/1/3
f 218/1/3 216/1/3 217/1/3
f 222/1/3 220/1/3 219/1/3
f 223/1/3 220/1/3 222/1/3
f 225/1/3 222/1/3 221/1/3
f 226/1/3 222/1/3 225/1/3
f 227/1/3 224/1/3 223/1/3
f 228/1/3 224/1/3 227/1/3
f 232/1/3 231/1/3 230/1/3
f 234/2/3 230/2/3 229/2/3
f 235/1/3 233/1/3 232/1/3
f 235/2/3 230/2/3 234/2/3
f 235/1/3 232/1/3 230/1/3
f 236/1/3 233/1/3 235/1/3
f 237/1/3 233/1/3 236/1/3
f 238/1/3 236/1/3 235/1/3
f 239/2/3 237/2/3 236/2/3
f 239/1/3 236/1/3 238/1/3
f 240/2/3 237/2/3 239/2/3
f 242/1/3 238/1/3 235/1/3
f 243/1/3 238/1/3 242/1/3
f 244/1/3 238/1/3 243/1/3
f 245/1/3 243/1/3 242/1/3
f 249/2/3 242/2/3 241/2/3
f 250/1/3 248/1/3 247/1/3
f 250/2/3 242/2/3 249/2/3
f 250/1/3 246/1/3 245/1/3
f 250/1/3 247/1/3 246/1/3
f 250/1/3 245/1/3 242/1/3
f 251/1/3 248/1/3 250/1/3
f 254/1/3 253/1/3 252/1/3
f 255/1/3 253/1/3 254/1/3
f 258/2/3 257/2/3 256/2/3
f 259/2/3 257/2/3 258/2/3
f 264/2/3 261/2/3 260/2/3
f 265/2/3 261/2/3 264/2/3
f 267/3/3 263/3/3 262/3/3
f 268/3/3 263/3/3 267/3/3
f 269/3/3 267/3/3 266/3/3
f 270/3/3 267/3/3 269/3/3
f 274/4/3 272/4/3 271/4/3
f 275/1/3 273/1/3 272/1/3
f 275/4/3 272/4/3 274/4/3
f 276/1/3 273/1/3 275/1/3
f 277/1/3 273/1/3 276/1/3
f 278/1/3 273/1/3 277/1/3
f 281/2/3 280/2/3 279/2/3
f 282/2/3 280/2/3 281/2/3
f 288/2/3 283/2/3 282/2/3
f 289/2/3 283/2/3 288/2/3
f 291/1/3 286/1/3 285/1/3
f 291/1/3 285/1/3 284/1/3
f 292/1/3 286/1/3 291/1/3
f 293/1/3 286/1/3 292/1/3
f 294/2/3 288/2/3 287/2/3
f 295/2/3 288/2/3 294/2/3
f 296/1/3 291/1/3 290/1/3
f 296/1/3 292/1/3 291/1/3
f 297/1/3 292/1/3 296/1/3
f 300/2/3 299/2/3 298/2/3
f 301/2/3 300/2/3 298/2/3
f 302/2/3 300/2/3 301/2/3
f 305/2/3 304/2/3 303/2/3
f 306/2/3 305/2/3 303/2/3
f 307/2/3 305/2/3 306/2/3
f 310/3/3 309/3/3 308/3/3
f 311/3/3 309/3/3 310/3/3
f 312/2/4 313/2/4 314/2/4
f 312/2/4 314/2/4 315/2/4
f 315/2/4 314/2/4 316/2/4
f 317/2/4 318/2/4 319/2/4
f 317/2/4 319/2/4 320/2/4
f 320/2/4 319/2/4 321/2/4
f 322/3/4 323/3/4 324/3/4
f 324/3/4 323/3/4 325/3/4
f 326/4/4 327/4/4 329/4/4
f 327/1/4 328/1/4 330/1/4
f 329/4/4 327/4/4 330/4/4
f 330/1/4 328/1/4 331/1/4
f 331/1/4 328/1/4 332/1/4
f 332/1/4 328/1/4 333/1/4
f 331/1/4 332/1/4 334/1/4
f 334/1/4 332/1/4 335/1/4
f 336/1/4 337/1/4 338/1/4
f 338/1/4 337/1/4 339/1/4
f 340/2/4 341/2/4 342/2/4
f 342/2/4 341/2/4 343/2/4
f 343/2/4 344/2/4 349/2/4
f 349/2/4 344/2/4 350/2/4
f 346/1/4 347/1/4 352/1/4
f 345/1/4 346/1/4 352/1/4
f 352/1/4 347/1/4 353/1/4
f 353/1/4 347/1/4 354/1/4
f 348/2/4 349/2/4 355/2/4
f 355/2/4 349/2/4 356/2/4
f 351/1/4 352/1/4 357/1/4
f 352/1/4 353/1/4 357/1/4
f 357/1/4 353/1/4 358/1/4
f 359/1/4 360/1/4 361/1/4
f 361/1/4 360/1/4 362/1/4
f 363/2/4 364/2/4 365/2/4
f 365/2/4 364/2/4 366/2/4
f 367/2/4 368/2/4 371/2/4
f 371/2/4 368/2/4 372/2/4
f 369/3/4 370/3/4 374/3/4
f 374/3/4 370/3/4 375/3/4
f 373/3/4 374/3/4 376/3/4
f 376/3/4 374/3/4 377/3/4
f 379/1/4 380/1/4 381/1/4
f 378/2/4 379/2/4 383/2/4
f 381/1/4 382/1/4 384/1/4
f 383/2/4 379/2/4 384/2/4
f 379/1/4 381/1/4 384/1/4
f 384/1/4 382/1/4 385/1/4
f 385/1/4 382/1/4 386/1/4
f 384/1/4 385/1/4 387/1/4
f 385/2/4 386/2/4 388/2/4
f 387/1/4 385/1/4 388/1/4
f 388/2/4 386/2/4 389/2/4
f 384/1/4 387/1/4 391/1/4
f 391/1/4 387/1/4 392/1/4
f 392/1/4 387/1/4 393/1/4
f 391/1/4 392/1/4 394/1/4
f 390/2/4 391/2/4 398/2/4
f 396/1/4 397/1/4 399/1/4
f 398/2/4 391/2/4 399/2/4
f 394/1/4 395/1/4 399/1/4
f 395/1/4 396/1/4 399/1/4
f 391/1/4 394/1/4 399/1/4
f 399/1/4 397/1/4 400/1/4
f 401/1/4 402/1/4 404/1/4
f 404/1/4 402/1/4 405/1/4
f 403/1/4 404/1/4 407/1/4
f 407/1/4 404/1/4 408/1/4
f 405/1/4 406/1/4 409/1/4
f 409/1/4 406/1/4 410/1/4
f 411/1/4 412/1/4 413/1/4
f 413/1/4 412/1/4 414/1/4
f 419/2/5 416/2/5 415/2/5
f 420/2/5 416/2/5 419/2/5
f 421/2/5 418/2/5 417/2/5
f 422/2/5 418/2/5 421/2/5
f 427/2/5 424/2/5 423/2/5
f 428/2/5 424/2/5 427/2/5
f 429/2/5 426/2/5 425/2/5
f 430/2/5 426/2/5 429/2/5
f 433/1/5 432/1/5 431/1/5
f 434/1/5 432/1/5 433/1/5
f 439/2/5 434/2/5 433/2/5
f 440/2/5 434/2/5 439/2/5
f 443/3/5 436/3/5 435/3/5
f 444/3/5 436/3/5 443/3/5
f 445/3/5 436/3/5 444/3/5
f 446/1/5 438/1/5 437/1/5
f 447/2/5 439/2/5 438/2/5
f 447/1/5 438/1/5 446/1/5
f 447/2/5 440/2/5 439/2/5
f 447/2/5 441/2/5 440/2/5
f 448/2/5 441/2/5 447/2/5
f 449/2/5 441/2/5 448/2/5
f 450/1/5 442/1/5 441/1/5
f 450/2/5 441/2/5 449/2/5
f 451/1/5 442/1/5 450/1/5
f 452/1/5 444/1/5 443/1/5
f 453/1/5 444/1/5 452/1/5
f 455/2/5 449/2/5 448/2/5
f 456/2/5 449/2/5 455/2/5
f 457/3/5 454/3/5 453/3/5
f 457/3/5 453/3/5 452/3/5
f 458/3/5 454/3/5 457/3/5
f 459/1/5 456/1/5 455/1/5
f 460/1/5 456/1/5 459/1/5
f 465/3/5 462/3/5 461/3/5
f 466/3/5 462/3/5 465/3/5
f 467/4/5 464/4/5 463/4/5
f 468/4/5 464/4/5 467/4/5
f 469/1/5 466/1/5 465/1/5
f 470/1/5 466/1/5 469/1/5
f 471/3/5 470/3/5 469/3/5
f 472/3/5 470/3/5 471/3/5
f 475/1/5 474/1/5 473/1/5
f 476/1/5 474/1/5 475/1/5
f 479/1/5 478/1/5 477/1/5
f 480/1/5 478/1/5 479/1/5
f 484/1/5 482/1/5 481/1/5
f 485/1/5 482/1/5 484/1/5
f 486/1/5 484/1/5 483/1/5
f 487/1/5 484/1/5 486/1/5
f 490/1/5 489/1/5 488/1/5
f 491/1/5 489/1/5 490/1/5
f 494/1/5 493/1/5 492/1/5
f 495/1/5 493/1/5 494/1/5
f 497/1/5 496/1/5 495/1/5
f 498/1/5 496/1/5 497/1/5
f 501/1/5 500/1/5 499/1/5
f 502/1/5 500/1/5 501/1/5
f 505/2/5 504/2/5 503/2/5
f 506/2/5 504/2/5 505/2/5
f 507/3/6 508/3/6 509/3/6
f 509/3/6 508/3/6 510/3/6
f 510/3/6 508/3/6 511/3/6
f 512/3/6 513/3/6 515/3/6
f 513/3/6 514/3/6 515/3/6
f 515/3/6 514/3/6 516/3/6
f 517/3/6 518/3/6 519/3/6
f 519/3/6 518/3/6 520/3/6
f 521/3/6 522/3/6 523/3/6
f 523/3/6 522/3/6 524/3/6
f 525/1/6 526/1/6 527/1/6
f 527/1/6 526/1/6 528/1/6
f 529/1/6 530/1/6 531/1/6
f 531/1/6 530/1/6 532/1/6
f 533/1/6 534/1/6 535/1/6
f 535/1/6 534/1/6 536/1/6
f 537/1/6 538/1/6 539/1/6
f 539/1/6 538/1/6 540/1/6
f 540/1/6 538/1/6 541/1/6
f 541/1/6 538/1/6 542/1/6
f 543/1/6 544/1/6 545/1/6
f 545/1/6 544/1/6 546/1/6
f 547/1/6 548/1/6 550/1/6
f 550/1/6 548/1/6 551/1/6
f 549/1/6 550/1/6 554/1/6
f 554/1/6 550/1/6 555/1/6
f 552/1/6 553/1/6 559/1/6
f 554/2/6 555/2/6 560/2/6
f 553/2/6 554/2/6 560/2/6
f 559/1/6 553/1/6 560/1/6
f 560/2/6 555/2/6 561/2/6
f 561/2/6 555/2/6 562/2/6
f 556/1/6 557/1/6 563/1/6
f 563/1/6 557/1/6 564/1/6
f 558/1/6 559/1/6 565/1/6
f 559/1/6 560/1/6 565/1/6
f 560/1/6 561/1/6 565/1/6
f 565/1/6 561/1/6 566/1/6
f 566/1/6 561/1/6 567/1/6
f 558/1/6 565/1/6 568/1/6
f 565/2/6 566/2/6 568/2/6
f 568/2/6 566/2/6 569/2/6
f 558/1/6 568/1/6 571/1/6
f 569/1/6 570/1/6 571/1/6
f 568/1/6 569/1/6 571/1/6
f 571/1/6 570/1/6 572/1/6
f 572/1/6 570/1/6 573/1/6
f 573/1/6 570/1/6 574/1/6
f 572/1/6 573/1/6 578/1/6
f 573/2/6 574/2/6 579/2/6
f 578/1/6 573/1/6 579/1/6
f 574/2/6 575/2/6 579/2/6
f 579/2/6 575/2/6 580/2/6
f 580/2/6 575/2/6 581/2/6
f 576/1/6 577/1/6 582/1/6
f 582/1/6 577/1/6 583/1/6
f 580/1/6 581/1/6 584/1/6
f 584/1/6 581/1/6 585/1/6
f 585/1/6 586/1/6 587/1/6
f 587/1/6 586/1/6 588/1/6
f 589/1/6 590/1/6 592/1/6
f 592/1/6 590/1/6 593/1/6
f 591/2/6 592/2/6 596/2/6
f 593/2/6 594/2/6 596/2/6
f 592/2/6 593/2/6 596/2/6
f 596/2/6 594/2/6 597/2/6
f 595/2/6 596/2/6 599/2/6
f 599/2/6 596/2/6 600/2/6
f 597/2/6 598/2/6 601/2/6
f 601/2/6 598/2/6 602/2/6
f 600/2/6 601/2/6 603/2/6
f 603/2/6 601/2/6 604/2/6
f 604/2/6 601/2/6 605/2/6
f 605/2/6 601/2/6 606/2/6
f 604/1/6 605/1/6 607/1/6
f 607/1/6 605/1/6 608/1/6
f 609/2/6 610/2/6 611/2/6
f 611/2/6 610/2/6 612/2/6
