# MagicaVoxel @ Ephtracy

# material
mtllib panda.mtl
usemtl palette

# normals
vn -1 0 0
vn 1 0 0
vn 0 0 1
vn 0 0 -1
vn 0 -1 0
vn 0 1 0

# texcoords
vt 0.958984 0.5
vt 0.986328 0.5
vt 0.990234 0.5
vt 0.994141 0.5

# verts
v -3 0 3
v -3 0 1
v -3 0 -1
v -3 0 -3
v -3 1 1
v -3 1 -1
v -3 3 3
v -3 3 1
v -3 3 -1
v -3 3 -3
v -3 6 3
v -3 6 2
v -3 6 -2
v -3 6 -3
v -3 7 2
v -3 7 -2
v -2 6 3
v -2 6 2
v -2 6 -2
v -2 6 -3
v -2 7 3
v -2 7 2
v -2 7 -2
v -2 7 -3
v 2 0 3
v 2 0 1
v 2 0 -1
v 2 0 -3
v 2 1 3
v 2 1 2
v 2 1 1
v 2 1 -1
v 2 1 -2
v 2 1 -3
v 2 6 4
v 2 6 3
v 2 6 -3
v 2 6 -4
v 2 7 3
v 2 7 2
v 2 7 -2
v 2 7 -3
v 2 8 4
v 2 8 2
v 2 8 -2
v 2 8 -4
v -1 0 3
v -1 0 1
v -1 0 -1
v -1 0 -3
v -1 1 3
v -1 1 1
v -1 1 -1
v -1 1 -3
v 3 6 4
v 3 6 3
v 3 6 -3
v 3 6 -4
v 3 7 3
v 3 7 2
v 3 7 -2
v 3 7 -3
v 3 8 4
v 3 8 2
v 3 8 -2
v 3 8 -4
v 4 0 3
v 4 0 1
v 4 0 -1
v 4 0 -3
v 4 1 1
v 4 1 -1
v 4 2 3
v 4 2 2
v 4 2 1
v 4 2 -1
v 4 2 -2
v 4 2 -3
v 4 4 3
v 4 4 2
v 4 4 1
v 4 4 -1
v 4 4 -2
v 4 4 -3
v 4 5 3
v 4 5 2
v 4 5 1
v 4 5 -1
v 4 5 -2
v 4 5 -3
v 4 6 2
v 4 6 1
v 4 6 -1
v 4 6 -2
v 4 7 3
v 4 7 -3
v 5 2 2
v 5 2 -2
v 5 3 1
v 5 3 -1
v 5 4 2
v 5 4 1
v 5 4 -1
v 5 4 -2
v 2 6 4
v 2 8 4
v 3 6 4
v 3 8 4
v -3 0 3
v -3 3 3
v -3 6 3
v -2 2 3
v -2 3 3
v -2 6 3
v -2 7 3
v -1 0 3
v -1 1 3
v -1 2 3
v 0 3 3
v 0 7 3
v 1 1 3
v 1 3 3
v 2 0 3
v 2 1 3
v 2 3 3
v 2 6 3
v 2 7 3
v 3 2 3
v 3 3 3
v 3 4 3
v 3 5 3
v 3 6 3
v 3 7 3
v 4 0 3
v 4 2 3
v 4 4 3
v 4 5 3
v 4 7 3
v -3 6 2
v -3 7 2
v -2 6 2
v -2 7 2
v 4 2 2
v 4 4 2
v 5 2 2
v 5 4 2
v -3 0 -1
v -3 1 -1
v -1 0 -1
v -1 1 -1
v 2 0 -1
v 2 1 -1
v 4 0 -1
v 4 1 -1
v 2 7 -2
v 2 8 -2
v 3 7 -2
v 3 8 -2
v 2 7 2
v 2 8 2
v 3 7 2
v 3 8 2
v -3 0 1
v -3 1 1
v -1 0 1
v -1 1 1
v 2 0 1
v 2 1 1
v 4 0 1
v 4 1 1
v -3 6 -2
v -3 7 -2
v -2 6 -2
v -2 7 -2
v 4 2 -2
v 4 4 -2
v 5 2 -2
v 5 4 -2
v -3 0 -3
v -3 3 -3
v -3 6 -3
v -2 2 -3
v -2 3 -3
v -2 6 -3
v -2 7 -3
v -1 0 -3
v -1 1 -3
v -1 2 -3
v 0 3 -3
v 0 7 -3
v 1 1 -3
v 1 3 -3
v 2 0 -3
v 2 1 -3
v 2 3 -3
v 2 6 -3
v 2 7 -3
v 3 2 -3
v 3 3 -3
v 3 4 -3
v 3 5 -3
v 3 6 -3
v 3 7 -3
v 4 0 -3
v 4 2 -3
v 4 4 -3
v 4 5 -3
v 4 7 -3
v 2 6 -4
v 2 8 -4
v 3 6 -4
v 3 8 -4
v -3 0 3
v -1 0 3
v 2 0 3
v 4 0 3
v -3 0 1
v -1 0 1
v 2 0 1
v 4 0 1
v -3 0 -1
v -1 0 -1
v 2 0 -1
v 4 0 -1
v -3 0 -3
v -1 0 -3
v 2 0 -3
v 4 0 -3
v -1 1 3
v 1 1 3
v 2 1 3
v 1 1 2
v 2 1 2
v -3 1 1
v -1 1 1
v 2 1 1
v 4 1 1
v -3 1 -1
v -1 1 -1
v 2 1 -1
v 4 1 -1
v 1 1 -2
v 2 1 -2
v -1 1 -3
v 1 1 -3
v 2 1 -3
v 4 2 2
v 5 2 2
v 4 2 1
v 4 2 -1
v 4 2 -2
v 5 2 -2
v 2 6 4
v 3 6 4
v 2 6 3
v 3 6 3
v 2 6 -3
v 3 6 -3
v 2 6 -4
v 3 6 -4
v 4 4 2
v 5 4 2
v 4 4 1
v 5 4 1
v 4 4 -1
v 5 4 -1
v 4 4 -2
v 5 4 -2
v -3 6 3
v -2 6 3
v -3 6 2
v -2 6 2
v -3 6 -2
v -2 6 -2
v -3 6 -3
v -2 6 -3
v -2 7 3
v 0 7 3
v 2 7 3
v 3 7 3
v 4 7 3
v -3 7 2
v -2 7 2
v 2 7 2
v 3 7 2
v -1 7 1
v 0 7 1
v 1 7 1
v 2 7 1
v -1 7 -1
v 0 7 -1
v 1 7 -1
v 2 7 -1
v -3 7 -2
v -2 7 -2
v 2 7 -2
v 3 7 -2
v -2 7 -3
v 0 7 -3
v 2 7 -3
v 3 7 -3
v 4 7 -3
v 2 8 4
v 3 8 4
v 2 8 2
v 3 8 2
v 2 8 -2
v 3 8 -2
v 2 8 -4
v 3 8 -4

# faces
f 5/3/1 2/3/1 1/3/1
f 6/3/1 4/3/1 3/3/1
f 7/3/1 5/3/1 1/3/1
f 8/1/1 6/1/1 5/1/1
f 8/3/1 5/3/1 7/3/1
f 9/3/1 4/3/1 6/3/1
f 9/1/1 6/1/1 8/1/1
f 10/3/1 4/3/1 9/3/1
f 11/1/1 8/1/1 7/1/1
f 11/1/1 9/1/1 8/1/1
f 11/1/1 10/1/1 9/1/1
f 12/1/1 10/1/1 11/1/1
f 13/1/1 10/1/1 12/1/1
f 14/1/1 10/1/1 13/1/1
f 15/1/1 13/1/1 12/1/1
f 16/1/1 13/1/1 15/1/1
f 21/1/1 18/1/1 17/1/1
f 22/1/1 18/1/1 21/1/1
f 23/1/1 20/1/1 19/1/1
f 24/1/1 20/1/1 23/1/1
f 29/3/1 26/3/1 25/3/1
f 30/3/1 26/3/1 29/3/1
f 31/3/1 26/3/1 30/3/1
f 32/3/1 28/3/1 27/3/1
f 33/3/1 28/3/1 32/3/1
f 34/3/1 28/3/1 33/3/1
f 39/3/1 36/3/1 35/3/1
f 42/3/1 38/3/1 37/3/1
f 43/3/1 40/3/1 39/3/1
f 43/3/1 39/3/1 35/3/1
f 44/3/1 40/3/1 43/3/1
f 45/3/1 42/3/1 41/3/1
f 46/3/1 38/3/1 42/3/1
f 46/3/1 42/3/1 45/3/1
f 47/3/2 48/3/2 51/3/2
f 51/3/2 48/3/2 52/3/2
f 49/3/2 50/3/2 53/3/2
f 53/3/2 50/3/2 54/3/2
f 55/3/2 56/3/2 59/3/2
f 57/3/2 58/3/2 62/3/2
f 59/3/2 60/3/2 63/3/2
f 55/3/2 59/3/2 63/3/2
f 63/3/2 60/3/2 64/3/2
f 61/3/2 62/3/2 65/3/2
f 62/3/2 58/3/2 66/3/2
f 65/3/2 62/3/2 66/3/2
f 67/3/2 68/3/2 71/3/2
f 69/3/2 70/3/2 72/3/2
f 67/3/2 71/3/2 73/3/2
f 73/3/2 71/3/2 74/3/2
f 71/1/2 72/1/2 75/1/2
f 74/3/2 71/3/2 75/3/2
f 72/3/2 70/3/2 76/3/2
f 75/1/2 72/1/2 76/1/2
f 76/3/2 70/3/2 77/3/2
f 77/3/2 70/3/2 78/3/2
f 73/1/2 74/1/2 79/1/2
f 79/1/2 74/1/2 80/1/2
f 77/1/2 78/1/2 83/1/2
f 83/1/2 78/1/2 84/1/2
f 79/4/2 80/4/2 85/4/2
f 80/2/2 81/2/2 86/2/2
f 85/4/2 80/4/2 86/4/2
f 81/1/2 82/1/2 87/1/2
f 86/2/2 81/2/2 87/2/2
f 82/2/2 83/2/2 88/2/2
f 87/1/2 82/1/2 88/1/2
f 83/4/2 84/4/2 89/4/2
f 88/2/2 83/2/2 89/2/2
f 89/4/2 84/4/2 90/4/2
f 85/1/2 86/1/2 91/1/2
f 86/4/2 87/4/2 91/4/2
f 87/1/2 88/1/2 92/1/2
f 91/4/2 87/4/2 92/4/2
f 88/4/2 89/4/2 93/4/2
f 92/1/2 88/1/2 93/1/2
f 89/1/2 90/1/2 94/1/2
f 93/4/2 89/4/2 94/4/2
f 92/1/2 93/1/2 95/1/2
f 85/1/2 91/1/2 95/1/2
f 93/1/2 94/1/2 95/1/2
f 91/1/2 92/1/2 95/1/2
f 94/1/2 90/1/2 96/1/2
f 95/1/2 94/1/2 96/1/2
f 97/1/2 98/1/2 99/1/2
f 99/1/2 98/1/2 100/1/2
f 97/1/2 99/1/2 101/1/2
f 99/4/2 100/4/2 102/4/2
f 101/1/2 99/1/2 102/1/2
f 100/1/2 98/1/2 103/1/2
f 102/4/2 100/4/2 103/4/2
f 103/1/2 98/1/2 104/1/2
f 107/3/3 106/3/3 105/3/3
f 108/3/3 106/3/3 107/3/3
f 112/3/3 110/3/3 109/3/3
f 113/1/3 111/1/3 110/1/3
f 113/3/3 110/3/3 112/3/3
f 114/1/3 111/1/3 113/1/3
f 116/3/3 112/3/3 109/3/3
f 117/3/3 112/3/3 116/3/3
f 118/1/3 115/1/3 114/1/3
f 118/3/3 112/3/3 117/3/3
f 118/1/3 113/1/3 112/1/3
f 118/1/3 114/1/3 113/1/3
f 119/1/3 115/1/3 118/1/3
f 119/1/3 118/1/3 117/1/3
f 120/1/3 115/1/3 119/1/3
f 121/1/3 119/1/3 117/1/3
f 122/3/3 120/3/3 119/3/3
f 122/1/3 119/1/3 121/1/3
f 124/3/3 122/3/3 121/3/3
f 125/3/3 120/3/3 122/3/3
f 125/3/3 122/3/3 124/3/3
f 126/3/3 120/3/3 125/3/3
f 127/3/3 120/3/3 126/3/3
f 128/3/3 124/3/3 123/3/3
f 128/3/3 125/3/3 124/3/3
f 129/1/3 126/1/3 125/1/3
f 129/3/3 125/3/3 128/3/3
f 130/1/3 126/1/3 129/1/3
f 131/1/3 126/1/3 130/1/3
f 132/1/3 126/1/3 131/1/3
f 134/3/3 128/3/3 123/3/3
f 135/1/3 129/1/3 128/1/3
f 135/3/3 128/3/3 134/3/3
f 135/1/3 130/1/3 129/1/3
f 136/4/3 131/4/3 130/4/3
f 136/1/3 130/1/3 135/1/3
f 137/1/3 133/1/3 132/1/3
f 137/4/3 131/4/3 136/4/3
f 137/1/3 132/1/3 131/1/3
f 138/1/3 133/1/3 137/1/3
f 141/1/3 140/1/3 139/1/3
f 142/1/3 140/1/3 141/1/3
f 145/1/3 144/1/3 143/1/3
f 146/1/3 144/1/3 145/1/3
f 149/3/3 148/3/3 147/3/3
f 150/3/3 148/3/3 149/3/3
f 153/3/3 152/3/3 151/3/3
f 154/3/3 152/3/3 153/3/3
f 157/3/3 156/3/3 155/3/3
f 158/3/3 156/3/3 157/3/3
f 159/3/4 160/3/4 161/3/4
f 161/3/4 160/3/4 162/3/4
f 163/3/4 164/3/4 165/3/4
f 165/3/4 164/3/4 166/3/4
f 167/3/4 168/3/4 169/3/4
f 169/3/4 168/3/4 170/3/4
f 171/1/4 172/1/4 173/1/4
f 173/1/4 172/1/4 174/1/4
f 175/1/4 176/1/4 177/1/4
f 177/1/4 176/1/4 178/1/4
f 179/3/4 180/3/4 182/3/4
f 180/1/4 181/1/4 183/1/4
f 182/3/4 180/3/4 183/3/4
f 183/1/4 181/1/4 184/1/4
f 179/3/4 182/3/4 186/3/4
f 186/3/4 182/3/4 187/3/4
f 184/1/4 185/1/4 188/1/4
f 187/3/4 182/3/4 188/3/4
f 182/1/4 183/1/4 188/1/4
f 183/1/4 184/1/4 188/1/4
f 188/1/4 185/1/4 189/1/4
f 187/1/4 188/1/4 189/1/4
f 189/1/4 185/1/4 190/1/4
f 187/1/4 189/1/4 191/1/4
f 189/3/4 190/3/4 192/3/4
f 191/1/4 189/1/4 192/1/4
f 191/3/4 192/3/4 194/3/4
f 192/3/4 190/3/4 195/3/4
f 194/3/4 192/3/4 195/3/4
f 195/3/4 190/3/4 196/3/4
f 196/3/4 190/3/4 197/3/4
f 193/3/4 194/3/4 198/3/4
f 194/3/4 195/3/4 198/3/4
f 195/1/4 196/1/4 199/1/4
f 198/3/4 195/3/4 199/3/4
f 199/1/4 196/1/4 200/1/4
f 200/1/4 196/1/4 201/1/4
f 201/1/4 196/1/4 202/1/4
f 193/3/4 198/3/4 204/3/4
f 198/1/4 199/1/4 205/1/4
f 204/3/4 198/3/4 205/3/4
f 199/1/4 200/1/4 205/1/4
f 200/4/4 201/4/4 206/4/4
f 205/1/4 200/1/4 206/1/4
f 202/1/4 203/1/4 207/1/4
f 206/4/4 201/4/4 207/4/4
f 201/1/4 202/1/4 207/1/4
f 207/1/4 203/1/4 208/1/4
f 209/3/4 210/3/4 211/3/4
f 211/3/4 210/3/4 212/3/4
f 217/3/5 214/3/5 213/3/5
f 218/3/5 214/3/5 217/3/5
f 219/3/5 216/3/5 215/3/5
f 220/3/5 216/3/5 219/3/5
f 225/3/5 222/3/5 221/3/5
f 226/3/5 222/3/5 225/3/5
f 227/3/5 224/3/5 223/3/5
f 228/3/5 224/3/5 227/3/5
f 232/1/5 230/1/5 229/1/5
f 232/3/5 231/3/5 230/3/5
f 233/3/5 231/3/5 232/3/5
f 235/1/5 232/1/5 229/1/5
f 235/1/5 233/1/5 232/1/5
f 236/1/5 233/1/5 235/1/5
f 238/1/5 236/1/5 235/1/5
f 238/1/5 237/1/5 236/1/5
f 238/1/5 235/1/5 234/1/5
f 239/1/5 237/1/5 238/1/5
f 240/1/5 237/1/5 239/1/5
f 241/1/5 237/1/5 240/1/5
f 242/1/5 240/1/5 239/1/5
f 243/1/5 240/1/5 242/1/5
f 244/1/5 242/1/5 239/1/5
f 245/3/5 243/3/5 242/3/5
f 245/1/5 242/1/5 244/1/5
f 246/3/5 243/3/5 245/3/5
f 249/1/5 248/1/5 247/1/5
f 250/1/5 248/1/5 249/1/5
f 251/1/5 248/1/5 250/1/5
f 252/1/5 248/1/5 251/1/5
f 255/3/5 254/3/5 253/3/5
f 256/3/5 254/3/5 255/3/5
f 259/3/5 258/3/5 257/3/5
f 260/3/5 258/3/5 259/3/5
f 261/1/6 262/1/6 263/1/6
f 263/1/6 262/1/6 264/1/6
f 263/4/6 264/4/6 265/4/6
f 265/4/6 264/4/6 266/4/6
f 265/1/6 266/1/6 267/1/6
f 267/1/6 266/1/6 268/1/6
f 269/1/6 270/1/6 271/1/6
f 271/1/6 270/1/6 272/1/6
f 273/1/6 274/1/6 275/1/6
f 275/1/6 274/1/6 276/1/6
f 277/1/6 278/1/6 283/1/6
f 278/3/6 279/3/6 284/3/6
f 280/1/6 281/1/6 285/1/6
f 282/1/6 283/1/6 286/1/6
f 283/1/6 278/1/6 286/1/6
f 278/3/6 284/3/6 287/3/6
f 286/1/6 278/1/6 287/1/6
f 287/3/6 284/3/6 288/3/6
f 284/1/6 285/1/6 289/1/6
f 288/3/6 284/3/6 289/3/6
f 282/1/6 286/1/6 290/1/6
f 287/3/6 288/3/6 290/3/6
f 286/3/6 287/3/6 290/3/6
f 290/3/6 288/3/6 291/3/6
f 288/1/6 289/1/6 292/1/6
f 291/3/6 288/3/6 292/3/6
f 289/1/6 285/1/6 293/1/6
f 292/1/6 289/1/6 293/1/6
f 290/1/6 291/1/6 294/1/6
f 282/1/6 290/1/6 294/1/6
f 294/1/6 291/1/6 295/1/6
f 291/3/6 292/3/6 296/3/6
f 293/1/6 285/1/6 296/1/6
f 292/3/6 293/3/6 296/3/6
f 285/1/6 281/1/6 297/1/6
f 296/1/6 285/1/6 297/1/6
f 295/1/6 291/1/6 298/1/6
f 291/3/6 296/3/6 299/3/6
f 298/1/6 291/1/6 299/1/6
f 299/3/6 296/3/6 300/3/6
f 297/1/6 281/1/6 301/1/6
f 301/1/6 281/1/6 302/1/6
f 303/3/6 304/3/6 305/3/6
f 305/3/6 304/3/6 306/3/6
f 307/3/6 308/3/6 309/3/6
f 309/3/6 308/3/6 310/3/6
