# MagicaVoxel @ Ephtracy

# material
mtllib red_mush.mtl
usemtl palette

# normals
vn -1 0 0
vn 1 0 0
vn 0 0 1
vn 0 0 -1
vn 0 -1 0
vn 0 1 0

# texcoords
vt 0.849609 0.5
vt 0.962891 0.5

# verts
v -6 2 5
v -6 2 1
v -6 3 5
v -6 3 4
v -6 3 3
v -6 3 2
v -6 3 1
v -6 4 4
v -6 4 3
v -6 4 2
v -5 0 4
v -5 0 2
v -5 2 4
v -5 2 2
v -5 3 5
v -5 3 4
v -5 3 2
v -5 3 1
v -5 4 5
v -5 4 4
v -5 4 2
v -5 4 1
v -4 1 -3
v -4 1 -7
v -4 2 -3
v -4 2 -4
v -4 2 -6
v -4 2 -7
v -4 3 -4
v -4 3 -6
v -3 0 -4
v -3 0 -6
v -3 1 -4
v -3 1 -6
v -3 2 -3
v -3 2 -4
v -3 2 -6
v -3 2 -7
v -3 3 -3
v -3 3 -4
v -3 3 -6
v -3 3 -7
v 0 2 3
v 0 2 -0
v 0 3 3
v 0 3 -0
v 1 0 2
v 1 0 1
v 1 2 2
v 1 2 1
v 2 3 -2
v 2 3 -3
v 2 3 -4
v 2 3 -5
v 2 4 -2
v 2 4 -3
v 2 4 -4
v 2 4 -5
v 3 0 -3
v 3 0 -4
v 3 1 7
v 3 1 6
v 3 1 3
v 3 2 7
v 3 2 6
v 3 2 4
v 3 2 3
v 3 3 6
v 3 3 4
v 3 3 -3
v 3 3 -4
v 4 0 6
v 4 0 4
v 4 1 6
v 4 1 4
v 4 2 7
v 4 2 6
v 4 2 4
v 4 2 3
v 4 3 7
v 4 3 6
v 4 3 4
v 4 3 3
v -3 0 4
v -3 0 2
v -3 2 4
v -3 2 2
v -3 3 5
v -3 3 4
v -3 3 2
v -3 3 1
v -3 4 5
v -3 4 4
v -3 4 2
v -3 4 1
v -2 2 5
v -2 2 1
v -2 3 5
v -2 3 4
v -2 3 3
v -2 3 2
v -2 3 1
v -2 4 4
v -2 4 3
v -2 4 2
v -1 0 -4
v -1 0 -6
v -1 1 -4
v -1 1 -6
v -1 2 -3
v -1 2 -4
v -1 2 -6
v -1 2 -7
v -1 3 -3
v -1 3 -4
v -1 3 -6
v -1 3 -7
v 0 1 -3
v 0 1 -6
v 0 1 -7
v 0 2 -3
v 0 2 -4
v 0 2 -6
v 0 2 -7
v 0 3 -4
v 0 3 -6
v 2 0 2
v 2 0 1
v 2 2 2
v 2 2 1
v 3 2 3
v 3 2 2
v 3 2 -0
v 3 3 3
v 3 3 2
v 3 3 -0
v 4 0 -3
v 4 0 -4
v 4 3 -3
v 4 3 -4
v 5 3 -2
v 5 3 -5
v 5 4 -2
v 5 4 -5
v 6 0 6
v 6 0 4
v 6 1 6
v 6 1 5
v 6 1 4
v 6 2 7
v 6 2 6
v 6 2 4
v 6 2 3
v 6 3 7
v 6 3 6
v 6 3 4
v 6 3 3
v 7 1 7
v 7 1 5
v 7 1 4
v 7 1 3
v 7 2 7
v 7 2 6
v 7 2 5
v 7 2 4
v 7 2 3
v 7 3 6
v 7 3 4
v 3 1 7
v 3 2 7
v 4 1 7
v 4 2 7
v 4 3 7
v 5 2 7
v 5 3 7
v 6 2 7
v 6 3 7
v 7 1 7
v 7 2 7
v 3 2 6
v 3 3 6
v 4 0 6
v 4 1 6
v 4 2 6
v 4 3 6
v 6 0 6
v 6 1 6
v 6 2 6
v 6 3 6
v 7 2 6
v 7 3 6
v -6 2 5
v -6 3 5
v -5 3 5
v -5 4 5
v -4 2 5
v -4 3 5
v -3 2 5
v -3 3 5
v -3 4 5
v -2 2 5
v -2 3 5
v -6 3 4
v -6 4 4
v -5 0 4
v -5 2 4
v -5 3 4
v -5 4 4
v -4 2 4
v -3 0 4
v -3 2 4
v -3 3 4
v -3 4 4
v -2 3 4
v -2 4 4
v 0 2 3
v 0 3 3
v 2 2 3
v 2 3 3
v 3 2 3
v 3 3 3
v 1 0 2
v 1 2 2
v 2 0 2
v 2 2 2
v 2 3 -2
v 2 4 -2
v 5 3 -2
v 5 4 -2
v -4 1 -3
v -4 2 -3
v -3 2 -3
v -3 3 -3
v -1 2 -3
v -1 3 -3
v 0 1 -3
v 0 2 -3
v 3 0 -3
v 3 3 -3
v 4 0 -3
v 4 3 -3
v -4 2 -4
v -4 3 -4
v -3 0 -4
v -3 1 -4
v -3 2 -4
v -3 3 -4
v -1 0 -4
v -1 1 -4
v -1 2 -4
v -1 3 -4
v 0 2 -4
v 0 3 -4
v 3 2 4
v 3 3 4
v 4 0 4
v 4 1 4
v 4 2 4
v 4 3 4
v 6 0 4
v 6 1 4
v 6 2 4
v 6 3 4
v 7 2 4
v 7 3 4
v 3 1 3
v 3 2 3
v 4 2 3
v 4 3 3
v 5 2 3
v 5 3 3
v 6 2 3
v 6 3 3
v 7 1 3
v 7 2 3
v -6 3 2
v -6 4 2
v -5 0 2
v -5 2 2
v -5 3 2
v -5 4 2
v -4 2 2
v -3 0 2
v -3 2 2
v -3 3 2
v -3 4 2
v -2 3 2
v -2 4 2
v -6 2 1
v -6 3 1
v -5 2 1
v -5 3 1
v -5 4 1
v -4 2 1
v -4 3 1
v -3 3 1
v -3 4 1
v -2 2 1
v -2 3 1
v 1 0 1
v 1 2 1
v 2 0 1
v 2 2 1
v 0 2 -0
v 0 3 -0
v 1 2 -0
v 1 3 -0
v 2 2 -0
v 2 3 -0
v 3 2 -0
v 3 3 -0
v 3 0 -4
v 3 3 -4
v 4 0 -4
v 4 3 -4
v 2 3 -5
v 2 4 -5
v 5 3 -5
v 5 4 -5
v -4 2 -6
v -4 3 -6
v -3 0 -6
v -3 1 -6
v -3 2 -6
v -3 3 -6
v -1 0 -6
v -1 1 -6
v -1 2 -6
v -1 3 -6
v 0 2 -6
v 0 3 -6
v -4 1 -7
v -4 2 -7
v -3 2 -7
v -3 3 -7
v -1 1 -7
v -1 2 -7
v -1 3 -7
v 0 1 -7
v 0 2 -7
v 4 0 6
v 6 0 6
v -5 0 4
v -3 0 4
v 4 0 4
v 6 0 4
v -5 0 2
v -3 0 2
v 1 0 2
v 2 0 2
v 1 0 1
v 2 0 1
v 3 0 -3
v 4 0 -3
v -3 0 -4
v -1 0 -4
v 3 0 -4
v 4 0 -4
v -3 0 -6
v -1 0 -6
v 3 1 7
v 4 1 7
v 7 1 7
v 3 1 6
v 4 1 6
v 6 1 6
v 6 1 5
v 7 1 5
v 4 1 4
v 6 1 4
v 7 1 4
v 3 1 3
v 7 1 3
v -4 1 -3
v 0 1 -3
v -3 1 -4
v -1 1 -4
v -3 1 -6
v -1 1 -6
v 0 1 -6
v -4 1 -7
v -1 1 -7
v 0 1 -7
v -6 2 5
v -4 2 5
v -3 2 5
v -2 2 5
v -5 2 4
v -4 2 4
v -3 2 4
v 0 2 3
v 2 2 3
v 3 2 3
v -5 2 2
v -4 2 2
v -3 2 2
v 1 2 2
v 2 2 2
v 3 2 2
v -6 2 1
v -5 2 1
v -4 2 1
v -2 2 1
v 1 2 1
v 2 2 1
v 0 2 -0
v 1 2 -0
v 2 2 -0
v 3 2 -0
v 2 3 -2
v 5 3 -2
v 2 3 -3
v 3 3 -3
v 4 3 -3
v 2 3 -4
v 3 3 -4
v 4 3 -4
v 2 3 -5
v 5 3 -5
v 3 2 7
v 4 2 7
v 6 2 7
v 7 2 7
v 3 2 6
v 4 2 6
v 6 2 6
v 7 2 6
v 3 2 4
v 4 2 4
v 6 2 4
v 7 2 4
v 3 2 3
v 4 2 3
v 6 2 3
v 7 2 3
v -4 2 -3
v -3 2 -3
v -1 2 -3
v 0 2 -3
v -4 2 -4
v -3 2 -4
v -1 2 -4
v 0 2 -4
v -4 2 -6
v -3 2 -6
v -1 2 -6
v 0 2 -6
v -4 2 -7
v -3 2 -7
v -1 2 -7
v 0 2 -7
v 4 3 7
v 5 3 7
v 6 3 7
v 3 3 6
v 4 3 6
v 5 3 6
v 6 3 6
v 7 3 6
v -6 3 5
v -5 3 5
v -3 3 5
v -2 3 5
v -6 3 4
v -5 3 4
v -3 3 4
v -2 3 4
v 3 3 4
v 4 3 4
v 5 3 4
v 6 3 4
v 7 3 4
v 0 3 3
v 2 3 3
v 3 3 3
v 4 3 3
v 5 3 3
v 6 3 3
v -6 3 2
v -5 3 2
v -3 3 2
v -2 3 2
v 2 3 2
v 3 3 2
v -6 3 1
v -5 3 1
v -3 3 1
v -2 3 1
v 1 3 1
v 2 3 1
v 0 3 -0
v 1 3 -0
v 2 3 -0
v 3 3 -0
v -3 3 -3
v -1 3 -3
v -4 3 -4
v -3 3 -4
v -2 3 -4
v -1 3 -4
v 0 3 -4
v -3 3 -5
v -2 3 -5
v -4 3 -6
v -3 3 -6
v -1 3 -6
v 0 3 -6
v -3 3 -7
v -1 3 -7
v -5 4 5
v -3 4 5
v -6 4 4
v -5 4 4
v -3 4 4
v -2 4 4
v -6 4 3
v -5 4 3
v -3 4 3
v -2 4 3
v -6 4 2
v -5 4 2
v -3 4 2
v -2 4 2
v -5 4 1
v -3 4 1
v 2 4 -2
v 5 4 -2
v 2 4 -3
v 3 4 -3
v 2 4 -4
v 3 4 -4
v 2 4 -5
v 5 4 -5

# faces
f 3/1/1 2/1/1 1/1/1
f 4/1/1 2/1/1 3/1/1
f 5/1/1 2/1/1 4/1/1
f 6/1/1 2/1/1 5/1/1
f 7/1/1 2/1/1 6/1/1
f 8/2/1 5/2/1 4/2/1
f 9/1/1 6/1/1 5/1/1
f 9/2/1 5/2/1 8/2/1
f 10/1/1 6/1/1 9/1/1
f 13/2/1 12/2/1 11/2/1
f 14/2/1 12/2/1 13/2/1
f 19/1/1 16/1/1 15/1/1
f 20/1/1 16/1/1 19/1/1
f 21/1/1 18/1/1 17/1/1
f 22/1/1 18/1/1 21/1/1
f 25/1/1 24/1/1 23/1/1
f 26/1/1 24/1/1 25/1/1
f 27/1/1 24/1/1 26/1/1
f 28/1/1 24/1/1 27/1/1
f 29/1/1 27/1/1 26/1/1
f 30/1/1 27/1/1 29/1/1
f 33/2/1 32/2/1 31/2/1
f 34/2/1 32/2/1 33/2/1
f 39/1/1 36/1/1 35/1/1
f 40/1/1 36/1/1 39/1/1
f 41/1/1 38/1/1 37/1/1
f 42/1/1 38/1/1 41/1/1
f 45/1/1 44/1/1 43/1/1
f 46/1/1 44/1/1 45/1/1
f 49/2/1 48/2/1 47/2/1
f 50/2/1 48/2/1 49/2/1
f 55/1/1 52/1/1 51/1/1
f 56/2/1 53/2/1 52/2/1
f 56/1/1 52/1/1 55/1/1
f 57/1/1 54/1/1 53/1/1
f 57/2/1 53/2/1 56/2/1
f 58/1/1 54/1/1 57/1/1
f 64/2/1 62/2/1 61/2/1
f 65/1/1 63/1/1 62/1/1
f 65/2/1 62/2/1 64/2/1
f 66/1/1 63/1/1 65/1/1
f 67/1/1 63/1/1 66/1/1
f 68/1/1 66/1/1 65/1/1
f 69/1/1 66/1/1 68/1/1
f 70/2/1 60/2/1 59/2/1
f 71/2/1 60/2/1 70/2/1
f 74/2/1 73/2/1 72/2/1
f 75/2/1 73/2/1 74/2/1
f 80/1/1 77/1/1 76/1/1
f 81/1/1 77/1/1 80/1/1
f 82/2/1 79/2/1 78/2/1
f 83/2/1 79/2/1 82/2/1
f 84/2/2 85/2/2 86/2/2
f 86/2/2 85/2/2 87/2/2
f 88/1/2 89/1/2 92/1/2
f 92/1/2 89/1/2 93/1/2
f 90/1/2 91/1/2 94/1/2
f 94/1/2 91/1/2 95/1/2
f 96/1/2 97/1/2 98/1/2
f 98/1/2 97/1/2 99/1/2
f 99/1/2 97/1/2 100/1/2
f 100/1/2 97/1/2 101/1/2
f 101/1/2 97/1/2 102/1/2
f 99/1/2 100/1/2 103/1/2
f 100/2/2 101/2/2 104/2/2
f 103/1/2 100/1/2 104/1/2
f 104/2/2 101/2/2 105/2/2
f 106/2/2 107/2/2 108/2/2
f 108/2/2 107/2/2 109/2/2
f 110/1/2 111/1/2 114/1/2
f 114/1/2 111/1/2 115/1/2
f 112/1/2 113/1/2 116/1/2
f 116/1/2 113/1/2 117/1/2
f 118/1/2 119/1/2 121/1/2
f 121/1/2 119/1/2 122/1/2
f 119/2/2 120/2/2 123/2/2
f 122/1/2 119/1/2 123/1/2
f 123/2/2 120/2/2 124/2/2
f 122/1/2 123/1/2 125/1/2
f 125/1/2 123/1/2 126/1/2
f 127/2/2 128/2/2 129/2/2
f 129/2/2 128/2/2 130/2/2
f 131/2/2 132/2/2 134/2/2
f 132/1/2 133/1/2 135/1/2
f 134/2/2 132/2/2 135/2/2
f 135/1/2 133/1/2 136/1/2
f 137/2/2 138/2/2 139/2/2
f 139/2/2 138/2/2 140/2/2
f 141/1/2 142/1/2 143/1/2
f 143/1/2 142/1/2 144/1/2
f 145/2/2 146/2/2 147/2/2
f 147/2/2 146/2/2 148/2/2
f 148/2/2 146/2/2 149/2/2
f 150/2/2 151/2/2 154/2/2
f 154/2/2 151/2/2 155/2/2
f 152/1/2 153/1/2 156/1/2
f 156/1/2 153/1/2 157/1/2
f 158/1/2 159/1/2 162/1/2
f 162/1/2 159/1/2 163/1/2
f 159/2/2 160/2/2 164/2/2
f 163/1/2 159/1/2 164/1/2
f 160/1/2 161/1/2 165/1/2
f 164/2/2 160/2/2 165/2/2
f 165/1/2 161/1/2 166/1/2
f 163/1/2 164/1/2 167/1/2
f 164/1/2 165/1/2 167/1/2
f 167/1/2 165/1/2 168/1/2
f 171/2/3 170/2/3 169/2/3
f 172/2/3 170/2/3 171/2/3
f 174/1/3 172/1/3 171/1/3
f 174/1/3 173/1/3 172/1/3
f 175/1/3 173/1/3 174/1/3
f 176/1/3 174/1/3 171/1/3
f 176/2/3 175/2/3 174/2/3
f 177/2/3 175/2/3 176/2/3
f 178/1/3 176/1/3 171/1/3
f 179/1/3 176/1/3 178/1/3
f 184/1/3 181/1/3 180/1/3
f 185/1/3 181/1/3 184/1/3
f 186/2/3 183/2/3 182/2/3
f 187/2/3 183/2/3 186/2/3
f 190/1/3 189/1/3 188/1/3
f 191/1/3 189/1/3 190/1/3
f 194/1/3 193/1/3 192/1/3
f 196/1/3 194/1/3 192/1/3
f 196/1/3 195/1/3 194/1/3
f 197/1/3 195/1/3 196/1/3
f 198/2/3 197/2/3 196/2/3
f 199/1/3 195/1/3 197/1/3
f 199/2/3 197/2/3 198/2/3
f 200/1/3 195/1/3 199/1/3
f 201/1/3 199/1/3 198/1/3
f 202/1/3 199/1/3 201/1/3
f 207/2/3 204/2/3 203/2/3
f 208/2/3 204/2/3 207/2/3
f 209/2/3 206/2/3 205/2/3
f 210/2/3 209/2/3 205/2/3
f 211/2/3 209/2/3 210/2/3
f 214/1/3 213/1/3 212/1/3
f 215/1/3 213/1/3 214/1/3
f 218/1/3 217/1/3 216/1/3
f 219/1/3 217/1/3 218/1/3
f 220/2/3 219/2/3 218/2/3
f 221/2/3 219/2/3 220/2/3
f 224/2/3 223/2/3 222/2/3
f 225/2/3 223/2/3 224/2/3
f 228/1/3 227/1/3 226/1/3
f 229/1/3 227/1/3 228/1/3
f 232/1/3 231/1/3 230/1/3
f 234/1/3 232/1/3 230/1/3
f 234/1/3 233/1/3 232/1/3
f 235/1/3 233/1/3 234/1/3
f 236/1/3 234/1/3 230/1/3
f 237/1/3 234/1/3 236/1/3
f 240/2/3 239/2/3 238/2/3
f 241/2/3 239/2/3 240/2/3
f 246/1/3 243/1/3 242/1/3
f 247/1/3 243/1/3 246/1/3
f 248/2/3 245/2/3 244/2/3
f 249/2/3 245/2/3 248/2/3
f 252/1/3 251/1/3 250/1/3
f 253/1/3 251/1/3 252/1/3
f 254/1/4 255/1/4 258/1/4
f 258/1/4 255/1/4 259/1/4
f 256/2/4 257/2/4 260/2/4
f 260/2/4 257/2/4 261/2/4
f 262/1/4 263/1/4 264/1/4
f 264/1/4 263/1/4 265/1/4
f 266/1/4 267/1/4 268/1/4
f 266/1/4 268/1/4 270/1/4
f 268/2/4 269/2/4 270/2/4
f 270/2/4 269/2/4 271/2/4
f 266/1/4 270/1/4 272/1/4
f 270/1/4 271/1/4 272/1/4
f 272/1/4 271/1/4 273/1/4
f 266/1/4 272/1/4 274/1/4
f 274/1/4 272/1/4 275/1/4
f 276/1/4 277/1/4 280/1/4
f 280/1/4 277/1/4 281/1/4
f 278/2/4 279/2/4 282/2/4
f 278/2/4 282/2/4 283/2/4
f 283/2/4 282/2/4 284/2/4
f 285/2/4 286/2/4 287/2/4
f 287/2/4 286/2/4 288/2/4
f 289/1/4 290/1/4 291/1/4
f 291/1/4 290/1/4 292/1/4
f 291/2/4 292/2/4 294/2/4
f 292/1/4 293/1/4 295/1/4
f 294/2/4 292/2/4 295/2/4
f 294/1/4 295/1/4 296/1/4
f 295/1/4 293/1/4 296/1/4
f 296/1/4 293/1/4 297/1/4
f 294/1/4 296/1/4 298/1/4
f 298/1/4 296/1/4 299/1/4
f 300/2/4 301/2/4 302/2/4
f 302/2/4 301/2/4 303/2/4
f 304/1/4 305/1/4 306/1/4
f 306/1/4 305/1/4 307/1/4
f 306/2/4 307/2/4 308/2/4
f 308/2/4 307/2/4 309/2/4
f 308/1/4 309/1/4 310/1/4
f 310/1/4 309/1/4 311/1/4
f 312/2/4 313/2/4 314/2/4
f 314/2/4 313/2/4 315/2/4
f 316/1/4 317/1/4 318/1/4
f 318/1/4 317/1/4 319/1/4
f 320/1/4 321/1/4 324/1/4
f 324/1/4 321/1/4 325/1/4
f 322/2/4 323/2/4 326/2/4
f 326/2/4 323/2/4 327/2/4
f 328/1/4 329/1/4 330/1/4
f 330/1/4 329/1/4 331/1/4
f 332/1/4 333/1/4 334/1/4
f 332/1/4 334/1/4 336/1/4
f 334/1/4 335/1/4 336/1/4
f 336/1/4 335/1/4 337/1/4
f 337/1/4 335/1/4 338/1/4
f 336/2/4 337/2/4 339/2/4
f 339/2/4 337/2/4 340/2/4
f 345/2/5 342/2/5 341/2/5
f 346/2/5 342/2/5 345/2/5
f 347/2/5 344/2/5 343/2/5
f 348/2/5 344/2/5 347/2/5
f 351/2/5 350/2/5 349/2/5
f 352/2/5 350/2/5 351/2/5
f 357/2/5 354/2/5 353/2/5
f 358/2/5 354/2/5 357/2/5
f 359/2/5 356/2/5 355/2/5
f 360/2/5 356/2/5 359/2/5
f 364/2/5 362/2/5 361/2/5
f 365/1/5 363/1/5 362/1/5
f 365/2/5 362/2/5 364/2/5
f 366/1/5 363/1/5 365/1/5
f 367/1/5 363/1/5 366/1/5
f 368/1/5 363/1/5 367/1/5
f 369/1/5 365/1/5 364/1/5
f 370/2/5 368/2/5 367/2/5
f 371/2/5 368/2/5 370/2/5
f 372/1/5 369/1/5 364/1/5
f 372/1/5 370/1/5 369/1/5
f 372/1/5 371/1/5 370/1/5
f 373/1/5 371/1/5 372/1/5
f 376/1/5 375/1/5 374/1/5
f 377/1/5 375/1/5 376/1/5
f 378/1/5 376/1/5 374/1/5
f 379/1/5 375/1/5 377/1/5
f 380/1/5 375/1/5 379/1/5
f 381/1/5 378/1/5 374/1/5
f 381/1/5 379/1/5 378/1/5
f 382/2/5 380/2/5 379/2/5
f 382/1/5 379/1/5 381/1/5
f 383/2/5 380/2/5 382/2/5
f 388/1/5 385/1/5 384/1/5
f 389/2/5 386/2/5 385/2/5
f 389/1/5 385/1/5 388/1/5
f 390/1/5 387/1/5 386/1/5
f 390/2/5 386/2/5 389/2/5
f 394/1/5 388/1/5 384/1/5
f 396/1/5 387/1/5 390/1/5
f 397/1/5 392/1/5 391/1/5
f 398/2/5 393/2/5 392/2/5
f 398/1/5 392/1/5 397/1/5
f 399/2/5 393/2/5 398/2/5
f 400/1/5 394/1/5 384/1/5
f 401/2/5 395/2/5 394/2/5
f 401/1/5 394/1/5 400/1/5
f 402/1/5 396/1/5 395/1/5
f 402/2/5 395/2/5 401/2/5
f 403/1/5 387/1/5 396/1/5
f 403/1/5 396/1/5 402/1/5
f 404/1/5 397/1/5 391/1/5
f 405/1/5 399/1/5 398/1/5
f 406/1/5 404/1/5 391/1/5
f 407/2/5 405/2/5 404/2/5
f 407/1/5 404/1/5 406/1/5
f 408/1/5 399/1/5 405/1/5
f 408/2/5 405/2/5 407/2/5
f 409/1/5 399/1/5 408/1/5
f 412/1/5 411/1/5 410/1/5
f 413/1/5 411/1/5 412/1/5
f 414/1/5 411/1/5 413/1/5
f 415/2/5 413/2/5 412/2/5
f 416/2/5 413/2/5 415/2/5
f 417/1/5 411/1/5 414/1/5
f 418/1/5 416/1/5 415/1/5
f 418/1/5 417/1/5 416/1/5
f 419/1/5 411/1/5 417/1/5
f 419/1/5 417/1/5 418/1/5
f 420/2/6 421/2/6 424/2/6
f 424/2/6 421/2/6 425/2/6
f 422/1/6 423/1/6 426/1/6
f 426/1/6 423/1/6 427/1/6
f 428/1/6 429/1/6 432/1/6
f 432/1/6 429/1/6 433/1/6
f 430/1/6 431/1/6 434/1/6
f 434/1/6 431/1/6 435/1/6
f 436/1/6 437/1/6 440/1/6
f 440/1/6 437/1/6 441/1/6
f 438/1/6 439/1/6 442/1/6
f 442/1/6 439/1/6 443/1/6
f 444/1/6 445/1/6 448/1/6
f 448/1/6 445/1/6 449/1/6
f 446/2/6 447/2/6 450/2/6
f 450/2/6 447/2/6 451/2/6
f 452/1/6 453/1/6 456/1/6
f 453/2/6 454/2/6 457/2/6
f 456/1/6 453/1/6 457/1/6
f 457/2/6 454/2/6 458/2/6
f 460/1/6 461/1/6 464/1/6
f 464/1/6 461/1/6 465/1/6
f 462/1/6 463/1/6 466/1/6
f 466/1/6 463/1/6 467/1/6
f 455/1/6 456/1/6 468/1/6
f 456/1/6 457/1/6 468/1/6
f 457/1/6 458/1/6 468/1/6
f 458/1/6 459/1/6 468/1/6
f 468/1/6 459/1/6 469/1/6
f 469/1/6 459/1/6 470/1/6
f 470/1/6 459/1/6 471/1/6
f 471/1/6 459/1/6 472/1/6
f 469/2/6 470/2/6 476/2/6
f 470/1/6 471/1/6 477/1/6
f 476/2/6 470/2/6 477/2/6
f 477/1/6 471/1/6 478/1/6
f 474/2/6 475/2/6 483/2/6
f 473/1/6 474/1/6 483/1/6
f 483/2/6 475/2/6 484/2/6
f 479/1/6 480/1/6 485/1/6
f 485/1/6 480/1/6 486/1/6
f 481/1/6 482/1/6 487/1/6
f 487/1/6 482/1/6 488/1/6
f 473/1/6 483/1/6 489/1/6
f 483/1/6 484/1/6 489/1/6
f 489/1/6 484/1/6 490/1/6
f 473/1/6 489/1/6 491/1/6
f 489/2/6 490/2/6 492/2/6
f 491/1/6 489/1/6 492/1/6
f 490/1/6 484/1/6 493/1/6
f 492/2/6 490/2/6 493/2/6
f 493/1/6 484/1/6 494/1/6
f 495/1/6 496/1/6 498/1/6
f 498/1/6 496/1/6 499/1/6
f 499/1/6 496/1/6 500/1/6
f 497/1/6 498/1/6 502/1/6
f 498/2/6 499/2/6 502/2/6
f 500/1/6 501/1/6 503/1/6
f 502/2/6 499/2/6 503/2/6
f 499/1/6 500/1/6 503/1/6
f 497/1/6 502/1/6 504/1/6
f 502/1/6 503/1/6 504/1/6
f 504/1/6 503/1/6 505/1/6
f 503/1/6 501/1/6 506/1/6
f 505/1/6 503/1/6 506/1/6
f 506/1/6 501/1/6 507/1/6
f 505/1/6 506/1/6 508/1/6
f 508/1/6 506/1/6 509/1/6
f 510/1/6 511/1/6 513/1/6
f 513/1/6 511/1/6 514/1/6
f 512/2/6 513/2/6 516/2/6
f 514/1/6 515/1/6 517/1/6
f 516/2/6 513/2/6 517/2/6
f 513/1/6 514/1/6 517/1/6
f 517/1/6 515/1/6 518/1/6
f 518/1/6 515/1/6 519/1/6
f 516/1/6 517/1/6 520/1/6
f 517/1/6 518/1/6 520/1/6
f 520/1/6 518/1/6 521/1/6
f 518/2/6 519/2/6 522/2/6
f 521/1/6 518/1/6 522/1/6
f 522/2/6 519/2/6 523/2/6
f 521/1/6 522/1/6 524/1/6
f 524/1/6 522/1/6 525/1/6
f 526/1/6 527/1/6 528/1/6
f 528/1/6 527/1/6 529/1/6
f 528/2/6 529/2/6 530/2/6
f 529/1/6 527/1/6 531/1/6
f 530/2/6 529/2/6 531/2/6
f 530/1/6 531/1/6 532/1/6
f 531/1/6 527/1/6 533/1/6
f 532/1/6 531/1/6 533/1/6
