# MagicaVoxel @ Ephtracy

# material
mtllib satan cow.mtl
usemtl palette

# normals
vn -1 0 0
vn 1 0 0
vn 0 0 1
vn 0 0 -1
vn 0 -1 0
vn 0 1 0

# texcoords
vt 0.841797 0.5
vt 0.853516 0.5
vt 0.865234 0.5
vt 0.986328 0.5
vt 0.990234 0.5
vt 0.994141 0.5

# verts
v -5 2 -0
v -5 2 -1
v -5 3 -0
v -5 3 -1
v -5 5 -0
v -5 5 -1
v -4 5 1
v -4 5 -0
v -4 5 -1
v -4 6 1
v -4 6 -1
v -3 0 3
v -3 0 1
v -3 0 -1
v -3 0 -3
v -3 1 3
v -3 1 1
v -3 1 -0
v -3 1 -1
v -3 1 -3
v -3 2 2
v -3 2 1
v -3 4 2
v -3 4 -0
v -3 4 -2
v -3 4 -3
v -3 5 3
v -3 5 1
v -3 5 -1
v -3 5 -2
v -3 5 -3
v -3 6 3
v -3 6 2
v -3 6 1
v -3 6 -0
v -3 6 -1
v -3 6 -2
v -3 6 -3
v -3 7 2
v -3 7 -0
v -3 7 -2
v -2 6 3
v -2 6 2
v -2 6 -2
v -2 6 -3
v -2 7 3
v -2 7 2
v -2 7 -2
v -2 7 -3
v 2 0 3
v 2 0 1
v 2 0 -1
v 2 0 -3
v 2 1 3
v 2 1 1
v 2 1 -1
v 2 1 -3
v 2 4 4
v 2 4 3
v 2 4 -3
v 2 4 -4
v 2 5 5
v 2 5 4
v 2 5 -4
v 2 5 -5
v 2 6 5
v 2 6 3
v 2 6 -3
v 2 6 -5
v 2 7 3
v 2 7 2
v 2 7 1
v 2 7 -1
v 2 7 -3
v 2 8 2
v 2 8 1
v 2 8 -1
v 2 8 -2
v 2 9 3
v 2 9 2
v 2 9 -2
v 2 9 -3
v -4 2 -0
v -4 2 -1
v -4 3 -0
v -4 3 -1
v -4 5 -0
v -4 5 -1
v -1 0 3
v -1 0 1
v -1 0 -1
v -1 0 -3
v -1 1 3
v -1 1 1
v -1 1 -1
v -1 1 -3
v 3 4 4
v 3 4 3
v 3 4 -3
v 3 4 -4
v 3 5 5
v 3 5 4
v 3 5 -4
v 3 5 -5
v 3 6 5
v 3 6 3
v 3 6 -3
v 3 6 -5
v 3 7 3
v 3 7 1
v 3 7 -1
v 3 7 -3
v 3 8 2
v 3 8 1
v 3 8 -1
v 3 8 -2
v 3 9 3
v 3 9 2
v 3 9 -2
v 3 9 -3
v 4 0 3
v 4 0 1
v 4 0 -1
v 4 0 -3
v 4 1 3
v 4 1 1
v 4 1 -1
v 4 1 -3
v 4 2 2
v 4 2 1
v 4 2 -1
v 4 2 -2
v 4 3 3
v 4 3 2
v 4 3 -2
v 4 3 -3
v 4 4 3
v 4 4 2
v 4 4 1
v 4 4 -1
v 4 4 -2
v 4 4 -3
v 4 5 2
v 4 5 1
v 4 5 -0
v 4 5 -1
v 4 5 -2
v 4 6 3
v 4 6 2
v 4 6 -2
v 4 6 -3
v 4 7 3
v 4 7 -0
v 4 7 -3
v 5 2 2
v 5 2 1
v 5 2 -1
v 5 2 -2
v 5 3 2
v 5 3 1
v 5 3 -1
v 5 3 -2
v 5 4 2
v 5 4 -2
v 2 5 5
v 2 6 5
v 3 5 5
v 3 6 5
v 2 4 4
v 2 5 4
v 3 4 4
v 3 5 4
v -3 0 3
v -3 1 3
v -3 5 3
v -3 6 3
v -2 5 3
v -2 6 3
v -2 7 3
v -1 0 3
v -1 1 3
v -1 3 3
v -1 5 3
v -1 6 3
v -1 7 3
v 0 2 3
v 0 3 3
v 1 4 3
v 1 5 3
v 2 0 3
v 2 1 3
v 2 2 3
v 2 4 3
v 2 6 3
v 2 7 3
v 2 9 3
v 3 3 3
v 3 4 3
v 3 6 3
v 3 7 3
v 3 9 3
v 4 0 3
v 4 1 3
v 4 3 3
v 4 4 3
v 4 6 3
v 4 7 3
v -3 6 2
v -3 7 2
v -2 6 2
v -2 7 2
v 4 2 2
v 4 3 2
v 4 4 2
v 5 2 2
v 5 3 2
v 5 4 2
v -4 5 1
v -4 6 1
v -3 5 1
v -3 6 1
v -5 2 -0
v -5 3 -0
v -5 5 -0
v -4 2 -0
v -4 3 -0
v -4 5 -0
v -3 0 -1
v -3 1 -1
v -1 0 -1
v -1 1 -1
v 2 0 -1
v 2 1 -1
v 2 7 -1
v 2 8 -1
v 3 7 -1
v 3 8 -1
v 4 0 -1
v 4 1 -1
v 2 8 -2
v 2 9 -2
v 3 8 -2
v 3 9 -2
v 2 8 2
v 2 9 2
v 3 8 2
v 3 9 2
v -3 0 1
v -3 1 1
v -2 1 1
v -1 0 1
v -1 1 1
v 2 0 1
v 2 1 1
v 2 7 1
v 2 8 1
v 3 7 1
v 3 8 1
v 4 0 1
v 4 1 1
v -5 2 -1
v -5 3 -1
v -5 5 -1
v -4 2 -1
v -4 3 -1
v -4 5 -1
v -4 6 -1
v -3 5 -1
v -3 6 -1
v -3 6 -2
v -3 7 -2
v -2 6 -2
v -2 7 -2
v 4 2 -2
v 4 3 -2
v 4 4 -2
v 5 2 -2
v 5 3 -2
v 5 4 -2
v -3 0 -3
v -3 1 -3
v -3 4 -3
v -3 5 -3
v -3 6 -3
v -2 3 -3
v -2 4 -3
v -2 5 -3
v -2 6 -3
v -2 7 -3
v -1 0 -3
v -1 1 -3
v -1 3 -3
v -1 4 -3
v 0 4 -3
v 0 6 -3
v 1 2 -3
v 1 3 -3
v 2 0 -3
v 2 1 -3
v 2 2 -3
v 2 4 -3
v 2 6 -3
v 2 7 -3
v 2 9 -3
v 3 4 -3
v 3 6 -3
v 3 7 -3
v 3 9 -3
v 4 0 -3
v 4 1 -3
v 4 3 -3
v 4 4 -3
v 4 6 -3
v 4 7 -3
v 2 4 -4
v 2 5 -4
v 3 4 -4
v 3 5 -4
v 2 5 -5
v 2 6 -5
v 3 5 -5
v 3 6 -5
v -3 0 3
v -1 0 3
v 2 0 3
v 4 0 3
v -3 0 1
v -1 0 1
v 2 0 1
v 4 0 1
v -3 0 -1
v -1 0 -1
v 2 0 -1
v 4 0 -1
v -3 0 -3
v -1 0 -3
v 2 0 -3
v 4 0 -3
v -1 1 3
v 2 1 3
v -3 1 1
v -2 1 1
v -1 1 1
v 2 1 1
v 4 1 1
v -3 1 -0
v -2 1 -0
v -3 1 -1
v -1 1 -1
v 2 1 -1
v 4 1 -1
v -1 1 -3
v 2 1 -3
v 4 2 2
v 5 2 2
v 4 2 1
v 5 2 1
v -5 2 -0
v -4 2 -0
v -5 2 -1
v -4 2 -1
v 4 2 -1
v 5 2 -1
v 4 2 -2
v 5 2 -2
v 2 4 4
v 3 4 4
v 2 4 3
v 3 4 3
v 2 4 -3
v 3 4 -3
v 2 4 -4
v 3 4 -4
v 2 5 5
v 3 5 5
v 2 5 4
v 3 5 4
v -4 5 1
v -3 5 1
v -4 5 -0
v -4 5 -1
v -3 5 -1
v 2 5 -4
v 3 5 -4
v 2 5 -5
v 3 5 -5
v 4 4 2
v 5 4 2
v 4 4 1
v 4 4 -1
v 4 4 -2
v 5 4 -2
v -5 5 -0
v -4 5 -0
v -5 5 -1
v -4 5 -1
v 2 6 5
v 3 6 5
v -3 6 3
v -2 6 3
v 2 6 3
v 3 6 3
v -3 6 2
v -2 6 2
v -4 6 1
v -3 6 1
v -3 6 -0
v -4 6 -1
v -3 6 -1
v -3 6 -2
v -2 6 -2
v -3 6 -3
v -2 6 -3
v 2 6 -3
v 3 6 -3
v 2 6 -5
v 3 6 -5
v -2 7 3
v -1 7 3
v 2 7 3
v 3 7 3
v 4 7 3
v -3 7 2
v -2 7 2
v -1 7 2
v 1 7 2
v 2 7 2
v -1 7 1
v 1 7 1
v 2 7 1
v 3 7 1
v -3 7 -0
v -2 7 -0
v 2 7 -0
v 4 7 -0
v -1 7 -1
v 0 7 -1
v 1 7 -1
v 2 7 -1
v 3 7 -1
v -3 7 -2
v -2 7 -2
v 0 7 -2
v 1 7 -2
v -2 7 -3
v 2 7 -3
v 3 7 -3
v 4 7 -3
v 2 8 2
v 3 8 2
v 2 8 1
v 3 8 1
v 2 8 -1
v 3 8 -1
v 2 8 -2
v 3 8 -2
v 2 9 3
v 3 9 3
v 2 9 2
v 3 9 2
v 2 9 -2
v 3 9 -2
v 2 9 -3
v 3 9 -3

# faces
f 3/5/1 2/5/1 1/5/1
f 4/5/1 2/5/1 3/5/1
f 5/3/1 4/3/1 3/3/1
f 6/3/1 4/3/1 5/3/1
f 10/3/1 8/3/1 7/3/1
f 10/3/1 9/3/1 8/3/1
f 11/3/1 9/3/1 10/3/1
f 16/5/1 13/5/1 12/5/1
f 17/5/1 13/5/1 16/5/1
f 19/5/1 15/5/1 14/5/1
f 20/5/1 15/5/1 19/5/1
f 21/3/1 17/3/1 16/3/1
f 22/6/1 18/6/1 17/6/1
f 22/3/1 17/3/1 21/3/1
f 23/3/1 21/3/1 16/3/1
f 23/6/1 22/6/1 21/6/1
f 24/6/1 18/6/1 22/6/1
f 24/6/1 22/6/1 23/6/1
f 24/3/1 19/3/1 18/3/1
f 24/3/1 20/3/1 19/3/1
f 25/3/1 20/3/1 24/3/1
f 26/3/1 20/3/1 25/3/1
f 27/3/1 23/3/1 16/3/1
f 27/3/1 24/3/1 23/3/1
f 27/3/1 25/3/1 24/3/1
f 28/3/1 25/3/1 27/3/1
f 29/3/1 25/3/1 28/3/1
f 30/6/1 26/6/1 25/6/1
f 30/3/1 25/3/1 29/3/1
f 31/6/1 26/6/1 30/6/1
f 32/6/1 28/6/1 27/6/1
f 33/6/1 28/6/1 32/6/1
f 34/6/1 28/6/1 33/6/1
f 36/3/1 31/3/1 30/3/1
f 36/3/1 30/3/1 29/3/1
f 37/3/1 31/3/1 36/3/1
f 38/3/1 31/3/1 37/3/1
f 39/6/1 35/6/1 34/6/1
f 39/6/1 34/6/1 33/6/1
f 40/3/1 37/3/1 36/3/1
f 40/6/1 35/6/1 39/6/1
f 40/3/1 36/3/1 35/3/1
f 41/3/1 37/3/1 40/3/1
f 46/6/1 43/6/1 42/6/1
f 47/6/1 43/6/1 46/6/1
f 48/3/1 45/3/1 44/3/1
f 49/3/1 45/3/1 48/3/1
f 54/5/1 51/5/1 50/5/1
f 55/5/1 51/5/1 54/5/1
f 56/5/1 53/5/1 52/5/1
f 57/5/1 53/5/1 56/5/1
f 63/3/1 59/3/1 58/3/1
f 64/3/1 61/3/1 60/3/1
f 66/3/1 63/3/1 62/3/1
f 67/3/1 59/3/1 63/3/1
f 67/3/1 63/3/1 66/3/1
f 68/3/1 65/3/1 64/3/1
f 68/3/1 64/3/1 60/3/1
f 69/3/1 65/3/1 68/3/1
f 75/6/1 71/6/1 70/6/1
f 75/6/1 72/6/1 71/6/1
f 76/6/1 72/6/1 75/6/1
f 77/6/1 74/6/1 73/6/1
f 78/6/1 74/6/1 77/6/1
f 79/6/1 75/6/1 70/6/1
f 80/6/1 75/6/1 79/6/1
f 81/6/1 74/6/1 78/6/1
f 82/6/1 74/6/1 81/6/1
f 83/5/2 84/5/2 85/5/2
f 85/5/2 84/5/2 86/5/2
f 85/3/2 86/3/2 87/3/2
f 87/3/2 86/3/2 88/3/2
f 89/5/2 90/5/2 93/5/2
f 93/5/2 90/5/2 94/5/2
f 91/5/2 92/5/2 95/5/2
f 95/5/2 92/5/2 96/5/2
f 97/3/2 98/3/2 102/3/2
f 99/3/2 100/3/2 103/3/2
f 101/3/2 102/3/2 105/3/2
f 102/3/2 98/3/2 106/3/2
f 105/3/2 102/3/2 106/3/2
f 103/3/2 104/3/2 107/3/2
f 99/3/2 103/3/2 107/3/2
f 107/3/2 104/3/2 108/3/2
f 109/6/2 110/6/2 113/6/2
f 113/6/2 110/6/2 114/6/2
f 111/6/2 112/6/2 115/6/2
f 115/6/2 112/6/2 116/6/2
f 109/6/2 113/6/2 117/6/2
f 117/6/2 113/6/2 118/6/2
f 116/6/2 112/6/2 119/6/2
f 119/6/2 112/6/2 120/6/2
f 121/5/2 122/5/2 125/5/2
f 125/5/2 122/5/2 126/5/2
f 123/5/2 124/5/2 127/5/2
f 127/5/2 124/5/2 128/5/2
f 125/3/2 126/3/2 129/3/2
f 126/3/2 127/3/2 129/3/2
f 129/3/2 127/3/2 130/3/2
f 127/6/2 128/6/2 131/6/2
f 130/3/2 127/3/2 131/3/2
f 131/6/2 128/6/2 132/6/2
f 125/3/2 129/3/2 133/3/2
f 133/3/2 129/3/2 134/3/2
f 132/6/2 128/6/2 135/6/2
f 135/6/2 128/6/2 136/6/2
f 133/6/2 134/6/2 137/6/2
f 137/6/2 134/6/2 138/6/2
f 135/3/2 136/3/2 141/3/2
f 141/3/2 136/3/2 142/3/2
f 137/2/2 138/2/2 143/2/2
f 138/1/2 139/1/2 143/1/2
f 139/3/2 140/3/2 144/3/2
f 143/1/2 139/1/2 144/1/2
f 144/3/2 140/3/2 145/3/2
f 140/1/2 141/1/2 146/1/2
f 145/3/2 140/3/2 146/3/2
f 141/2/2 142/2/2 147/2/2
f 146/1/2 141/1/2 147/1/2
f 137/2/2 143/2/2 148/2/2
f 144/6/2 145/6/2 149/6/2
f 148/2/2 143/2/2 149/2/2
f 143/6/2 144/6/2 149/6/2
f 147/2/2 142/2/2 150/2/2
f 145/3/2 146/3/2 150/3/2
f 146/3/2 147/3/2 150/3/2
f 150/2/2 142/2/2 151/2/2
f 148/6/2 149/6/2 152/6/2
f 149/6/2 145/6/2 153/6/2
f 152/6/2 149/6/2 153/6/2
f 145/3/2 150/3/2 153/3/2
f 150/3/2 151/3/2 153/3/2
f 153/3/2 151/3/2 154/3/2
f 155/5/2 156/5/2 159/5/2
f 156/4/2 157/4/2 160/4/2
f 159/5/2 156/5/2 160/5/2
f 157/5/2 158/5/2 161/5/2
f 160/4/2 157/4/2 161/4/2
f 161/5/2 158/5/2 162/5/2
f 159/4/2 160/4/2 163/4/2
f 160/4/2 161/4/2 163/4/2
f 161/4/2 162/4/2 163/4/2
f 163/4/2 162/4/2 164/4/2
f 167/3/3 166/3/3 165/3/3
f 168/3/3 166/3/3 167/3/3
f 171/3/3 170/3/3 169/3/3
f 172/3/3 170/3/3 171/3/3
f 177/3/3 175/3/3 174/3/3
f 177/6/3 176/6/3 175/6/3
f 178/6/3 176/6/3 177/6/3
f 180/5/3 174/5/3 173/5/3
f 181/3/3 177/3/3 174/3/3
f 181/5/3 174/5/3 180/5/3
f 181/3/3 178/3/3 177/3/3
f 182/3/3 178/3/3 181/3/3
f 183/3/3 178/3/3 182/3/3
f 184/6/3 179/6/3 178/6/3
f 184/3/3 178/3/3 183/3/3
f 185/6/3 179/6/3 184/6/3
f 186/3/3 182/3/3 181/3/3
f 187/6/3 183/6/3 182/6/3
f 187/3/3 182/3/3 186/3/3
f 188/6/3 187/6/3 186/6/3
f 188/6/3 183/6/3 187/6/3
f 189/3/3 185/3/3 184/3/3
f 189/6/3 183/6/3 188/6/3
f 189/3/3 184/3/3 183/3/3
f 191/3/3 186/3/3 181/3/3
f 192/6/3 188/6/3 186/6/3
f 192/3/3 186/3/3 191/3/3
f 193/3/3 189/3/3 188/3/3
f 193/6/3 188/6/3 192/6/3
f 194/3/3 185/3/3 189/3/3
f 194/3/3 189/3/3 193/3/3
f 195/3/3 185/3/3 194/3/3
f 197/3/3 193/3/3 192/3/3
f 197/3/3 192/3/3 191/3/3
f 198/3/3 193/3/3 197/3/3
f 199/6/3 196/6/3 195/6/3
f 199/6/3 195/6/3 194/6/3
f 200/6/3 196/6/3 199/6/3
f 201/6/3 196/6/3 200/6/3
f 202/5/3 191/5/3 190/5/3
f 203/3/3 197/3/3 191/3/3
f 203/5/3 191/5/3 202/5/3
f 204/6/3 198/6/3 197/6/3
f 204/3/3 197/3/3 203/3/3
f 205/2/3 199/2/3 198/2/3
f 205/6/3 198/6/3 204/6/3
f 206/6/3 200/6/3 199/6/3
f 206/2/3 199/2/3 205/2/3
f 207/6/3 200/6/3 206/6/3
f 210/6/3 209/6/3 208/6/3
f 211/6/3 209/6/3 210/6/3
f 215/5/3 213/5/3 212/5/3
f 216/4/3 214/4/3 213/4/3
f 216/5/3 213/5/3 215/5/3
f 217/4/3 214/4/3 216/4/3
f 220/3/3 219/3/3 218/3/3
f 221/3/3 219/3/3 220/3/3
f 225/5/3 223/5/3 222/5/3
f 226/3/3 224/3/3 223/3/3
f 226/5/3 223/5/3 225/5/3
f 227/3/3 224/3/3 226/3/3
f 230/5/3 229/5/3 228/5/3
f 231/5/3 229/5/3 230/5/3
f 236/6/3 235/6/3 234/6/3
f 237/6/3 235/6/3 236/6/3
f 238/5/3 233/5/3 232/5/3
f 239/5/3 233/5/3 238/5/3
f 242/6/3 241/6/3 240/6/3
f 243/6/3 241/6/3 242/6/3
f 244/6/4 245/6/4 246/6/4
f 246/6/4 245/6/4 247/6/4
f 248/5/4 249/5/4 250/5/4
f 248/5/4 250/5/4 251/5/4
f 251/5/4 250/5/4 252/5/4
f 255/6/4 256/6/4 257/6/4
f 257/6/4 256/6/4 258/6/4
f 253/5/4 254/5/4 259/5/4
f 259/5/4 254/5/4 260/5/4
f 261/5/4 262/5/4 264/5/4
f 262/3/4 263/3/4 265/3/4
f 264/5/4 262/5/4 265/5/4
f 265/3/4 263/3/4 266/3/4
f 266/3/4 267/3/4 268/3/4
f 268/3/4 267/3/4 269/3/4
f 270/3/4 271/3/4 272/3/4
f 272/3/4 271/3/4 273/3/4
f 274/5/4 275/5/4 277/5/4
f 275/4/4 276/4/4 278/4/4
f 277/5/4 275/5/4 278/5/4
f 278/4/4 276/4/4 279/4/4
f 281/3/4 282/3/4 285/3/4
f 282/6/4 283/6/4 286/6/4
f 285/3/4 282/3/4 286/3/4
f 283/3/4 284/3/4 287/3/4
f 286/6/4 283/6/4 287/6/4
f 287/3/4 284/3/4 288/3/4
f 280/5/4 281/5/4 290/5/4
f 281/3/4 285/3/4 291/3/4
f 290/5/4 281/5/4 291/5/4
f 285/6/4 286/6/4 292/6/4
f 291/3/4 285/3/4 292/3/4
f 286/6/4 287/6/4 292/6/4
f 287/6/4 288/6/4 292/6/4
f 292/6/4 288/6/4 293/6/4
f 293/6/4 288/6/4 294/6/4
f 292/3/4 293/3/4 294/3/4
f 291/3/4 292/3/4 294/3/4
f 288/3/4 289/3/4 295/3/4
f 294/6/4 288/6/4 295/6/4
f 291/3/4 294/3/4 296/3/4
f 294/3/4 295/3/4 296/3/4
f 296/3/4 295/3/4 297/3/4
f 291/3/4 296/3/4 299/3/4
f 296/6/4 297/6/4 300/6/4
f 299/3/4 296/3/4 300/3/4
f 297/3/4 295/3/4 301/3/4
f 295/3/4 289/3/4 302/3/4
f 301/3/4 295/3/4 302/3/4
f 302/3/4 289/3/4 303/3/4
f 297/3/4 301/3/4 305/3/4
f 302/3/4 303/3/4 306/3/4
f 303/6/4 304/6/4 307/6/4
f 306/3/4 303/3/4 307/3/4
f 307/6/4 304/6/4 308/6/4
f 298/5/4 299/5/4 309/5/4
f 299/6/4 300/6/4 310/6/4
f 309/5/4 299/5/4 310/5/4
f 300/6/4 297/6/4 311/6/4
f 310/6/4 300/6/4 311/6/4
f 297/3/4 305/3/4 311/3/4
f 305/2/4 306/2/4 312/2/4
f 311/3/4 305/3/4 312/3/4
f 306/3/4 307/3/4 313/3/4
f 312/2/4 306/2/4 313/2/4
f 313/3/4 307/3/4 314/3/4
f 315/3/4 316/3/4 317/3/4
f 317/3/4 316/3/4 318/3/4
f 319/3/4 320/3/4 321/3/4
f 321/3/4 320/3/4 322/3/4
f 327/5/5 324/5/5 323/5/5
f 328/5/5 324/5/5 327/5/5
f 329/5/5 326/5/5 325/5/5
f 330/5/5 326/5/5 329/5/5
f 335/5/5 332/5/5 331/5/5
f 336/5/5 332/5/5 335/5/5
f 337/5/5 334/5/5 333/5/5
f 338/5/5 334/5/5 337/5/5
f 343/3/5 340/3/5 339/3/5
f 344/3/5 340/3/5 343/3/5
f 346/6/5 342/6/5 341/6/5
f 347/3/5 345/3/5 344/3/5
f 347/6/5 342/6/5 346/6/5
f 347/3/5 343/3/5 342/3/5
f 347/3/5 344/3/5 343/3/5
f 348/3/5 347/3/5 346/3/5
f 349/3/5 345/3/5 347/3/5
f 349/3/5 347/3/5 348/3/5
f 350/3/5 345/3/5 349/3/5
f 351/3/5 345/3/5 350/3/5
f 352/3/5 350/3/5 349/3/5
f 353/3/5 350/3/5 352/3/5
f 356/5/5 355/5/5 354/5/5
f 357/5/5 355/5/5 356/5/5
f 360/5/5 359/5/5 358/5/5
f 361/5/5 359/5/5 360/5/5
f 362/4/5 357/4/5 356/4/5
f 363/4/5 357/4/5 362/4/5
f 364/5/5 363/5/5 362/5/5
f 365/5/5 363/5/5 364/5/5
f 368/3/5 367/3/5 366/3/5
f 369/3/5 367/3/5 368/3/5
f 372/3/5 371/3/5 370/3/5
f 373/3/5 371/3/5 372/3/5
f 376/3/5 375/3/5 374/3/5
f 377/3/5 375/3/5 376/3/5
f 380/3/5 379/3/5 378/3/5
f 381/3/5 379/3/5 380/3/5
f 382/3/5 379/3/5 381/3/5
f 385/3/5 384/3/5 383/3/5
f 386/3/5 384/3/5 385/3/5
f 387/4/6 388/4/6 389/4/6
f 389/4/6 388/4/6 390/4/6
f 390/4/6 388/4/6 391/4/6
f 391/4/6 388/4/6 392/4/6
f 393/3/6 394/3/6 395/3/6
f 395/3/6 394/3/6 396/3/6
f 397/3/6 398/3/6 401/3/6
f 401/3/6 398/3/6 402/3/6
f 399/6/6 400/6/6 403/6/6
f 403/6/6 400/6/6 404/6/6
f 405/3/6 406/3/6 407/3/6
f 405/3/6 407/3/6 408/3/6
f 408/3/6 407/3/6 409/3/6
f 410/3/6 411/3/6 412/3/6
f 412/3/6 411/3/6 413/3/6
f 414/3/6 415/3/6 416/3/6
f 416/3/6 415/3/6 417/3/6
f 418/6/6 419/6/6 424/6/6
f 419/3/6 420/3/6 425/3/6
f 424/6/6 419/6/6 425/6/6
f 425/3/6 420/3/6 426/3/6
f 426/3/6 420/3/6 427/3/6
f 424/3/6 425/3/6 428/3/6
f 425/3/6 426/3/6 428/3/6
f 426/6/6 427/6/6 429/6/6
f 428/3/6 426/3/6 429/3/6
f 429/6/6 427/6/6 430/6/6
f 421/6/6 422/6/6 431/6/6
f 423/6/6 424/6/6 432/6/6
f 424/3/6 428/3/6 433/3/6
f 432/6/6 424/6/6 433/6/6
f 429/6/6 430/6/6 434/6/6
f 430/6/6 431/6/6 434/6/6
f 428/6/6 429/6/6 434/6/6
f 431/6/6 422/6/6 435/6/6
f 434/6/6 431/6/6 435/6/6
f 433/3/6 428/3/6 436/3/6
f 432/3/6 433/3/6 436/3/6
f 428/6/6 434/6/6 436/6/6
f 436/6/6 434/6/6 437/6/6
f 437/6/6 434/6/6 438/6/6
f 434/3/6 435/3/6 439/3/6
f 438/6/6 434/6/6 439/6/6
f 439/3/6 435/3/6 440/3/6
f 432/3/6 436/3/6 441/3/6
f 436/3/6 437/3/6 441/3/6
f 441/3/6 437/3/6 442/3/6
f 437/6/6 438/6/6 443/6/6
f 442/3/6 437/3/6 443/3/6
f 438/3/6 439/3/6 444/3/6
f 443/6/6 438/6/6 444/6/6
f 442/3/6 443/3/6 445/3/6
f 443/3/6 444/3/6 445/3/6
f 444/3/6 439/3/6 446/3/6
f 445/3/6 444/3/6 446/3/6
f 440/3/6 435/3/6 447/3/6
f 447/3/6 435/3/6 448/3/6
f 449/6/6 450/6/6 451/6/6
f 451/6/6 450/6/6 452/6/6
f 453/6/6 454/6/6 455/6/6
f 455/6/6 454/6/6 456/6/6
f 457/6/6 458/6/6 459/6/6
f 459/6/6 458/6/6 460/6/6
f 461/6/6 462/6/6 463/6/6
f 463/6/6 462/6/6 464/6/6
