# MagicaVoxel @ Ephtracy

# material
mtllib tiger.mtl
usemtl palette

# normals
vn -1 0 0
vn 1 0 0
vn 0 0 1
vn 0 0 -1
vn 0 -1 0
vn 0 1 0

# texcoords
vt 0.0292969 0.5
vt 0.0566406 0.5
vt 0.0878906 0.5
vt 0.0917969 0.5
vt 0.537109 0.5
vt 0.587891 0.5
vt 0.990234 0.5

# verts
v -6 6 1
v -6 6 -0
v -6 7 1
v -6 7 -0
v -6 8 1
v -6 8 -0
v -5 4 1
v -5 4 -0
v -5 5 1
v -5 5 -0
v -5 6 1
v -5 6 -0
v -4 4 -0
v -4 4 -1
v -4 5 -0
v -4 5 -1
v -3 0 3
v -3 0 1
v -3 0 -1
v -3 0 -3
v -3 1 3
v -3 1 1
v -3 1 -1
v -3 1 -3
v -3 4 1
v -3 4 -1
v -3 5 1
v -3 5 -1
v -3 6 3
v -3 6 2
v -3 6 -2
v -3 6 -3
v -3 7 2
v -3 7 -2
v -2 6 3
v -2 6 2
v -2 6 -2
v -2 6 -3
v -2 7 3
v -2 7 2
v -2 7 -2
v -2 7 -3
v 2 0 3
v 2 0 1
v 2 0 -1
v 2 0 -3
v 2 1 3
v 2 1 1
v 2 1 -1
v 2 1 -3
v 2 6 4
v 2 6 3
v 2 6 -3
v 2 6 -4
v 2 7 3
v 2 7 2
v 2 7 -2
v 2 7 -3
v 2 8 4
v 2 8 2
v 2 8 -2
v 2 8 -4
v -5 7 1
v -5 7 -0
v -5 8 1
v -5 8 -0
v -4 5 1
v -4 5 -0
v -4 6 1
v -4 6 -0
v -4 7 1
v -4 7 -0
v -1 0 3
v -1 0 1
v -1 0 -1
v -1 0 -3
v -1 1 3
v -1 1 1
v -1 1 -1
v -1 1 -3
v 3 6 4
v 3 6 3
v 3 6 -3
v 3 6 -4
v 3 7 3
v 3 7 2
v 3 7 -2
v 3 7 -3
v 3 8 4
v 3 8 2
v 3 8 -2
v 3 8 -4
v 4 0 3
v 4 0 1
v 4 0 -1
v 4 0 -3
v 4 1 3
v 4 1 1
v 4 1 -1
v 4 1 -3
v 4 2 2
v 4 2 -2
v 4 4 3
v 4 4 2
v 4 4 1
v 4 4 -1
v 4 4 -2
v 4 4 -3
v 4 5 3
v 4 5 2
v 4 5 1
v 4 5 -1
v 4 5 -2
v 4 5 -3
v 4 7 3
v 4 7 -3
v 5 2 2
v 5 2 -2
v 5 3 1
v 5 3 -1
v 5 4 3
v 5 4 2
v 5 4 1
v 5 4 -1
v 5 4 -2
v 5 4 -3
v 5 5 3
v 5 5 2
v 5 5 1
v 5 5 -1
v 5 5 -2
v 5 5 -3
v 2 6 4
v 2 8 4
v 3 6 4
v 3 8 4
v -3 0 3
v -3 1 3
v -3 6 3
v -2 3 3
v -2 6 3
v -2 7 3
v -1 0 3
v -1 1 3
v -1 3 3
v -1 7 3
v 0 2 3
v 0 7 3
v 1 2 3
v 1 7 3
v 2 0 3
v 2 1 3
v 2 3 3
v 2 6 3
v 2 7 3
v 3 3 3
v 3 6 3
v 3 7 3
v 4 0 3
v 4 1 3
v 4 4 3
v 4 5 3
v 4 7 3
v 5 4 3
v 5 5 3
v -3 6 2
v -3 7 2
v -2 6 2
v -2 7 2
v 4 2 2
v 4 4 2
v 5 2 2
v 5 4 2
v -6 6 1
v -6 7 1
v -6 8 1
v -5 4 1
v -5 5 1
v -5 6 1
v -5 7 1
v -5 8 1
v -4 5 1
v -4 6 1
v -4 7 1
v -3 4 1
v -3 5 1
v 4 4 1
v 4 5 1
v 5 4 1
v 5 5 1
v -3 0 -1
v -3 1 -1
v -1 0 -1
v -1 1 -1
v 2 0 -1
v 2 1 -1
v 4 0 -1
v 4 1 -1
v 2 7 -2
v 2 8 -2
v 3 7 -2
v 3 8 -2
v 4 4 -2
v 4 5 -2
v 5 4 -2
v 5 5 -2
v 2 7 2
v 2 8 2
v 3 7 2
v 3 8 2
v 4 4 2
v 4 5 2
v 5 4 2
v 5 5 2
v -3 0 1
v -3 1 1
v -1 0 1
v -1 1 1
v 2 0 1
v 2 1 1
v 4 0 1
v 4 1 1
v -6 6 -0
v -6 7 -0
v -6 8 -0
v -5 4 -0
v -5 5 -0
v -5 6 -0
v -5 7 -0
v -5 8 -0
v -4 4 -0
v -4 5 -0
v -4 6 -0
v -4 7 -0
v -4 4 -1
v -4 5 -1
v -3 4 -1
v -3 5 -1
v 4 4 -1
v 4 5 -1
v 5 4 -1
v 5 5 -1
v -3 6 -2
v -3 7 -2
v -2 6 -2
v -2 7 -2
v 4 2 -2
v 4 4 -2
v 5 2 -2
v 5 4 -2
v -3 0 -3
v -3 1 -3
v -3 6 -3
v -2 3 -3
v -2 6 -3
v -2 7 -3
v -1 0 -3
v -1 1 -3
v -1 3 -3
v -1 7 -3
v 0 2 -3
v 0 7 -3
v 1 2 -3
v 1 7 -3
v 2 0 -3
v 2 1 -3
v 2 3 -3
v 2 6 -3
v 2 7 -3
v 3 3 -3
v 3 6 -3
v 3 7 -3
v 4 0 -3
v 4 1 -3
v 4 4 -3
v 4 5 -3
v 4 7 -3
v 5 4 -3
v 5 5 -3
v 2 6 -4
v 2 8 -4
v 3 6 -4
v 3 8 -4
v -3 0 3
v -1 0 3
v 2 0 3
v 4 0 3
v -3 0 1
v -1 0 1
v 2 0 1
v 4 0 1
v -3 0 -1
v -1 0 -1
v 2 0 -1
v 4 0 -1
v -3 0 -3
v -1 0 -3
v 2 0 -3
v 4 0 -3
v -1 1 3
v 2 1 3
v -3 1 1
v -1 1 1
v 2 1 1
v 4 1 1
v -3 1 -1
v -1 1 -1
v 2 1 -1
v 4 1 -1
v -1 1 -3
v 2 1 -3
v 4 2 2
v 5 2 2
v 4 2 -2
v 5 2 -2
v 4 4 3
v 5 4 3
v 4 4 2
v 5 4 2
v -5 4 1
v -3 4 1
v -5 4 -0
v -4 4 -0
v -4 4 -1
v -3 4 -1
v 4 4 -2
v 5 4 -2
v 4 4 -3
v 5 4 -3
v 2 6 4
v 3 6 4
v 2 6 3
v 3 6 3
v -6 6 1
v -5 6 1
v -6 6 -0
v -5 6 -0
v 2 6 -3
v 3 6 -3
v 2 6 -4
v 3 6 -4
v 4 4 2
v 5 4 2
v 4 4 1
v 5 4 1
v 4 4 -1
v 5 4 -1
v 4 4 -2
v 5 4 -2
v 4 5 3
v 5 5 3
v 4 5 2
v 5 5 2
v -4 5 1
v -3 5 1
v 4 5 1
v 5 5 1
v -4 5 -0
v -4 5 -1
v -3 5 -1
v 4 5 -1
v 5 5 -1
v 4 5 -2
v 5 5 -2
v 4 5 -3
v 5 5 -3
v -3 6 3
v -2 6 3
v -3 6 2
v -2 6 2
v -3 6 -2
v -2 6 -2
v -3 6 -3
v -2 6 -3
v -2 7 3
v -1 7 3
v 0 7 3
v 1 7 3
v 2 7 3
v 3 7 3
v 4 7 3
v -3 7 2
v -2 7 2
v 2 7 2
v 3 7 2
v -5 7 1
v -4 7 1
v -5 7 -0
v -4 7 -0
v -3 7 -2
v -2 7 -2
v 2 7 -2
v 3 7 -2
v -2 7 -3
v -1 7 -3
v 0 7 -3
v 1 7 -3
v 2 7 -3
v 3 7 -3
v 4 7 -3
v 2 8 4
v 3 8 4
v 2 8 2
v 3 8 2
v -6 8 1
v -5 8 1
v -6 8 -0
v -5 8 -0
v 2 8 -2
v 3 8 -2
v 2 8 -4
v 3 8 -4

# faces
f 3/3/1 2/3/1 1/3/1
f 4/3/1 2/3/1 3/3/1
f 5/7/1 4/7/1 3/7/1
f 6/7/1 4/7/1 5/7/1
f 9/3/1 8/3/1 7/3/1
f 10/3/1 8/3/1 9/3/1
f 11/7/1 10/7/1 9/7/1
f 12/7/1 10/7/1 11/7/1
f 15/3/1 14/3/1 13/3/1
f 16/3/1 14/3/1 15/3/1
f 21/5/1 18/5/1 17/5/1
f 22/5/1 18/5/1 21/5/1
f 23/5/1 20/5/1 19/5/1
f 24/5/1 20/5/1 23/5/1
f 25/4/1 22/4/1 21/4/1
f 25/4/1 23/4/1 22/4/1
f 25/4/1 24/4/1 23/4/1
f 26/4/1 24/4/1 25/4/1
f 27/4/1 25/4/1 21/4/1
f 28/4/1 24/4/1 26/4/1
f 29/4/1 27/4/1 21/4/1
f 29/4/1 28/4/1 27/4/1
f 30/4/1 28/4/1 29/4/1
f 31/4/1 24/4/1 28/4/1
f 31/4/1 28/4/1 30/4/1
f 32/4/1 24/4/1 31/4/1
f 33/4/1 31/4/1 30/4/1
f 34/4/1 31/4/1 33/4/1
f 39/7/1 36/7/1 35/7/1
f 40/7/1 36/7/1 39/7/1
f 41/7/1 38/7/1 37/7/1
f 42/7/1 38/7/1 41/7/1
f 47/5/1 44/5/1 43/5/1
f 48/5/1 44/5/1 47/5/1
f 49/5/1 46/5/1 45/5/1
f 50/5/1 46/5/1 49/5/1
f 55/4/1 52/4/1 51/4/1
f 58/4/1 54/4/1 53/4/1
f 59/4/1 56/4/1 55/4/1
f 59/4/1 55/4/1 51/4/1
f 60/4/1 56/4/1 59/4/1
f 61/4/1 58/4/1 57/4/1
f 62/4/1 54/4/1 58/4/1
f 62/4/1 58/4/1 61/4/1
f 63/7/2 64/7/2 65/7/2
f 65/7/2 64/7/2 66/7/2
f 67/7/2 68/7/2 69/7/2
f 69/7/2 68/7/2 70/7/2
f 69/3/2 70/3/2 71/3/2
f 71/3/2 70/3/2 72/3/2
f 73/5/2 74/5/2 77/5/2
f 77/5/2 74/5/2 78/5/2
f 75/5/2 76/5/2 79/5/2
f 79/5/2 76/5/2 80/5/2
f 81/4/2 82/4/2 85/4/2
f 83/4/2 84/4/2 88/4/2
f 85/4/2 86/4/2 89/4/2
f 81/4/2 85/4/2 89/4/2
f 89/4/2 86/4/2 90/4/2
f 87/4/2 88/4/2 91/4/2
f 88/4/2 84/4/2 92/4/2
f 91/4/2 88/4/2 92/4/2
f 93/5/2 94/5/2 97/5/2
f 97/5/2 94/5/2 98/5/2
f 95/5/2 96/5/2 99/5/2
f 99/5/2 96/5/2 100/5/2
f 97/4/2 98/4/2 101/4/2
f 98/4/2 99/4/2 101/4/2
f 99/4/2 100/4/2 101/4/2
f 101/4/2 100/4/2 102/4/2
f 97/4/2 101/4/2 103/4/2
f 103/4/2 101/4/2 104/4/2
f 102/4/2 100/4/2 107/4/2
f 107/4/2 100/4/2 108/4/2
f 104/4/2 105/4/2 110/4/2
f 110/4/2 105/4/2 111/4/2
f 106/4/2 107/4/2 112/4/2
f 112/4/2 107/4/2 113/4/2
f 110/4/2 111/4/2 115/4/2
f 113/4/2 114/4/2 115/4/2
f 112/4/2 113/4/2 115/4/2
f 111/4/2 112/4/2 115/4/2
f 109/4/2 110/4/2 115/4/2
f 115/4/2 114/4/2 116/4/2
f 117/1/2 118/1/2 119/1/2
f 119/1/2 118/1/2 120/1/2
f 117/1/2 119/1/2 122/1/2
f 119/2/2 120/2/2 123/2/2
f 122/1/2 119/1/2 123/1/2
f 120/1/2 118/1/2 124/1/2
f 123/2/2 120/2/2 124/2/2
f 124/1/2 118/1/2 125/1/2
f 121/6/2 122/6/2 127/6/2
f 127/6/2 122/6/2 128/6/2
f 123/4/2 124/4/2 129/4/2
f 129/4/2 124/4/2 130/4/2
f 125/6/2 126/6/2 131/6/2
f 131/6/2 126/6/2 132/6/2
f 135/4/3 134/4/3 133/4/3
f 136/4/3 134/4/3 135/4/3
f 140/4/3 139/4/3 138/4/3
f 141/4/3 139/4/3 140/4/3
f 143/5/3 138/5/3 137/5/3
f 144/4/3 140/4/3 138/4/3
f 144/5/3 138/5/3 143/5/3
f 145/7/3 142/7/3 141/7/3
f 145/4/3 140/4/3 144/4/3
f 145/7/3 141/7/3 140/7/3
f 146/7/3 142/7/3 145/7/3
f 147/4/3 145/4/3 144/4/3
f 147/4/3 146/4/3 145/4/3
f 148/4/3 146/4/3 147/4/3
f 149/4/3 147/4/3 144/4/3
f 149/7/3 148/7/3 147/7/3
f 150/7/3 148/7/3 149/7/3
f 152/4/3 149/4/3 144/4/3
f 152/4/3 150/4/3 149/4/3
f 153/4/3 150/4/3 152/4/3
f 154/4/3 150/4/3 153/4/3
f 155/4/3 150/4/3 154/4/3
f 156/4/3 153/4/3 152/4/3
f 156/7/3 154/7/3 153/7/3
f 157/7/3 154/7/3 156/7/3
f 159/5/3 152/5/3 151/5/3
f 160/4/3 158/4/3 157/4/3
f 160/5/3 152/5/3 159/5/3
f 160/4/3 156/4/3 152/4/3
f 160/4/3 157/4/3 156/4/3
f 161/4/3 158/4/3 160/4/3
f 162/4/3 158/4/3 161/4/3
f 163/4/3 158/4/3 162/4/3
f 164/6/3 162/6/3 161/6/3
f 165/6/3 162/6/3 164/6/3
f 168/4/3 167/4/3 166/4/3
f 169/4/3 167/4/3 168/4/3
f 172/1/3 171/1/3 170/1/3
f 173/1/3 171/1/3 172/1/3
f 179/3/3 175/3/3 174/3/3
f 180/7/3 176/7/3 175/7/3
f 180/3/3 175/3/3 179/3/3
f 181/7/3 176/7/3 180/7/3
f 182/3/3 178/3/3 177/3/3
f 182/7/3 179/7/3 178/7/3
f 183/3/3 180/3/3 179/3/3
f 183/7/3 179/7/3 182/7/3
f 184/3/3 180/3/3 183/3/3
f 185/3/3 182/3/3 177/3/3
f 186/3/3 182/3/3 185/3/3
f 189/4/3 188/4/3 187/4/3
f 190/4/3 188/4/3 189/4/3
f 193/5/3 192/5/3 191/5/3
f 194/5/3 192/5/3 193/5/3
f 197/5/3 196/5/3 195/5/3
f 198/5/3 196/5/3 197/5/3
f 201/4/3 200/4/3 199/4/3
f 202/4/3 200/4/3 201/4/3
f 205/6/3 204/6/3 203/6/3
f 206/6/3 204/6/3 205/6/3
f 207/4/4 208/4/4 209/4/4
f 209/4/4 208/4/4 210/4/4
f 211/6/4 212/6/4 213/6/4
f 213/6/4 212/6/4 214/6/4
f 215/5/4 216/5/4 217/5/4
f 217/5/4 216/5/4 218/5/4
f 219/5/4 220/5/4 221/5/4
f 221/5/4 220/5/4 222/5/4
f 223/3/4 224/3/4 228/3/4
f 224/7/4 225/7/4 229/7/4
f 228/3/4 224/3/4 229/3/4
f 229/7/4 225/7/4 230/7/4
f 226/3/4 227/3/4 231/3/4
f 227/7/4 228/7/4 232/7/4
f 231/3/4 227/3/4 232/3/4
f 228/3/4 229/3/4 233/3/4
f 232/7/4 228/7/4 233/7/4
f 233/3/4 229/3/4 234/3/4
f 235/3/4 236/3/4 237/3/4
f 237/3/4 236/3/4 238/3/4
f 239/4/4 240/4/4 241/4/4
f 241/4/4 240/4/4 242/4/4
f 243/4/4 244/4/4 245/4/4
f 245/4/4 244/4/4 246/4/4
f 247/1/4 248/1/4 249/1/4
f 249/1/4 248/1/4 250/1/4
f 252/4/4 253/4/4 254/4/4
f 254/4/4 253/4/4 255/4/4
f 251/5/4 252/5/4 257/5/4
f 252/4/4 254/4/4 258/4/4
f 257/5/4 252/5/4 258/5/4
f 255/7/4 256/7/4 259/7/4
f 258/4/4 254/4/4 259/4/4
f 254/7/4 255/7/4 259/7/4
f 259/7/4 256/7/4 260/7/4
f 258/4/4 259/4/4 261/4/4
f 259/4/4 260/4/4 261/4/4
f 261/4/4 260/4/4 262/4/4
f 258/4/4 261/4/4 263/4/4
f 261/7/4 262/7/4 263/7/4
f 263/7/4 262/7/4 264/7/4
f 258/4/4 263/4/4 266/4/4
f 263/4/4 264/4/4 266/4/4
f 266/4/4 264/4/4 267/4/4
f 267/4/4 264/4/4 268/4/4
f 268/4/4 264/4/4 269/4/4
f 266/4/4 267/4/4 270/4/4
f 267/7/4 268/7/4 270/7/4
f 270/7/4 268/7/4 271/7/4
f 265/5/4 266/5/4 273/5/4
f 271/4/4 272/4/4 274/4/4
f 273/5/4 266/5/4 274/5/4
f 266/4/4 270/4/4 274/4/4
f 270/4/4 271/4/4 274/4/4
f 274/4/4 272/4/4 275/4/4
f 275/4/4 272/4/4 276/4/4
f 276/4/4 272/4/4 277/4/4
f 275/6/4 276/6/4 278/6/4
f 278/6/4 276/6/4 279/6/4
f 280/4/4 281/4/4 282/4/4
f 282/4/4 281/4/4 283/4/4
f 288/5/5 285/5/5 284/5/5
f 289/5/5 285/5/5 288/5/5
f 290/5/5 287/5/5 286/5/5
f 291/5/5 287/5/5 290/5/5
f 296/5/5 293/5/5 292/5/5
f 297/5/5 293/5/5 296/5/5
f 298/5/5 295/5/5 294/5/5
f 299/5/5 295/5/5 298/5/5
f 303/4/5 301/4/5 300/4/5
f 304/4/5 301/4/5 303/4/5
f 306/4/5 303/4/5 302/4/5
f 306/4/5 305/4/5 304/4/5
f 306/4/5 304/4/5 303/4/5
f 307/4/5 305/4/5 306/4/5
f 308/4/5 305/4/5 307/4/5
f 309/4/5 305/4/5 308/4/5
f 310/4/5 308/4/5 307/4/5
f 311/4/5 308/4/5 310/4/5
f 314/1/5 313/1/5 312/1/5
f 315/1/5 313/1/5 314/1/5
f 318/6/5 317/6/5 316/6/5
f 319/6/5 317/6/5 318/6/5
f 322/3/5 321/3/5 320/3/5
f 323/3/5 321/3/5 322/3/5
f 324/3/5 321/3/5 323/3/5
f 325/3/5 321/3/5 324/3/5
f 328/6/5 327/6/5 326/6/5
f 329/6/5 327/6/5 328/6/5
f 332/4/5 331/4/5 330/4/5
f 333/4/5 331/4/5 332/4/5
f 336/3/5 335/3/5 334/3/5
f 337/3/5 335/3/5 336/3/5
f 340/4/5 339/4/5 338/4/5
f 341/4/5 339/4/5 340/4/5
f 342/1/6 343/1/6 344/1/6
f 344/1/6 343/1/6 345/1/6
f 346/1/6 347/1/6 348/1/6
f 348/1/6 347/1/6 349/1/6
f 350/6/6 351/6/6 352/6/6
f 352/6/6 351/6/6 353/6/6
f 354/3/6 355/3/6 358/3/6
f 358/3/6 355/3/6 359/3/6
f 359/3/6 355/3/6 360/3/6
f 356/4/6 357/4/6 361/4/6
f 361/4/6 357/4/6 362/4/6
f 363/6/6 364/6/6 365/6/6
f 365/6/6 364/6/6 366/6/6
f 367/4/6 368/4/6 369/4/6
f 369/4/6 368/4/6 370/4/6
f 371/4/6 372/4/6 373/4/6
f 373/4/6 372/4/6 374/4/6
f 375/7/6 376/7/6 383/7/6
f 378/4/6 379/4/6 384/4/6
f 380/4/6 381/4/6 385/4/6
f 386/3/6 387/3/6 388/3/6
f 388/3/6 387/3/6 389/3/6
f 382/4/6 383/4/6 390/4/6
f 383/7/6 376/7/6 391/7/6
f 390/4/6 383/4/6 391/4/6
f 378/4/6 384/4/6 392/4/6
f 384/7/6 385/7/6 392/7/6
f 385/4/6 381/4/6 393/4/6
f 392/7/6 385/7/6 393/7/6
f 391/7/6 376/7/6 394/7/6
f 376/4/6 377/4/6 395/4/6
f 394/7/6 376/7/6 395/7/6
f 377/7/6 378/7/6 396/7/6
f 395/4/6 377/4/6 396/4/6
f 378/4/6 392/4/6 397/4/6
f 396/7/6 378/7/6 397/7/6
f 397/4/6 392/4/6 398/4/6
f 393/4/6 381/4/6 399/4/6
f 399/4/6 381/4/6 400/4/6
f 401/4/6 402/4/6 403/4/6
f 403/4/6 402/4/6 404/4/6
f 405/7/6 406/7/6 407/7/6
f 407/7/6 406/7/6 408/7/6
f 409/4/6 410/4/6 411/4/6
f 411/4/6 410/4/6 412/4/6
