# MagicaVoxel @ Ephtracy

# material
mtllib window_h.mtl
usemtl palette

# normals
vn -1 0 0
vn 1 0 0
vn 0 0 1
vn 0 0 -1
vn 0 -1 0
vn 0 1 0

# texcoords
vt 0.533203 0.5
vt 0.537109 0.5

# verts
v -2 0 8
v -2 0 -8
v -2 1 7
v -2 1 -7
v -2 15 7
v -2 15 -7
v -2 16 8
v -2 16 -8
v -1 1 1
v -1 1 -1
v -1 7 7
v -1 7 1
v -1 7 -1
v -1 7 -7
v -1 9 7
v -1 9 1
v -1 9 -1
v -1 9 -7
v -1 15 1
v -1 15 -1
v 1 1 1
v 1 1 -1
v 1 7 7
v 1 7 1
v 1 7 -1
v 1 7 -7
v 1 9 7
v 1 9 1
v 1 9 -1
v 1 9 -7
v 1 15 1
v 1 15 -1
v 2 0 8
v 2 0 -8
v 2 1 7
v 2 1 -7
v 2 15 7
v 2 15 -7
v 2 16 8
v 2 16 -8
v -2 0 8
v -2 16 8
v 2 0 8
v 2 16 8
v -1 1 1
v -1 7 1
v -1 9 1
v -1 15 1
v 1 1 1
v 1 7 1
v 1 9 1
v 1 15 1
v -2 1 -7
v -2 15 -7
v -1 7 -7
v -1 9 -7
v 1 7 -7
v 1 9 -7
v 2 1 -7
v 2 15 -7
v -2 1 7
v -2 15 7
v -1 7 7
v -1 9 7
v 1 7 7
v 1 9 7
v 2 1 7
v 2 15 7
v -1 1 -1
v -1 7 -1
v -1 9 -1
v -1 15 -1
v 1 1 -1
v 1 7 -1
v 1 9 -1
v 1 15 -1
v -2 0 -8
v -2 16 -8
v 2 0 -8
v 2 16 -8
v -2 0 8
v 2 0 8
v -2 0 -8
v 2 0 -8
v -1 7 7
v 1 7 7
v -1 7 1
v 1 7 1
v -1 7 -1
v 1 7 -1
v -1 7 -7
v 1 7 -7
v -2 15 7
v 2 15 7
v -1 15 1
v 1 15 1
v -1 15 -1
v 1 15 -1
v -2 15 -7
v 2 15 -7
v -2 1 7
v 2 1 7
v -1 1 1
v 1 1 1
v -1 1 -1
v 1 1 -1
v -2 1 -7
v 2 1 -7
v -1 9 7
v 1 9 7
v -1 9 1
v 1 9 1
v -1 9 -1
v 1 9 -1
v -1 9 -7
v 1 9 -7
v -2 16 8
v 2 16 8
v -2 16 -8
v 2 16 -8

# faces
f 3/2/1 2/2/1 1/2/1
f 4/2/1 2/2/1 3/2/1
f 5/2/1 3/2/1 1/2/1
f 6/2/1 2/2/1 4/2/1
f 7/2/1 5/2/1 1/2/1
f 7/2/1 6/2/1 5/2/1
f 8/2/1 2/2/1 6/2/1
f 8/2/1 6/2/1 7/2/1
f 12/1/1 10/1/1 9/1/1
f 13/1/1 10/1/1 12/1/1
f 15/1/1 12/1/1 11/1/1
f 15/1/1 14/1/1 13/1/1
f 15/1/1 13/1/1 12/1/1
f 16/1/1 14/1/1 15/1/1
f 17/1/1 14/1/1 16/1/1
f 18/1/1 14/1/1 17/1/1
f 19/1/1 17/1/1 16/1/1
f 20/1/1 17/1/1 19/1/1
f 21/1/2 22/1/2 24/1/2
f 24/1/2 22/1/2 25/1/2
f 23/1/2 24/1/2 27/1/2
f 25/1/2 26/1/2 27/1/2
f 24/1/2 25/1/2 27/1/2
f 27/1/2 26/1/2 28/1/2
f 28/1/2 26/1/2 29/1/2
f 29/1/2 26/1/2 30/1/2
f 28/1/2 29/1/2 31/1/2
f 31/1/2 29/1/2 32/1/2
f 33/2/2 34/2/2 35/2/2
f 35/2/2 34/2/2 36/2/2
f 33/2/2 35/2/2 37/2/2
f 36/2/2 34/2/2 38/2/2
f 33/2/2 37/2/2 39/2/2
f 37/2/2 38/2/2 39/2/2
f 38/2/2 34/2/2 40/2/2
f 39/2/2 38/2/2 40/2/2
f 43/2/3 42/2/3 41/2/3
f 44/2/3 42/2/3 43/2/3
f 49/1/3 46/1/3 45/1/3
f 50/1/3 46/1/3 49/1/3
f 51/1/3 48/1/3 47/1/3
f 52/1/3 48/1/3 51/1/3
f 55/2/3 54/2/3 53/2/3
f 56/2/3 54/2/3 55/2/3
f 57/2/3 55/2/3 53/2/3
f 58/2/3 54/2/3 56/2/3
f 59/2/3 57/2/3 53/2/3
f 59/2/3 58/2/3 57/2/3
f 60/2/3 54/2/3 58/2/3
f 60/2/3 58/2/3 59/2/3
f 61/2/4 62/2/4 63/2/4
f 63/2/4 62/2/4 64/2/4
f 61/2/4 63/2/4 65/2/4
f 64/2/4 62/2/4 66/2/4
f 61/2/4 65/2/4 67/2/4
f 65/2/4 66/2/4 67/2/4
f 66/2/4 62/2/4 68/2/4
f 67/2/4 66/2/4 68/2/4
f 69/1/4 70/1/4 73/1/4
f 73/1/4 70/1/4 74/1/4
f 71/1/4 72/1/4 75/1/4
f 75/1/4 72/1/4 76/1/4
f 77/2/4 78/2/4 79/2/4
f 79/2/4 78/2/4 80/2/4
f 83/2/5 82/2/5 81/2/5
f 84/2/5 82/2/5 83/2/5
f 87/1/5 86/1/5 85/1/5
f 88/1/5 86/1/5 87/1/5
f 91/1/5 90/1/5 89/1/5
f 92/1/5 90/1/5 91/1/5
f 95/2/5 94/2/5 93/2/5
f 96/2/5 94/2/5 95/2/5
f 97/2/5 95/2/5 93/2/5
f 98/2/5 94/2/5 96/2/5
f 99/2/5 97/2/5 93/2/5
f 99/2/5 98/2/5 97/2/5
f 100/2/5 94/2/5 98/2/5
f 100/2/5 98/2/5 99/2/5
f 101/2/6 102/2/6 103/2/6
f 103/2/6 102/2/6 104/2/6
f 101/2/6 103/2/6 105/2/6
f 104/2/6 102/2/6 106/2/6
f 101/2/6 105/2/6 107/2/6
f 105/2/6 106/2/6 107/2/6
f 106/2/6 102/2/6 108/2/6
f 107/2/6 106/2/6 108/2/6
f 109/1/6 110/1/6 111/1/6
f 111/1/6 110/1/6 112/1/6
f 113/1/6 114/1/6 115/1/6
f 115/1/6 114/1/6 116/1/6
f 117/2/6 118/2/6 119/2/6
f 119/2/6 118/2/6 120/2/6
