# MagicaVoxel @ Ephtracy

# material
mtllib winter fox.mtl
usemtl palette

# normals
vn -1 0 0
vn 1 0 0
vn 0 0 1
vn 0 0 -1
vn 0 -1 0
vn 0 1 0

# texcoords
vt 0.587891 0.5
vt 0.958984 0.5
vt 0.962891 0.5
vt 0.966797 0.5
vt 0.982422 0.5

# verts
v -7 4 1
v -7 4 -1
v -7 6 1
v -7 6 -1
v -7 8 1
v -7 8 -1
v -6 2 1
v -6 2 -1
v -6 4 1
v -6 4 -1
v -5 1 1
v -5 1 -1
v -5 2 1
v -5 2 -1
v -3 0 3
v -3 0 1
v -3 0 -1
v -3 0 -3
v -3 1 3
v -3 1 1
v -3 1 -1
v -3 1 -3
v -3 3 1
v -3 3 -1
v -3 6 3
v -3 6 2
v -3 6 -2
v -3 6 -3
v -3 7 2
v -3 7 -2
v -2 6 3
v -2 6 2
v -2 6 -2
v -2 6 -3
v -2 7 3
v -2 7 2
v -2 7 -2
v -2 7 -3
v 2 0 3
v 2 0 1
v 2 0 -1
v 2 0 -3
v 2 1 3
v 2 1 1
v 2 1 -1
v 2 1 -3
v 2 6 4
v 2 6 3
v 2 6 -3
v 2 6 -4
v 2 7 3
v 2 7 2
v 2 7 -2
v 2 7 -3
v 2 8 3
v 2 8 2
v 2 8 -2
v 2 8 -3
v 2 9 4
v 2 9 3
v 2 9 -3
v 2 9 -4
v -5 5 1
v -5 5 -1
v -5 7 1
v -5 7 -1
v -5 8 1
v -5 8 -1
v -4 3 1
v -4 3 -1
v -4 5 1
v -4 5 -1
v -1 0 3
v -1 0 1
v -1 0 -1
v -1 0 -3
v -1 1 3
v -1 1 1
v -1 1 -1
v -1 1 -3
v 3 6 4
v 3 6 3
v 3 6 -3
v 3 6 -4
v 3 7 3
v 3 7 2
v 3 7 -2
v 3 7 -3
v 3 8 3
v 3 8 2
v 3 8 -2
v 3 8 -3
v 3 9 4
v 3 9 3
v 3 9 -3
v 3 9 -4
v 4 0 3
v 4 0 1
v 4 0 -1
v 4 0 -3
v 4 1 3
v 4 1 1
v 4 1 -1
v 4 1 -3
v 4 2 2
v 4 2 -2
v 4 3 3
v 4 3 2
v 4 3 -2
v 4 3 -3
v 4 4 3
v 4 4 2
v 4 4 1
v 4 4 -1
v 4 4 -2
v 4 4 -3
v 4 5 3
v 4 5 2
v 4 5 -2
v 4 5 -3
v 4 7 3
v 4 7 -3
v 5 2 2
v 5 2 -2
v 5 3 1
v 5 3 -1
v 5 4 3
v 5 4 2
v 5 4 1
v 5 4 -1
v 5 4 -2
v 5 4 -3
v 5 5 3
v 5 5 2
v 5 5 -2
v 5 5 -3
v 2 6 4
v 2 9 4
v 3 6 4
v 3 9 4
v -3 0 3
v -3 1 3
v -3 6 3
v -2 6 3
v -2 7 3
v -1 0 3
v -1 1 3
v 1 1 3
v 1 2 3
v 2 0 3
v 2 1 3
v 2 2 3
v 2 3 3
v 2 6 3
v 2 7 3
v 3 6 3
v 3 7 3
v 4 0 3
v 4 1 3
v 4 3 3
v 4 4 3
v 4 5 3
v 4 7 3
v 5 4 3
v 5 5 3
v -3 6 2
v -3 7 2
v -2 6 2
v -2 7 2
v 4 2 2
v 4 3 2
v 4 4 2
v 5 2 2
v 5 4 2
v -7 4 1
v -7 6 1
v -7 8 1
v -6 2 1
v -6 4 1
v -6 6 1
v -6 7 1
v -5 1 1
v -5 2 1
v -5 5 1
v -5 7 1
v -5 8 1
v -4 3 1
v -4 5 1
v -3 1 1
v -3 3 1
v -3 0 -1
v -3 1 -1
v -1 0 -1
v -1 1 -1
v 2 0 -1
v 2 1 -1
v 4 0 -1
v 4 1 -1
v 2 7 -2
v 2 8 -2
v 3 7 -2
v 3 8 -2
v 4 4 -2
v 4 5 -2
v 5 4 -2
v 5 5 -2
v 2 8 -3
v 2 9 -3
v 3 8 -3
v 3 9 -3
v 2 8 3
v 2 9 3
v 3 8 3
v 3 9 3
v 2 7 2
v 2 8 2
v 3 7 2
v 3 8 2
v 4 4 2
v 4 5 2
v 5 4 2
v 5 5 2
v -3 0 1
v -3 1 1
v -1 0 1
v -1 1 1
v 2 0 1
v 2 1 1
v 4 0 1
v 4 1 1
v -7 4 -1
v -7 6 -1
v -7 8 -1
v -6 2 -1
v -6 4 -1
v -6 6 -1
v -6 7 -1
v -5 1 -1
v -5 2 -1
v -5 5 -1
v -5 7 -1
v -5 8 -1
v -4 3 -1
v -4 5 -1
v -3 1 -1
v -3 3 -1
v -3 6 -2
v -3 7 -2
v -2 6 -2
v -2 7 -2
v 4 2 -2
v 4 3 -2
v 4 4 -2
v 5 2 -2
v 5 4 -2
v -3 0 -3
v -3 1 -3
v -3 6 -3
v -2 6 -3
v -2 7 -3
v -1 0 -3
v -1 1 -3
v 1 1 -3
v 1 2 -3
v 2 0 -3
v 2 1 -3
v 2 2 -3
v 2 3 -3
v 2 6 -3
v 2 7 -3
v 3 6 -3
v 3 7 -3
v 4 0 -3
v 4 1 -3
v 4 3 -3
v 4 4 -3
v 4 5 -3
v 4 7 -3
v 5 4 -3
v 5 5 -3
v 2 6 -4
v 2 9 -4
v 3 6 -4
v 3 9 -4
v -3 0 3
v -1 0 3
v 2 0 3
v 4 0 3
v -3 0 1
v -1 0 1
v 2 0 1
v 4 0 1
v -3 0 -1
v -1 0 -1
v 2 0 -1
v 4 0 -1
v -3 0 -3
v -1 0 -3
v 2 0 -3
v 4 0 -3
v -1 1 3
v 1 1 3
v 2 1 3
v 0 1 2
v 1 1 2
v -5 1 1
v -3 1 1
v -1 1 1
v 0 1 1
v 2 1 1
v 4 1 1
v -5 1 -1
v -3 1 -1
v -1 1 -1
v 0 1 -1
v 2 1 -1
v 4 1 -1
v 0 1 -2
v 1 1 -2
v -1 1 -3
v 1 1 -3
v 2 1 -3
v 4 2 2
v 5 2 2
v -6 2 1
v -5 2 1
v -6 2 -1
v -5 2 -1
v 4 2 -2
v 5 2 -2
v 4 4 3
v 5 4 3
v 4 4 2
v 5 4 2
v -7 4 1
v -6 4 1
v -7 4 -1
v -6 4 -1
v 4 4 -2
v 5 4 -2
v 4 4 -3
v 5 4 -3
v 2 6 4
v 3 6 4
v 2 6 3
v 3 6 3
v 2 6 -3
v 3 6 -3
v 2 6 -4
v 3 6 -4
v -4 3 1
v -3 3 1
v -4 3 -1
v -3 3 -1
v 4 4 2
v 5 4 2
v 4 4 1
v 5 4 1
v 4 4 -1
v 5 4 -1
v 4 4 -2
v 5 4 -2
v 4 5 3
v 5 5 3
v 4 5 2
v 5 5 2
v -5 5 1
v -4 5 1
v -5 5 -1
v -4 5 -1
v 4 5 -2
v 5 5 -2
v 4 5 -3
v 5 5 -3
v -3 6 3
v -2 6 3
v -3 6 2
v -2 6 2
v -3 6 -2
v -2 6 -2
v -3 6 -3
v -2 6 -3
v -2 7 3
v 2 7 3
v 3 7 3
v 4 7 3
v -3 7 2
v -2 7 2
v 2 7 2
v 3 7 2
v -3 7 -2
v -2 7 -2
v 2 7 -2
v 3 7 -2
v -2 7 -3
v 2 7 -3
v 3 7 -3
v 4 7 -3
v 2 8 3
v 3 8 3
v 2 8 2
v 3 8 2
v -7 8 1
v -5 8 1
v -7 8 -1
v -5 8 -1
v 2 8 -2
v 3 8 -2
v 2 8 -3
v 3 8 -3
v 2 9 4
v 3 9 4
v 2 9 3
v 3 9 3
v 2 9 -3
v 3 9 -3
v 2 9 -4
v 3 9 -4

# faces
f 3/2/1 2/2/1 1/2/1
f 4/2/1 2/2/1 3/2/1
f 5/3/1 4/3/1 3/3/1
f 6/3/1 4/3/1 5/3/1
f 9/2/1 8/2/1 7/2/1
f 10/2/1 8/2/1 9/2/1
f 13/2/1 12/2/1 11/2/1
f 14/2/1 12/2/1 13/2/1
f 19/4/1 16/4/1 15/4/1
f 20/4/1 16/4/1 19/4/1
f 21/4/1 18/4/1 17/4/1
f 22/4/1 18/4/1 21/4/1
f 23/2/1 20/2/1 19/2/1
f 24/2/1 22/2/1 21/2/1
f 25/2/1 23/2/1 19/2/1
f 25/2/1 24/2/1 23/2/1
f 26/2/1 24/2/1 25/2/1
f 27/2/1 22/2/1 24/2/1
f 27/2/1 24/2/1 26/2/1
f 28/2/1 22/2/1 27/2/1
f 29/2/1 27/2/1 26/2/1
f 30/2/1 27/2/1 29/2/1
f 35/2/1 32/2/1 31/2/1
f 36/2/1 32/2/1 35/2/1
f 37/2/1 34/2/1 33/2/1
f 38/2/1 34/2/1 37/2/1
f 43/4/1 40/4/1 39/4/1
f 44/4/1 40/4/1 43/4/1
f 45/4/1 42/4/1 41/4/1
f 46/4/1 42/4/1 45/4/1
f 51/2/1 48/2/1 47/2/1
f 54/2/1 50/2/1 49/2/1
f 55/2/1 52/2/1 51/2/1
f 55/2/1 51/2/1 47/2/1
f 56/2/1 52/2/1 55/2/1
f 57/2/1 54/2/1 53/2/1
f 58/2/1 50/2/1 54/2/1
f 58/2/1 54/2/1 57/2/1
f 59/2/1 55/2/1 47/2/1
f 60/2/1 55/2/1 59/2/1
f 61/2/1 50/2/1 58/2/1
f 62/2/1 50/2/1 61/2/1
f 63/2/2 64/2/2 65/2/2
f 65/2/2 64/2/2 66/2/2
f 65/3/2 66/3/2 67/3/2
f 67/3/2 66/3/2 68/3/2
f 69/2/2 70/2/2 71/2/2
f 71/2/2 70/2/2 72/2/2
f 73/4/2 74/4/2 77/4/2
f 77/4/2 74/4/2 78/4/2
f 75/4/2 76/4/2 79/4/2
f 79/4/2 76/4/2 80/4/2
f 81/2/2 82/2/2 85/2/2
f 83/2/2 84/2/2 88/2/2
f 85/2/2 86/2/2 89/2/2
f 81/2/2 85/2/2 89/2/2
f 89/2/2 86/2/2 90/2/2
f 87/2/2 88/2/2 91/2/2
f 88/2/2 84/2/2 92/2/2
f 91/2/2 88/2/2 92/2/2
f 81/2/2 89/2/2 93/2/2
f 93/2/2 89/2/2 94/2/2
f 92/2/2 84/2/2 95/2/2
f 95/2/2 84/2/2 96/2/2
f 97/4/2 98/4/2 101/4/2
f 101/4/2 98/4/2 102/4/2
f 99/4/2 100/4/2 103/4/2
f 103/4/2 100/4/2 104/4/2
f 101/3/2 102/3/2 105/3/2
f 102/3/2 103/3/2 105/3/2
f 103/3/2 104/3/2 105/3/2
f 105/3/2 104/3/2 106/3/2
f 101/3/2 105/3/2 107/3/2
f 107/3/2 105/3/2 108/3/2
f 106/3/2 104/3/2 109/3/2
f 109/3/2 104/3/2 110/3/2
f 107/2/2 108/2/2 111/2/2
f 111/2/2 108/2/2 112/2/2
f 109/2/2 110/2/2 115/2/2
f 115/2/2 110/2/2 116/2/2
f 113/2/2 114/2/2 118/2/2
f 114/2/2 115/2/2 118/2/2
f 112/2/2 113/2/2 118/2/2
f 118/2/2 115/2/2 119/2/2
f 117/2/2 118/2/2 121/2/2
f 119/2/2 120/2/2 121/2/2
f 118/2/2 119/2/2 121/2/2
f 121/2/2 120/2/2 122/2/2
f 123/3/2 124/3/2 125/3/2
f 125/3/2 124/3/2 126/3/2
f 123/3/2 125/3/2 128/3/2
f 125/5/2 126/5/2 129/5/2
f 128/3/2 125/3/2 129/3/2
f 126/3/2 124/3/2 130/3/2
f 129/5/2 126/5/2 130/5/2
f 130/3/2 124/3/2 131/3/2
f 127/1/2 128/1/2 133/1/2
f 133/1/2 128/1/2 134/1/2
f 131/1/2 132/1/2 135/1/2
f 135/1/2 132/1/2 136/1/2
f 139/2/3 138/2/3 137/2/3
f 140/2/3 138/2/3 139/2/3
f 144/2/3 143/2/3 142/2/3
f 146/4/3 142/4/3 141/4/3
f 147/2/3 145/2/3 144/2/3
f 147/4/3 142/4/3 146/4/3
f 147/2/3 144/2/3 142/2/3
f 148/2/3 145/2/3 147/2/3
f 149/2/3 145/2/3 148/2/3
f 151/3/3 149/3/3 148/3/3
f 152/2/3 145/2/3 149/2/3
f 152/3/3 149/3/3 151/3/3
f 153/2/3 145/2/3 152/2/3
f 154/2/3 145/2/3 153/2/3
f 155/2/3 145/2/3 154/2/3
f 156/2/3 154/2/3 153/2/3
f 158/4/3 151/4/3 150/4/3
f 159/3/3 152/3/3 151/3/3
f 159/4/3 151/4/3 158/4/3
f 159/3/3 153/3/3 152/3/3
f 160/2/3 157/2/3 156/2/3
f 160/3/3 153/3/3 159/3/3
f 160/2/3 156/2/3 153/2/3
f 161/2/3 157/2/3 160/2/3
f 162/2/3 157/2/3 161/2/3
f 163/2/3 157/2/3 162/2/3
f 164/1/3 162/1/3 161/1/3
f 165/1/3 162/1/3 164/1/3
f 168/2/3 167/2/3 166/2/3
f 169/2/3 167/2/3 168/2/3
f 173/3/3 171/3/3 170/3/3
f 173/3/3 172/3/3 171/3/3
f 174/3/3 172/3/3 173/3/3
f 179/2/3 176/2/3 175/2/3
f 180/3/3 177/3/3 176/3/3
f 180/2/3 176/2/3 179/2/3
f 181/3/3 177/3/3 180/3/3
f 183/2/3 179/2/3 178/2/3
f 183/2/3 180/2/3 179/2/3
f 183/2/3 181/2/3 180/2/3
f 184/2/3 181/2/3 183/2/3
f 185/3/3 177/3/3 181/3/3
f 185/2/3 181/2/3 184/2/3
f 186/3/3 177/3/3 185/3/3
f 187/2/3 184/2/3 183/2/3
f 187/2/3 183/2/3 182/2/3
f 188/2/3 184/2/3 187/2/3
f 189/2/3 187/2/3 182/2/3
f 190/2/3 187/2/3 189/2/3
f 193/4/3 192/4/3 191/4/3
f 194/4/3 192/4/3 193/4/3
f 197/4/3 196/4/3 195/4/3
f 198/4/3 196/4/3 197/4/3
f 201/2/3 200/2/3 199/2/3
f 202/2/3 200/2/3 201/2/3
f 205/1/3 204/1/3 203/1/3
f 206/1/3 204/1/3 205/1/3
f 209/2/3 208/2/3 207/2/3
f 210/2/3 208/2/3 209/2/3
f 211/2/4 212/2/4 213/2/4
f 213/2/4 212/2/4 214/2/4
f 215/2/4 216/2/4 217/2/4
f 217/2/4 216/2/4 218/2/4
f 219/1/4 220/1/4 221/1/4
f 221/1/4 220/1/4 222/1/4
f 223/4/4 224/4/4 225/4/4
f 225/4/4 224/4/4 226/4/4
f 227/4/4 228/4/4 229/4/4
f 229/4/4 228/4/4 230/4/4
f 231/2/4 232/2/4 235/2/4
f 232/3/4 233/3/4 236/3/4
f 235/2/4 232/2/4 236/2/4
f 236/3/4 233/3/4 237/3/4
f 234/2/4 235/2/4 239/2/4
f 235/2/4 236/2/4 239/2/4
f 236/2/4 237/2/4 239/2/4
f 239/2/4 237/2/4 240/2/4
f 237/3/4 233/3/4 241/3/4
f 240/2/4 237/2/4 241/2/4
f 241/3/4 233/3/4 242/3/4
f 239/2/4 240/2/4 243/2/4
f 238/2/4 239/2/4 243/2/4
f 243/2/4 240/2/4 244/2/4
f 238/2/4 243/2/4 245/2/4
f 245/2/4 243/2/4 246/2/4
f 247/2/4 248/2/4 249/2/4
f 249/2/4 248/2/4 250/2/4
f 251/3/4 252/3/4 254/3/4
f 252/3/4 253/3/4 254/3/4
f 254/3/4 253/3/4 255/3/4
f 257/2/4 258/2/4 259/2/4
f 256/4/4 257/4/4 261/4/4
f 259/2/4 260/2/4 262/2/4
f 261/4/4 257/4/4 262/4/4
f 257/2/4 259/2/4 262/2/4
f 262/2/4 260/2/4 263/2/4
f 263/2/4 260/2/4 264/2/4
f 263/3/4 264/3/4 266/3/4
f 264/2/4 260/2/4 267/2/4
f 266/3/4 264/3/4 267/3/4
f 267/2/4 260/2/4 268/2/4
f 268/2/4 260/2/4 269/2/4
f 269/2/4 260/2/4 270/2/4
f 268/2/4 269/2/4 271/2/4
f 265/4/4 266/4/4 273/4/4
f 266/3/4 267/3/4 274/3/4
f 273/4/4 266/4/4 274/4/4
f 267/3/4 268/3/4 274/3/4
f 271/2/4 272/2/4 275/2/4
f 274/3/4 268/3/4 275/3/4
f 268/2/4 271/2/4 275/2/4
f 275/2/4 272/2/4 276/2/4
f 276/2/4 272/2/4 277/2/4
f 277/2/4 272/2/4 278/2/4
f 276/1/4 277/1/4 279/1/4
f 279/1/4 277/1/4 280/1/4
f 281/2/4 282/2/4 283/2/4
f 283/2/4 282/2/4 284/2/4
f 289/4/5 286/4/5 285/4/5
f 290/4/5 286/4/5 289/4/5
f 291/4/5 288/4/5 287/4/5
f 292/4/5 288/4/5 291/4/5
f 297/4/5 294/4/5 293/4/5
f 298/4/5 294/4/5 297/4/5
f 299/4/5 296/4/5 295/4/5
f 300/4/5 296/4/5 299/4/5
f 304/2/5 302/2/5 301/2/5
f 305/3/5 303/3/5 302/3/5
f 305/2/5 302/2/5 304/2/5
f 308/2/5 304/2/5 301/2/5
f 309/3/5 305/3/5 304/3/5
f 309/2/5 304/2/5 308/2/5
f 310/3/5 303/3/5 305/3/5
f 310/3/5 305/3/5 309/3/5
f 312/2/5 307/2/5 306/2/5
f 313/3/5 311/3/5 310/3/5
f 313/2/5 307/2/5 312/2/5
f 313/3/5 308/3/5 307/3/5
f 313/3/5 310/3/5 309/3/5
f 313/3/5 309/3/5 308/3/5
f 314/3/5 311/3/5 313/3/5
f 315/3/5 311/3/5 314/3/5
f 316/3/5 311/3/5 315/3/5
f 317/3/5 311/3/5 316/3/5
f 318/3/5 316/3/5 315/3/5
f 318/2/5 315/2/5 314/2/5
f 319/3/5 316/3/5 318/3/5
f 320/2/5 318/2/5 314/2/5
f 320/2/5 319/2/5 318/2/5
f 321/3/5 316/3/5 319/3/5
f 321/2/5 319/2/5 320/2/5
f 322/3/5 316/3/5 321/3/5
f 327/2/5 326/2/5 325/2/5
f 328/2/5 326/2/5 327/2/5
f 329/3/5 324/3/5 323/3/5
f 330/3/5 324/3/5 329/3/5
f 333/1/5 332/1/5 331/1/5
f 334/1/5 332/1/5 333/1/5
f 337/2/5 336/2/5 335/2/5
f 338/2/5 336/2/5 337/2/5
f 341/1/5 340/1/5 339/1/5
f 342/1/5 340/1/5 341/1/5
f 345/2/5 344/2/5 343/2/5
f 346/2/5 344/2/5 345/2/5
f 349/2/5 348/2/5 347/2/5
f 350/2/5 348/2/5 349/2/5
f 351/2/6 352/2/6 353/2/6
f 353/2/6 352/2/6 354/2/6
f 355/3/6 356/3/6 357/3/6
f 357/3/6 356/3/6 358/3/6
f 357/5/6 358/5/6 359/5/6
f 359/5/6 358/5/6 360/5/6
f 359/3/6 360/3/6 361/3/6
f 361/3/6 360/3/6 362/3/6
f 363/1/6 364/1/6 365/1/6
f 365/1/6 364/1/6 366/1/6
f 367/2/6 368/2/6 369/2/6
f 369/2/6 368/2/6 370/2/6
f 371/1/6 372/1/6 373/1/6
f 373/1/6 372/1/6 374/1/6
f 375/2/6 376/2/6 377/2/6
f 377/2/6 376/2/6 378/2/6
f 379/2/6 380/2/6 381/2/6
f 381/2/6 380/2/6 382/2/6
f 383/2/6 384/2/6 388/2/6
f 388/2/6 384/2/6 389/2/6
f 385/2/6 386/2/6 390/2/6
f 388/2/6 389/2/6 391/2/6
f 389/2/6 390/2/6 391/2/6
f 387/2/6 388/2/6 391/2/6
f 391/2/6 390/2/6 392/2/6
f 392/2/6 390/2/6 393/2/6
f 390/2/6 386/2/6 394/2/6
f 393/2/6 390/2/6 394/2/6
f 392/2/6 393/2/6 395/2/6
f 395/2/6 393/2/6 396/2/6
f 394/2/6 386/2/6 397/2/6
f 397/2/6 386/2/6 398/2/6
f 399/2/6 400/2/6 401/2/6
f 401/2/6 400/2/6 402/2/6
f 403/3/6 404/3/6 405/3/6
f 405/3/6 404/3/6 406/3/6
f 407/2/6 408/2/6 409/2/6
f 409/2/6 408/2/6 410/2/6
f 411/2/6 412/2/6 413/2/6
f 413/2/6 412/2/6 414/2/6
f 415/2/6 416/2/6 417/2/6
f 417/2/6 416/2/6 418/2/6
