# MagicaVoxel @ Ephtracy

# material
mtllib beaver.mtl
usemtl palette

# normals
vn -1 0 0
vn 1 0 0
vn 0 0 1
vn 0 0 -1
vn 0 -1 0
vn 0 1 0

# texcoords
vt 0.0644531 0.5
vt 0.365234 0.5
vt 0.537109 0.5
vt 0.541016 0.5
vt 0.958984 0.5
vt 0.994141 0.5

# verts
v -8 2 1
v -8 2 -1
v -8 3 1
v -8 3 -1
v -7 2 2
v -7 2 1
v -7 2 -1
v -7 2 -2
v -7 3 2
v -7 3 1
v -7 3 -1
v -7 3 -2
v -3 0 3
v -3 0 1
v -3 0 -1
v -3 0 -3
v -3 1 3
v -3 1 2
v -3 1 1
v -3 1 -1
v -3 1 -2
v -3 1 -3
v -3 2 1
v -3 2 -1
v -3 3 1
v -3 3 -1
v -3 6 3
v -3 6 2
v -3 6 -2
v -3 6 -3
v -3 7 2
v -3 7 -2
v -2 6 3
v -2 6 2
v -2 6 -2
v -2 6 -3
v -2 7 3
v -2 7 2
v -2 7 -2
v -2 7 -3
v 1 7 4
v 1 7 3
v 1 7 -3
v 1 7 -4
v 1 8 4
v 1 8 3
v 1 8 -3
v 1 8 -4
v 2 0 3
v 2 0 1
v 2 0 -1
v 2 0 -3
v 2 1 3
v 2 1 1
v 2 1 -1
v 2 1 -3
v 2 6 4
v 2 6 3
v 2 6 -3
v 2 6 -4
v 2 7 4
v 2 7 3
v 2 7 2
v 2 7 -2
v 2 7 -3
v 2 7 -4
v 2 8 3
v 2 8 2
v 2 8 -2
v 2 8 -3
v -4 2 2
v -4 2 1
v -4 2 -1
v -4 2 -2
v -4 3 2
v -4 3 1
v -4 3 -1
v -4 3 -2
v -1 0 3
v -1 0 1
v -1 0 -1
v -1 0 -3
v -1 1 3
v -1 1 2
v -1 1 1
v -1 1 -1
v -1 1 -3
v 2 7 4
v 2 7 3
v 2 7 -3
v 2 7 -4
v 2 8 4
v 2 8 3
v 2 8 -3
v 2 8 -4
v 3 6 4
v 3 6 3
v 3 6 2
v 3 6 -2
v 3 6 -3
v 3 6 -4
v 3 7 4
v 3 7 3
v 3 7 2
v 3 7 -2
v 3 7 -3
v 3 7 -4
v 3 8 3
v 3 8 2
v 3 8 -2
v 3 8 -3
v 4 0 3
v 4 0 1
v 4 0 -1
v 4 0 -3
v 4 1 3
v 4 1 1
v 4 1 -1
v 4 1 -3
v 4 2 1
v 4 2 -1
v 4 3 2
v 4 3 1
v 4 3 -1
v 4 3 -2
v 4 4 3
v 4 4 2
v 4 4 1
v 4 4 -1
v 4 4 -2
v 4 4 -3
v 4 5 3
v 4 5 2
v 4 5 1
v 4 5 -1
v 4 5 -2
v 4 5 -3
v 4 6 2
v 4 6 1
v 4 6 -1
v 4 6 -2
v 4 7 2
v 4 7 -2
v 5 2 1
v 5 2 -1
v 5 3 2
v 5 3 1
v 5 3 -1
v 5 3 -2
v 5 4 2
v 5 4 1
v 5 4 -1
v 5 4 -2
v 5 5 3
v 5 5 1
v 5 5 -1
v 5 5 -3
v 5 6 3
v 5 6 1
v 5 6 -1
v 5 6 -3
v 1 7 4
v 1 8 4
v 2 6 4
v 2 7 4
v 2 8 4
v 3 6 4
v 3 7 4
v -3 0 3
v -3 1 3
v -3 6 3
v -2 3 3
v -2 4 3
v -2 6 3
v -2 7 3
v -1 0 3
v -1 1 3
v -1 5 3
v -1 6 3
v 1 3 3
v 1 4 3
v 1 7 3
v 2 0 3
v 2 1 3
v 2 5 3
v 2 6 3
v 2 7 3
v 2 8 3
v 3 4 3
v 3 5 3
v 3 6 3
v 3 7 3
v 3 8 3
v 4 0 3
v 4 1 3
v 4 4 3
v 4 5 3
v 4 6 3
v 5 5 3
v 5 6 3
v -7 2 2
v -7 3 2
v -4 2 2
v -4 3 2
v -3 6 2
v -3 7 2
v -2 6 2
v -2 7 2
v 3 6 2
v 3 7 2
v 4 3 2
v 4 4 2
v 4 6 2
v 4 7 2
v 5 3 2
v 5 4 2
v -8 2 1
v -8 3 1
v -7 2 1
v -7 3 1
v -4 2 1
v -4 3 1
v -3 2 1
v -3 3 1
v 4 2 1
v 4 3 1
v 5 2 1
v 5 3 1
v -3 0 -1
v -3 1 -1
v -1 0 -1
v -1 1 -1
v 2 0 -1
v 2 1 -1
v 4 0 -1
v 4 1 -1
v 4 5 -1
v 4 6 -1
v 5 5 -1
v 5 6 -1
v 2 7 -2
v 2 8 -2
v 3 7 -2
v 3 8 -2
v 1 7 -3
v 1 8 -3
v 2 7 -3
v 2 8 -3
v 1 7 3
v 1 8 3
v 2 7 3
v 2 8 3
v 2 7 2
v 2 8 2
v 3 7 2
v 3 8 2
v -3 0 1
v -3 1 1
v -1 0 1
v -1 1 1
v 2 0 1
v 2 1 1
v 4 0 1
v 4 1 1
v 4 5 1
v 4 6 1
v 5 5 1
v 5 6 1
v -8 2 -1
v -8 3 -1
v -7 2 -1
v -7 3 -1
v -4 2 -1
v -4 3 -1
v -3 2 -1
v -3 3 -1
v 4 2 -1
v 4 3 -1
v 5 2 -1
v 5 3 -1
v -7 2 -2
v -7 3 -2
v -4 2 -2
v -4 3 -2
v -3 6 -2
v -3 7 -2
v -2 6 -2
v -2 7 -2
v 3 6 -2
v 3 7 -2
v 4 3 -2
v 4 4 -2
v 4 6 -2
v 4 7 -2
v 5 3 -2
v 5 4 -2
v -3 0 -3
v -3 1 -3
v -3 6 -3
v -2 3 -3
v -2 4 -3
v -2 6 -3
v -2 7 -3
v -1 0 -3
v -1 1 -3
v -1 5 -3
v -1 6 -3
v 1 3 -3
v 1 4 -3
v 1 7 -3
v 2 0 -3
v 2 1 -3
v 2 5 -3
v 2 6 -3
v 2 7 -3
v 2 8 -3
v 3 4 -3
v 3 5 -3
v 3 6 -3
v 3 7 -3
v 3 8 -3
v 4 0 -3
v 4 1 -3
v 4 4 -3
v 4 5 -3
v 4 6 -3
v 5 5 -3
v 5 6 -3
v 1 7 -4
v 1 8 -4
v 2 6 -4
v 2 7 -4
v 2 8 -4
v 3 6 -4
v 3 7 -4
v -3 0 3
v -1 0 3
v 2 0 3
v 4 0 3
v -3 0 1
v -1 0 1
v 2 0 1
v 4 0 1
v -3 0 -1
v -1 0 -1
v 2 0 -1
v 4 0 -1
v -3 0 -3
v -1 0 -3
v 2 0 -3
v 4 0 -3
v -1 1 3
v 2 1 3
v -1 1 2
v 0 1 2
v -3 1 1
v -1 1 1
v 0 1 1
v 1 1 1
v 2 1 1
v 4 1 1
v -3 1 -1
v -1 1 -1
v 1 1 -1
v 2 1 -1
v 4 1 -1
v -1 1 -3
v 2 1 -3
v -7 2 2
v -4 2 2
v -8 2 1
v -7 2 1
v -4 2 1
v -3 2 1
v 4 2 1
v 5 2 1
v -8 2 -1
v -7 2 -1
v -4 2 -1
v -3 2 -1
v 4 2 -1
v 5 2 -1
v -7 2 -2
v -4 2 -2
v 4 3 2
v 5 3 2
v 4 3 1
v 5 3 1
v 4 3 -1
v 5 3 -1
v 4 3 -2
v 5 3 -2
v 4 5 3
v 5 5 3
v 4 5 2
v 4 5 1
v 5 5 1
v 4 5 -1
v 5 5 -1
v 4 5 -2
v 4 5 -3
v 5 5 -3
v 2 6 4
v 3 6 4
v 2 6 3
v 3 6 3
v 2 6 -3
v 3 6 -3
v 2 6 -4
v 3 6 -4
v 1 7 4
v 2 7 4
v 1 7 3
v 2 7 3
v 1 7 -3
v 2 7 -3
v 1 7 -4
v 2 7 -4
v -7 3 2
v -4 3 2
v -8 3 1
v -7 3 1
v -4 3 1
v -3 3 1
v -8 3 -1
v -7 3 -1
v -4 3 -1
v -3 3 -1
v -7 3 -2
v -4 3 -2
v 4 4 2
v 5 4 2
v 4 4 1
v 5 4 1
v 4 4 -1
v 5 4 -1
v 4 4 -2
v 5 4 -2
v -3 6 3
v -2 6 3
v 3 6 3
v 4 6 3
v 5 6 3
v -3 6 2
v -2 6 2
v 3 6 2
v 4 6 2
v 4 6 1
v 5 6 1
v 4 6 -1
v 5 6 -1
v -3 6 -2
v -2 6 -2
v 3 6 -2
v 4 6 -2
v -3 6 -3
v -2 6 -3
v 3 6 -3
v 4 6 -3
v 5 6 -3
v 2 7 4
v 3 7 4
v -2 7 3
v 1 7 3
v 2 7 3
v 3 7 3
v -3 7 2
v -2 7 2
v 0 7 2
v 2 7 2
v 3 7 2
v 4 7 2
v 0 7 1
v 3 7 1
v 1 7 -0
v 3 7 -0
v -1 7 -1
v 1 7 -1
v -3 7 -2
v -2 7 -2
v -1 7 -2
v 2 7 -2
v 3 7 -2
v 4 7 -2
v -2 7 -3
v 1 7 -3
v 2 7 -3
v 3 7 -3
v 2 7 -4
v 3 7 -4
v 1 8 4
v 2 8 4
v 1 8 3
v 2 8 3
v 3 8 3
v 2 8 2
v 3 8 2
v 2 8 -2
v 3 8 -2
v 1 8 -3
v 2 8 -3
v 3 8 -3
v 1 8 -4
v 2 8 -4

# faces
f 3/2/1 2/2/1 1/2/1
f 4/2/1 2/2/1 3/2/1
f 9/2/1 6/2/1 5/2/1
f 10/2/1 6/2/1 9/2/1
f 11/2/1 8/2/1 7/2/1
f 12/2/1 8/2/1 11/2/1
f 17/1/1 14/1/1 13/1/1
f 18/1/1 14/1/1 17/1/1
f 19/1/1 14/1/1 18/1/1
f 20/1/1 16/1/1 15/1/1
f 21/1/1 16/1/1 20/1/1
f 22/1/1 16/1/1 21/1/1
f 23/4/1 19/4/1 18/4/1
f 23/4/1 20/4/1 19/4/1
f 23/4/1 21/4/1 20/4/1
f 24/4/1 21/4/1 23/4/1
f 25/4/1 23/4/1 18/4/1
f 26/4/1 21/4/1 24/4/1
f 27/3/1 18/3/1 17/3/1
f 28/4/1 26/4/1 25/4/1
f 28/3/1 18/3/1 27/3/1
f 28/4/1 25/4/1 18/4/1
f 29/3/1 22/3/1 21/3/1
f 29/4/1 26/4/1 28/4/1
f 29/4/1 21/4/1 26/4/1
f 30/3/1 22/3/1 29/3/1
f 31/4/1 29/4/1 28/4/1
f 32/4/1 29/4/1 31/4/1
f 37/3/1 34/3/1 33/3/1
f 38/3/1 34/3/1 37/3/1
f 39/3/1 36/3/1 35/3/1
f 40/3/1 36/3/1 39/3/1
f 45/4/1 42/4/1 41/4/1
f 46/4/1 42/4/1 45/4/1
f 47/4/1 44/4/1 43/4/1
f 48/4/1 44/4/1 47/4/1
f 53/1/1 50/1/1 49/1/1
f 54/1/1 50/1/1 53/1/1
f 55/1/1 52/1/1 51/1/1
f 56/1/1 52/1/1 55/1/1
f 61/4/1 58/4/1 57/4/1
f 62/4/1 58/4/1 61/4/1
f 65/4/1 60/4/1 59/4/1
f 66/4/1 60/4/1 65/4/1
f 67/4/1 63/4/1 62/4/1
f 68/4/1 63/4/1 67/4/1
f 69/4/1 65/4/1 64/4/1
f 70/4/1 65/4/1 69/4/1
f 71/2/2 72/2/2 75/2/2
f 75/2/2 72/2/2 76/2/2
f 73/2/2 74/2/2 77/2/2
f 77/2/2 74/2/2 78/2/2
f 79/1/2 80/1/2 83/1/2
f 83/1/2 80/1/2 84/1/2
f 84/1/2 80/1/2 85/1/2
f 81/1/2 82/1/2 86/1/2
f 86/1/2 82/1/2 87/1/2
f 88/4/2 89/4/2 92/4/2
f 92/4/2 89/4/2 93/4/2
f 90/4/2 91/4/2 94/4/2
f 94/4/2 91/4/2 95/4/2
f 96/4/2 97/4/2 102/4/2
f 97/3/2 98/3/2 103/3/2
f 102/4/2 97/4/2 103/4/2
f 103/3/2 98/3/2 104/3/2
f 99/3/2 100/3/2 105/3/2
f 100/4/2 101/4/2 106/4/2
f 105/3/2 100/3/2 106/3/2
f 106/4/2 101/4/2 107/4/2
f 103/4/2 104/4/2 108/4/2
f 108/4/2 104/4/2 109/4/2
f 105/4/2 106/4/2 110/4/2
f 110/4/2 106/4/2 111/4/2
f 112/1/2 113/1/2 116/1/2
f 116/1/2 113/1/2 117/1/2
f 114/1/2 115/1/2 118/1/2
f 118/1/2 115/1/2 119/1/2
f 116/3/2 117/3/2 120/3/2
f 117/3/2 118/3/2 120/3/2
f 118/3/2 119/3/2 120/3/2
f 120/3/2 119/3/2 121/3/2
f 116/3/2 120/3/2 122/3/2
f 122/3/2 120/3/2 123/3/2
f 121/3/2 119/3/2 124/3/2
f 124/3/2 119/3/2 125/3/2
f 116/3/2 122/3/2 126/3/2
f 126/3/2 122/3/2 127/3/2
f 125/3/2 119/3/2 130/3/2
f 130/3/2 119/3/2 131/3/2
f 126/5/2 127/5/2 132/5/2
f 127/6/2 128/6/2 133/6/2
f 132/5/2 127/5/2 133/5/2
f 128/3/2 129/3/2 134/3/2
f 133/6/2 128/6/2 134/6/2
f 129/6/2 130/6/2 135/6/2
f 134/3/2 129/3/2 135/3/2
f 130/5/2 131/5/2 136/5/2
f 135/6/2 130/6/2 136/6/2
f 136/5/2 131/5/2 137/5/2
f 134/3/2 135/3/2 139/3/2
f 139/3/2 135/3/2 140/3/2
f 138/3/2 139/3/2 142/3/2
f 140/3/2 141/3/2 142/3/2
f 139/3/2 140/3/2 142/3/2
f 142/3/2 141/3/2 143/3/2
f 144/5/2 145/5/2 147/5/2
f 147/5/2 145/5/2 148/5/2
f 146/3/2 147/3/2 150/3/2
f 147/6/2 148/6/2 151/6/2
f 150/3/2 147/3/2 151/3/2
f 148/3/2 149/3/2 152/3/2
f 151/6/2 148/6/2 152/6/2
f 152/3/2 149/3/2 153/3/2
f 154/4/2 155/4/2 158/4/2
f 158/4/2 155/4/2 159/4/2
f 156/4/2 157/4/2 160/4/2
f 160/4/2 157/4/2 161/4/2
f 165/4/3 163/4/3 162/4/3
f 166/4/3 163/4/3 165/4/3
f 167/4/3 165/4/3 164/4/3
f 168/4/3 165/4/3 167/4/3
f 172/3/3 171/3/3 170/3/3
f 173/3/3 171/3/3 172/3/3
f 174/3/3 171/3/3 173/3/3
f 176/1/3 170/1/3 169/1/3
f 177/3/3 172/3/3 170/3/3
f 177/1/3 170/1/3 176/1/3
f 178/3/3 175/3/3 174/3/3
f 178/3/3 174/3/3 173/3/3
f 179/3/3 175/3/3 178/3/3
f 180/3/3 172/3/3 177/3/3
f 180/4/3 173/4/3 172/4/3
f 181/3/3 178/3/3 173/3/3
f 181/4/3 173/4/3 180/4/3
f 182/3/3 175/3/3 179/3/3
f 184/3/3 180/3/3 177/3/3
f 184/3/3 181/3/3 180/3/3
f 185/3/3 178/3/3 181/3/3
f 185/4/3 179/4/3 178/4/3
f 185/3/3 181/3/3 184/3/3
f 186/3/3 182/3/3 179/3/3
f 186/4/3 179/4/3 185/4/3
f 187/3/3 182/3/3 186/3/3
f 189/3/3 185/3/3 184/3/3
f 189/3/3 186/3/3 185/3/3
f 190/3/3 186/3/3 189/3/3
f 191/3/3 186/3/3 190/3/3
f 192/4/3 188/4/3 187/4/3
f 193/4/3 188/4/3 192/4/3
f 194/1/3 184/1/3 183/1/3
f 195/3/3 189/3/3 184/3/3
f 195/1/3 184/1/3 194/1/3
f 196/5/3 190/5/3 189/5/3
f 196/3/3 189/3/3 195/3/3
f 197/3/3 191/3/3 190/3/3
f 197/5/3 190/5/3 196/5/3
f 198/3/3 191/3/3 197/3/3
f 199/4/3 198/4/3 197/4/3
f 200/4/3 198/4/3 199/4/3
f 203/2/3 202/2/3 201/2/3
f 204/2/3 202/2/3 203/2/3
f 207/4/3 206/4/3 205/4/3
f 208/4/3 206/4/3 207/4/3
f 213/3/3 210/3/3 209/3/3
f 214/3/3 210/3/3 213/3/3
f 215/3/3 212/3/3 211/3/3
f 216/3/3 212/3/3 215/3/3
f 219/2/3 218/2/3 217/2/3
f 220/2/3 218/2/3 219/2/3
f 223/2/3 222/2/3 221/2/3
f 224/2/3 222/2/3 223/2/3
f 227/5/3 226/5/3 225/5/3
f 228/5/3 226/5/3 227/5/3
f 231/1/3 230/1/3 229/1/3
f 232/1/3 230/1/3 231/1/3
f 235/1/3 234/1/3 233/1/3
f 236/1/3 234/1/3 235/1/3
f 239/4/3 238/4/3 237/4/3
f 240/4/3 238/4/3 239/4/3
f 243/4/3 242/4/3 241/4/3
f 244/4/3 242/4/3 243/4/3
f 247/4/3 246/4/3 245/4/3
f 248/4/3 246/4/3 247/4/3
f 249/4/4 250/4/4 251/4/4
f 251/4/4 250/4/4 252/4/4
f 253/4/4 254/4/4 255/4/4
f 255/4/4 254/4/4 256/4/4
f 257/1/4 258/1/4 259/1/4
f 259/1/4 258/1/4 260/1/4
f 261/1/4 262/1/4 263/1/4
f 263/1/4 262/1/4 264/1/4
f 265/4/4 266/4/4 267/4/4
f 267/4/4 266/4/4 268/4/4
f 269/2/4 270/2/4 271/2/4
f 271/2/4 270/2/4 272/2/4
f 273/2/4 274/2/4 275/2/4
f 275/2/4 274/2/4 276/2/4
f 277/5/4 278/5/4 279/5/4
f 279/5/4 278/5/4 280/5/4
f 281/2/4 282/2/4 283/2/4
f 283/2/4 282/2/4 284/2/4
f 285/4/4 286/4/4 287/4/4
f 287/4/4 286/4/4 288/4/4
f 289/3/4 290/3/4 293/3/4
f 293/3/4 290/3/4 294/3/4
f 291/3/4 292/3/4 295/3/4
f 295/3/4 292/3/4 296/3/4
f 298/3/4 299/3/4 300/3/4
f 300/3/4 299/3/4 301/3/4
f 301/3/4 299/3/4 302/3/4
f 297/1/4 298/1/4 304/1/4
f 298/3/4 300/3/4 305/3/4
f 304/1/4 298/1/4 305/1/4
f 302/3/4 303/3/4 306/3/4
f 301/3/4 302/3/4 306/3/4
f 306/3/4 303/3/4 307/3/4
f 305/3/4 300/3/4 308/3/4
f 300/4/4 301/4/4 308/4/4
f 301/3/4 306/3/4 309/3/4
f 308/4/4 301/4/4 309/4/4
f 307/3/4 303/3/4 310/3/4
f 305/3/4 308/3/4 312/3/4
f 308/3/4 309/3/4 312/3/4
f 309/3/4 306/3/4 313/3/4
f 306/4/4 307/4/4 313/4/4
f 312/3/4 309/3/4 313/3/4
f 307/3/4 310/3/4 314/3/4
f 313/4/4 307/4/4 314/4/4
f 314/3/4 310/3/4 315/3/4
f 312/3/4 313/3/4 317/3/4
f 313/3/4 314/3/4 317/3/4
f 317/3/4 314/3/4 318/3/4
f 318/3/4 314/3/4 319/3/4
f 315/4/4 316/4/4 320/4/4
f 320/4/4 316/4/4 321/4/4
f 311/1/4 312/1/4 322/1/4
f 312/3/4 317/3/4 323/3/4
f 322/1/4 312/1/4 323/1/4
f 317/5/4 318/5/4 324/5/4
f 323/3/4 317/3/4 324/3/4
f 318/3/4 319/3/4 325/3/4
f 324/5/4 318/5/4 325/5/4
f 325/3/4 319/3/4 326/3/4
f 325/4/4 326/4/4 327/4/4
f 327/4/4 326/4/4 328/4/4
f 329/4/4 330/4/4 332/4/4
f 332/4/4 330/4/4 333/4/4
f 331/4/4 332/4/4 334/4/4
f 334/4/4 332/4/4 335/4/4
f 340/1/5 337/1/5 336/1/5
f 341/1/5 337/1/5 340/1/5
f 342/1/5 339/1/5 338/1/5
f 343/1/5 339/1/5 342/1/5
f 348/1/5 345/1/5 344/1/5
f 349/1/5 345/1/5 348/1/5
f 350/1/5 347/1/5 346/1/5
f 351/1/5 347/1/5 350/1/5
f 354/3/5 353/3/5 352/3/5
f 355/3/5 353/3/5 354/3/5
f 357/4/5 355/4/5 354/4/5
f 358/3/5 353/3/5 355/3/5
f 358/4/5 355/4/5 357/4/5
f 359/3/5 353/3/5 358/3/5
f 360/3/5 353/3/5 359/3/5
f 362/4/5 357/4/5 356/4/5
f 362/4/5 358/4/5 357/4/5
f 362/4/5 359/4/5 358/4/5
f 363/4/5 359/4/5 362/4/5
f 364/3/5 361/3/5 360/3/5
f 364/4/5 359/4/5 363/4/5
f 364/3/5 360/3/5 359/3/5
f 365/3/5 361/3/5 364/3/5
f 366/3/5 361/3/5 365/3/5
f 367/3/5 364/3/5 363/3/5
f 367/3/5 365/3/5 364/3/5
f 368/3/5 365/3/5 367/3/5
f 372/2/5 370/2/5 369/2/5
f 373/2/5 370/2/5 372/2/5
f 377/2/5 372/2/5 371/2/5
f 377/2/5 373/2/5 372/2/5
f 377/2/5 374/2/5 373/2/5
f 378/2/5 374/2/5 377/2/5
f 379/2/5 374/2/5 378/2/5
f 380/2/5 374/2/5 379/2/5
f 381/5/5 376/5/5 375/5/5
f 382/5/5 376/5/5 381/5/5
f 383/2/5 379/2/5 378/2/5
f 384/2/5 379/2/5 383/2/5
f 387/3/5 386/3/5 385/3/5
f 388/3/5 386/3/5 387/3/5
f 391/3/5 390/3/5 389/3/5
f 392/3/5 390/3/5 391/3/5
f 395/4/5 394/4/5 393/4/5
f 396/4/5 394/4/5 395/4/5
f 397/4/5 394/4/5 396/4/5
f 400/4/5 399/4/5 398/4/5
f 401/4/5 399/4/5 400/4/5
f 402/4/5 399/4/5 401/4/5
f 405/4/5 404/4/5 403/4/5
f 406/4/5 404/4/5 405/4/5
f 409/4/5 408/4/5 407/4/5
f 410/4/5 408/4/5 409/4/5
f 413/4/5 412/4/5 411/4/5
f 414/4/5 412/4/5 413/4/5
f 417/4/5 416/4/5 415/4/5
f 418/4/5 416/4/5 417/4/5
f 419/2/6 420/2/6 422/2/6
f 422/2/6 420/2/6 423/2/6
f 421/2/6 422/2/6 425/2/6
f 423/2/6 424/2/6 425/2/6
f 422/2/6 423/2/6 425/2/6
f 425/2/6 424/2/6 426/2/6
f 426/2/6 424/2/6 427/2/6
f 427/2/6 424/2/6 428/2/6
f 426/2/6 427/2/6 429/2/6
f 429/2/6 427/2/6 430/2/6
f 431/3/6 432/3/6 433/3/6
f 433/3/6 432/3/6 434/3/6
f 433/6/6 434/6/6 435/6/6
f 435/6/6 434/6/6 436/6/6
f 435/3/6 436/3/6 437/3/6
f 437/3/6 436/3/6 438/3/6
f 439/3/6 440/3/6 444/3/6
f 444/3/6 440/3/6 445/3/6
f 441/3/6 442/3/6 446/3/6
f 442/4/6 443/4/6 447/4/6
f 446/3/6 442/3/6 447/3/6
f 447/4/6 443/4/6 448/4/6
f 448/4/6 443/4/6 449/4/6
f 450/4/6 451/4/6 455/4/6
f 452/3/6 453/3/6 456/3/6
f 456/3/6 453/3/6 457/3/6
f 454/3/6 455/3/6 458/3/6
f 455/4/6 451/4/6 459/4/6
f 458/3/6 455/3/6 459/3/6
f 459/4/6 451/4/6 460/4/6
f 461/4/6 462/4/6 465/4/6
f 465/4/6 462/4/6 466/4/6
f 463/3/6 464/3/6 468/3/6
f 464/3/6 465/3/6 468/3/6
f 468/3/6 465/3/6 469/3/6
f 469/3/6 465/3/6 470/3/6
f 470/3/6 471/3/6 473/3/6
f 471/3/6 472/3/6 473/3/6
f 469/3/6 470/3/6 473/3/6
f 468/4/6 469/4/6 473/4/6
f 467/4/6 468/4/6 473/4/6
f 473/3/6 472/3/6 474/3/6
f 473/4/6 474/4/6 475/4/6
f 474/3/6 472/3/6 476/3/6
f 475/4/6 474/4/6 476/4/6
f 467/4/6 473/4/6 477/4/6
f 473/4/6 475/4/6 477/4/6
f 475/3/6 476/3/6 478/3/6
f 477/4/6 475/4/6 478/4/6
f 467/4/6 477/4/6 479/4/6
f 479/4/6 477/4/6 480/4/6
f 477/3/6 478/3/6 481/3/6
f 480/4/6 477/4/6 481/4/6
f 478/3/6 476/3/6 482/3/6
f 481/3/6 478/3/6 482/3/6
f 476/3/6 472/3/6 483/3/6
f 482/3/6 476/3/6 483/3/6
f 483/3/6 472/3/6 484/3/6
f 481/3/6 482/3/6 485/3/6
f 480/3/6 481/3/6 485/3/6
f 485/3/6 482/3/6 486/3/6
f 486/3/6 482/3/6 487/3/6
f 487/4/6 488/4/6 489/4/6
f 489/4/6 488/4/6 490/4/6
f 491/4/6 492/4/6 493/4/6
f 493/4/6 492/4/6 494/4/6
f 494/4/6 495/4/6 496/4/6
f 496/4/6 495/4/6 497/4/6
f 498/4/6 499/4/6 501/4/6
f 501/4/6 499/4/6 502/4/6
f 500/4/6 501/4/6 503/4/6
f 503/4/6 501/4/6 504/4/6
