# MagicaVoxel @ Ephtracy

# material
mtllib bottom_z.mtl
usemtl palette

# normals
vn -1 0 0
vn 1 0 0
vn 0 0 1
vn 0 0 -1
vn 0 -1 0
vn 0 1 0

# texcoords
vt 0.541016 0.5
vt 0.876953 0.5

# verts
v -3 0 8
v -3 0 -8
v -3 1 7
v -3 1 -7
v -3 15 7
v -3 15 -7
v -3 16 8
v -3 16 -8
v -2 1 7
v -2 1 -7
v -2 2 6
v -2 2 -6
v -2 3 5
v -2 3 -5
v -2 13 5
v -2 13 -5
v -2 14 6
v -2 14 -6
v -2 15 7
v -2 15 -7
v -1 3 5
v -1 3 -5
v -1 4 4
v -1 4 -4
v -1 12 4
v -1 12 -4
v -1 13 5
v -1 13 -5
v 1 3 5
v 1 3 -5
v 1 4 4
v 1 4 -4
v 1 12 4
v 1 12 -4
v 1 13 5
v 1 13 -5
v 2 1 7
v 2 1 -7
v 2 2 6
v 2 2 -6
v 2 3 5
v 2 3 -5
v 2 13 5
v 2 13 -5
v 2 14 6
v 2 14 -6
v 2 15 7
v 2 15 -7
v 3 0 8
v 3 0 -8
v 3 1 7
v 3 1 -7
v 3 15 7
v 3 15 -7
v 3 16 8
v 3 16 -8
v -3 0 8
v -3 16 8
v 3 0 8
v 3 16 8
v -2 3 -5
v -2 13 -5
v -1 3 -5
v -1 13 -5
v 1 3 -5
v 1 13 -5
v 2 3 -5
v 2 13 -5
v -3 1 -7
v -3 15 -7
v -2 1 -7
v -2 15 -7
v 2 1 -7
v 2 15 -7
v 3 1 -7
v 3 15 -7
v -3 1 7
v -3 15 7
v -2 1 7
v -2 15 7
v 2 1 7
v 2 15 7
v 3 1 7
v 3 15 7
v -2 3 5
v -2 13 5
v -1 3 5
v -1 13 5
v 1 3 5
v 1 13 5
v 2 3 5
v 2 13 5
v -3 0 -8
v -3 16 -8
v 3 0 -8
v 3 16 -8
v -3 0 8
v 3 0 8
v -3 0 -8
v 3 0 -8
v -2 13 5
v -1 13 5
v 1 13 5
v 2 13 5
v -2 13 -5
v -1 13 -5
v 1 13 -5
v 2 13 -5
v -3 15 7
v -2 15 7
v 2 15 7
v 3 15 7
v -3 15 -7
v -2 15 -7
v 2 15 -7
v 3 15 -7
v -3 1 7
v -2 1 7
v 2 1 7
v 3 1 7
v -3 1 -7
v -2 1 -7
v 2 1 -7
v 3 1 -7
v -2 3 5
v -1 3 5
v 1 3 5
v 2 3 5
v -2 3 -5
v -1 3 -5
v 1 3 -5
v 2 3 -5
v -3 16 8
v 3 16 8
v -3 16 -8
v 3 16 -8

# faces
f 3/1/1 2/1/1 1/1/1
f 4/1/1 2/1/1 3/1/1
f 5/1/1 3/1/1 1/1/1
f 6/1/1 2/1/1 4/1/1
f 7/1/1 5/1/1 1/1/1
f 7/1/1 6/1/1 5/1/1
f 8/1/1 2/1/1 6/1/1
f 8/1/1 6/1/1 7/1/1
f 11/1/1 10/1/1 9/1/1
f 12/1/1 10/1/1 11/1/1
f 13/2/1 12/2/1 11/2/1
f 14/2/1 12/2/1 13/2/1
f 15/2/1 13/2/1 11/2/1
f 16/2/1 12/2/1 14/2/1
f 17/1/1 11/1/1 9/1/1
f 17/2/1 16/2/1 15/2/1
f 17/2/1 15/2/1 11/2/1
f 18/2/1 12/2/1 16/2/1
f 18/2/1 16/2/1 17/2/1
f 18/1/1 10/1/1 12/1/1
f 19/1/1 17/1/1 9/1/1
f 19/1/1 18/1/1 17/1/1
f 20/1/1 10/1/1 18/1/1
f 20/1/1 18/1/1 19/1/1
f 23/1/1 22/1/1 21/1/1
f 24/1/1 22/1/1 23/1/1
f 25/1/1 23/1/1 21/1/1
f 25/2/1 24/2/1 23/2/1
f 26/1/1 22/1/1 24/1/1
f 26/2/1 24/2/1 25/2/1
f 27/1/1 25/1/1 21/1/1
f 27/1/1 26/1/1 25/1/1
f 28/1/1 22/1/1 26/1/1
f 28/1/1 26/1/1 27/1/1
f 29/1/2 30/1/2 31/1/2
f 31/1/2 30/1/2 32/1/2
f 29/1/2 31/1/2 33/1/2
f 31/2/2 32/2/2 33/2/2
f 32/1/2 30/1/2 34/1/2
f 33/2/2 32/2/2 34/2/2
f 29/1/2 33/1/2 35/1/2
f 33/1/2 34/1/2 35/1/2
f 34/1/2 30/1/2 36/1/2
f 35/1/2 34/1/2 36/1/2
f 37/1/2 38/1/2 39/1/2
f 39/1/2 38/1/2 40/1/2
f 39/2/2 40/2/2 41/2/2
f 41/2/2 40/2/2 42/2/2
f 39/2/2 41/2/2 43/2/2
f 42/2/2 40/2/2 44/2/2
f 37/1/2 39/1/2 45/1/2
f 43/2/2 44/2/2 45/2/2
f 39/2/2 43/2/2 45/2/2
f 44/2/2 40/2/2 46/2/2
f 45/2/2 44/2/2 46/2/2
f 40/1/2 38/1/2 46/1/2
f 37/1/2 45/1/2 47/1/2
f 45/1/2 46/1/2 47/1/2
f 46/1/2 38/1/2 48/1/2
f 47/1/2 46/1/2 48/1/2
f 49/1/2 50/1/2 51/1/2
f 51/1/2 50/1/2 52/1/2
f 49/1/2 51/1/2 53/1/2
f 52/1/2 50/1/2 54/1/2
f 49/1/2 53/1/2 55/1/2
f 53/1/2 54/1/2 55/1/2
f 54/1/2 50/1/2 56/1/2
f 55/1/2 54/1/2 56/1/2
f 59/1/3 58/1/3 57/1/3
f 60/1/3 58/1/3 59/1/3
f 63/2/3 62/2/3 61/2/3
f 64/2/3 62/2/3 63/2/3
f 67/2/3 66/2/3 65/2/3
f 68/2/3 66/2/3 67/2/3
f 71/1/3 70/1/3 69/1/3
f 72/1/3 70/1/3 71/1/3
f 75/1/3 74/1/3 73/1/3
f 76/1/3 74/1/3 75/1/3
f 77/1/4 78/1/4 79/1/4
f 79/1/4 78/1/4 80/1/4
f 81/1/4 82/1/4 83/1/4
f 83/1/4 82/1/4 84/1/4
f 85/2/4 86/2/4 87/2/4
f 87/2/4 86/2/4 88/2/4
f 89/2/4 90/2/4 91/2/4
f 91/2/4 90/2/4 92/2/4
f 93/1/4 94/1/4 95/1/4
f 95/1/4 94/1/4 96/1/4
f 99/1/5 98/1/5 97/1/5
f 100/1/5 98/1/5 99/1/5
f 105/2/5 102/2/5 101/2/5
f 106/2/5 102/2/5 105/2/5
f 107/2/5 104/2/5 103/2/5
f 108/2/5 104/2/5 107/2/5
f 113/1/5 110/1/5 109/1/5
f 114/1/5 110/1/5 113/1/5
f 115/1/5 112/1/5 111/1/5
f 116/1/5 112/1/5 115/1/5
f 117/1/6 118/1/6 121/1/6
f 121/1/6 118/1/6 122/1/6
f 119/1/6 120/1/6 123/1/6
f 123/1/6 120/1/6 124/1/6
f 125/2/6 126/2/6 129/2/6
f 129/2/6 126/2/6 130/2/6
f 127/2/6 128/2/6 131/2/6
f 131/2/6 128/2/6 132/2/6
f 133/1/6 134/1/6 135/1/6
f 135/1/6 134/1/6 136/1/6
