# MagicaVoxel @ Ephtracy

# material
mtllib chair.mtl
usemtl palette

# normals
vn -1 0 0
vn 1 0 0
vn 0 0 1
vn 0 0 -1
vn 0 -1 0
vn 0 1 0

# texcoords
vt 0.00585938 0.5
vt 0.533203 0.5
vt 0.537109 0.5
vt 0.541016 0.5

# verts
v -6 0 6
v -6 0 4
v -6 0 -4
v -6 0 -6
v -6 1 6
v -6 1 4
v -6 1 -4
v -6 1 -6
v -6 2 6
v -6 2 4
v -6 2 -4
v -6 2 -6
v -6 6 6
v -6 6 4
v -6 6 -4
v -6 6 -6
v -6 7 6
v -6 7 4
v -6 7 -4
v -6 7 -6
v -6 8 6
v -6 8 -6
v -6 9 6
v -6 9 -6
v -6 10 6
v -6 10 -6
v 4 0 6
v 4 0 4
v 4 0 -4
v 4 0 -6
v 4 1 6
v 4 1 4
v 4 1 -4
v 4 1 -6
v 4 2 6
v 4 2 4
v 4 2 -4
v 4 2 -6
v 4 6 6
v 4 6 4
v 4 6 -4
v 4 6 -6
v 4 7 6
v 4 7 4
v 4 7 -4
v 4 7 -6
v -4 0 6
v -4 0 4
v -4 0 -4
v -4 0 -6
v -4 1 6
v -4 1 4
v -4 1 -4
v -4 1 -6
v -4 2 6
v -4 2 4
v -4 2 -4
v -4 2 -6
v -4 6 6
v -4 6 4
v -4 6 -4
v -4 6 -6
v -4 7 6
v -4 7 4
v -4 7 -4
v -4 7 -6
v 6 0 6
v 6 0 4
v 6 0 -4
v 6 0 -6
v 6 1 6
v 6 1 4
v 6 1 -4
v 6 1 -6
v 6 2 6
v 6 2 4
v 6 2 -4
v 6 2 -6
v 6 6 6
v 6 6 4
v 6 6 -4
v 6 6 -6
v 6 7 6
v 6 7 4
v 6 7 -4
v 6 7 -6
v 6 8 6
v 6 8 -6
v 6 9 6
v 6 9 -6
v 6 10 6
v 6 10 -6
v -6 0 6
v -6 1 6
v -6 2 6
v -6 6 6
v -6 7 6
v -6 8 6
v -6 9 6
v -6 10 6
v -4 0 6
v -4 1 6
v -4 2 6
v -4 6 6
v -4 7 6
v 4 0 6
v 4 1 6
v 4 2 6
v 4 6 6
v 4 7 6
v 6 0 6
v 6 1 6
v 6 2 6
v 6 6 6
v 6 7 6
v 6 8 6
v 6 9 6
v 6 10 6
v -6 0 -4
v -6 1 -4
v -6 2 -4
v -6 6 -4
v -6 7 -4
v -4 0 -4
v -4 1 -4
v -4 2 -4
v -4 6 -4
v -4 7 -4
v 4 0 -4
v 4 1 -4
v 4 2 -4
v 4 6 -4
v 4 7 -4
v 6 0 -4
v 6 1 -4
v 6 2 -4
v 6 6 -4
v 6 7 -4
v -6 0 4
v -6 1 4
v -6 2 4
v -6 6 4
v -6 7 4
v -4 0 4
v -4 1 4
v -4 2 4
v -4 6 4
v -4 7 4
v 4 0 4
v 4 1 4
v 4 2 4
v 4 6 4
v 4 7 4
v 6 0 4
v 6 1 4
v 6 2 4
v 6 6 4
v 6 7 4
v -6 0 -6
v -6 1 -6
v -6 2 -6
v -6 6 -6
v -6 7 -6
v -6 8 -6
v -6 9 -6
v -6 10 -6
v -4 0 -6
v -4 1 -6
v -4 2 -6
v -4 6 -6
v -4 7 -6
v 4 0 -6
v 4 1 -6
v 4 2 -6
v 4 6 -6
v 4 7 -6
v 6 0 -6
v 6 1 -6
v 6 2 -6
v 6 6 -6
v 6 7 -6
v 6 8 -6
v 6 9 -6
v 6 10 -6
v -6 0 6
v -4 0 6
v 4 0 6
v 6 0 6
v -6 0 4
v -4 0 4
v 4 0 4
v 6 0 4
v -6 0 -4
v -4 0 -4
v 4 0 -4
v 6 0 -4
v -6 0 -6
v -4 0 -6
v 4 0 -6
v 6 0 -6
v -4 7 6
v 4 7 6
v -6 7 4
v -4 7 4
v 4 7 4
v 6 7 4
v -6 7 -4
v -4 7 -4
v 4 7 -4
v 6 7 -4
v -4 7 -6
v 4 7 -6
v -6 10 6
v 6 10 6
v -5 10 5
v 5 10 5
v -4 10 4
v 4 10 4
v -3 10 3
v 3 10 3
v -2 10 2
v 2 10 2
v -1 10 1
v 1 10 1
v -1 10 -1
v 1 10 -1
v -2 10 -2
v 2 10 -2
v -3 10 -3
v 3 10 -3
v -4 10 -4
v 4 10 -4
v -5 10 -5
v 5 10 -5
v -6 10 -6
v 6 10 -6

# faces
f 5/3/1 2/3/1 1/3/1
f 6/3/1 2/3/1 5/3/1
f 7/3/1 4/3/1 3/3/1
f 8/3/1 4/3/1 7/3/1
f 9/1/1 6/1/1 5/1/1
f 10/1/1 6/1/1 9/1/1
f 11/1/1 8/1/1 7/1/1
f 12/1/1 8/1/1 11/1/1
f 13/4/1 10/4/1 9/4/1
f 14/4/1 10/4/1 13/4/1
f 15/4/1 12/4/1 11/4/1
f 16/4/1 12/4/1 15/4/1
f 17/1/1 14/1/1 13/1/1
f 18/1/1 14/1/1 17/1/1
f 19/1/1 16/1/1 15/1/1
f 20/1/1 16/1/1 19/1/1
f 21/3/1 18/3/1 17/3/1
f 21/3/1 19/3/1 18/3/1
f 21/3/1 20/3/1 19/3/1
f 22/3/1 20/3/1 21/3/1
f 23/4/1 22/4/1 21/4/1
f 24/4/1 22/4/1 23/4/1
f 25/2/1 24/2/1 23/2/1
f 26/2/1 24/2/1 25/2/1
f 31/3/1 28/3/1 27/3/1
f 32/3/1 28/3/1 31/3/1
f 33/3/1 30/3/1 29/3/1
f 34/3/1 30/3/1 33/3/1
f 35/1/1 32/1/1 31/1/1
f 36/1/1 32/1/1 35/1/1
f 37/1/1 34/1/1 33/1/1
f 38/1/1 34/1/1 37/1/1
f 39/4/1 36/4/1 35/4/1
f 40/4/1 36/4/1 39/4/1
f 41/4/1 38/4/1 37/4/1
f 42/4/1 38/4/1 41/4/1
f 43/1/1 40/1/1 39/1/1
f 44/1/1 40/1/1 43/1/1
f 45/1/1 42/1/1 41/1/1
f 46/1/1 42/1/1 45/1/1
f 47/3/2 48/3/2 51/3/2
f 51/3/2 48/3/2 52/3/2
f 49/3/2 50/3/2 53/3/2
f 53/3/2 50/3/2 54/3/2
f 51/1/2 52/1/2 55/1/2
f 55/1/2 52/1/2 56/1/2
f 53/1/2 54/1/2 57/1/2
f 57/1/2 54/1/2 58/1/2
f 55/4/2 56/4/2 59/4/2
f 59/4/2 56/4/2 60/4/2
f 57/4/2 58/4/2 61/4/2
f 61/4/2 58/4/2 62/4/2
f 59/1/2 60/1/2 63/1/2
f 63/1/2 60/1/2 64/1/2
f 61/1/2 62/1/2 65/1/2
f 65/1/2 62/1/2 66/1/2
f 67/3/2 68/3/2 71/3/2
f 71/3/2 68/3/2 72/3/2
f 69/3/2 70/3/2 73/3/2
f 73/3/2 70/3/2 74/3/2
f 71/1/2 72/1/2 75/1/2
f 75/1/2 72/1/2 76/1/2
f 73/1/2 74/1/2 77/1/2
f 77/1/2 74/1/2 78/1/2
f 75/4/2 76/4/2 79/4/2
f 79/4/2 76/4/2 80/4/2
f 77/4/2 78/4/2 81/4/2
f 81/4/2 78/4/2 82/4/2
f 79/1/2 80/1/2 83/1/2
f 83/1/2 80/1/2 84/1/2
f 81/1/2 82/1/2 85/1/2
f 85/1/2 82/1/2 86/1/2
f 83/3/2 84/3/2 87/3/2
f 84/3/2 85/3/2 87/3/2
f 85/3/2 86/3/2 87/3/2
f 87/3/2 86/3/2 88/3/2
f 87/4/2 88/4/2 89/4/2
f 89/4/2 88/4/2 90/4/2
f 89/2/2 90/2/2 91/2/2
f 91/2/2 90/2/2 92/2/2
f 101/3/3 94/3/3 93/3/3
f 102/1/3 95/1/3 94/1/3
f 102/3/3 94/3/3 101/3/3
f 103/4/3 96/4/3 95/4/3
f 103/1/3 95/1/3 102/1/3
f 104/1/3 97/1/3 96/1/3
f 104/4/3 96/4/3 103/4/3
f 105/3/3 98/3/3 97/3/3
f 105/1/3 97/1/3 104/1/3
f 110/3/3 98/3/3 105/3/3
f 111/3/3 107/3/3 106/3/3
f 112/1/3 108/1/3 107/1/3
f 112/3/3 107/3/3 111/3/3
f 113/4/3 109/4/3 108/4/3
f 113/1/3 108/1/3 112/1/3
f 114/1/3 110/1/3 109/1/3
f 114/4/3 109/4/3 113/4/3
f 115/3/3 98/3/3 110/3/3
f 115/1/3 110/1/3 114/1/3
f 116/4/3 99/4/3 98/4/3
f 116/3/3 98/3/3 115/3/3
f 117/2/3 100/2/3 99/2/3
f 117/4/3 99/4/3 116/4/3
f 118/2/3 100/2/3 117/2/3
f 124/3/3 120/3/3 119/3/3
f 125/1/3 121/1/3 120/1/3
f 125/3/3 120/3/3 124/3/3
f 126/4/3 122/4/3 121/4/3
f 126/1/3 121/1/3 125/1/3
f 127/1/3 123/1/3 122/1/3
f 127/4/3 122/4/3 126/4/3
f 128/1/3 123/1/3 127/1/3
f 134/3/3 130/3/3 129/3/3
f 135/1/3 131/1/3 130/1/3
f 135/3/3 130/3/3 134/3/3
f 136/4/3 132/4/3 131/4/3
f 136/1/3 131/1/3 135/1/3
f 137/1/3 133/1/3 132/1/3
f 137/4/3 132/4/3 136/4/3
f 138/1/3 133/1/3 137/1/3
f 139/3/4 140/3/4 144/3/4
f 140/1/4 141/1/4 145/1/4
f 144/3/4 140/3/4 145/3/4
f 141/4/4 142/4/4 146/4/4
f 145/1/4 141/1/4 146/1/4
f 142/1/4 143/1/4 147/1/4
f 146/4/4 142/4/4 147/4/4
f 147/1/4 143/1/4 148/1/4
f 149/3/4 150/3/4 154/3/4
f 150/1/4 151/1/4 155/1/4
f 154/3/4 150/3/4 155/3/4
f 151/4/4 152/4/4 156/4/4
f 155/1/4 151/1/4 156/1/4
f 152/1/4 153/1/4 157/1/4
f 156/4/4 152/4/4 157/4/4
f 157/1/4 153/1/4 158/1/4
f 159/3/4 160/3/4 167/3/4
f 160/1/4 161/1/4 168/1/4
f 167/3/4 160/3/4 168/3/4
f 161/4/4 162/4/4 169/4/4
f 168/1/4 161/1/4 169/1/4
f 162/1/4 163/1/4 170/1/4
f 169/4/4 162/4/4 170/4/4
f 163/3/4 164/3/4 171/3/4
f 170/1/4 163/1/4 171/1/4
f 171/3/4 164/3/4 176/3/4
f 172/3/4 173/3/4 177/3/4
f 173/1/4 174/1/4 178/1/4
f 177/3/4 173/3/4 178/3/4
f 174/4/4 175/4/4 179/4/4
f 178/1/4 174/1/4 179/1/4
f 175/1/4 176/1/4 180/1/4
f 179/4/4 175/4/4 180/4/4
f 176/3/4 164/3/4 181/3/4
f 180/1/4 176/1/4 181/1/4
f 164/4/4 165/4/4 182/4/4
f 181/3/4 164/3/4 182/3/4
f 165/2/4 166/2/4 183/2/4
f 182/4/4 165/4/4 183/4/4
f 183/2/4 166/2/4 184/2/4
f 189/3/5 186/3/5 185/3/5
f 190/3/5 186/3/5 189/3/5
f 191/3/5 188/3/5 187/3/5
f 192/3/5 188/3/5 191/3/5
f 197/3/5 194/3/5 193/3/5
f 198/3/5 194/3/5 197/3/5
f 199/3/5 196/3/5 195/3/5
f 200/3/5 196/3/5 199/3/5
f 204/3/5 202/3/5 201/3/5
f 205/3/5 202/3/5 204/3/5
f 207/3/5 204/3/5 203/3/5
f 207/3/5 206/3/5 205/3/5
f 207/3/5 205/3/5 204/3/5
f 208/3/5 206/3/5 207/3/5
f 209/3/5 206/3/5 208/3/5
f 210/3/5 206/3/5 209/3/5
f 211/3/5 209/3/5 208/3/5
f 212/3/5 209/3/5 211/3/5
f 213/2/6 214/2/6 215/2/6
f 215/2/6 214/2/6 216/2/6
f 215/4/6 216/4/6 217/4/6
f 217/4/6 216/4/6 218/4/6
f 217/3/6 218/3/6 219/3/6
f 219/3/6 218/3/6 220/3/6
f 219/4/6 220/4/6 221/4/6
f 221/4/6 220/4/6 222/4/6
f 221/3/6 222/3/6 223/3/6
f 223/3/6 222/3/6 224/3/6
f 221/3/6 223/3/6 225/3/6
f 223/4/6 224/4/6 225/4/6
f 224/3/6 222/3/6 226/3/6
f 225/4/6 224/4/6 226/4/6
f 219/4/6 221/4/6 227/4/6
f 221/3/6 225/3/6 227/3/6
f 225/3/6 226/3/6 227/3/6
f 226/3/6 222/3/6 228/3/6
f 227/3/6 226/3/6 228/3/6
f 222/4/6 220/4/6 228/4/6
f 217/3/6 219/3/6 229/3/6
f 219/4/6 227/4/6 229/4/6
f 227/4/6 228/4/6 229/4/6
f 228/4/6 220/4/6 230/4/6
f 229/4/6 228/4/6 230/4/6
f 220/3/6 218/3/6 230/3/6
f 215/4/6 217/4/6 231/4/6
f 217/3/6 229/3/6 231/3/6
f 229/3/6 230/3/6 231/3/6
f 230/3/6 218/3/6 232/3/6
f 231/3/6 230/3/6 232/3/6
f 218/4/6 216/4/6 232/4/6
f 213/2/6 215/2/6 233/2/6
f 215/4/6 231/4/6 233/4/6
f 231/4/6 232/4/6 233/4/6
f 232/4/6 216/4/6 234/4/6
f 233/4/6 232/4/6 234/4/6
f 216/2/6 214/2/6 234/2/6
f 213/2/6 233/2/6 235/2/6
f 233/2/6 234/2/6 235/2/6
f 234/2/6 214/2/6 236/2/6
f 235/2/6 234/2/6 236/2/6
