# MagicaVoxel @ Ephtracy

# material
mtllib dog.mtl
usemtl palette

# normals
vn -1 0 0
vn 1 0 0
vn 0 0 1
vn 0 0 -1
vn 0 -1 0
vn 0 1 0

# texcoords
vt 0.0878906 0.5
vt 0.228516 0.5
vt 0.537109 0.5
vt 0.958984 0.5
vt 0.994141 0.5

# verts
v -5 4 1
v -5 4 -1
v -5 6 1
v -5 6 -1
v -3 0 3
v -3 0 1
v -3 0 -1
v -3 0 -3
v -3 1 3
v -3 1 1
v -3 1 -1
v -3 1 -3
v -3 4 1
v -3 4 -1
v -3 6 3
v -3 6 2
v -3 6 1
v -3 6 -1
v -3 6 -2
v -3 6 -3
v -3 7 2
v -3 7 1
v -3 7 -1
v -3 7 -2
v -2 6 3
v -2 6 2
v -2 6 -2
v -2 6 -3
v -2 7 3
v -2 7 2
v -2 7 -2
v -2 7 -3
v 2 0 3
v 2 0 1
v 2 0 -1
v 2 0 -3
v 2 1 3
v 2 1 1
v 2 1 -1
v 2 1 -3
v 2 6 4
v 2 6 3
v 2 6 -3
v 2 6 -4
v 2 7 3
v 2 7 2
v 2 7 -2
v 2 7 -3
v 2 8 3
v 2 8 2
v 2 8 -2
v 2 8 -3
v 2 9 4
v 2 9 3
v 2 9 -3
v 2 9 -4
v -1 0 3
v -1 0 1
v -1 0 -1
v -1 0 -3
v -1 1 3
v -1 1 1
v -1 1 -1
v -1 1 -3
v 3 6 4
v 3 6 3
v 3 6 -3
v 3 6 -4
v 3 7 3
v 3 7 2
v 3 7 -2
v 3 7 -3
v 3 8 3
v 3 8 2
v 3 8 -2
v 3 8 -3
v 3 9 4
v 3 9 3
v 3 9 -3
v 3 9 -4
v 4 0 3
v 4 0 1
v 4 0 -1
v 4 0 -3
v 4 1 3
v 4 1 1
v 4 1 -1
v 4 1 -3
v 4 2 2
v 4 2 1
v 4 2 -1
v 4 2 -2
v 4 4 3
v 4 4 2
v 4 4 1
v 4 4 -1
v 4 4 -2
v 4 4 -3
v 4 5 1
v 4 5 -1
v 4 6 3
v 4 6 1
v 4 6 -1
v 4 6 -3
v 4 7 3
v 4 7 -3
v 5 2 2
v 5 2 -2
v 5 3 2
v 5 3 1
v 5 3 -1
v 5 3 -2
v 5 4 3
v 5 4 2
v 5 4 1
v 5 4 -1
v 5 4 -2
v 5 4 -3
v 5 5 3
v 5 5 2
v 5 5 1
v 5 5 -1
v 5 5 -2
v 5 5 -3
v 5 6 3
v 5 6 1
v 5 6 -1
v 5 6 -3
v 6 3 2
v 6 3 1
v 6 3 -1
v 6 3 -2
v 6 4 2
v 6 4 1
v 6 4 -1
v 6 4 -2
v 2 6 4
v 2 9 4
v 3 6 4
v 3 9 4
v -3 0 3
v -3 1 3
v -3 6 3
v -2 6 3
v -2 7 3
v -1 0 3
v -1 1 3
v 2 0 3
v 2 1 3
v 2 6 3
v 2 7 3
v 3 6 3
v 3 7 3
v 4 0 3
v 4 1 3
v 4 4 3
v 4 5 3
v 4 6 3
v 4 7 3
v 5 4 3
v 5 5 3
v 5 6 3
v -3 6 2
v -3 7 2
v -2 6 2
v -2 7 2
v 4 2 2
v 4 4 2
v 5 2 2
v 5 3 2
v 5 4 2
v 6 3 2
v 6 4 2
v -5 4 1
v -5 6 1
v -3 4 1
v -3 6 1
v -3 0 -1
v -3 1 -1
v -1 0 -1
v -1 1 -1
v 2 0 -1
v 2 1 -1
v 4 0 -1
v 4 1 -1
v 4 4 -1
v 4 5 -1
v 4 6 -1
v 5 4 -1
v 5 5 -1
v 5 6 -1
v 2 7 -2
v 2 8 -2
v 3 7 -2
v 3 8 -2
v 2 8 -3
v 2 9 -3
v 3 8 -3
v 3 9 -3
v 2 8 3
v 2 9 3
v 3 8 3
v 3 9 3
v 2 7 2
v 2 8 2
v 3 7 2
v 3 8 2
v -3 0 1
v -3 1 1
v -1 0 1
v -1 1 1
v 2 0 1
v 2 1 1
v 4 0 1
v 4 1 1
v 4 4 1
v 4 5 1
v 4 6 1
v 5 4 1
v 5 5 1
v 5 6 1
v -5 4 -1
v -5 6 -1
v -3 4 -1
v -3 6 -1
v -3 6 -2
v -3 7 -2
v -2 6 -2
v -2 7 -2
v 4 2 -2
v 4 4 -2
v 5 2 -2
v 5 3 -2
v 5 4 -2
v 6 3 -2
v 6 4 -2
v -3 0 -3
v -3 1 -3
v -3 6 -3
v -2 6 -3
v -2 7 -3
v -1 0 -3
v -1 1 -3
v 2 0 -3
v 2 1 -3
v 2 6 -3
v 2 7 -3
v 3 6 -3
v 3 7 -3
v 4 0 -3
v 4 1 -3
v 4 4 -3
v 4 5 -3
v 4 6 -3
v 4 7 -3
v 5 4 -3
v 5 5 -3
v 5 6 -3
v 2 6 -4
v 2 9 -4
v 3 6 -4
v 3 9 -4
v -3 0 3
v -1 0 3
v 2 0 3
v 4 0 3
v -3 0 1
v -1 0 1
v 2 0 1
v 4 0 1
v -3 0 -1
v -1 0 -1
v 2 0 -1
v 4 0 -1
v -3 0 -3
v -1 0 -3
v 2 0 -3
v 4 0 -3
v -1 1 3
v 2 1 3
v -3 1 1
v -1 1 1
v 2 1 1
v 4 1 1
v -3 1 -1
v -1 1 -1
v 2 1 -1
v 4 1 -1
v -1 1 -3
v 2 1 -3
v 4 2 2
v 5 2 2
v 4 2 1
v 4 2 -1
v 4 2 -2
v 5 2 -2
v 5 3 2
v 6 3 2
v 5 3 1
v 6 3 1
v 5 3 -1
v 6 3 -1
v 5 3 -2
v 6 3 -2
v 4 4 3
v 5 4 3
v 4 4 2
v 5 4 2
v -5 4 1
v -3 4 1
v -5 4 -1
v -3 4 -1
v 4 4 -2
v 5 4 -2
v 4 4 -3
v 5 4 -3
v 2 6 4
v 3 6 4
v 2 6 3
v 3 6 3
v 2 6 -3
v 3 6 -3
v 2 6 -4
v 3 6 -4
v 5 4 2
v 6 4 2
v 4 4 1
v 5 4 1
v 6 4 1
v 4 4 -1
v 5 4 -1
v 6 4 -1
v 5 4 -2
v 6 4 -2
v -3 6 3
v -2 6 3
v 4 6 3
v 5 6 3
v -3 6 2
v -2 6 2
v -5 6 1
v -3 6 1
v 4 6 1
v 5 6 1
v -5 6 -1
v -3 6 -1
v 4 6 -1
v 5 6 -1
v -3 6 -2
v -2 6 -2
v -3 6 -3
v -2 6 -3
v 4 6 -3
v 5 6 -3
v -2 7 3
v 2 7 3
v 3 7 3
v 4 7 3
v -3 7 2
v -2 7 2
v -1 7 2
v 0 7 2
v 1 7 2
v 2 7 2
v 3 7 2
v -3 7 1
v -2 7 1
v -1 7 1
v 0 7 1
v 1 7 1
v 2 7 1
v -3 7 -1
v -2 7 -1
v -1 7 -1
v 0 7 -1
v 1 7 -1
v 2 7 -1
v -3 7 -2
v -2 7 -2
v -1 7 -2
v 0 7 -2
v 1 7 -2
v 2 7 -2
v 3 7 -2
v -2 7 -3
v 2 7 -3
v 3 7 -3
v 4 7 -3
v 2 8 3
v 3 8 3
v 2 8 2
v 3 8 2
v 2 8 -2
v 3 8 -2
v 2 8 -3
v 3 8 -3
v 2 9 4
v 3 9 4
v 2 9 3
v 3 9 3
v 2 9 -3
v 3 9 -3
v 2 9 -4
v 3 9 -4

# faces
f 3/2/1 2/2/1 1/2/1
f 4/2/1 2/2/1 3/2/1
f 9/3/1 6/3/1 5/3/1
f 10/3/1 6/3/1 9/3/1
f 11/3/1 8/3/1 7/3/1
f 12/3/1 8/3/1 11/3/1
f 13/2/1 10/2/1 9/2/1
f 13/1/1 11/1/1 10/1/1
f 14/2/1 12/2/1 11/2/1
f 14/1/1 11/1/1 13/1/1
f 15/2/1 13/2/1 9/2/1
f 16/2/1 13/2/1 15/2/1
f 17/2/1 13/2/1 16/2/1
f 18/2/1 12/2/1 14/2/1
f 19/2/1 12/2/1 18/2/1
f 20/2/1 12/2/1 19/2/1
f 21/2/1 17/2/1 16/2/1
f 22/1/1 18/1/1 17/1/1
f 22/2/1 17/2/1 21/2/1
f 23/2/1 19/2/1 18/2/1
f 23/1/1 18/1/1 22/1/1
f 24/2/1 19/2/1 23/2/1
f 29/2/1 26/2/1 25/2/1
f 30/2/1 26/2/1 29/2/1
f 31/2/1 28/2/1 27/2/1
f 32/2/1 28/2/1 31/2/1
f 37/3/1 34/3/1 33/3/1
f 38/3/1 34/3/1 37/3/1
f 39/3/1 36/3/1 35/3/1
f 40/3/1 36/3/1 39/3/1
f 45/2/1 42/2/1 41/2/1
f 48/2/1 44/2/1 43/2/1
f 49/2/1 46/2/1 45/2/1
f 49/2/1 45/2/1 41/2/1
f 50/2/1 46/2/1 49/2/1
f 51/2/1 48/2/1 47/2/1
f 52/2/1 44/2/1 48/2/1
f 52/2/1 48/2/1 51/2/1
f 53/2/1 49/2/1 41/2/1
f 54/2/1 49/2/1 53/2/1
f 55/2/1 44/2/1 52/2/1
f 56/2/1 44/2/1 55/2/1
f 57/3/2 58/3/2 61/3/2
f 61/3/2 58/3/2 62/3/2
f 59/3/2 60/3/2 63/3/2
f 63/3/2 60/3/2 64/3/2
f 65/2/2 66/2/2 69/2/2
f 67/2/2 68/2/2 72/2/2
f 69/2/2 70/2/2 73/2/2
f 65/2/2 69/2/2 73/2/2
f 73/2/2 70/2/2 74/2/2
f 71/2/2 72/2/2 75/2/2
f 72/2/2 68/2/2 76/2/2
f 75/2/2 72/2/2 76/2/2
f 65/2/2 73/2/2 77/2/2
f 77/2/2 73/2/2 78/2/2
f 76/2/2 68/2/2 79/2/2
f 79/2/2 68/2/2 80/2/2
f 81/3/2 82/3/2 85/3/2
f 85/3/2 82/3/2 86/3/2
f 83/3/2 84/3/2 87/3/2
f 87/3/2 84/3/2 88/3/2
f 85/2/2 86/2/2 89/2/2
f 86/1/2 87/1/2 90/1/2
f 89/2/2 86/2/2 90/2/2
f 87/2/2 88/2/2 91/2/2
f 90/1/2 87/1/2 91/1/2
f 91/2/2 88/2/2 92/2/2
f 85/2/2 89/2/2 93/2/2
f 93/2/2 89/2/2 94/2/2
f 92/2/2 88/2/2 97/2/2
f 97/2/2 88/2/2 98/2/2
f 95/2/2 96/2/2 99/2/2
f 99/2/2 96/2/2 100/2/2
f 99/2/2 100/2/2 102/2/2
f 102/2/2 100/2/2 103/2/2
f 102/2/2 103/2/2 105/2/2
f 103/2/2 104/2/2 105/2/2
f 101/2/2 102/2/2 105/2/2
f 105/2/2 104/2/2 106/2/2
f 107/2/2 108/2/2 109/2/2
f 109/2/2 108/2/2 110/2/2
f 110/2/2 108/2/2 111/2/2
f 111/2/2 108/2/2 112/2/2
f 113/5/2 114/5/2 119/5/2
f 114/4/2 115/4/2 120/4/2
f 119/5/2 114/5/2 120/5/2
f 120/4/2 115/4/2 121/4/2
f 116/4/2 117/4/2 122/4/2
f 117/5/2 118/5/2 123/5/2
f 122/4/2 117/4/2 123/4/2
f 123/5/2 118/5/2 124/5/2
f 120/2/2 121/2/2 125/2/2
f 119/2/2 120/2/2 125/2/2
f 125/2/2 121/2/2 126/2/2
f 123/2/2 124/2/2 127/2/2
f 122/2/2 123/2/2 127/2/2
f 127/2/2 124/2/2 128/2/2
f 129/2/2 130/2/2 133/2/2
f 130/5/2 131/5/2 134/5/2
f 133/2/2 130/2/2 134/2/2
f 131/2/2 132/2/2 135/2/2
f 134/5/2 131/5/2 135/5/2
f 135/2/2 132/2/2 136/2/2
f 139/2/3 138/2/3 137/2/3
f 140/2/3 138/2/3 139/2/3
f 144/2/3 143/2/3 142/2/3
f 146/3/3 142/3/3 141/3/3
f 147/2/3 145/2/3 144/2/3
f 147/3/3 142/3/3 146/3/3
f 147/2/3 144/2/3 142/2/3
f 149/2/3 145/2/3 147/2/3
f 150/2/3 145/2/3 149/2/3
f 151/2/3 145/2/3 150/2/3
f 152/2/3 150/2/3 149/2/3
f 154/3/3 149/3/3 148/3/3
f 155/2/3 153/2/3 152/2/3
f 155/3/3 149/3/3 154/3/3
f 155/2/3 152/2/3 149/2/3
f 156/2/3 153/2/3 155/2/3
f 157/2/3 153/2/3 156/2/3
f 158/2/3 153/2/3 157/2/3
f 159/2/3 153/2/3 158/2/3
f 160/5/3 157/5/3 156/5/3
f 161/2/3 158/2/3 157/2/3
f 161/5/3 157/5/3 160/5/3
f 162/2/3 158/2/3 161/2/3
f 165/2/3 164/2/3 163/2/3
f 166/2/3 164/2/3 165/2/3
f 169/2/3 168/2/3 167/2/3
f 170/2/3 168/2/3 169/2/3
f 171/2/3 168/2/3 170/2/3
f 172/2/3 171/2/3 170/2/3
f 173/2/3 171/2/3 172/2/3
f 176/2/3 175/2/3 174/2/3
f 177/2/3 175/2/3 176/2/3
f 180/3/3 179/3/3 178/3/3
f 181/3/3 179/3/3 180/3/3
f 184/3/3 183/3/3 182/3/3
f 185/3/3 183/3/3 184/3/3
f 189/4/3 187/4/3 186/4/3
f 190/2/3 188/2/3 187/2/3
f 190/4/3 187/4/3 189/4/3
f 191/2/3 188/2/3 190/2/3
f 194/2/3 193/2/3 192/2/3
f 195/2/3 193/2/3 194/2/3
f 198/2/3 197/2/3 196/2/3
f 199/2/3 197/2/3 198/2/3
f 200/2/4 201/2/4 202/2/4
f 202/2/4 201/2/4 203/2/4
f 204/2/4 205/2/4 206/2/4
f 206/2/4 205/2/4 207/2/4
f 208/3/4 209/3/4 210/3/4
f 210/3/4 209/3/4 211/3/4
f 212/3/4 213/3/4 214/3/4
f 214/3/4 213/3/4 215/3/4
f 216/4/4 217/4/4 219/4/4
f 217/2/4 218/2/4 220/2/4
f 219/4/4 217/4/4 220/4/4
f 220/2/4 218/2/4 221/2/4
f 222/2/4 223/2/4 224/2/4
f 224/2/4 223/2/4 225/2/4
f 226/2/4 227/2/4 228/2/4
f 228/2/4 227/2/4 229/2/4
f 230/2/4 231/2/4 232/2/4
f 232/2/4 231/2/4 233/2/4
f 233/2/4 231/2/4 234/2/4
f 233/2/4 234/2/4 235/2/4
f 235/2/4 234/2/4 236/2/4
f 238/2/4 239/2/4 240/2/4
f 237/3/4 238/3/4 242/3/4
f 240/2/4 241/2/4 243/2/4
f 242/3/4 238/3/4 243/3/4
f 238/2/4 240/2/4 243/2/4
f 243/2/4 241/2/4 245/2/4
f 245/2/4 241/2/4 246/2/4
f 246/2/4 241/2/4 247/2/4
f 245/2/4 246/2/4 248/2/4
f 244/3/4 245/3/4 250/3/4
f 248/2/4 249/2/4 251/2/4
f 250/3/4 245/3/4 251/3/4
f 245/2/4 248/2/4 251/2/4
f 251/2/4 249/2/4 252/2/4
f 252/2/4 249/2/4 253/2/4
f 253/2/4 249/2/4 254/2/4
f 254/2/4 249/2/4 255/2/4
f 252/5/4 253/5/4 256/5/4
f 253/2/4 254/2/4 257/2/4
f 256/5/4 253/5/4 257/5/4
f 257/2/4 254/2/4 258/2/4
f 259/2/4 260/2/4 261/2/4
f 261/2/4 260/2/4 262/2/4
f 267/3/5 264/3/5 263/3/5
f 268/3/5 264/3/5 267/3/5
f 269/3/5 266/3/5 265/3/5
f 270/3/5 266/3/5 269/3/5
f 275/3/5 272/3/5 271/3/5
f 276/3/5 272/3/5 275/3/5
f 277/3/5 274/3/5 273/3/5
f 278/3/5 274/3/5 277/3/5
f 282/2/5 280/2/5 279/2/5
f 283/2/5 280/2/5 282/2/5
f 285/1/5 282/1/5 281/1/5
f 285/1/5 284/1/5 283/1/5
f 285/1/5 283/1/5 282/1/5
f 286/1/5 284/1/5 285/1/5
f 287/1/5 284/1/5 286/1/5
f 288/1/5 284/1/5 287/1/5
f 289/2/5 287/2/5 286/2/5
f 290/2/5 287/2/5 289/2/5
f 293/2/5 292/2/5 291/2/5
f 294/2/5 292/2/5 293/2/5
f 295/2/5 292/2/5 294/2/5
f 296/2/5 292/2/5 295/2/5
f 299/2/5 298/2/5 297/2/5
f 300/2/5 298/2/5 299/2/5
f 301/5/5 300/5/5 299/5/5
f 302/5/5 300/5/5 301/5/5
f 303/2/5 302/2/5 301/2/5
f 304/2/5 302/2/5 303/2/5
f 307/5/5 306/5/5 305/5/5
f 308/5/5 306/5/5 307/5/5
f 311/2/5 310/2/5 309/2/5
f 312/2/5 310/2/5 311/2/5
f 315/5/5 314/5/5 313/5/5
f 316/5/5 314/5/5 315/5/5
f 319/2/5 318/2/5 317/2/5
f 320/2/5 318/2/5 319/2/5
f 323/2/5 322/2/5 321/2/5
f 324/2/5 322/2/5 323/2/5
f 325/2/6 326/2/6 328/2/6
f 328/2/6 326/2/6 329/2/6
f 327/2/6 328/2/6 330/2/6
f 328/5/6 329/5/6 331/5/6
f 330/2/6 328/2/6 331/2/6
f 331/5/6 329/5/6 332/5/6
f 331/2/6 332/2/6 333/2/6
f 333/2/6 332/2/6 334/2/6
f 335/2/6 336/2/6 339/2/6
f 339/2/6 336/2/6 340/2/6
f 337/2/6 338/2/6 343/2/6
f 343/2/6 338/2/6 344/2/6
f 341/2/6 342/2/6 345/2/6
f 345/2/6 342/2/6 346/2/6
f 349/2/6 350/2/6 351/2/6
f 351/2/6 350/2/6 352/2/6
f 347/2/6 348/2/6 353/2/6
f 353/2/6 348/2/6 354/2/6
f 355/2/6 356/2/6 360/2/6
f 360/2/6 356/2/6 361/2/6
f 361/2/6 356/2/6 362/2/6
f 362/2/6 356/2/6 363/2/6
f 363/2/6 356/2/6 364/2/6
f 357/2/6 358/2/6 365/2/6
f 359/2/6 360/2/6 366/2/6
f 360/1/6 361/1/6 367/1/6
f 366/2/6 360/2/6 367/2/6
f 361/2/6 362/2/6 368/2/6
f 367/1/6 361/1/6 368/1/6
f 362/1/6 363/1/6 369/1/6
f 368/2/6 362/2/6 369/2/6
f 363/2/6 364/2/6 370/2/6
f 369/1/6 363/1/6 370/1/6
f 364/2/6 365/2/6 370/2/6
f 370/2/6 365/2/6 371/2/6
f 368/1/6 369/1/6 372/1/6
f 366/1/6 367/1/6 372/1/6
f 370/1/6 371/1/6 372/1/6
f 369/1/6 370/1/6 372/1/6
f 367/1/6 368/1/6 372/1/6
f 372/1/6 371/1/6 373/1/6
f 373/1/6 371/1/6 374/1/6
f 374/1/6 371/1/6 375/1/6
f 375/1/6 371/1/6 376/1/6
f 371/2/6 365/2/6 377/2/6
f 376/1/6 371/1/6 377/1/6
f 372/2/6 373/2/6 378/2/6
f 373/1/6 374/1/6 379/1/6
f 378/2/6 373/2/6 379/2/6
f 374/2/6 375/2/6 380/2/6
f 379/1/6 374/1/6 380/1/6
f 375/1/6 376/1/6 381/1/6
f 380/2/6 375/2/6 381/2/6
f 376/2/6 377/2/6 382/2/6
f 381/1/6 376/1/6 382/1/6
f 377/2/6 365/2/6 383/2/6
f 382/2/6 377/2/6 383/2/6
f 365/2/6 358/2/6 384/2/6
f 383/2/6 365/2/6 384/2/6
f 379/2/6 380/2/6 385/2/6
f 382/2/6 383/2/6 385/2/6
f 380/2/6 381/2/6 385/2/6
f 381/2/6 382/2/6 385/2/6
f 385/2/6 383/2/6 386/2/6
f 384/2/6 358/2/6 387/2/6
f 387/2/6 358/2/6 388/2/6
f 389/2/6 390/2/6 391/2/6
f 391/2/6 390/2/6 392/2/6
f 393/2/6 394/2/6 395/2/6
f 395/2/6 394/2/6 396/2/6
f 397/2/6 398/2/6 399/2/6
f 399/2/6 398/2/6 400/2/6
f 401/2/6 402/2/6 403/2/6
f 403/2/6 402/2/6 404/2/6
