# MagicaVoxel @ Ephtracy

# material
mtllib doge.mtl
usemtl palette

# normals
vn -1 0 0
vn 1 0 0
vn 0 0 1
vn 0 0 -1
vn 0 -1 0
vn 0 1 0

# texcoords
vt 0.0371094 0.5
vt 0.0410156 0.5
vt 0.537109 0.5
vt 0.958984 0.5
vt 0.994141 0.5

# verts
v -6 5 1
v -6 5 -1
v -6 8 1
v -6 8 -1
v -5 4 1
v -5 4 -1
v -5 5 1
v -5 5 -1
v -3 0 3
v -3 0 1
v -3 0 -1
v -3 0 -3
v -3 1 3
v -3 1 1
v -3 1 -1
v -3 1 -3
v -3 4 1
v -3 4 -1
v -3 5 1
v -3 5 -1
v -3 6 3
v -3 6 2
v -3 6 -2
v -3 6 -3
v -3 7 2
v -3 7 -2
v -2 6 3
v -2 6 2
v -2 6 -2
v -2 6 -3
v -2 7 3
v -2 7 2
v -2 7 -2
v -2 7 -3
v 2 0 3
v 2 0 1
v 2 0 -1
v 2 0 -3
v 2 1 3
v 2 1 1
v 2 1 -1
v 2 1 -3
v 2 6 4
v 2 6 3
v 2 6 -3
v 2 6 -4
v 2 7 3
v 2 7 2
v 2 7 -2
v 2 7 -3
v 2 8 3
v 2 8 2
v 2 8 -2
v 2 8 -3
v 2 9 4
v 2 9 3
v 2 9 -3
v 2 9 -4
v -5 6 1
v -5 6 -1
v -5 7 1
v -5 7 -1
v -4 5 1
v -4 5 -1
v -4 6 1
v -4 6 -1
v -4 7 1
v -4 7 -1
v -4 8 1
v -4 8 -1
v -1 0 3
v -1 0 1
v -1 0 -1
v -1 0 -3
v -1 1 3
v -1 1 1
v -1 1 -1
v -1 1 -3
v 3 6 4
v 3 6 3
v 3 6 -3
v 3 6 -4
v 3 7 3
v 3 7 2
v 3 7 -2
v 3 7 -3
v 3 8 3
v 3 8 2
v 3 8 -2
v 3 8 -3
v 3 9 4
v 3 9 3
v 3 9 -3
v 3 9 -4
v 4 0 3
v 4 0 1
v 4 0 -1
v 4 0 -3
v 4 1 3
v 4 1 2
v 4 1 1
v 4 1 -1
v 4 1 -2
v 4 1 -3
v 4 2 3
v 4 2 2
v 4 2 -2
v 4 2 -3
v 4 4 2
v 4 4 -2
v 4 5 3
v 4 5 2
v 4 5 1
v 4 5 -1
v 4 5 -2
v 4 5 -3
v 4 6 3
v 4 6 2
v 4 6 1
v 4 6 -1
v 4 6 -2
v 4 6 -3
v 4 7 3
v 4 7 1
v 4 7 -1
v 4 7 -3
v 5 2 2
v 5 2 1
v 5 2 -1
v 5 2 -2
v 5 3 2
v 5 3 1
v 5 3 -1
v 5 3 -2
v 6 2 1
v 6 2 -1
v 6 3 2
v 6 3 1
v 6 3 -1
v 6 3 -2
v 6 4 2
v 6 4 1
v 6 4 -1
v 6 4 -2
v 2 6 4
v 2 9 4
v 3 6 4
v 3 9 4
v -3 0 3
v -3 1 3
v -3 6 3
v -2 6 3
v -2 7 3
v -1 0 3
v -1 1 3
v 2 0 3
v 2 1 3
v 2 4 3
v 2 6 3
v 2 7 3
v 3 2 3
v 3 4 3
v 3 5 3
v 3 6 3
v 3 7 3
v 4 0 3
v 4 1 3
v 4 2 3
v 4 5 3
v 4 6 3
v 4 7 3
v -3 6 2
v -3 7 2
v -2 6 2
v -2 7 2
v 4 2 2
v 4 4 2
v 5 2 2
v 5 3 2
v 6 3 2
v 6 4 2
v -6 5 1
v -6 8 1
v -5 4 1
v -5 5 1
v -5 6 1
v -5 7 1
v -4 5 1
v -4 6 1
v -4 7 1
v -4 8 1
v -3 4 1
v -3 5 1
v 5 2 1
v 5 3 1
v 6 2 1
v 6 3 1
v -3 0 -1
v -3 1 -1
v -1 0 -1
v -1 1 -1
v 2 0 -1
v 2 1 -1
v 4 0 -1
v 4 1 -1
v 2 7 -2
v 2 8 -2
v 3 7 -2
v 3 8 -2
v 2 8 -3
v 2 9 -3
v 3 8 -3
v 3 9 -3
v 2 8 3
v 2 9 3
v 3 8 3
v 3 9 3
v 2 7 2
v 2 8 2
v 3 7 2
v 3 8 2
v -3 0 1
v -3 1 1
v -1 0 1
v -1 1 1
v 2 0 1
v 2 1 1
v 4 0 1
v 4 1 1
v -6 5 -1
v -6 8 -1
v -5 4 -1
v -5 5 -1
v -5 6 -1
v -5 7 -1
v -4 5 -1
v -4 6 -1
v -4 7 -1
v -4 8 -1
v -3 4 -1
v -3 5 -1
v 5 2 -1
v 5 3 -1
v 6 2 -1
v 6 3 -1
v -3 6 -2
v -3 7 -2
v -2 6 -2
v -2 7 -2
v 4 2 -2
v 4 4 -2
v 5 2 -2
v 5 3 -2
v 6 3 -2
v 6 4 -2
v -3 0 -3
v -3 1 -3
v -3 6 -3
v -2 6 -3
v -2 7 -3
v -1 0 -3
v -1 1 -3
v 2 0 -3
v 2 1 -3
v 2 4 -3
v 2 6 -3
v 2 7 -3
v 3 2 -3
v 3 4 -3
v 3 5 -3
v 3 6 -3
v 3 7 -3
v 4 0 -3
v 4 1 -3
v 4 2 -3
v 4 5 -3
v 4 6 -3
v 4 7 -3
v 2 6 -4
v 2 9 -4
v 3 6 -4
v 3 9 -4
v -3 0 3
v -1 0 3
v 2 0 3
v 4 0 3
v -3 0 1
v -1 0 1
v 2 0 1
v 4 0 1
v -3 0 -1
v -1 0 -1
v 2 0 -1
v 4 0 -1
v -3 0 -3
v -1 0 -3
v 2 0 -3
v 4 0 -3
v -1 1 3
v 2 1 3
v -3 1 1
v -1 1 1
v 2 1 1
v 4 1 1
v -1 1 -0
v 2 1 -0
v -3 1 -1
v -1 1 -1
v 2 1 -1
v 4 1 -1
v -1 1 -3
v 2 1 -3
v 4 2 2
v 5 2 2
v 5 2 1
v 6 2 1
v 5 2 -1
v 6 2 -1
v 4 2 -2
v 5 2 -2
v 5 3 2
v 6 3 2
v 5 3 1
v 6 3 1
v 5 3 -1
v 6 3 -1
v 5 3 -2
v 6 3 -2
v -5 4 1
v -3 4 1
v -5 4 -1
v -3 4 -1
v -6 5 1
v -5 5 1
v -6 5 -1
v -5 5 -1
v 2 6 4
v 3 6 4
v 2 6 3
v 3 6 3
v 2 6 -3
v 3 6 -3
v 2 6 -4
v 3 6 -4
v -5 7 1
v -4 7 1
v -5 7 -1
v -4 7 -1
v 4 4 2
v 6 4 2
v 5 4 1
v 6 4 1
v 5 4 -1
v 6 4 -1
v 4 4 -2
v 6 4 -2
v -4 5 1
v -3 5 1
v -4 5 -1
v -3 5 -1
v -3 6 3
v -2 6 3
v -3 6 2
v -2 6 2
v -5 6 1
v -4 6 1
v -5 6 -1
v -4 6 -1
v -3 6 -2
v -2 6 -2
v -3 6 -3
v -2 6 -3
v -2 7 3
v 2 7 3
v 3 7 3
v 4 7 3
v -3 7 2
v -2 7 2
v 2 7 2
v 3 7 2
v 3 7 1
v 4 7 1
v 3 7 -1
v 4 7 -1
v -3 7 -2
v -2 7 -2
v 2 7 -2
v 3 7 -2
v -2 7 -3
v 2 7 -3
v 3 7 -3
v 4 7 -3
v 2 8 3
v 3 8 3
v 2 8 2
v 3 8 2
v -6 8 1
v -4 8 1
v -6 8 -1
v -4 8 -1
v 2 8 -2
v 3 8 -2
v 2 8 -3
v 3 8 -3
v 2 9 4
v 3 9 4
v 2 9 3
v 3 9 3
v 2 9 -3
v 3 9 -3
v 2 9 -4
v 3 9 -4

# faces
f 3/1/1 2/1/1 1/1/1
f 4/1/1 2/1/1 3/1/1
f 7/1/1 6/1/1 5/1/1
f 8/1/1 6/1/1 7/1/1
f 13/3/1 10/3/1 9/3/1
f 14/3/1 10/3/1 13/3/1
f 15/3/1 12/3/1 11/3/1
f 16/3/1 12/3/1 15/3/1
f 17/2/1 14/2/1 13/2/1
f 17/2/1 15/2/1 14/2/1
f 17/2/1 16/2/1 15/2/1
f 18/2/1 16/2/1 17/2/1
f 19/2/1 17/2/1 13/2/1
f 20/2/1 16/2/1 18/2/1
f 21/2/1 19/2/1 13/2/1
f 21/2/1 20/2/1 19/2/1
f 22/2/1 20/2/1 21/2/1
f 23/2/1 16/2/1 20/2/1
f 23/2/1 20/2/1 22/2/1
f 24/2/1 16/2/1 23/2/1
f 25/2/1 23/2/1 22/2/1
f 26/2/1 23/2/1 25/2/1
f 31/2/1 28/2/1 27/2/1
f 32/2/1 28/2/1 31/2/1
f 33/2/1 30/2/1 29/2/1
f 34/2/1 30/2/1 33/2/1
f 39/3/1 36/3/1 35/3/1
f 40/3/1 36/3/1 39/3/1
f 41/3/1 38/3/1 37/3/1
f 42/3/1 38/3/1 41/3/1
f 47/1/1 44/1/1 43/1/1
f 50/1/1 46/1/1 45/1/1
f 51/1/1 48/1/1 47/1/1
f 51/1/1 47/1/1 43/1/1
f 52/1/1 48/1/1 51/1/1
f 53/1/1 50/1/1 49/1/1
f 54/1/1 46/1/1 50/1/1
f 54/1/1 50/1/1 53/1/1
f 55/1/1 51/1/1 43/1/1
f 56/1/1 51/1/1 55/1/1
f 57/1/1 46/1/1 54/1/1
f 58/1/1 46/1/1 57/1/1
f 59/1/2 60/1/2 61/1/2
f 61/1/2 60/1/2 62/1/2
f 63/1/2 64/1/2 65/1/2
f 65/1/2 64/1/2 66/1/2
f 67/1/2 68/1/2 69/1/2
f 69/1/2 68/1/2 70/1/2
f 71/3/2 72/3/2 75/3/2
f 75/3/2 72/3/2 76/3/2
f 73/3/2 74/3/2 77/3/2
f 77/3/2 74/3/2 78/3/2
f 79/1/2 80/1/2 83/1/2
f 81/1/2 82/1/2 86/1/2
f 83/1/2 84/1/2 87/1/2
f 79/1/2 83/1/2 87/1/2
f 87/1/2 84/1/2 88/1/2
f 85/1/2 86/1/2 89/1/2
f 86/1/2 82/1/2 90/1/2
f 89/1/2 86/1/2 90/1/2
f 79/1/2 87/1/2 91/1/2
f 91/1/2 87/1/2 92/1/2
f 90/1/2 82/1/2 93/1/2
f 93/1/2 82/1/2 94/1/2
f 95/3/2 96/3/2 99/3/2
f 99/3/2 96/3/2 100/3/2
f 100/3/2 96/3/2 101/3/2
f 97/3/2 98/3/2 102/3/2
f 102/3/2 98/3/2 103/3/2
f 103/3/2 98/3/2 104/3/2
f 99/2/2 100/2/2 105/2/2
f 100/1/2 101/1/2 106/1/2
f 105/2/2 100/2/2 106/2/2
f 101/1/2 102/1/2 106/1/2
f 102/1/2 103/1/2 106/1/2
f 103/2/2 104/2/2 107/2/2
f 106/1/2 103/1/2 107/1/2
f 107/2/2 104/2/2 108/2/2
f 105/1/2 106/1/2 109/1/2
f 107/1/2 108/1/2 110/1/2
f 105/1/2 109/1/2 111/1/2
f 109/1/2 110/1/2 111/1/2
f 111/1/2 110/1/2 112/1/2
f 112/1/2 110/1/2 113/1/2
f 113/1/2 110/1/2 114/1/2
f 110/1/2 108/1/2 115/1/2
f 114/1/2 110/1/2 115/1/2
f 115/1/2 108/1/2 116/1/2
f 111/4/2 112/4/2 117/4/2
f 112/5/2 113/5/2 118/5/2
f 117/4/2 112/4/2 118/4/2
f 113/1/2 114/1/2 119/1/2
f 118/5/2 113/5/2 119/5/2
f 114/4/2 115/4/2 120/4/2
f 119/1/2 114/1/2 120/1/2
f 115/5/2 116/5/2 121/5/2
f 120/4/2 115/4/2 121/4/2
f 121/5/2 116/5/2 122/5/2
f 117/1/2 118/1/2 123/1/2
f 118/1/2 119/1/2 123/1/2
f 119/2/2 120/2/2 124/2/2
f 123/1/2 119/1/2 124/1/2
f 121/1/2 122/1/2 125/1/2
f 124/2/2 120/2/2 125/2/2
f 120/1/2 121/1/2 125/1/2
f 125/1/2 122/1/2 126/1/2
f 127/1/2 128/1/2 131/1/2
f 131/1/2 128/1/2 132/1/2
f 129/1/2 130/1/2 133/1/2
f 133/1/2 130/1/2 134/1/2
f 135/1/2 136/1/2 138/1/2
f 138/1/2 136/1/2 139/1/2
f 137/1/2 138/1/2 141/1/2
f 138/5/2 139/5/2 142/5/2
f 141/1/2 138/1/2 142/1/2
f 139/1/2 140/1/2 143/1/2
f 142/5/2 139/5/2 143/5/2
f 143/1/2 140/1/2 144/1/2
f 147/1/3 146/1/3 145/1/3
f 148/1/3 146/1/3 147/1/3
f 152/2/3 151/2/3 150/2/3
f 154/3/3 150/3/3 149/3/3
f 155/2/3 153/2/3 152/2/3
f 155/3/3 150/3/3 154/3/3
f 155/2/3 152/2/3 150/2/3
f 157/2/3 153/2/3 155/2/3
f 158/2/3 153/2/3 157/2/3
f 159/2/3 153/2/3 158/2/3
f 160/2/3 153/2/3 159/2/3
f 161/2/3 158/2/3 157/2/3
f 162/1/3 159/1/3 158/1/3
f 162/2/3 158/2/3 161/2/3
f 163/1/3 159/1/3 162/1/3
f 164/1/3 159/1/3 163/1/3
f 166/3/3 157/3/3 156/3/3
f 167/2/3 161/2/3 157/2/3
f 167/3/3 157/3/3 166/3/3
f 168/1/3 162/1/3 161/1/3
f 168/2/3 161/2/3 167/2/3
f 168/1/3 163/1/3 162/1/3
f 169/4/3 164/4/3 163/4/3
f 169/1/3 163/1/3 168/1/3
f 170/1/3 165/1/3 164/1/3
f 170/4/3 164/4/3 169/4/3
f 171/1/3 165/1/3 170/1/3
f 174/2/3 173/2/3 172/2/3
f 175/2/3 173/2/3 174/2/3
f 178/1/3 177/1/3 176/1/3
f 179/1/3 177/1/3 178/1/3
f 180/1/3 177/1/3 179/1/3
f 181/1/3 177/1/3 180/1/3
f 185/1/3 183/1/3 182/1/3
f 186/1/3 183/1/3 185/1/3
f 187/1/3 183/1/3 186/1/3
f 188/1/3 185/1/3 184/1/3
f 188/1/3 186/1/3 185/1/3
f 189/1/3 186/1/3 188/1/3
f 190/1/3 183/1/3 187/1/3
f 191/1/3 183/1/3 190/1/3
f 192/1/3 188/1/3 184/1/3
f 193/1/3 188/1/3 192/1/3
f 196/1/3 195/1/3 194/1/3
f 197/1/3 195/1/3 196/1/3
f 200/3/3 199/3/3 198/3/3
f 201/3/3 199/3/3 200/3/3
f 204/3/3 203/3/3 202/3/3
f 205/3/3 203/3/3 204/3/3
f 208/1/3 207/1/3 206/1/3
f 209/1/3 207/1/3 208/1/3
f 212/1/3 211/1/3 210/1/3
f 213/1/3 211/1/3 212/1/3
f 214/1/4 215/1/4 216/1/4
f 216/1/4 215/1/4 217/1/4
f 218/1/4 219/1/4 220/1/4
f 220/1/4 219/1/4 221/1/4
f 222/3/4 223/3/4 224/3/4
f 224/3/4 223/3/4 225/3/4
f 226/3/4 227/3/4 228/3/4
f 228/3/4 227/3/4 229/3/4
f 230/1/4 231/1/4 233/1/4
f 233/1/4 231/1/4 234/1/4
f 234/1/4 231/1/4 235/1/4
f 232/1/4 233/1/4 236/1/4
f 233/1/4 234/1/4 236/1/4
f 236/1/4 234/1/4 237/1/4
f 235/1/4 231/1/4 238/1/4
f 238/1/4 231/1/4 239/1/4
f 232/1/4 236/1/4 240/1/4
f 240/1/4 236/1/4 241/1/4
f 242/1/4 243/1/4 244/1/4
f 244/1/4 243/1/4 245/1/4
f 246/2/4 247/2/4 248/2/4
f 248/2/4 247/2/4 249/2/4
f 250/1/4 251/1/4 252/1/4
f 252/1/4 251/1/4 253/1/4
f 253/1/4 251/1/4 254/1/4
f 254/1/4 251/1/4 255/1/4
f 257/2/4 258/2/4 259/2/4
f 256/3/4 257/3/4 261/3/4
f 259/2/4 260/2/4 262/2/4
f 261/3/4 257/3/4 262/3/4
f 257/2/4 259/2/4 262/2/4
f 262/2/4 260/2/4 264/2/4
f 264/2/4 260/2/4 265/2/4
f 265/2/4 260/2/4 266/2/4
f 266/2/4 260/2/4 267/2/4
f 264/2/4 265/2/4 268/2/4
f 265/1/4 266/1/4 269/1/4
f 268/2/4 265/2/4 269/2/4
f 269/1/4 266/1/4 270/1/4
f 270/1/4 266/1/4 271/1/4
f 263/3/4 264/3/4 273/3/4
f 264/2/4 268/2/4 274/2/4
f 273/3/4 264/3/4 274/3/4
f 268/1/4 269/1/4 275/1/4
f 274/2/4 268/2/4 275/2/4
f 269/1/4 270/1/4 275/1/4
f 270/5/4 271/5/4 276/5/4
f 275/1/4 270/1/4 276/1/4
f 271/1/4 272/1/4 277/1/4
f 276/5/4 271/5/4 277/5/4
f 277/1/4 272/1/4 278/1/4
f 279/1/4 280/1/4 281/1/4
f 281/1/4 280/1/4 282/1/4
f 287/3/5 284/3/5 283/3/5
f 288/3/5 284/3/5 287/3/5
f 289/3/5 286/3/5 285/3/5
f 290/3/5 286/3/5 289/3/5
f 295/3/5 292/3/5 291/3/5
f 296/3/5 292/3/5 295/3/5
f 297/3/5 294/3/5 293/3/5
f 298/3/5 294/3/5 297/3/5
f 302/2/5 300/2/5 299/2/5
f 303/2/5 300/2/5 302/2/5
f 305/2/5 302/2/5 301/2/5
f 305/2/5 303/2/5 302/2/5
f 306/1/5 304/1/5 303/1/5
f 306/2/5 303/2/5 305/2/5
f 307/2/5 305/2/5 301/2/5
f 308/1/5 306/1/5 305/1/5
f 308/2/5 305/2/5 307/2/5
f 309/1/5 304/1/5 306/1/5
f 309/1/5 306/1/5 308/1/5
f 310/1/5 304/1/5 309/1/5
f 311/2/5 309/2/5 308/2/5
f 312/2/5 309/2/5 311/2/5
f 315/1/5 314/1/5 313/1/5
f 317/1/5 315/1/5 313/1/5
f 317/1/5 316/1/5 315/1/5
f 318/1/5 316/1/5 317/1/5
f 319/1/5 317/1/5 313/1/5
f 320/1/5 317/1/5 319/1/5
f 323/1/5 322/1/5 321/1/5
f 324/1/5 322/1/5 323/1/5
f 327/1/5 326/1/5 325/1/5
f 328/1/5 326/1/5 327/1/5
f 331/1/5 330/1/5 329/1/5
f 332/1/5 330/1/5 331/1/5
f 335/1/5 334/1/5 333/1/5
f 336/1/5 334/1/5 335/1/5
f 339/1/5 338/1/5 337/1/5
f 340/1/5 338/1/5 339/1/5
f 343/1/5 342/1/5 341/1/5
f 344/1/5 342/1/5 343/1/5
f 347/1/5 346/1/5 345/1/5
f 348/1/5 346/1/5 347/1/5
f 349/1/6 350/1/6 351/1/6
f 351/1/6 350/1/6 352/1/6
f 349/1/6 351/1/6 353/1/6
f 351/5/6 352/5/6 353/5/6
f 353/5/6 352/5/6 354/5/6
f 349/1/6 353/1/6 355/1/6
f 353/1/6 354/1/6 355/1/6
f 355/1/6 354/1/6 356/1/6
f 357/1/6 358/1/6 359/1/6
f 359/1/6 358/1/6 360/1/6
f 361/2/6 362/2/6 363/2/6
f 363/2/6 362/2/6 364/2/6
f 365/1/6 366/1/6 367/1/6
f 367/1/6 366/1/6 368/1/6
f 369/2/6 370/2/6 371/2/6
f 371/2/6 370/2/6 372/2/6
f 373/2/6 374/2/6 378/2/6
f 378/2/6 374/2/6 379/2/6
f 375/1/6 376/1/6 380/1/6
f 378/2/6 379/2/6 381/2/6
f 379/2/6 380/2/6 381/2/6
f 380/1/6 376/1/6 381/1/6
f 377/2/6 378/2/6 381/2/6
f 381/1/6 376/1/6 382/1/6
f 377/2/6 381/2/6 383/2/6
f 381/2/6 382/2/6 383/2/6
f 383/2/6 382/2/6 384/2/6
f 377/2/6 383/2/6 385/2/6
f 385/2/6 383/2/6 386/2/6
f 386/2/6 383/2/6 387/2/6
f 383/1/6 384/1/6 388/1/6
f 387/2/6 383/2/6 388/2/6
f 386/2/6 387/2/6 389/2/6
f 389/2/6 387/2/6 390/2/6
f 388/1/6 384/1/6 391/1/6
f 391/1/6 384/1/6 392/1/6
f 393/1/6 394/1/6 395/1/6
f 395/1/6 394/1/6 396/1/6
f 397/1/6 398/1/6 399/1/6
f 399/1/6 398/1/6 400/1/6
f 401/1/6 402/1/6 403/1/6
f 403/1/6 402/1/6 404/1/6
f 405/1/6 406/1/6 407/1/6
f 407/1/6 406/1/6 408/1/6
f 409/1/6 410/1/6 411/1/6
f 411/1/6 410/1/6 412/1/6
