# MagicaVoxel @ Ephtracy

# material
mtllib half.mtl
usemtl palette

# normals
vn -1 0 0
vn 1 0 0
vn 0 0 1
vn 0 0 -1
vn 0 -1 0
vn 0 1 0

# texcoords
vt 0.470703 0.5
vt 0.810547 0.5
vt 0.958984 0.5
vt 0.986328 0.5
vt 0.990234 0.5

# verts
v -3 1 2
v -3 1 1
v -3 1 -2
v -3 2 3
v -3 2 2
v -3 2 1
v -3 2 -1
v -3 2 -2
v -3 2 -3
v -3 6 3
v -3 6 2
v -3 6 -2
v -3 6 -3
v -3 7 2
v -3 7 -1
v -3 7 -2
v -2 1 3
v -2 1 2
v -2 1 -2
v -2 1 -3
v -2 2 3
v -2 2 2
v -2 2 -2
v -2 2 -3
v -2 6 3
v -2 6 2
v -2 6 -2
v -2 6 -3
v -2 7 3
v -2 7 2
v -2 7 -2
v -2 7 -3
v -1 0 3
v -1 0 1
v -1 0 -1
v -1 0 -3
v -1 1 3
v -1 1 1
v -1 1 -1
v -1 1 -3
v 0 7 2
v 0 7 1
v 0 7 -1
v 0 7 -2
v 0 8 2
v 0 8 1
v 0 8 -1
v 0 8 -2
v 1 0 3
v 1 0 1
v 1 0 -1
v 1 0 -3
v 1 1 3
v 1 1 1
v 1 1 -1
v 1 1 -3
v 1 7 2
v 1 7 1
v 1 7 -1
v 1 7 -2
v 1 8 2
v 1 8 1
v 1 8 -1
v 1 8 -2
v 2 1 3
v 2 1 2
v 2 1 -2
v 2 1 -3
v 2 2 3
v 2 2 2
v 2 2 -2
v 2 2 -3
v 2 6 3
v 2 6 2
v 2 6 -2
v 2 6 -3
v 2 7 3
v 2 7 2
v 2 7 -2
v 2 7 -3
v 3 1 2
v 3 1 1
v 3 1 -2
v 3 2 3
v 3 2 2
v 3 2 -2
v 3 2 -3
v 3 4 2
v 3 4 1
v 3 4 -0
v 3 4 -1
v 3 4 -2
v 3 5 2
v 3 5 1
v 3 5 -1
v 3 5 -2
v 3 6 3
v 3 6 2
v 3 6 -0
v 3 6 -1
v 3 6 -2
v 3 6 -3
v 3 7 2
v 3 7 -1
v 3 7 -2
v -3 2 3
v -3 6 3
v -2 1 3
v -2 2 3
v -2 6 3
v -2 7 3
v -1 0 3
v -1 1 3
v 1 0 3
v 1 1 3
v 2 1 3
v 2 2 3
v 2 6 3
v 2 7 3
v 3 2 3
v 3 6 3
v -3 1 2
v -3 2 2
v -3 6 2
v -3 7 2
v -2 1 2
v -2 2 2
v -2 6 2
v -2 7 2
v 0 7 2
v 0 8 2
v 1 7 2
v 1 8 2
v 2 1 2
v 2 2 2
v 2 6 2
v 2 7 2
v 3 1 2
v 3 2 2
v 3 6 2
v 3 7 2
v -1 0 -1
v -1 1 -1
v 0 7 -1
v 0 8 -1
v 1 0 -1
v 1 1 -1
v 1 7 -1
v 1 8 -1
v -1 0 1
v -1 1 1
v 0 7 1
v 0 8 1
v 1 0 1
v 1 1 1
v 1 7 1
v 1 8 1
v -3 1 -2
v -3 2 -2
v -3 6 -2
v -3 7 -2
v -2 1 -2
v -2 2 -2
v -2 6 -2
v -2 7 -2
v 0 7 -2
v 0 8 -2
v 1 7 -2
v 1 8 -2
v 2 1 -2
v 2 2 -2
v 2 6 -2
v 2 7 -2
v 3 1 -2
v 3 2 -2
v 3 6 -2
v 3 7 -2
v -3 2 -3
v -3 6 -3
v -2 1 -3
v -2 2 -3
v -2 6 -3
v -2 7 -3
v -1 0 -3
v -1 1 -3
v 1 0 -3
v 1 1 -3
v 2 1 -3
v 2 2 -3
v 2 6 -3
v 2 7 -3
v 3 2 -3
v 3 6 -3
v -1 0 3
v 1 0 3
v -1 0 1
v 1 0 1
v -1 0 -1
v 1 0 -1
v -1 0 -3
v 1 0 -3
v -2 1 3
v -1 1 3
v 1 1 3
v 2 1 3
v -3 1 2
v -2 1 2
v 2 1 2
v 3 1 2
v -3 1 1
v -1 1 1
v 1 1 1
v 3 1 1
v -1 1 -1
v 1 1 -1
v -3 1 -2
v -2 1 -2
v 2 1 -2
v 3 1 -2
v -2 1 -3
v -1 1 -3
v 1 1 -3
v 2 1 -3
v -3 2 3
v -2 2 3
v 2 2 3
v 3 2 3
v -3 2 2
v -2 2 2
v 2 2 2
v 3 2 2
v -3 2 -2
v -2 2 -2
v 2 2 -2
v 3 2 -2
v -3 2 -3
v -2 2 -3
v 2 2 -3
v 3 2 -3
v -3 6 3
v -2 6 3
v 2 6 3
v 3 6 3
v -3 6 2
v -2 6 2
v 2 6 2
v 3 6 2
v -3 6 -2
v -2 6 -2
v 2 6 -2
v 3 6 -2
v -3 6 -3
v -2 6 -3
v 2 6 -3
v 3 6 -3
v -2 7 3
v 2 7 3
v -3 7 2
v -2 7 2
v 0 7 2
v 1 7 2
v 2 7 2
v 3 7 2
v 0 7 1
v 1 7 1
v -3 7 -1
v 0 7 -1
v 1 7 -1
v 3 7 -1
v -3 7 -2
v -2 7 -2
v 0 7 -2
v 1 7 -2
v 2 7 -2
v 3 7 -2
v -2 7 -3
v 2 7 -3
v 0 8 2
v 1 8 2
v 0 8 1
v 1 8 1
v 0 8 -1
v 1 8 -1
v 0 8 -2
v 1 8 -2

# faces
f 5/3/1 2/3/1 1/3/1
f 6/5/1 3/5/1 2/5/1
f 6/3/1 2/3/1 5/3/1
f 7/5/1 3/5/1 6/5/1
f 8/5/1 3/5/1 7/5/1
f 10/3/1 5/3/1 4/3/1
f 10/3/1 6/3/1 5/3/1
f 10/3/1 7/3/1 6/3/1
f 11/3/1 7/3/1 10/3/1
f 12/5/1 9/5/1 8/5/1
f 12/5/1 8/5/1 7/5/1
f 13/5/1 9/5/1 12/5/1
f 14/3/1 7/3/1 11/3/1
f 15/5/1 12/5/1 7/5/1
f 15/3/1 7/3/1 14/3/1
f 16/5/1 12/5/1 15/5/1
f 21/3/1 18/3/1 17/3/1
f 22/3/1 18/3/1 21/3/1
f 23/5/1 20/5/1 19/5/1
f 24/5/1 20/5/1 23/5/1
f 29/3/1 26/3/1 25/3/1
f 30/3/1 26/3/1 29/3/1
f 31/5/1 28/5/1 27/5/1
f 32/5/1 28/5/1 31/5/1
f 37/4/1 34/4/1 33/4/1
f 38/4/1 34/4/1 37/4/1
f 39/4/1 36/4/1 35/4/1
f 40/4/1 36/4/1 39/4/1
f 45/3/1 42/3/1 41/3/1
f 46/3/1 42/3/1 45/3/1
f 47/5/1 44/5/1 43/5/1
f 48/5/1 44/5/1 47/5/1
f 49/4/2 50/4/2 53/4/2
f 53/4/2 50/4/2 54/4/2
f 51/4/2 52/4/2 55/4/2
f 55/4/2 52/4/2 56/4/2
f 57/3/2 58/3/2 61/3/2
f 61/3/2 58/3/2 62/3/2
f 59/5/2 60/5/2 63/5/2
f 63/5/2 60/5/2 64/5/2
f 65/3/2 66/3/2 69/3/2
f 69/3/2 66/3/2 70/3/2
f 67/5/2 68/5/2 71/5/2
f 71/5/2 68/5/2 72/5/2
f 73/3/2 74/3/2 77/3/2
f 77/3/2 74/3/2 78/3/2
f 75/5/2 76/5/2 79/5/2
f 79/5/2 76/5/2 80/5/2
f 81/3/2 82/3/2 85/3/2
f 82/5/2 83/5/2 86/5/2
f 84/3/2 85/3/2 88/3/2
f 85/3/2 82/3/2 88/3/2
f 86/5/2 87/5/2 89/5/2
f 88/3/2 82/3/2 89/3/2
f 82/5/2 86/5/2 89/5/2
f 89/5/2 87/5/2 90/5/2
f 90/5/2 87/5/2 91/5/2
f 91/5/2 87/5/2 92/5/2
f 84/3/2 88/3/2 93/3/2
f 88/2/2 89/2/2 93/2/2
f 89/3/2 90/3/2 94/3/2
f 93/2/2 89/2/2 94/2/2
f 91/1/2 92/1/2 95/1/2
f 90/5/2 91/5/2 95/5/2
f 92/5/2 87/5/2 96/5/2
f 95/1/2 92/1/2 96/1/2
f 84/3/2 93/3/2 97/3/2
f 93/3/2 94/3/2 97/3/2
f 97/3/2 94/3/2 98/3/2
f 90/5/2 95/5/2 99/5/2
f 98/3/2 94/3/2 99/3/2
f 94/3/2 90/3/2 99/3/2
f 95/5/2 96/5/2 99/5/2
f 99/5/2 96/5/2 100/5/2
f 96/5/2 87/5/2 101/5/2
f 100/5/2 96/5/2 101/5/2
f 101/5/2 87/5/2 102/5/2
f 99/3/2 100/3/2 103/3/2
f 98/3/2 99/3/2 103/3/2
f 100/5/2 101/5/2 104/5/2
f 103/3/2 100/3/2 104/3/2
f 104/5/2 101/5/2 105/5/2
f 109/3/3 107/3/3 106/3/3
f 110/3/3 107/3/3 109/3/3
f 113/3/3 109/3/3 108/3/3
f 113/3/3 111/3/3 110/3/3
f 113/3/3 110/3/3 109/3/3
f 114/4/3 113/4/3 112/4/3
f 115/3/3 111/3/3 113/3/3
f 115/4/3 113/4/3 114/4/3
f 116/3/3 111/3/3 115/3/3
f 117/3/3 111/3/3 116/3/3
f 118/3/3 111/3/3 117/3/3
f 119/3/3 111/3/3 118/3/3
f 120/3/3 118/3/3 117/3/3
f 121/3/3 118/3/3 120/3/3
f 126/3/3 123/3/3 122/3/3
f 127/3/3 123/3/3 126/3/3
f 128/3/3 125/3/3 124/3/3
f 129/3/3 125/3/3 128/3/3
f 132/3/3 131/3/3 130/3/3
f 133/3/3 131/3/3 132/3/3
f 138/3/3 135/3/3 134/3/3
f 139/3/3 135/3/3 138/3/3
f 140/3/3 137/3/3 136/3/3
f 141/3/3 137/3/3 140/3/3
f 146/4/3 143/4/3 142/4/3
f 147/4/3 143/4/3 146/4/3
f 148/5/3 145/5/3 144/5/3
f 149/5/3 145/5/3 148/5/3
f 150/4/4 151/4/4 154/4/4
f 154/4/4 151/4/4 155/4/4
f 152/3/4 153/3/4 156/3/4
f 156/3/4 153/3/4 157/3/4
f 158/5/4 159/5/4 162/5/4
f 162/5/4 159/5/4 163/5/4
f 160/5/4 161/5/4 164/5/4
f 164/5/4 161/5/4 165/5/4
f 166/5/4 167/5/4 168/5/4
f 168/5/4 167/5/4 169/5/4
f 170/5/4 171/5/4 174/5/4
f 174/5/4 171/5/4 175/5/4
f 172/5/4 173/5/4 176/5/4
f 176/5/4 173/5/4 177/5/4
f 178/5/4 179/5/4 181/5/4
f 181/5/4 179/5/4 182/5/4
f 180/5/4 181/5/4 185/5/4
f 182/5/4 183/5/4 185/5/4
f 181/5/4 182/5/4 185/5/4
f 184/4/4 185/4/4 186/4/4
f 185/5/4 183/5/4 187/5/4
f 186/4/4 185/4/4 187/4/4
f 187/5/4 183/5/4 188/5/4
f 188/5/4 183/5/4 189/5/4
f 189/5/4 183/5/4 190/5/4
f 190/5/4 183/5/4 191/5/4
f 189/5/4 190/5/4 192/5/4
f 192/5/4 190/5/4 193/5/4
f 196/4/5 195/4/5 194/4/5
f 197/4/5 195/4/5 196/4/5
f 200/4/5 199/4/5 198/4/5
f 201/4/5 199/4/5 200/4/5
f 207/3/5 203/3/5 202/3/5
f 208/3/5 205/3/5 204/3/5
f 210/3/5 207/3/5 206/3/5
f 211/3/5 203/3/5 207/3/5
f 211/3/5 207/3/5 210/3/5
f 212/3/5 209/3/5 208/3/5
f 212/3/5 208/3/5 204/3/5
f 213/3/5 209/3/5 212/3/5
f 214/5/5 211/5/5 210/5/5
f 214/5/5 212/5/5 211/5/5
f 214/5/5 213/5/5 212/5/5
f 215/5/5 213/5/5 214/5/5
f 216/5/5 214/5/5 210/5/5
f 217/5/5 214/5/5 216/5/5
f 218/5/5 213/5/5 215/5/5
f 219/5/5 213/5/5 218/5/5
f 220/5/5 214/5/5 217/5/5
f 221/5/5 214/5/5 220/5/5
f 222/5/5 218/5/5 215/5/5
f 223/5/5 218/5/5 222/5/5
f 228/3/5 225/3/5 224/3/5
f 229/3/5 225/3/5 228/3/5
f 230/3/5 227/3/5 226/3/5
f 231/3/5 227/3/5 230/3/5
f 236/5/5 233/5/5 232/5/5
f 237/5/5 233/5/5 236/5/5
f 238/5/5 235/5/5 234/5/5
f 239/5/5 235/5/5 238/5/5
f 240/3/6 241/3/6 244/3/6
f 244/3/6 241/3/6 245/3/6
f 242/3/6 243/3/6 246/3/6
f 246/3/6 243/3/6 247/3/6
f 248/5/6 249/5/6 252/5/6
f 252/5/6 249/5/6 253/5/6
f 250/5/6 251/5/6 254/5/6
f 254/5/6 251/5/6 255/5/6
f 256/3/6 257/3/6 259/3/6
f 259/3/6 257/3/6 260/3/6
f 260/3/6 257/3/6 261/3/6
f 261/3/6 257/3/6 262/3/6
f 258/3/6 259/3/6 264/3/6
f 259/3/6 260/3/6 264/3/6
f 262/3/6 263/3/6 265/3/6
f 261/3/6 262/3/6 265/3/6
f 258/3/6 264/3/6 266/3/6
f 264/3/6 265/3/6 266/3/6
f 266/3/6 265/3/6 267/3/6
f 265/3/6 263/3/6 268/3/6
f 267/3/6 265/3/6 268/3/6
f 268/3/6 263/3/6 269/3/6
f 266/5/6 267/5/6 270/5/6
f 270/5/6 267/5/6 271/5/6
f 271/5/6 267/5/6 272/5/6
f 268/5/6 269/5/6 273/5/6
f 273/5/6 269/5/6 274/5/6
f 274/5/6 269/5/6 275/5/6
f 271/5/6 272/5/6 276/5/6
f 273/5/6 274/5/6 276/5/6
f 272/5/6 273/5/6 276/5/6
f 276/5/6 274/5/6 277/5/6
f 278/3/6 279/3/6 280/3/6
f 280/3/6 279/3/6 281/3/6
f 282/5/6 283/5/6 284/5/6
f 284/5/6 283/5/6 285/5/6
